<svg width="179" height="165" viewBox="0 0 179 165" version="1.1" xmlns="http://www.w3.org/2000/svg" xmlns:xlink="http://www.w3.org/1999/xlink">
<title>inverse-kinematics-sideview</title>
<desc>Created using Figma</desc>
<g id="Canvas" transform="translate(-317 213)">
<clipPath id="clip-0" clip-rule="evenodd">
<path d="M 317 -213L 496 -213L 496 -48L 317 -48L 317 -213Z" fill="#FFFFFF"/>
</clipPath>
<g id="inverse-kinematics-sideview" clip-path="url(#clip-0)">
<path d="M 317 -213L 496 -213L 496 -48L 317 -48L 317 -213Z" fill="#FFFFFF"/>
<g id="Ellipse 7">
<use xlink:href="#path0_stroke" transform="translate(427.5 -80)" fill="#2D9CDB"/>
</g>
<g id="Line 4">
<use xlink:href="#path1_stroke" transform="matrix(0.707107 0.707107 -0.707107 0.707107 341 -193.75)" fill="#2D9CDB"/>
</g>
<g id="Ellipse 10">
<use xlink:href="#path2_stroke" transform="translate(417 -90)" fill="#2D9CDB"/>
</g>
<g id="Ellipse 8">
<use xlink:href="#path3_stroke" transform="translate(436.267 -166.667)" fill="#2D9CDB"/>
</g>
<g id="Ellipse 6">
<use xlink:href="#path4_stroke" transform="translate(421.5 -102.25)" fill="#2D9CDB"/>
</g>
<g id="Ellipse 6">
<use xlink:href="#path5_stroke" transform="translate(423.072 -100.21)" fill="#2D9CDB"/>
</g>
<g id="Line 4">
<use xlink:href="#path6_stroke" transform="matrix(0.707107 0.707107 -0.707107 0.707107 434.25 -173)" fill="#2D9CDB"/>
</g>
<g id="Line 5">
<use xlink:href="#path7_stroke" transform="translate(341 -89.75)" fill="#2D9CDB"/>
</g>
<g id="X3">
<use xlink:href="#path8_fill" transform="translate(372 -88.25)"/>
</g>
<g id="Z3">
<use xlink:href="#path9_fill" transform="translate(323 -157.25)"/>
</g>
<g id="dfoot">
<use xlink:href="#path10_fill" transform="translate(371 -140.25)"/>
</g>
<g id="Lenupperleg = Lenlowerleg">
<use xlink:href="#path11_fill" transform="translate(400 -191.25)"/>
</g>
<g id="Llowerleg">
<use xlink:href="#path12_fill" transform="translate(440 -132.25)"/>
</g>
<g id="&#206;&#177;">
<use xlink:href="#path13_fill" transform="translate(350 -169.25)"/>
</g>
<g id="&#206;&#178;">
<use xlink:href="#path14_fill" transform="translate(365 -182.25)"/>
</g>
<g id="&#206;&#178;">
<use xlink:href="#path14_fill" transform="translate(421 -118.25)"/>
</g>
<g id="2&#206;&#178;">
<use xlink:href="#path15_fill" transform="translate(441 -158.25)"/>
</g>
<g id="90&#194;&#186;-&#206;&#177;">
<use xlink:href="#path16_fill" transform="translate(390 -105.25)"/>
</g>
<g id="90&#194;&#186;+&#206;&#177;-&#206;&#178;">
<use xlink:href="#path17_fill" transform="translate(389 -78.25)"/>
</g>
<g id="foot">
<use xlink:href="#path18_fill" transform="translate(449 -91)"/>
</g>
<g id="Arrow">
<use xlink:href="#path19_stroke" transform="matrix(6.12323e-17 1 1 -6.12323e-17 341 -204.25)"/>
</g>
<g id="Arrow">
<use xlink:href="#path20_stroke" transform="matrix(1 -2.67189e-24 -2.67189e-24 -1 330.5 -193.75)"/>
</g>
<g id="x axis">
<use xlink:href="#path21_fill" transform="translate(472 -207.25)"/>
</g>
<g id="z axis">
<use xlink:href="#path22_fill" transform="translate(317 -57.25)"/>
</g>
<g id="Hip">
<use xlink:href="#path23_fill" transform="translate(319 -213.25)"/>
</g>
<g id="Line 4">
<use xlink:href="#path24_stroke" transform="matrix(0.707107 0.707107 -0.707107 0.707107 453 -184.75)"/>
</g>
<g id="Line 4">
<use xlink:href="#path25_stroke" transform="matrix(0.707107 0.707107 -0.707107 0.707107 377.75 -230)"/>
</g>
<g id="Line 4">
<use xlink:href="#path26_stroke" transform="matrix(0.707107 0.707107 -0.707107 0.707107 437.5 -169.75)"/>
</g>
<g id="Line 4">
<use xlink:href="#path27_stroke" transform="matrix(0.707107 0.707107 -0.707107 0.707107 429.5 -89.75)"/>
</g>
<g id="Line 4">
<use xlink:href="#path28_stroke" transform="matrix(0.733859 0.679301 -0.679301 0.733859 431.243 -92.4)"/>
</g>
<g id="Group">
<g id="Line 6">
<use xlink:href="#path29_stroke" transform="matrix(5.85701e-17 1 -1 6.40156e-17 347 -96.25)"/>
</g>
</g>
<g id="Ellipse 3">
<use xlink:href="#path30_stroke" transform="translate(366.834 -183.75)" fill="#2D9CDB"/>
</g>
<g id="Group">
<g id="Line 6">
<use xlink:href="#path29_stroke" transform="matrix(0.671156 0.741317 -0.741317 0.671156 394.211 -140.487)" fill="#2D9CDB"/>
</g>
</g>
<g id="Ellipse 4">
<use xlink:href="#path31_stroke" transform="translate(365 -184.25)" fill="#2D9CDB"/>
</g>
<g id="Ellipse 5">
<use xlink:href="#path32_stroke" transform="translate(341 -164.25)" fill="#2D9CDB"/>
</g>
<g id="Ellipse 6">
<use xlink:href="#path33_stroke" transform="translate(415 -101.25)" fill="#2D9CDB"/>
</g>
<g id="text2175">
<use xlink:href="#path34_fill" transform="translate(436 -72)"/>
</g>
</g>
</g>
<defs>
<path id="path0_stroke" d="M 14.8451 -0.294427C 11.8441 3.82463 6.9845 6.5 1.5 6.5L 1.5 7.5C 7.31765 7.5 12.4722 4.66071 15.6533 0.294427L 14.8451 -0.294427ZM 1.5 6.5C 1.00556 6.50012 0.527035 6.47902 0.043546 6.43663L -0.043546 7.43283C 0.461447 7.47686 0.983529 7.49988 1.5 7.5L 1.5 6.5Z"/>
<path id="path1_stroke" d="M -0.0401299 0.498387L 1.43941 0.617519L 1.51967 -0.379255L 0.0401299 -0.498387L -0.0401299 0.498387ZM 4.3985 0.855783L 7.35759 1.09405L 7.43785 0.0972736L 4.47876 -0.140991L 4.3985 0.855783ZM 10.3167 1.33231L 13.2758 1.57058L 13.356 0.573802L 10.3969 0.335538L 10.3167 1.33231ZM 16.2349 1.80884L 19.1939 2.0471L 19.2742 1.05033L 16.3151 0.812066L 16.2349 1.80884ZM 22.153 2.28537L 25.1121 2.52363L 25.1924 1.52686L 22.2333 1.28859L 22.153 2.28537ZM 28.0712 2.7619L 31.0303 3.00016L 31.1106 2.00339L 28.1515 1.76512L 28.0712 2.7619ZM 33.9894 3.23843L 36.9485 3.47669L 37.0287 2.47992L 34.0696 2.24165L 33.9894 3.23843ZM 39.9076 3.71495L 42.8666 3.95322L 42.9469 2.95644L 39.9878 2.71818L 39.9076 3.71495ZM 45.8257 4.19148L 48.7848 4.42975L 48.8651 3.43297L 45.906 3.19471L 45.8257 4.19148ZM 51.7439 4.66801L 54.703 4.90628L 54.7833 3.9095L 51.8242 3.67124L 51.7439 4.66801ZM 57.6621 5.14454L 60.6212 5.3828L 60.7014 4.38603L 57.7424 4.14777L 57.6621 5.14454ZM 63.5803 5.62107L 66.5394 5.85933L 66.6196 4.86256L 63.6605 4.62429L 63.5803 5.62107ZM 69.4984 6.0976L 72.4575 6.33586L 72.5378 5.33909L 69.5787 5.10082L 69.4984 6.0976ZM 75.4166 6.57413L 78.3757 6.81239L 78.456 5.81562L 75.4969 5.57735L 75.4166 6.57413ZM 81.3348 7.05065L 84.2939 7.28892L 84.3741 6.29214L 81.4151 6.05388L 81.3348 7.05065ZM 87.253 7.52718L 90.2121 7.76545L 90.2923 6.76867L 87.3332 6.53041L 87.253 7.52718ZM 93.1712 8.00371L 96.1302 8.24197L 96.2105 7.2452L 93.2514 7.00694L 93.1712 8.00371ZM 99.0893 8.48024L 102.048 8.7185L 102.129 7.72173L 99.1696 7.48347L 99.0893 8.48024ZM 105.007 8.95677L 107.967 9.19503L 108.047 8.19826L 105.088 7.95999L 105.007 8.95677ZM 110.926 9.4333L 113.885 9.67156L 113.965 8.67479L 111.006 8.43652L 110.926 9.4333ZM 116.844 9.90983L 119.803 10.1481L 119.883 9.15132L 116.924 8.91305L 116.844 9.90983ZM 122.762 10.3864L 125.721 10.6246L 125.801 9.62784L 122.842 9.38958L 122.762 10.3864ZM 128.68 10.8629L 131.639 11.1011L 131.72 10.1044L 128.76 9.86611L 128.68 10.8629ZM 134.598 11.3394L 136.078 11.4585L 136.158 10.4618L 134.679 10.3426L 134.598 11.3394Z"/>
<path id="path2_stroke" d="M 0.5 1C 0.499892 0.673638 0.512913 0.360683 0.539381 0.0411095L -0.457233 -0.0411095C -0.48517 0.298783 -0.499892 0.652856 -0.5 1L 0.5 1ZM 11.0411 12.4606C 5.13875 11.9737 0.5 7.0283 0.5 1L -0.5 1C -0.5 7.55302 4.54219 12.9279 10.9589 13.4572L 11.0411 12.4606Z"/>
<path id="path3_stroke" d="M 1.73342 8.9171C 1.16251 8.91739 0.616924 8.8806 0.066038 8.80693L -0.066038 9.79817C 0.517207 9.87561 1.12887 9.91682 1.73342 9.9171L 1.73342 8.9171ZM 13.7527 -0.137531C 12.2569 5.09093 7.44131 8.9171 1.73342 8.9171L 1.73342 9.9171C 7.89945 9.9171 13.0988 5.78368 14.7141 0.137531L 13.7527 -0.137531Z"/>
<path id="path4_stroke" d="M 0.354163 3.88241C 2.42235 1.80707 5.7957 0.5 9 0.5L 9 -0.5C 5.5619 -0.5 1.92311 0.89138 -0.354163 3.17652L 0.354163 3.88241Z"/>
<path id="path5_stroke" d="M 0.324761 3.34024C 2.20456 1.72535 4.81077 0.703197 7.46701 0.498442L 7.38811 -0.498442C 4.58608 -0.271232 1.68989 0.867964 -0.324761 2.5799L 0.324761 3.34024Z"/>
<path id="path6_stroke" d="M 0.498378 56.9623L 0.613283 55.5393L -0.383473 55.4588L -0.498378 56.8818L 0.498378 56.9623ZM 0.843093 52.6932L 1.0729 49.8471L 0.0761463 49.7666L -0.153663 52.6127L 0.843093 52.6932ZM 1.30271 47.001L 1.53252 44.1549L 0.535766 44.0744L 0.305956 46.9205L 1.30271 47.001ZM 1.76233 41.3088L 1.99214 38.4626L 0.995385 38.3822L 0.765575 41.2283L 1.76233 41.3088ZM 2.22195 35.6165L 2.45176 32.7704L 1.455 32.69L 1.22519 35.5361L 2.22195 35.6165ZM 2.68157 29.9243L 2.91138 27.0782L 1.91462 26.9977L 1.68481 29.8438L 2.68157 29.9243ZM 3.14119 24.2321L 3.371 21.386L 2.37424 21.3055L 2.14443 24.1516L 3.14119 24.2321ZM 3.60081 18.5399L 3.83062 15.6938L 2.83386 15.6133L 2.60405 18.4594L 3.60081 18.5399ZM 4.06043 12.8477L 4.29024 10.0016L 3.29348 9.92112L 3.06367 12.7672L 4.06043 12.8477ZM 4.52005 7.1555L 4.74986 4.3094L 3.7531 4.22891L 3.52329 7.07502L 4.52005 7.1555ZM 4.97967 1.46329L 5.09457 0.0402417L 4.09782 -0.0402417L 3.98291 1.38281L 4.97967 1.46329Z"/>
<path id="path7_stroke" d="M 0 0.25L 1.475 0.25L 1.475 -0.25L 0 -0.25L 0 0.25ZM 4.425 0.25L 7.375 0.25L 7.375 -0.25L 4.425 -0.25L 4.425 0.25ZM 10.325 0.25L 13.275 0.25L 13.275 -0.25L 10.325 -0.25L 10.325 0.25ZM 16.225 0.25L 19.175 0.25L 19.175 -0.25L 16.225 -0.25L 16.225 0.25ZM 22.125 0.25L 25.075 0.25L 25.075 -0.25L 22.125 -0.25L 22.125 0.25ZM 28.025 0.25L 30.975 0.25L 30.975 -0.25L 28.025 -0.25L 28.025 0.25ZM 33.925 0.25L 36.875 0.25L 36.875 -0.25L 33.925 -0.25L 33.925 0.25ZM 39.825 0.25L 42.775 0.25L 42.775 -0.25L 39.825 -0.25L 39.825 0.25ZM 45.725 0.25L 48.675 0.25L 48.675 -0.25L 45.725 -0.25L 45.725 0.25ZM 51.625 0.25L 54.575 0.25L 54.575 -0.25L 51.625 -0.25L 51.625 0.25ZM 57.525 0.25L 60.475 0.25L 60.475 -0.25L 57.525 -0.25L 57.525 0.25ZM 63.425 0.25L 66.375 0.25L 66.375 -0.25L 63.425 -0.25L 63.425 0.25ZM 69.325 0.25L 72.275 0.25L 72.275 -0.25L 69.325 -0.25L 69.325 0.25ZM 75.225 0.25L 78.175 0.25L 78.175 -0.25L 75.225 -0.25L 75.225 0.25ZM 81.125 0.25L 84.075 0.25L 84.075 -0.25L 81.125 -0.25L 81.125 0.25ZM 87.025 0.25L 88.5 0.25L 88.5 -0.25L 87.025 -0.25L 87.025 0.25ZM 0 0.5L 1.475 0.5L 1.475 -0.5L 0 -0.5L 0 0.5ZM 4.425 0.5L 7.375 0.5L 7.375 -0.5L 4.425 -0.5L 4.425 0.5ZM 10.325 0.5L 13.275 0.5L 13.275 -0.5L 10.325 -0.5L 10.325 0.5ZM 16.225 0.5L 19.175 0.5L 19.175 -0.5L 16.225 -0.5L 16.225 0.5ZM 22.125 0.5L 25.075 0.5L 25.075 -0.5L 22.125 -0.5L 22.125 0.5ZM 28.025 0.5L 30.975 0.5L 30.975 -0.5L 28.025 -0.5L 28.025 0.5ZM 33.925 0.5L 36.875 0.5L 36.875 -0.5L 33.925 -0.5L 33.925 0.5ZM 39.825 0.5L 42.775 0.5L 42.775 -0.5L 39.825 -0.5L 39.825 0.5ZM 45.725 0.5L 48.675 0.5L 48.675 -0.5L 45.725 -0.5L 45.725 0.5ZM 51.625 0.5L 54.575 0.5L 54.575 -0.5L 51.625 -0.5L 51.625 0.5ZM 57.525 0.5L 60.475 0.5L 60.475 -0.5L 57.525 -0.5L 57.525 0.5ZM 63.425 0.5L 66.375 0.5L 66.375 -0.5L 63.425 -0.5L 63.425 0.5ZM 69.325 0.5L 72.275 0.5L 72.275 -0.5L 69.325 -0.5L 69.325 0.5ZM 75.225 0.5L 78.175 0.5L 78.175 -0.5L 75.225 -0.5L 75.225 0.5ZM 81.125 0.5L 84.075 0.5L 84.075 -0.5L 81.125 -0.5L 81.125 0.5ZM 87.025 0.5L 88.5 0.5L 88.5 -0.5L 87.025 -0.5L 87.025 0.5Z"/>
<path id="path8_fill" d="M 3.77344 5.73828L 5.81836 2.46875L 7.14258 2.46875L 4.44727 6.69922L 7.20703 11L 5.87109 11L 3.77344 7.67188L 1.66406 11L 0.333984 11L 3.09961 6.69922L 0.398438 2.46875L 1.7168 2.46875L 3.77344 5.73828ZM 8.94531 8.2041L 9.35547 8.20752C 9.65625 8.20752 9.90918 8.12891 10.1143 7.97168C 10.3216 7.81217 10.4401 7.59684 10.4697 7.32568C 10.4993 7.06136 10.4504 6.854 10.3228 6.70361C 10.1951 6.55094 10.0094 6.47233 9.76562 6.46777C 9.50586 6.46322 9.28483 6.53955 9.10254 6.69678C 8.92253 6.85173 8.81201 7.06136 8.771 7.32568L 8.15918 7.3291C 8.19792 6.91895 8.37223 6.58626 8.68213 6.33105C 8.9943 6.07357 9.36572 5.9471 9.79639 5.95166C 10.2134 5.96077 10.5404 6.0918 10.7773 6.34473C 11.0166 6.59538 11.1203 6.92692 11.0884 7.33936C 11.0679 7.57406 10.9779 7.78825 10.8184 7.98193C 10.6589 8.17562 10.4378 8.33626 10.1553 8.46387C 10.3809 8.55501 10.5495 8.69971 10.6611 8.89795C 10.7728 9.09391 10.8195 9.32406 10.8013 9.58838C 10.7648 10.0373 10.5859 10.3984 10.2646 10.6719C 9.94564 10.9453 9.55713 11.0775 9.09912 11.0684C 8.67301 11.0592 8.3335 10.9271 8.08057 10.6719C 7.82764 10.4167 7.71029 10.0874 7.72852 9.68408L 8.34717 9.6875C 8.3335 9.94271 8.39502 10.1489 8.53174 10.3062C 8.66846 10.4611 8.8667 10.5431 9.12646 10.5522C 9.41813 10.5614 9.66081 10.4782 9.85449 10.3027C 10.0482 10.1273 10.1587 9.89258 10.186 9.59863C 10.2111 9.32747 10.1496 9.1167 10.0015 8.96631C 9.85335 8.81364 9.63232 8.73275 9.33838 8.72363L 8.86328 8.72021L 8.94531 8.2041Z"/>
<path id="path9_fill" d="M 1.83398 10.0801L 6.71484 10.0801L 6.71484 11L 0.503906 11L 0.503906 10.1562L 5.17969 3.39453L 0.580078 3.39453L 0.580078 2.46875L 6.52734 2.46875L 6.52734 3.29492L 1.83398 10.0801ZM 8.60547 8.2041L 9.01562 8.20752C 9.31641 8.20752 9.56934 8.12891 9.77441 7.97168C 9.98177 7.81217 10.1003 7.59684 10.1299 7.32568C 10.1595 7.06136 10.1105 6.854 9.98291 6.70361C 9.85531 6.55094 9.6696 6.47233 9.42578 6.46777C 9.16602 6.46322 8.94499 6.53955 8.7627 6.69678C 8.58268 6.85173 8.47217 7.06136 8.43115 7.32568L 7.81934 7.3291C 7.85807 6.91895 8.03239 6.58626 8.34229 6.33105C 8.65446 6.07357 9.02588 5.9471 9.45654 5.95166C 9.87354 5.96077 10.2005 6.0918 10.4375 6.34473C 10.6768 6.59538 10.7804 6.92692 10.7485 7.33936C 10.728 7.57406 10.638 7.78825 10.4785 7.98193C 10.319 8.17562 10.098 8.33626 9.81543 8.46387C 10.041 8.55501 10.2096 8.69971 10.3213 8.89795C 10.4329 9.09391 10.4797 9.32406 10.4614 9.58838C 10.425 10.0373 10.2461 10.3984 9.9248 10.6719C 9.60579 10.9453 9.21729 11.0775 8.75928 11.0684C 8.33317 11.0592 7.99365 10.9271 7.74072 10.6719C 7.48779 10.4167 7.37044 10.0874 7.38867 9.68408L 8.00732 9.6875C 7.99365 9.94271 8.05518 10.1489 8.19189 10.3062C 8.32861 10.4611 8.52686 10.5431 8.78662 10.5522C 9.07829 10.5614 9.32096 10.4782 9.51465 10.3027C 9.70833 10.1273 9.81885 9.89258 9.84619 9.59863C 9.87126 9.32747 9.80973 9.1167 9.66162 8.96631C 9.51351 8.81364 9.29248 8.73275 8.99854 8.72363L 8.52344 8.72021L 8.60547 8.2041Z"/>
<path id="path10_fill" d="M 0.556641 7.77734C 0.556641 6.80469 0.787109 6.02344 1.24805 5.43359C 1.70898 4.83984 2.3125 4.54297 3.05859 4.54297C 3.80078 4.54297 4.38867 4.79688 4.82227 5.30469L 4.82227 2L 5.90625 2L 5.90625 11L 4.91016 11L 4.85742 10.3203C 4.42383 10.8516 3.82031 11.1172 3.04688 11.1172C 2.3125 11.1172 1.71289 10.8164 1.24805 10.2148C 0.787109 9.61328 0.556641 8.82813 0.556641 7.85938L 0.556641 7.77734ZM 1.64062 7.90039C 1.64062 8.61914 1.78906 9.18164 2.08594 9.58789C 2.38281 9.99414 2.79297 10.1973 3.31641 10.1973C 4.00391 10.1973 4.50586 9.88867 4.82227 9.27148L 4.82227 6.35938C 4.49805 5.76172 4 5.46289 3.32812 5.46289C 2.79688 5.46289 2.38281 5.66797 2.08594 6.07812C 1.78906 6.48828 1.64062 7.0957 1.64062 7.90039ZM 7.18018 11L 7.74072 7.79053L 7.16992 7.79053L 7.25537 7.30176L 7.82275 7.30176L 7.88428 6.86426C 7.94352 6.49284 8.08708 6.20231 8.31494 5.99268C 8.5542 5.77393 8.85954 5.66683 9.23096 5.67139C 9.34717 5.67139 9.49414 5.69076 9.67188 5.72949L 9.59668 6.24561C 9.4873 6.22282 9.37679 6.20915 9.26514 6.20459C 9.05094 6.20459 8.87663 6.27181 8.74219 6.40625C 8.61003 6.53841 8.52799 6.71501 8.49609 6.93604L 8.44141 7.30176L 9.20703 7.30176L 9.12158 7.79053L 8.35596 7.79053L 7.79883 11L 7.18018 11ZM 11.3262 7.2334C 11.6361 7.23796 11.9015 7.32227 12.1226 7.48633C 12.3436 7.65039 12.5065 7.87712 12.6113 8.1665C 12.7184 8.45361 12.7549 8.76807 12.7207 9.10986L 12.7139 9.18506C 12.6706 9.54508 12.5635 9.87093 12.3926 10.1626C 12.2217 10.452 12.0007 10.6776 11.7295 10.8394C 11.4583 11.0011 11.161 11.0775 10.8374 11.0684C 10.5298 11.0638 10.2643 10.9795 10.041 10.8154C 9.81999 10.6514 9.6582 10.4281 9.55566 10.1455C 9.45312 9.86296 9.41667 9.55192 9.44629 9.2124C 9.48047 8.82959 9.58415 8.48551 9.75732 8.18018C 9.9305 7.87484 10.1527 7.639 10.4238 7.47266C 10.6973 7.30404 10.998 7.22428 11.3262 7.2334ZM 10.0684 9.21582C 10.0524 9.35938 10.0524 9.50863 10.0684 9.66357C 10.0911 9.93245 10.1709 10.1466 10.3076 10.3062C 10.4466 10.4657 10.6312 10.5488 10.8613 10.5557C 11.0664 10.5625 11.2555 10.5124 11.4287 10.4053C 11.6019 10.2959 11.7477 10.1318 11.8662 9.91309C 11.9847 9.69434 12.061 9.45166 12.0952 9.18506C 12.1134 8.97542 12.1169 8.79883 12.1055 8.65527C 12.0781 8.37956 11.995 8.16195 11.856 8.00244C 11.717 7.84294 11.5324 7.75863 11.3022 7.74951C 10.9832 7.74268 10.7121 7.868 10.4888 8.12549C 10.2655 8.38298 10.1276 8.72021 10.0752 9.13721L 10.0684 9.21582ZM 15.2363 7.2334C 15.5462 7.23796 15.8117 7.32227 16.0327 7.48633C 16.2537 7.65039 16.4167 7.87712 16.5215 8.1665C 16.6286 8.45361 16.665 8.76807 16.6309 9.10986L 16.624 9.18506C 16.5807 9.54508 16.4736 9.87093 16.3027 10.1626C 16.1318 10.452 15.9108 10.6776 15.6396 10.8394C 15.3685 11.0011 15.0711 11.0775 14.7476 11.0684C 14.4399 11.0638 14.1745 10.9795 13.9512 10.8154C 13.7301 10.6514 13.5684 10.4281 13.4658 10.1455C 13.3633 9.86296 13.3268 9.55192 13.3564 9.2124C 13.3906 8.82959 13.4943 8.48551 13.6675 8.18018C 13.8407 7.87484 14.0628 7.639 14.334 7.47266C 14.6074 7.30404 14.9082 7.22428 15.2363 7.2334ZM 13.9785 9.21582C 13.9626 9.35938 13.9626 9.50863 13.9785 9.66357C 14.0013 9.93245 14.0811 10.1466 14.2178 10.3062C 14.3568 10.4657 14.5413 10.5488 14.7715 10.5557C 14.9766 10.5625 15.1657 10.5124 15.3389 10.4053C 15.512 10.2959 15.6579 10.1318 15.7764 9.91309C 15.8949 9.69434 15.9712 9.45166 16.0054 9.18506C 16.0236 8.97542 16.027 8.79883 16.0156 8.65527C 15.9883 8.37956 15.9051 8.16195 15.7661 8.00244C 15.6271 7.84294 15.4425 7.75863 15.2124 7.74951C 14.8934 7.74268 14.6222 7.868 14.3989 8.12549C 14.1756 8.38298 14.0378 8.72021 13.9854 9.13721L 13.9785 9.21582ZM 18.7261 6.40625L 18.5688 7.30176L 19.2422 7.30176L 19.1567 7.79053L 18.4868 7.79053L 18.1006 10.0908C 18.0938 10.1501 18.0926 10.2048 18.0972 10.2549C 18.1131 10.4326 18.21 10.5215 18.3877 10.5215C 18.4629 10.5215 18.5632 10.5101 18.6885 10.4873L 18.6406 11.0034C 18.4925 11.0444 18.3421 11.0649 18.1895 11.0649C 17.9434 11.0604 17.7588 10.9704 17.6357 10.7949C 17.5127 10.6172 17.4648 10.3791 17.4922 10.0806L 17.8682 7.79053L 17.2153 7.79053L 17.3008 7.30176L 17.9536 7.30176L 18.1108 6.40625L 18.7261 6.40625Z"/>
<path id="path11_fill" d="M 1.76758 8.2334L 5.13672 8.2334L 5.13672 9L 0.825195 9L 0.825195 1.89062L 1.76758 1.89062L 1.76758 8.2334ZM 8.25684 9.09766C 7.54069 9.09766 6.95801 8.86328 6.50879 8.39453C 6.05957 7.92253 5.83496 7.29264 5.83496 6.50488L 5.83496 6.33887C 5.83496 5.81478 5.93424 5.34766 6.13281 4.9375C 6.33464 4.52409 6.61458 4.20182 6.97266 3.9707C 7.33398 3.73633 7.72461 3.61914 8.14453 3.61914C 8.83138 3.61914 9.36523 3.84538 9.74609 4.29785C 10.127 4.75033 10.3174 5.39811 10.3174 6.24121L 10.3174 6.61719L 6.73828 6.61719C 6.7513 7.13802 6.90267 7.55957 7.19238 7.88184C 7.48535 8.20085 7.85645 8.36035 8.30566 8.36035C 8.62467 8.36035 8.89486 8.29525 9.11621 8.16504C 9.33757 8.03483 9.53125 7.8623 9.69727 7.64746L 10.249 8.07715C 9.80632 8.75749 9.14225 9.09766 8.25684 9.09766ZM 8.14453 4.36133C 7.77995 4.36133 7.47396 4.49479 7.22656 4.76172C 6.97917 5.02539 6.82617 5.39648 6.76758 5.875L 9.41406 5.875L 9.41406 5.80664C 9.38802 5.34766 9.26432 4.99284 9.04297 4.74219C 8.82161 4.48828 8.52214 4.36133 8.14453 4.36133ZM 12.2217 3.7168L 12.251 4.38086C 12.6546 3.87305 13.182 3.61914 13.833 3.61914C 14.9495 3.61914 15.5127 4.24902 15.5225 5.50879L 15.5225 9L 14.6191 9L 14.6191 5.50391C 14.6159 5.12305 14.528 4.84147 14.3555 4.65918C 14.1862 4.47689 13.9209 4.38574 13.5596 4.38574C 13.2666 4.38574 13.0094 4.46387 12.7881 4.62012C 12.5667 4.77637 12.3942 4.98145 12.2705 5.23535L 12.2705 9L 11.3672 9L 11.3672 3.7168L 12.2217 3.7168ZM 18.6553 8.63428C 18.3659 8.93278 17.9979 9.07747 17.5513 9.06836C 17.1981 9.05924 16.936 8.93278 16.7651 8.68896C 16.5965 8.44515 16.5339 8.11247 16.5771 7.69092L 16.9736 5.30176L 17.5923 5.30176L 17.1924 7.70117C 17.181 7.80143 17.1787 7.89941 17.1855 7.99512C 17.1969 8.15918 17.2459 8.28792 17.3325 8.38135C 17.4191 8.47477 17.5399 8.5249 17.6948 8.53174C 18.1369 8.54541 18.4787 8.36654 18.7202 7.99512L 19.1851 5.30176L 19.8037 5.30176L 19.1611 9L 18.5767 9L 18.6553 8.63428ZM 23.437 7.16797C 23.3914 7.54395 23.29 7.88232 23.1328 8.18311C 22.9756 8.48389 22.7808 8.70947 22.5483 8.85986C 22.3159 9.00798 22.0584 9.07861 21.7759 9.07178C 21.3475 9.06266 21.0194 8.91797 20.7915 8.6377L 20.46 10.4219L 19.8413 10.4219L 20.73 5.30176L 21.2905 5.29834L 21.2222 5.71191C 21.5275 5.38379 21.8932 5.22428 22.3193 5.2334C 22.6748 5.24251 22.9517 5.37354 23.1499 5.62646C 23.3481 5.87939 23.453 6.22803 23.4644 6.67236C 23.4666 6.8182 23.4609 6.95947 23.4473 7.09619L 23.437 7.16797ZM 22.8286 7.09619L 22.8457 6.80908C 22.8457 6.4764 22.7819 6.22233 22.6543 6.04688C 22.529 5.86914 22.3467 5.77572 22.1074 5.7666C 21.7497 5.75749 21.4409 5.92725 21.1812 6.27588L 20.8701 8.0498C 21.0091 8.37793 21.2586 8.54655 21.6187 8.55566C 21.9263 8.5625 22.1872 8.44287 22.4014 8.19678C 22.6178 7.9484 22.7603 7.58154 22.8286 7.09619ZM 27.2856 7.16797C 27.2401 7.54395 27.1387 7.88232 26.9814 8.18311C 26.8242 8.48389 26.6294 8.70947 26.397 8.85986C 26.1646 9.00798 25.9071 9.07861 25.6245 9.07178C 25.1961 9.06266 24.868 8.91797 24.6401 8.6377L 24.3086 10.4219L 23.6899 10.4219L 24.5786 5.30176L 25.1392 5.29834L 25.0708 5.71191C 25.3761 5.38379 25.7419 5.22428 26.168 5.2334C 26.5234 5.24251 26.8003 5.37354 26.9985 5.62646C 27.1968 5.87939 27.3016 6.22803 27.313 6.67236C 27.3153 6.8182 27.3096 6.95947 27.2959 7.09619L 27.2856 7.16797ZM 26.6772 7.09619L 26.6943 6.80908C 26.6943 6.4764 26.6305 6.22233 26.5029 6.04688C 26.3776 5.86914 26.1953 5.77572 25.9561 5.7666C 25.5983 5.75749 25.2896 5.92725 25.0298 6.27588L 24.7188 8.0498C 24.8577 8.37793 25.1073 8.54655 25.4673 8.55566C 25.7749 8.5625 26.0358 8.44287 26.25 8.19678C 26.4665 7.9484 26.6089 7.58154 26.6772 7.09619ZM 29.3843 9.06836C 28.924 9.05924 28.564 8.88949 28.3042 8.55908C 28.0444 8.22868 27.9351 7.80599 27.9761 7.29102L 27.9932 7.14404C 28.0319 6.77718 28.1401 6.44222 28.3179 6.13916C 28.4979 5.8361 28.7166 5.60824 28.9741 5.45557C 29.2316 5.30062 29.5096 5.22656 29.8081 5.2334C 30.1886 5.24251 30.4871 5.36898 30.7036 5.61279C 30.9201 5.85661 31.0386 6.18701 31.0591 6.604C 31.0659 6.75212 31.0614 6.90023 31.0454 7.04834L 31.0078 7.33203L 28.5913 7.33203C 28.5503 7.66699 28.605 7.95182 28.7554 8.18652C 28.908 8.42122 29.1348 8.54313 29.4355 8.55225C 29.8001 8.56136 30.1374 8.3973 30.4473 8.06006L 30.8027 8.36084C 30.6478 8.58415 30.4473 8.7596 30.2012 8.88721C 29.9574 9.01253 29.6851 9.07292 29.3843 9.06836ZM 29.7773 5.74951C 29.5221 5.74268 29.2988 5.82926 29.1074 6.00928C 28.9183 6.18929 28.7679 6.45703 28.6562 6.8125L 30.4541 6.81592L 30.4678 6.76123C 30.5042 6.47412 30.4575 6.236 30.3276 6.04688C 30.2 5.85547 30.0166 5.75635 29.7773 5.74951ZM 33.7148 5.86572L 33.4243 5.83496C 33.0278 5.83496 32.7157 6.01383 32.4878 6.37158L 32.0332 9L 31.4146 9L 32.0571 5.30176L 32.6553 5.29834L 32.563 5.729C 32.825 5.38493 33.1338 5.21745 33.4893 5.22656C 33.5645 5.22656 33.6624 5.24365 33.7832 5.27783L 33.7148 5.86572ZM 34.4155 9L 33.8003 9L 34.7095 3.75L 35.3281 3.75L 34.4155 9ZM 37.0269 9.06836C 36.5666 9.05924 36.2065 8.88949 35.9468 8.55908C 35.687 8.22868 35.5776 7.80599 35.6187 7.29102L 35.6357 7.14404C 35.6745 6.77718 35.7827 6.44222 35.9604 6.13916C 36.1405 5.8361 36.3592 5.60824 36.6167 5.45557C 36.8742 5.30062 37.1522 5.22656 37.4507 5.2334C 37.8312 5.24251 38.1297 5.36898 38.3462 5.61279C 38.5627 5.85661 38.6812 6.18701 38.7017 6.604C 38.7085 6.75212 38.7039 6.90023 38.688 7.04834L 38.6504 7.33203L 36.2339 7.33203C 36.1929 7.66699 36.2476 7.95182 36.3979 8.18652C 36.5506 8.42122 36.7773 8.54313 37.0781 8.55225C 37.4427 8.56136 37.7799 8.3973 38.0898 8.06006L 38.4453 8.36084C 38.2904 8.58415 38.0898 8.7596 37.8438 8.88721C 37.5999 9.01253 37.3276 9.07292 37.0269 9.06836ZM 37.4199 5.74951C 37.1647 5.74268 36.9414 5.82926 36.75 6.00928C 36.5609 6.18929 36.4105 6.45703 36.2988 6.8125L 38.0967 6.81592L 38.1104 6.76123C 38.1468 6.47412 38.1001 6.236 37.9702 6.04688C 37.8426 5.85547 37.6592 5.75635 37.4199 5.74951ZM 39.2383 7.14404C 39.293 6.74072 39.4012 6.39095 39.563 6.09473C 39.7271 5.79622 39.9253 5.57633 40.1577 5.43506C 40.3924 5.2915 40.6488 5.22314 40.9268 5.22998C 41.3551 5.23909 41.6787 5.40088 41.8975 5.71533L 42.0205 5.30176L 42.5879 5.30176L 41.9727 8.92139C 41.9066 9.39307 41.7152 9.77018 41.3984 10.0527C 41.0817 10.3376 40.6909 10.4731 40.2261 10.4595C 39.9754 10.4549 39.735 10.3957 39.5049 10.2817C 39.277 10.1678 39.097 10.0117 38.9648 9.81348L 39.3169 9.43408C 39.5402 9.76449 39.8353 9.93424 40.2021 9.94336C 40.4961 9.95247 40.7445 9.87044 40.9473 9.69727C 41.1523 9.52409 41.2879 9.27799 41.354 8.95898L 41.4224 8.63086C 41.1216 8.93164 40.7695 9.07747 40.3662 9.06836C 40.1361 9.06152 39.9355 9 39.7646 8.88379C 39.596 8.7653 39.465 8.59554 39.3716 8.37451C 39.2782 8.1512 39.2269 7.90283 39.2178 7.62939C 39.2132 7.49495 39.2201 7.33317 39.2383 7.14404ZM 39.8364 7.49609C 39.8296 7.82194 39.8854 8.07487 40.0039 8.25488C 40.1247 8.43262 40.3058 8.52604 40.5474 8.53516C 40.9165 8.54427 41.2344 8.36312 41.501 7.9917L 41.7915 6.29297C 41.6548 5.95573 41.4076 5.78027 41.0498 5.7666C 40.7148 5.75749 40.4391 5.89421 40.2227 6.17676C 40.0085 6.45931 39.882 6.84098 39.8433 7.32178L 39.8364 7.49609ZM 50.0947 5.02539L 46.0225 5.02539L 46.0225 4.23926L 50.0947 4.23926L 50.0947 5.02539ZM 50.0947 7.05176L 46.0225 7.05176L 46.0225 6.27051L 50.0947 6.27051L 50.0947 7.05176ZM 55.0166 8.2334L 58.3857 8.2334L 58.3857 9L 54.0742 9L 54.0742 1.89062L 55.0166 1.89062L 55.0166 8.2334ZM 61.5059 9.09766C 60.7897 9.09766 60.207 8.86328 59.7578 8.39453C 59.3086 7.92253 59.084 7.29264 59.084 6.50488L 59.084 6.33887C 59.084 5.81478 59.1833 5.34766 59.3818 4.9375C 59.5837 4.52409 59.8636 4.20182 60.2217 3.9707C 60.583 3.73633 60.9736 3.61914 61.3936 3.61914C 62.0804 3.61914 62.6143 3.84538 62.9951 4.29785C 63.376 4.75033 63.5664 5.39811 63.5664 6.24121L 63.5664 6.61719L 59.9873 6.61719C 60.0003 7.13802 60.1517 7.55957 60.4414 7.88184C 60.7344 8.20085 61.1055 8.36035 61.5547 8.36035C 61.8737 8.36035 62.1439 8.29525 62.3652 8.16504C 62.5866 8.03483 62.7803 7.8623 62.9463 7.64746L 63.498 8.07715C 63.0553 8.75749 62.3913 9.09766 61.5059 9.09766ZM 61.3936 4.36133C 61.029 4.36133 60.723 4.49479 60.4756 4.76172C 60.2282 5.02539 60.0752 5.39648 60.0166 5.875L 62.6631 5.875L 62.6631 5.80664C 62.637 5.34766 62.5133 4.99284 62.292 4.74219C 62.0706 4.48828 61.7712 4.36133 61.3936 4.36133ZM 65.4707 3.7168L 65.5 4.38086C 65.9036 3.87305 66.431 3.61914 67.082 3.61914C 68.1986 3.61914 68.7617 4.24902 68.7715 5.50879L 68.7715 9L 67.8682 9L 67.8682 5.50391C 67.8649 5.12305 67.777 4.84147 67.6045 4.65918C 67.4352 4.47689 67.1699 4.38574 66.8086 4.38574C 66.5156 4.38574 66.2585 4.46387 66.0371 4.62012C 65.8158 4.77637 65.6432 4.98145 65.5195 5.23535L 65.5195 9L 64.6162 9L 64.6162 3.7168L 65.4707 3.7168ZM 70.2261 9L 69.6108 9L 70.52 3.75L 71.1387 3.75L 70.2261 9ZM 73.292 5.2334C 73.6019 5.23796 73.8674 5.32227 74.0884 5.48633C 74.3094 5.65039 74.4723 5.87712 74.5771 6.1665C 74.6842 6.45361 74.7207 6.76807 74.6865 7.10986L 74.6797 7.18506C 74.6364 7.54508 74.5293 7.87093 74.3584 8.1626C 74.1875 8.45199 73.9665 8.67757 73.6953 8.83936C 73.4242 9.00114 73.1268 9.07747 72.8032 9.06836C 72.4956 9.0638 72.2301 8.97949 72.0068 8.81543C 71.7858 8.65137 71.624 8.42806 71.5215 8.14551C 71.4189 7.86296 71.3825 7.55192 71.4121 7.2124C 71.4463 6.82959 71.55 6.48551 71.7231 6.18018C 71.8963 5.87484 72.1185 5.639 72.3896 5.47266C 72.6631 5.30404 72.9639 5.22428 73.292 5.2334ZM 72.0342 7.21582C 72.0182 7.35938 72.0182 7.50863 72.0342 7.66357C 72.057 7.93245 72.1367 8.14665 72.2734 8.30615C 72.4124 8.46566 72.597 8.54883 72.8271 8.55566C 73.0322 8.5625 73.2214 8.51237 73.3945 8.40527C 73.5677 8.2959 73.7135 8.13184 73.832 7.91309C 73.9505 7.69434 74.0269 7.45166 74.061 7.18506C 74.0793 6.97542 74.0827 6.79883 74.0713 6.65527C 74.0439 6.37956 73.9608 6.16195 73.8218 6.00244C 73.6828 5.84294 73.4982 5.75863 73.2681 5.74951C 72.9491 5.74268 72.6779 5.868 72.4546 6.12549C 72.2313 6.38298 72.0934 6.72021 72.041 7.13721L 72.0342 7.21582ZM 78.4668 8.125L 79.646 5.30176L 80.2852 5.30176L 78.6001 9L 78.0977 9L 77.7148 6.2041L 76.3818 9L 75.8794 9L 75.4795 5.30176L 76.0708 5.30176L 76.2964 8.05664L 77.6089 5.30176L 78.1079 5.30176L 78.4668 8.125ZM 81.8882 9.06836C 81.4279 9.05924 81.0679 8.88949 80.8081 8.55908C 80.5483 8.22868 80.439 7.80599 80.48 7.29102L 80.4971 7.14404C 80.5358 6.77718 80.644 6.44222 80.8218 6.13916C 81.0018 5.8361 81.2205 5.60824 81.478 5.45557C 81.7355 5.30062 82.0135 5.22656 82.312 5.2334C 82.6925 5.24251 82.991 5.36898 83.2075 5.61279C 83.424 5.85661 83.5425 6.18701 83.563 6.604C 83.5698 6.75212 83.5653 6.90023 83.5493 7.04834L 83.5117 7.33203L 81.0952 7.33203C 81.0542 7.66699 81.1089 7.95182 81.2593 8.18652C 81.4119 8.42122 81.6387 8.54313 81.9395 8.55225C 82.304 8.56136 82.6413 8.3973 82.9512 8.06006L 83.3066 8.36084C 83.1517 8.58415 82.9512 8.7596 82.7051 8.88721C 82.4613 9.01253 82.189 9.07292 81.8882 9.06836ZM 82.2812 5.74951C 82.026 5.74268 81.8027 5.82926 81.6113 6.00928C 81.4222 6.18929 81.2718 6.45703 81.1602 6.8125L 82.958 6.81592L 82.9717 6.76123C 83.0081 6.47412 82.9614 6.236 82.8315 6.04688C 82.7039 5.85547 82.5205 5.75635 82.2812 5.74951ZM 86.2188 5.86572L 85.9282 5.83496C 85.5317 5.83496 85.2196 6.01383 84.9917 6.37158L 84.5371 9L 83.9185 9L 84.561 5.30176L 85.1592 5.29834L 85.0669 5.729C 85.3289 5.38493 85.6377 5.21745 85.9932 5.22656C 86.0684 5.22656 86.1663 5.24365 86.2871 5.27783L 86.2188 5.86572ZM 86.9194 9L 86.3042 9L 87.2134 3.75L 87.832 3.75L 86.9194 9ZM 89.5308 9.06836C 89.0705 9.05924 88.7104 8.88949 88.4507 8.55908C 88.1909 8.22868 88.0815 7.80599 88.1226 7.29102L 88.1396 7.14404C 88.1784 6.77718 88.2866 6.44222 88.4644 6.13916C 88.6444 5.8361 88.8631 5.60824 89.1206 5.45557C 89.3781 5.30062 89.6561 5.22656 89.9546 5.2334C 90.3351 5.24251 90.6336 5.36898 90.8501 5.61279C 91.0666 5.85661 91.1851 6.18701 91.2056 6.604C 91.2124 6.75212 91.2078 6.90023 91.1919 7.04834L 91.1543 7.33203L 88.7378 7.33203C 88.6968 7.66699 88.7515 7.95182 88.9019 8.18652C 89.0545 8.42122 89.2812 8.54313 89.582 8.55225C 89.9466 8.56136 90.2839 8.3973 90.5938 8.06006L 90.9492 8.36084C 90.7943 8.58415 90.5938 8.7596 90.3477 8.88721C 90.1038 9.01253 89.8315 9.07292 89.5308 9.06836ZM 89.9238 5.74951C 89.6686 5.74268 89.4453 5.82926 89.2539 6.00928C 89.0648 6.18929 88.9144 6.45703 88.8027 6.8125L 90.6006 6.81592L 90.6143 6.76123C 90.6507 6.47412 90.604 6.236 90.4741 6.04688C 90.3465 5.85547 90.1631 5.75635 89.9238 5.74951ZM 91.7422 7.14404C 91.7969 6.74072 91.9051 6.39095 92.0669 6.09473C 92.231 5.79622 92.4292 5.57633 92.6616 5.43506C 92.8963 5.2915 93.1527 5.22314 93.4307 5.22998C 93.859 5.23909 94.1826 5.40088 94.4014 5.71533L 94.5244 5.30176L 95.0918 5.30176L 94.4766 8.92139C 94.4105 9.39307 94.2191 9.77018 93.9023 10.0527C 93.5856 10.3376 93.1948 10.4731 92.73 10.4595C 92.4793 10.4549 92.2389 10.3957 92.0088 10.2817C 91.7809 10.1678 91.6009 10.0117 91.4688 9.81348L 91.8208 9.43408C 92.0441 9.76449 92.3392 9.93424 92.7061 9.94336C 93 9.95247 93.2484 9.87044 93.4512 9.69727C 93.6562 9.52409 93.7918 9.27799 93.8579 8.95898L 93.9263 8.63086C 93.6255 8.93164 93.2734 9.07747 92.8701 9.06836C 92.64 9.06152 92.4395 9 92.2686 8.88379C 92.0999 8.7653 91.9689 8.59554 91.8755 8.37451C 91.7821 8.1512 91.7308 7.90283 91.7217 7.62939C 91.7171 7.49495 91.724 7.33317 91.7422 7.14404ZM 92.3403 7.49609C 92.3335 7.82194 92.3893 8.07487 92.5078 8.25488C 92.6286 8.43262 92.8097 8.52604 93.0513 8.53516C 93.4204 8.54427 93.7383 8.36312 94.0049 7.9917L 94.2954 6.29297C 94.1587 5.95573 93.9115 5.78027 93.5537 5.7666C 93.2188 5.75749 92.943 5.89421 92.7266 6.17676C 92.5124 6.45931 92.3859 6.84098 92.3472 7.32178L 92.3403 7.49609Z"/>
<path id="path12_fill" d="M 2.12109 10.0801L 6.16406 10.0801L 6.16406 11L 0.990234 11L 0.990234 2.46875L 2.12109 2.46875L 2.12109 10.0801ZM 7.23291 11L 6.61768 11L 7.52686 5.75L 8.14551 5.75L 7.23291 11ZM 10.2988 7.2334C 10.6087 7.23796 10.8742 7.32227 11.0952 7.48633C 11.3162 7.65039 11.4792 7.87712 11.584 8.1665C 11.6911 8.45361 11.7275 8.76807 11.6934 9.10986L 11.6865 9.18506C 11.6432 9.54508 11.5361 9.87093 11.3652 10.1626C 11.1943 10.452 10.9733 10.6776 10.7021 10.8394C 10.431 11.0011 10.1336 11.0775 9.81006 11.0684C 9.50244 11.0638 9.23698 10.9795 9.01367 10.8154C 8.79264 10.6514 8.63086 10.4281 8.52832 10.1455C 8.42578 9.86296 8.38932 9.55192 8.41895 9.2124C 8.45312 8.82959 8.5568 8.48551 8.72998 8.18018C 8.90316 7.87484 9.12533 7.639 9.39648 7.47266C 9.66992 7.30404 9.9707 7.22428 10.2988 7.2334ZM 9.04102 9.21582C 9.02507 9.35938 9.02507 9.50863 9.04102 9.66357C 9.0638 9.93245 9.14355 10.1466 9.28027 10.3062C 9.41927 10.4657 9.60384 10.5488 9.83398 10.5557C 10.0391 10.5625 10.2282 10.5124 10.4014 10.4053C 10.5745 10.2959 10.7204 10.1318 10.8389 9.91309C 10.9574 9.69434 11.0337 9.45166 11.0679 9.18506C 11.0861 8.97542 11.0895 8.79883 11.0781 8.65527C 11.0508 8.37956 10.9676 8.16195 10.8286 8.00244C 10.6896 7.84294 10.505 7.75863 10.2749 7.74951C 9.95589 7.74268 9.68473 7.868 9.46143 8.12549C 9.23812 8.38298 9.10026 8.72021 9.04785 9.13721L 9.04102 9.21582ZM 15.4736 10.125L 16.6528 7.30176L 17.292 7.30176L 15.6069 11L 15.1045 11L 14.7217 8.2041L 13.3887 11L 12.8862 11L 12.4863 7.30176L 13.0776 7.30176L 13.3032 10.0566L 14.6157 7.30176L 15.1147 7.30176L 15.4736 10.125ZM 18.895 11.0684C 18.4347 11.0592 18.0747 10.8895 17.8149 10.5591C 17.5552 10.2287 17.4458 9.80599 17.4868 9.29102L 17.5039 9.14404C 17.5426 8.77718 17.6509 8.44222 17.8286 8.13916C 18.0086 7.8361 18.2274 7.60824 18.4849 7.45557C 18.7424 7.30062 19.0203 7.22656 19.3188 7.2334C 19.6994 7.24251 19.9979 7.36898 20.2144 7.61279C 20.4308 7.85661 20.5493 8.18701 20.5698 8.604C 20.5767 8.75212 20.5721 8.90023 20.5562 9.04834L 20.5186 9.33203L 18.1021 9.33203C 18.061 9.66699 18.1157 9.95182 18.2661 10.1865C 18.4188 10.4212 18.6455 10.5431 18.9463 10.5522C 19.3109 10.5614 19.6481 10.3973 19.958 10.0601L 20.3135 10.3608C 20.1585 10.5841 19.958 10.7596 19.7119 10.8872C 19.4681 11.0125 19.1958 11.0729 18.895 11.0684ZM 19.2881 7.74951C 19.0329 7.74268 18.8096 7.82926 18.6182 8.00928C 18.429 8.18929 18.2786 8.45703 18.167 8.8125L 19.9648 8.81592L 19.9785 8.76123C 20.015 8.47412 19.9683 8.236 19.8384 8.04688C 19.7108 7.85547 19.5273 7.75635 19.2881 7.74951ZM 23.2256 7.86572L 22.9351 7.83496C 22.5386 7.83496 22.2264 8.01383 21.9985 8.37158L 21.5439 11L 20.9253 11L 21.5679 7.30176L 22.166 7.29834L 22.0737 7.729C 22.3358 7.38493 22.6445 7.21745 23 7.22656C 23.0752 7.22656 23.1732 7.24365 23.2939 7.27783L 23.2256 7.86572ZM 23.9263 11L 23.311 11L 24.2202 5.75L 24.8389 5.75L 23.9263 11ZM 26.5376 11.0684C 26.0773 11.0592 25.7173 10.8895 25.4575 10.5591C 25.1978 10.2287 25.0884 9.80599 25.1294 9.29102L 25.1465 9.14404C 25.1852 8.77718 25.2935 8.44222 25.4712 8.13916C 25.6512 7.8361 25.87 7.60824 26.1274 7.45557C 26.3849 7.30062 26.6629 7.22656 26.9614 7.2334C 27.342 7.24251 27.6405 7.36898 27.8569 7.61279C 28.0734 7.85661 28.1919 8.18701 28.2124 8.604C 28.2192 8.75212 28.2147 8.90023 28.1987 9.04834L 28.1611 9.33203L 25.7446 9.33203C 25.7036 9.66699 25.7583 9.95182 25.9087 10.1865C 26.0614 10.4212 26.2881 10.5431 26.5889 10.5522C 26.9535 10.5614 27.2907 10.3973 27.6006 10.0601L 27.9561 10.3608C 27.8011 10.5841 27.6006 10.7596 27.3545 10.8872C 27.1107 11.0125 26.8384 11.0729 26.5376 11.0684ZM 26.9307 7.74951C 26.6755 7.74268 26.4521 7.82926 26.2607 8.00928C 26.0716 8.18929 25.9212 8.45703 25.8096 8.8125L 27.6074 8.81592L 27.6211 8.76123C 27.6576 8.47412 27.6108 8.236 27.481 8.04688C 27.3534 7.85547 27.1699 7.75635 26.9307 7.74951ZM 28.749 9.14404C 28.8037 8.74072 28.9119 8.39095 29.0737 8.09473C 29.2378 7.79622 29.436 7.57633 29.6685 7.43506C 29.9032 7.2915 30.1595 7.22314 30.4375 7.22998C 30.8659 7.23909 31.1895 7.40088 31.4082 7.71533L 31.5312 7.30176L 32.0986 7.30176L 31.4834 10.9214C 31.4173 11.3931 31.2259 11.7702 30.9092 12.0527C 30.5924 12.3376 30.2017 12.4731 29.7368 12.4595C 29.4862 12.4549 29.2458 12.3957 29.0156 12.2817C 28.7878 12.1678 28.6077 12.0117 28.4756 11.8135L 28.8276 11.4341C 29.0509 11.7645 29.346 11.9342 29.7129 11.9434C 30.0068 11.9525 30.2552 11.8704 30.458 11.6973C 30.6631 11.5241 30.7987 11.278 30.8647 10.959L 30.9331 10.6309C 30.6323 10.9316 30.2803 11.0775 29.877 11.0684C 29.6468 11.0615 29.4463 11 29.2754 10.8838C 29.1068 10.7653 28.9757 10.5955 28.8823 10.3745C 28.7889 10.1512 28.7376 9.90283 28.7285 9.62939C 28.724 9.49495 28.7308 9.33317 28.749 9.14404ZM 29.3472 9.49609C 29.3403 9.82194 29.3962 10.0749 29.5146 10.2549C 29.6354 10.4326 29.8166 10.526 30.0581 10.5352C 30.4272 10.5443 30.7451 10.3631 31.0117 9.9917L 31.3022 8.29297C 31.1655 7.95573 30.9183 7.78027 30.5605 7.7666C 30.2256 7.75749 29.9499 7.89421 29.7334 8.17676C 29.5192 8.45931 29.3927 8.84098 29.354 9.32178L 29.3472 9.49609Z"/>
<path id="path13_fill" d="M 4.91211 3.7168L 4.91211 7.6084C 4.91862 8.06413 5.04883 8.29199 5.30273 8.29199C 5.36458 8.29199 5.41992 8.28385 5.46875 8.26758L 5.58105 8.93652C 5.4248 9.0472 5.22624 9.10254 4.98535 9.10254C 4.50684 9.10254 4.20573 8.83398 4.08203 8.29688C 3.73372 8.83398 3.2194 9.10254 2.53906 9.10254C 1.91406 9.10254 1.41602 8.87305 1.04492 8.41406C 0.673828 7.95182 0.488281 7.32357 0.488281 6.5293L 0.488281 6.45605C 0.488281 5.59668 0.672201 4.90983 1.04004 4.39551C 1.40788 3.87793 1.91081 3.61914 2.54883 3.61914C 3.20964 3.61914 3.71419 3.88118 4.0625 4.40527L 4.14551 3.7168L 4.91211 3.7168ZM 1.3916 6.55859C 1.3916 7.12826 1.51042 7.57259 1.74805 7.8916C 1.98568 8.20736 2.32422 8.36523 2.76367 8.36523C 3.32682 8.36523 3.74186 8.0625 4.00879 7.45703L 4.00879 5.2793C 3.7321 4.66732 3.32031 4.36133 2.77344 4.36133C 2.33724 4.36133 1.99707 4.54688 1.75293 4.91797C 1.51204 5.28581 1.3916 5.83268 1.3916 6.55859Z"/>
<path id="path14_fill" d="M 2.9541 1.79297C 3.58236 1.79297 4.08691 1.97201 4.46777 2.33008C 4.85189 2.6849 5.04395 3.14551 5.04395 3.71191C 5.04395 4.00814 4.96419 4.27995 4.80469 4.52734C 4.64518 4.77474 4.4222 4.97331 4.13574 5.12305C 4.53613 5.26953 4.84212 5.50228 5.05371 5.82129C 5.26855 6.13704 5.37598 6.50651 5.37598 6.92969C 5.37598 7.59701 5.17253 8.12598 4.76562 8.5166C 4.36198 8.90397 3.8265 9.09766 3.15918 9.09766C 2.56999 9.09766 2.08008 8.94303 1.68945 8.63379L 1.68945 10.875L 0.78125 10.875L 0.78125 3.76074C 0.78125 3.40918 0.880534 3.0804 1.0791 2.77441C 1.27767 2.46842 1.5446 2.22917 1.87988 2.05664C 2.21842 1.88086 2.5765 1.79297 2.9541 1.79297ZM 4.14062 3.69238C 4.14062 3.36035 4.02995 3.08529 3.80859 2.86719C 3.58724 2.64583 3.30241 2.53516 2.9541 2.53516C 2.60254 2.53516 2.30469 2.65072 2.06055 2.88184C 1.81641 3.11296 1.69271 3.40267 1.68945 3.75098L 1.68945 7.79883C 1.83268 7.9681 2.02148 8.10482 2.25586 8.20898C 2.49023 8.3099 2.76042 8.36035 3.06641 8.36035C 3.5026 8.36035 3.84603 8.23014 4.09668 7.96973C 4.34733 7.70931 4.47266 7.36914 4.47266 6.94922C 4.47266 6.5651 4.35872 6.23958 4.13086 5.97266C 3.90299 5.70247 3.61165 5.5625 3.25684 5.55273L 2.52441 5.55273L 2.52441 4.81055L 2.93945 4.81055C 3.33008 4.81055 3.62793 4.71452 3.83301 4.52246C 4.03809 4.32715 4.14062 4.05046 4.14062 3.69238Z"/>
<path id="path15_fill" d="M 5.24902 9L 0.59082 9L 0.59082 8.35059L 3.05176 5.61621C 3.41634 5.2028 3.66699 4.86751 3.80371 4.61035C 3.94368 4.34993 4.01367 4.08138 4.01367 3.80469C 4.01367 3.43359 3.90137 3.12923 3.67676 2.8916C 3.45215 2.65397 3.15267 2.53516 2.77832 2.53516C 2.3291 2.53516 1.97917 2.66374 1.72852 2.9209C 1.48112 3.1748 1.35742 3.52962 1.35742 3.98535L 0.454102 3.98535C 0.454102 3.33105 0.664062 2.80208 1.08398 2.39844C 1.50716 1.99479 2.07194 1.79297 2.77832 1.79297C 3.43913 1.79297 3.96159 1.96712 4.3457 2.31543C 4.72982 2.66048 4.92188 3.12109 4.92188 3.69727C 4.92188 4.39714 4.47591 5.23047 3.58398 6.19727L 1.67969 8.2627L 5.24902 8.2627L 5.24902 9ZM 8.56934 1.79297C 9.19759 1.79297 9.70215 1.97201 10.083 2.33008C 10.4671 2.6849 10.6592 3.14551 10.6592 3.71191C 10.6592 4.00814 10.5794 4.27995 10.4199 4.52734C 10.2604 4.77474 10.0374 4.97331 9.75098 5.12305C 10.1514 5.26953 10.4574 5.50228 10.6689 5.82129C 10.8838 6.13704 10.9912 6.50651 10.9912 6.92969C 10.9912 7.59701 10.7878 8.12598 10.3809 8.5166C 9.97721 8.90397 9.44173 9.09766 8.77441 9.09766C 8.18522 9.09766 7.69531 8.94303 7.30469 8.63379L 7.30469 10.875L 6.39648 10.875L 6.39648 3.76074C 6.39648 3.40918 6.49577 3.0804 6.69434 2.77441C 6.8929 2.46842 7.15983 2.22917 7.49512 2.05664C 7.83366 1.88086 8.19173 1.79297 8.56934 1.79297ZM 9.75586 3.69238C 9.75586 3.36035 9.64518 3.08529 9.42383 2.86719C 9.20247 2.64583 8.91764 2.53516 8.56934 2.53516C 8.21777 2.53516 7.91992 2.65072 7.67578 2.88184C 7.43164 3.11296 7.30794 3.40267 7.30469 3.75098L 7.30469 7.79883C 7.44792 7.9681 7.63672 8.10482 7.87109 8.20898C 8.10547 8.3099 8.37565 8.36035 8.68164 8.36035C 9.11784 8.36035 9.46126 8.23014 9.71191 7.96973C 9.96257 7.70931 10.0879 7.36914 10.0879 6.94922C 10.0879 6.5651 9.97396 6.23958 9.74609 5.97266C 9.51823 5.70247 9.22689 5.5625 8.87207 5.55273L 8.13965 5.55273L 8.13965 4.81055L 8.55469 4.81055C 8.94531 4.81055 9.24316 4.71452 9.44824 4.52246C 9.65332 4.32715 9.75586 4.05046 9.75586 3.69238Z"/>
<path id="path16_fill" d="M 4.05273 5.875C 3.86393 6.09961 3.6377 6.28027 3.37402 6.41699C 3.11361 6.55371 2.82715 6.62207 2.51465 6.62207C 2.10449 6.62207 1.74642 6.52116 1.44043 6.31934C 1.1377 6.11751 0.90332 5.83431 0.737305 5.46973C 0.571289 5.10189 0.488281 4.69661 0.488281 4.25391C 0.488281 3.77865 0.577799 3.35059 0.756836 2.96973C 0.939128 2.58887 1.19629 2.29753 1.52832 2.0957C 1.86035 1.89388 2.24772 1.79297 2.69043 1.79297C 3.39355 1.79297 3.94694 2.05664 4.35059 2.58398C 4.75749 3.10807 4.96094 3.82422 4.96094 4.73242L 4.96094 4.99609C 4.96094 6.37956 4.6875 7.3903 4.14062 8.02832C 3.59375 8.66309 2.76855 8.98861 1.66504 9.00488L 1.48926 9.00488L 1.48926 8.24316L 1.67969 8.24316C 2.42513 8.23014 2.99805 8.03646 3.39844 7.66211C 3.79883 7.28451 4.01693 6.6888 4.05273 5.875ZM 2.66113 5.875C 2.96387 5.875 3.24219 5.78223 3.49609 5.59668C 3.75326 5.41113 3.94043 5.18164 4.05762 4.9082L 4.05762 4.54688C 4.05762 3.95443 3.92904 3.47266 3.67188 3.10156C 3.41471 2.73047 3.08919 2.54492 2.69531 2.54492C 2.29818 2.54492 1.97917 2.69792 1.73828 3.00391C 1.4974 3.30664 1.37695 3.70703 1.37695 4.20508C 1.37695 4.6901 1.49251 5.09049 1.72363 5.40625C 1.95801 5.71875 2.27051 5.875 2.66113 5.875ZM 9.66406 5.96777C 9.66406 7.02572 9.4834 7.81185 9.12207 8.32617C 8.76074 8.84049 8.19596 9.09766 7.42773 9.09766C 6.66927 9.09766 6.10775 8.84701 5.74316 8.3457C 5.37858 7.84115 5.18978 7.08919 5.17676 6.08984L 5.17676 4.88379C 5.17676 3.83887 5.35742 3.0625 5.71875 2.55469C 6.08008 2.04688 6.64648 1.79297 7.41797 1.79297C 8.18294 1.79297 8.74609 2.03874 9.10742 2.53027C 9.46875 3.01855 9.6543 3.77376 9.66406 4.7959L 9.66406 5.96777ZM 8.76074 4.73242C 8.76074 3.96745 8.65332 3.41081 8.43848 3.0625C 8.22363 2.71094 7.88346 2.53516 7.41797 2.53516C 6.95573 2.53516 6.61882 2.70931 6.40723 3.05762C 6.19564 3.40592 6.08659 3.94141 6.08008 4.66406L 6.08008 6.10938C 6.08008 6.8776 6.19076 7.44564 6.41211 7.81348C 6.63672 8.17806 6.97526 8.36035 7.42773 8.36035C 7.8737 8.36035 8.2041 8.18783 8.41895 7.84277C 8.63704 7.49772 8.75098 6.9541 8.76074 6.21191L 8.76074 4.73242ZM 9.82617 3.5166C 9.82617 3.00228 9.97917 2.58724 10.2852 2.27148C 10.5911 1.95247 10.9948 1.79297 11.4961 1.79297C 12.0007 1.79297 12.4059 1.95085 12.7119 2.2666C 13.0179 2.5791 13.1709 3.00553 13.1709 3.5459L 13.1709 3.90723C 13.1709 4.4248 13.0179 4.84147 12.7119 5.15723C 12.4092 5.47298 12.0072 5.63086 11.5059 5.63086C 11.0046 5.63086 10.5993 5.47298 10.29 5.15723C 9.98079 4.84147 9.82617 4.41504 9.82617 3.87793L 9.82617 3.5166ZM 10.6221 3.90723C 10.6221 4.23275 10.7002 4.48828 10.8564 4.67383C 11.016 4.85938 11.2324 4.95215 11.5059 4.95215C 11.776 4.95215 11.9876 4.85938 12.1406 4.67383C 12.2969 4.48503 12.375 4.22624 12.375 3.89746L 12.375 3.5166C 12.375 3.19434 12.2952 2.94043 12.1357 2.75488C 11.9795 2.56934 11.7663 2.47656 11.4961 2.47656C 11.2324 2.47656 11.0225 2.56608 10.8662 2.74512C 10.71 2.92415 10.6286 3.17155 10.6221 3.4873L 10.6221 3.90723ZM 15.3447 6.34863L 12.9619 6.34863L 12.9619 5.61133L 15.3447 5.61133L 15.3447 6.34863ZM 20.457 3.7168L 20.457 7.6084C 20.4635 8.06413 20.5938 8.29199 20.8477 8.29199C 20.9095 8.29199 20.9648 8.28385 21.0137 8.26758L 21.126 8.93652C 20.9697 9.0472 20.7712 9.10254 20.5303 9.10254C 20.0518 9.10254 19.7507 8.83398 19.627 8.29688C 19.2786 8.83398 18.7643 9.10254 18.084 9.10254C 17.459 9.10254 16.9609 8.87305 16.5898 8.41406C 16.2188 7.95182 16.0332 7.32357 16.0332 6.5293L 16.0332 6.45605C 16.0332 5.59668 16.2171 4.90983 16.585 4.39551C 16.9528 3.87793 17.4557 3.61914 18.0938 3.61914C 18.7546 3.61914 19.2591 3.88118 19.6074 4.40527L 19.6904 3.7168L 20.457 3.7168ZM 16.9365 6.55859C 16.9365 7.12826 17.0553 7.57259 17.293 7.8916C 17.5306 8.20736 17.8691 8.36523 18.3086 8.36523C 18.8717 8.36523 19.2868 8.0625 19.5537 7.45703L 19.5537 5.2793C 19.277 4.66732 18.8652 4.36133 18.3184 4.36133C 17.8822 4.36133 17.542 4.54688 17.2979 4.91797C 17.057 5.28581 16.9365 5.83268 16.9365 6.55859Z"/>
<path id="path17_fill" d="M 4.05273 5.875C 3.86393 6.09961 3.6377 6.28027 3.37402 6.41699C 3.11361 6.55371 2.82715 6.62207 2.51465 6.62207C 2.10449 6.62207 1.74642 6.52116 1.44043 6.31934C 1.1377 6.11751 0.90332 5.83431 0.737305 5.46973C 0.571289 5.10189 0.488281 4.69661 0.488281 4.25391C 0.488281 3.77865 0.577799 3.35059 0.756836 2.96973C 0.939128 2.58887 1.19629 2.29753 1.52832 2.0957C 1.86035 1.89388 2.24772 1.79297 2.69043 1.79297C 3.39355 1.79297 3.94694 2.05664 4.35059 2.58398C 4.75749 3.10807 4.96094 3.82422 4.96094 4.73242L 4.96094 4.99609C 4.96094 6.37956 4.6875 7.3903 4.14062 8.02832C 3.59375 8.66309 2.76855 8.98861 1.66504 9.00488L 1.48926 9.00488L 1.48926 8.24316L 1.67969 8.24316C 2.42513 8.23014 2.99805 8.03646 3.39844 7.66211C 3.79883 7.28451 4.01693 6.6888 4.05273 5.875ZM 2.66113 5.875C 2.96387 5.875 3.24219 5.78223 3.49609 5.59668C 3.75326 5.41113 3.94043 5.18164 4.05762 4.9082L 4.05762 4.54688C 4.05762 3.95443 3.92904 3.47266 3.67188 3.10156C 3.41471 2.73047 3.08919 2.54492 2.69531 2.54492C 2.29818 2.54492 1.97917 2.69792 1.73828 3.00391C 1.4974 3.30664 1.37695 3.70703 1.37695 4.20508C 1.37695 4.6901 1.49251 5.09049 1.72363 5.40625C 1.95801 5.71875 2.27051 5.875 2.66113 5.875ZM 9.66406 5.96777C 9.66406 7.02572 9.4834 7.81185 9.12207 8.32617C 8.76074 8.84049 8.19596 9.09766 7.42773 9.09766C 6.66927 9.09766 6.10775 8.84701 5.74316 8.3457C 5.37858 7.84115 5.18978 7.08919 5.17676 6.08984L 5.17676 4.88379C 5.17676 3.83887 5.35742 3.0625 5.71875 2.55469C 6.08008 2.04688 6.64648 1.79297 7.41797 1.79297C 8.18294 1.79297 8.74609 2.03874 9.10742 2.53027C 9.46875 3.01855 9.6543 3.77376 9.66406 4.7959L 9.66406 5.96777ZM 8.76074 4.73242C 8.76074 3.96745 8.65332 3.41081 8.43848 3.0625C 8.22363 2.71094 7.88346 2.53516 7.41797 2.53516C 6.95573 2.53516 6.61882 2.70931 6.40723 3.05762C 6.19564 3.40592 6.08659 3.94141 6.08008 4.66406L 6.08008 6.10938C 6.08008 6.8776 6.19076 7.44564 6.41211 7.81348C 6.63672 8.17806 6.97526 8.36035 7.42773 8.36035C 7.8737 8.36035 8.2041 8.18783 8.41895 7.84277C 8.63704 7.49772 8.75098 6.9541 8.76074 6.21191L 8.76074 4.73242ZM 9.82617 3.5166C 9.82617 3.00228 9.97917 2.58724 10.2852 2.27148C 10.5911 1.95247 10.9948 1.79297 11.4961 1.79297C 12.0007 1.79297 12.4059 1.95085 12.7119 2.2666C 13.0179 2.5791 13.1709 3.00553 13.1709 3.5459L 13.1709 3.90723C 13.1709 4.4248 13.0179 4.84147 12.7119 5.15723C 12.4092 5.47298 12.0072 5.63086 11.5059 5.63086C 11.0046 5.63086 10.5993 5.47298 10.29 5.15723C 9.98079 4.84147 9.82617 4.41504 9.82617 3.87793L 9.82617 3.5166ZM 10.6221 3.90723C 10.6221 4.23275 10.7002 4.48828 10.8564 4.67383C 11.016 4.85938 11.2324 4.95215 11.5059 4.95215C 11.776 4.95215 11.9876 4.85938 12.1406 4.67383C 12.2969 4.48503 12.375 4.22624 12.375 3.89746L 12.375 3.5166C 12.375 3.19434 12.2952 2.94043 12.1357 2.75488C 11.9795 2.56934 11.7663 2.47656 11.4961 2.47656C 11.2324 2.47656 11.0225 2.56608 10.8662 2.74512C 10.71 2.92415 10.6286 3.17155 10.6221 3.4873L 10.6221 3.90723ZM 16.0527 5.18652L 18.0352 5.18652L 18.0352 6.04102L 16.0527 6.04102L 16.0527 8.28711L 15.1445 8.28711L 15.1445 6.04102L 13.1621 6.04102L 13.1621 5.18652L 15.1445 5.18652L 15.1445 3.11133L 16.0527 3.11133L 16.0527 5.18652ZM 23.3672 3.7168L 23.3672 7.6084C 23.3737 8.06413 23.5039 8.29199 23.7578 8.29199C 23.8197 8.29199 23.875 8.28385 23.9238 8.26758L 24.0361 8.93652C 23.8799 9.0472 23.6813 9.10254 23.4404 9.10254C 22.9619 9.10254 22.6608 8.83398 22.5371 8.29688C 22.1888 8.83398 21.6745 9.10254 20.9941 9.10254C 20.3691 9.10254 19.8711 8.87305 19.5 8.41406C 19.1289 7.95182 18.9434 7.32357 18.9434 6.5293L 18.9434 6.45605C 18.9434 5.59668 19.1273 4.90983 19.4951 4.39551C 19.863 3.87793 20.3659 3.61914 21.0039 3.61914C 21.6647 3.61914 22.1693 3.88118 22.5176 4.40527L 22.6006 3.7168L 23.3672 3.7168ZM 19.8467 6.55859C 19.8467 7.12826 19.9655 7.57259 20.2031 7.8916C 20.4408 8.20736 20.7793 8.36523 21.2188 8.36523C 21.7819 8.36523 22.1969 8.0625 22.4639 7.45703L 22.4639 5.2793C 22.1872 4.66732 21.7754 4.36133 21.2285 4.36133C 20.7923 4.36133 20.4521 4.54688 20.208 4.91797C 19.9671 5.28581 19.8467 5.83268 19.8467 6.55859ZM 26.6729 6.34863L 24.29 6.34863L 24.29 5.61133L 26.6729 5.61133L 26.6729 6.34863ZM 29.8271 1.79297C 30.4554 1.79297 30.96 1.97201 31.3408 2.33008C 31.7249 2.6849 31.917 3.14551 31.917 3.71191C 31.917 4.00814 31.8372 4.27995 31.6777 4.52734C 31.5182 4.77474 31.2952 4.97331 31.0088 5.12305C 31.4092 5.26953 31.7152 5.50228 31.9268 5.82129C 32.1416 6.13704 32.249 6.50651 32.249 6.92969C 32.249 7.59701 32.0456 8.12598 31.6387 8.5166C 31.235 8.90397 30.6995 9.09766 30.0322 9.09766C 29.443 9.09766 28.9531 8.94303 28.5625 8.63379L 28.5625 10.875L 27.6543 10.875L 27.6543 3.76074C 27.6543 3.40918 27.7536 3.0804 27.9521 2.77441C 28.1507 2.46842 28.4176 2.22917 28.7529 2.05664C 29.0915 1.88086 29.4495 1.79297 29.8271 1.79297ZM 31.0137 3.69238C 31.0137 3.36035 30.903 3.08529 30.6816 2.86719C 30.4603 2.64583 30.1755 2.53516 29.8271 2.53516C 29.4756 2.53516 29.1777 2.65072 28.9336 2.88184C 28.6895 3.11296 28.5658 3.40267 28.5625 3.75098L 28.5625 7.79883C 28.7057 7.9681 28.8945 8.10482 29.1289 8.20898C 29.3633 8.3099 29.6335 8.36035 29.9395 8.36035C 30.3757 8.36035 30.7191 8.23014 30.9697 7.96973C 31.2204 7.70931 31.3457 7.36914 31.3457 6.94922C 31.3457 6.5651 31.2318 6.23958 31.0039 5.97266C 30.776 5.70247 30.4847 5.5625 30.1299 5.55273L 29.3975 5.55273L 29.3975 4.81055L 29.8125 4.81055C 30.2031 4.81055 30.501 4.71452 30.7061 4.52246C 30.9111 4.32715 31.0137 4.05046 31.0137 3.69238Z"/>
<path id="path18_fill" d="M 0.697266 11L 1.6582 5.49805L 0.679688 5.49805L 0.826172 4.66016L 1.79883 4.66016L 1.9043 3.91016C 2.00586 3.27344 2.25195 2.77539 2.64258 2.41602C 3.05273 2.04102 3.57617 1.85742 4.21289 1.86523C 4.41211 1.86523 4.66406 1.89844 4.96875 1.96484L 4.83984 2.84961C 4.65234 2.81055 4.46289 2.78711 4.27148 2.7793C 3.9043 2.7793 3.60547 2.89453 3.375 3.125C 3.14844 3.35156 3.00781 3.6543 2.95312 4.0332L 2.85938 4.66016L 4.17188 4.66016L 4.02539 5.49805L 2.71289 5.49805L 1.75781 11L 0.697266 11ZM 7.80469 4.54297C 8.33594 4.55078 8.79102 4.69531 9.16992 4.97656C 9.54883 5.25781 9.82812 5.64648 10.0078 6.14258C 10.1914 6.63477 10.2539 7.17383 10.1953 7.75977L 10.1836 7.88867C 10.1094 8.50586 9.92578 9.06445 9.63281 9.56445C 9.33984 10.0605 8.96094 10.4473 8.49609 10.7246C 8.03125 11.002 7.52148 11.1328 6.9668 11.1172C 6.43945 11.1094 5.98438 10.9648 5.60156 10.6836C 5.22266 10.4023 4.94531 10.0195 4.76953 9.53516C 4.59375 9.05078 4.53125 8.51758 4.58203 7.93555C 4.64062 7.2793 4.81836 6.68945 5.11523 6.16602C 5.41211 5.64258 5.79297 5.23828 6.25781 4.95312C 6.72656 4.66406 7.24219 4.52734 7.80469 4.54297ZM 5.64844 7.94141C 5.62109 8.1875 5.62109 8.44336 5.64844 8.70898C 5.6875 9.16992 5.82422 9.53711 6.05859 9.81055C 6.29687 10.084 6.61328 10.2266 7.00781 10.2383C 7.35938 10.25 7.68359 10.1641 7.98047 9.98047C 8.27734 9.79297 8.52734 9.51172 8.73047 9.13672C 8.93359 8.76172 9.06445 8.3457 9.12305 7.88867C 9.1543 7.5293 9.16016 7.22656 9.14062 6.98047C 9.09375 6.50781 8.95117 6.13477 8.71289 5.86133C 8.47461 5.58789 8.1582 5.44336 7.76367 5.42773C 7.2168 5.41602 6.75195 5.63086 6.36914 6.07227C 5.98633 6.51367 5.75 7.0918 5.66016 7.80664L 5.64844 7.94141ZM 14.5078 4.54297C 15.0391 4.55078 15.4941 4.69531 15.873 4.97656C 16.252 5.25781 16.5312 5.64648 16.7109 6.14258C 16.8945 6.63477 16.957 7.17383 16.8984 7.75977L 16.8867 7.88867C 16.8125 8.50586 16.6289 9.06445 16.3359 9.56445C 16.043 10.0605 15.6641 10.4473 15.1992 10.7246C 14.7344 11.002 14.2246 11.1328 13.6699 11.1172C 13.1426 11.1094 12.6875 10.9648 12.3047 10.6836C 11.9258 10.4023 11.6484 10.0195 11.4727 9.53516C 11.2969 9.05078 11.2344 8.51758 11.2852 7.93555C 11.3438 7.2793 11.5215 6.68945 11.8184 6.16602C 12.1152 5.64258 12.4961 5.23828 12.9609 4.95312C 13.4297 4.66406 13.9453 4.52734 14.5078 4.54297ZM 12.3516 7.94141C 12.3242 8.1875 12.3242 8.44336 12.3516 8.70898C 12.3906 9.16992 12.5273 9.53711 12.7617 9.81055C 13 10.084 13.3164 10.2266 13.7109 10.2383C 14.0625 10.25 14.3867 10.1641 14.6836 9.98047C 14.9805 9.79297 15.2305 9.51172 15.4336 9.13672C 15.6367 8.76172 15.7676 8.3457 15.8262 7.88867C 15.8574 7.5293 15.8633 7.22656 15.8438 6.98047C 15.7969 6.50781 15.6543 6.13477 15.416 5.86133C 15.1777 5.58789 14.8613 5.44336 14.4668 5.42773C 13.9199 5.41602 13.4551 5.63086 13.0723 6.07227C 12.6895 6.51367 12.4531 7.0918 12.3633 7.80664L 12.3516 7.94141ZM 20.4902 3.125L 20.2207 4.66016L 21.375 4.66016L 21.2285 5.49805L 20.0801 5.49805L 19.418 9.44141C 19.4062 9.54297 19.4043 9.63672 19.4121 9.72266C 19.4395 10.0273 19.6055 10.1797 19.9102 10.1797C 20.0391 10.1797 20.2109 10.1602 20.4258 10.1211L 20.3438 11.0059C 20.0898 11.0762 19.832 11.1113 19.5703 11.1113C 19.1484 11.1035 18.832 10.9492 18.6211 10.6484C 18.4102 10.3438 18.3281 9.93555 18.375 9.42383L 19.0195 5.49805L 17.9004 5.49805L 18.0469 4.66016L 19.166 4.66016L 19.4355 3.125L 20.4902 3.125Z"/>
<path id="path19_stroke" d="M -0.353553 -0.353553C -0.548816 -0.158291 -0.548816 0.158291 -0.353553 0.353553L 2.82843 3.53553C 3.02369 3.7308 3.34027 3.7308 3.53553 3.53553C 3.7308 3.34027 3.7308 3.02369 3.53553 2.82843L 0.707107 0L 3.53553 -2.82843C 3.7308 -3.02369 3.7308 -3.34027 3.53553 -3.53553C 3.34027 -3.7308 3.02369 -3.7308 2.82843 -3.53553L -0.353553 -0.353553ZM 152.354 0.353553C 152.549 0.158291 152.549 -0.158291 152.354 -0.353553L 149.172 -3.53553C 148.976 -3.7308 148.66 -3.7308 148.464 -3.53553C 148.269 -3.34027 148.269 -3.02369 148.464 -2.82843L 151.293 0L 148.464 2.82843C 148.269 3.02369 148.269 3.34027 148.464 3.53553C 148.66 3.7308 148.976 3.7308 149.172 3.53553L 152.354 0.353553ZM 0 0.5L 152 0.5L 152 -0.5L 0 -0.5L 0 0.5Z"/>
<path id="path20_stroke" d="M -0.353553 -0.353553C -0.548816 -0.158291 -0.548816 0.158291 -0.353553 0.353553L 2.82843 3.53553C 3.02369 3.7308 3.34027 3.7308 3.53553 3.53553C 3.7308 3.34027 3.7308 3.02369 3.53553 2.82843L 0.707107 0L 3.53553 -2.82843C 3.7308 -3.02369 3.7308 -3.34027 3.53553 -3.53553C 3.34027 -3.7308 3.02369 -3.7308 2.82843 -3.53553L -0.353553 -0.353553ZM 142.354 0.353553C 142.549 0.158291 142.549 -0.158291 142.354 -0.353553L 139.172 -3.53553C 138.976 -3.7308 138.66 -3.7308 138.464 -3.53553C 138.269 -3.34027 138.269 -3.02369 138.464 -2.82843L 141.293 0L 138.464 2.82843C 138.269 3.02369 138.269 3.34027 138.464 3.53553C 138.66 3.7308 138.976 3.7308 139.172 3.53553L 142.354 0.353553ZM 0 0.5L 142 0.5L 142 -0.5L 0 -0.5L 0 0.5Z"/>
<path id="path21_fill" d="M 1.69531 3.64844L 2.7002 2.30176L 3.45898 2.30176L 1.97559 4.16113L 2.87793 6L 2.20459 6L 1.59277 4.61914L 0.550293 6L -0.205078 6L 1.32275 4.09961L 0.447754 2.30176L 1.12451 2.30176L 1.69531 3.64844ZM 7.48877 6C 7.47282 5.93392 7.46484 5.86898 7.46484 5.80518L 7.4751 5.61035C 7.13558 5.9248 6.77555 6.07747 6.39502 6.06836C 6.06917 6.0638 5.80371 5.96126 5.59863 5.76074C 5.39583 5.55794 5.30355 5.30501 5.32178 5.00195C 5.34456 4.61003 5.51546 4.30469 5.83447 4.08594C 6.15576 3.86491 6.57731 3.75439 7.09912 3.75439L 7.74512 3.75781L 7.78613 3.46387C 7.80892 3.24284 7.76562 3.06852 7.65625 2.94092C 7.54915 2.81104 7.38737 2.74382 7.1709 2.73926C 6.95898 2.7347 6.771 2.78711 6.60693 2.89648C 6.44515 3.00358 6.34603 3.146 6.30957 3.32373L 5.6875 3.32715C 5.70801 3.11068 5.79232 2.91927 5.94043 2.75293C 6.08854 2.58431 6.27881 2.45443 6.51123 2.36328C 6.74365 2.26986 6.98405 2.22542 7.23242 2.22998C 7.61751 2.23909 7.91715 2.35645 8.13135 2.58203C 8.34554 2.80534 8.43555 3.1027 8.40137 3.47412L 8.10059 5.30615L 8.0835 5.56934C 8.07894 5.69466 8.09261 5.81885 8.12451 5.94189L 8.11768 6L 7.48877 6ZM 6.51807 5.52148C 6.71631 5.52604 6.90316 5.47933 7.07861 5.38135C 7.25635 5.28109 7.40902 5.14323 7.53662 4.96777L 7.66992 4.20557L 7.20166 4.20215C 6.81201 4.20215 6.51351 4.26367 6.30615 4.38672C 6.0988 4.50977 5.98145 4.68408 5.9541 4.90967C 5.93359 5.08285 5.97347 5.22754 6.07373 5.34375C 6.17627 5.45768 6.32438 5.51693 6.51807 5.52148ZM 10.5479 3.64844L 11.5527 2.30176L 12.3115 2.30176L 10.8281 4.16113L 11.7305 6L 11.0571 6L 10.4453 4.61914L 9.40283 6L 8.64746 6L 10.1753 4.09961L 9.30029 2.30176L 9.97705 2.30176L 10.5479 3.64844ZM 13.0327 6L 12.4175 6L 13.0601 2.30176L 13.6753 2.30176L 13.0327 6ZM 13.542 0.95166C 13.6468 0.947103 13.7334 0.979004 13.8018 1.04736C 13.8724 1.11344 13.9077 1.20117 13.9077 1.31055C 13.9054 1.41764 13.8701 1.50537 13.8018 1.57373C 13.7357 1.64209 13.6491 1.67855 13.542 1.68311C 13.4349 1.68766 13.3472 1.6569 13.2788 1.59082C 13.2104 1.52474 13.1774 1.43815 13.1797 1.33105C 13.182 1.22396 13.2161 1.13509 13.2822 1.06445C 13.3483 0.993815 13.4349 0.956218 13.542 0.95166ZM 16.3345 4.99854C 16.3687 4.74333 16.2285 4.56331 15.9141 4.4585L 15.2715 4.27051C 14.7292 4.08366 14.4671 3.77376 14.4854 3.34082C 14.5013 3.01497 14.6494 2.74837 14.9297 2.54102C 15.2122 2.33138 15.5438 2.22884 15.9243 2.2334C 16.298 2.23796 16.6011 2.34733 16.8335 2.56152C 17.0682 2.77344 17.181 3.05029 17.1719 3.39209L 16.5566 3.38867C 16.5612 3.2041 16.5031 3.05371 16.3823 2.9375C 16.2616 2.82129 16.1009 2.7609 15.9004 2.75635C 15.6862 2.75179 15.5016 2.8042 15.3467 2.91357C 15.2031 3.01611 15.12 3.15055 15.0972 3.31689C 15.0675 3.53109 15.1986 3.68717 15.4902 3.78516L 15.8013 3.87061C 16.2251 3.97998 16.5259 4.1224 16.7036 4.29785C 16.8813 4.47331 16.9634 4.69092 16.9497 4.95068C 16.936 5.18083 16.8608 5.38135 16.7241 5.55225C 16.5874 5.72314 16.4051 5.85417 16.1772 5.94531C 15.9494 6.03418 15.7067 6.0752 15.4492 6.06836C 15.0573 6.0638 14.7337 5.94987 14.4785 5.72656C 14.2233 5.50098 14.1003 5.21159 14.1094 4.8584L 14.728 4.86182C 14.728 5.06917 14.7941 5.23551 14.9263 5.36084C 15.0584 5.48617 15.2396 5.54883 15.4697 5.54883C 15.6953 5.55339 15.8901 5.50667 16.0542 5.40869C 16.2183 5.30843 16.3117 5.17171 16.3345 4.99854Z"/>
<path id="path22_fill" d="M 0.799805 5.48389L 2.87793 5.48389L 2.78564 6L -0.0649414 6L 0.0205078 5.50439L 2.44385 2.82471L 0.512695 2.82471L 0.608398 2.30176L 3.3291 2.30176L 3.24707 2.78027L 0.799805 5.48389ZM 7.48877 6C 7.47282 5.93392 7.46484 5.86898 7.46484 5.80518L 7.4751 5.61035C 7.13558 5.9248 6.77555 6.07747 6.39502 6.06836C 6.06917 6.0638 5.80371 5.96126 5.59863 5.76074C 5.39583 5.55794 5.30355 5.30501 5.32178 5.00195C 5.34456 4.61003 5.51546 4.30469 5.83447 4.08594C 6.15576 3.86491 6.57731 3.75439 7.09912 3.75439L 7.74512 3.75781L 7.78613 3.46387C 7.80892 3.24284 7.76562 3.06852 7.65625 2.94092C 7.54915 2.81104 7.38737 2.74382 7.1709 2.73926C 6.95898 2.7347 6.771 2.78711 6.60693 2.89648C 6.44515 3.00358 6.34603 3.146 6.30957 3.32373L 5.6875 3.32715C 5.70801 3.11068 5.79232 2.91927 5.94043 2.75293C 6.08854 2.58431 6.27881 2.45443 6.51123 2.36328C 6.74365 2.26986 6.98405 2.22542 7.23242 2.22998C 7.61751 2.23909 7.91715 2.35645 8.13135 2.58203C 8.34554 2.80534 8.43555 3.1027 8.40137 3.47412L 8.10059 5.30615L 8.0835 5.56934C 8.07894 5.69466 8.09261 5.81885 8.12451 5.94189L 8.11768 6L 7.48877 6ZM 6.51807 5.52148C 6.71631 5.52604 6.90316 5.47933 7.07861 5.38135C 7.25635 5.28109 7.40902 5.14323 7.53662 4.96777L 7.66992 4.20557L 7.20166 4.20215C 6.81201 4.20215 6.51351 4.26367 6.30615 4.38672C 6.0988 4.50977 5.98145 4.68408 5.9541 4.90967C 5.93359 5.08285 5.97347 5.22754 6.07373 5.34375C 6.17627 5.45768 6.32438 5.51693 6.51807 5.52148ZM 10.5479 3.64844L 11.5527 2.30176L 12.3115 2.30176L 10.8281 4.16113L 11.7305 6L 11.0571 6L 10.4453 4.61914L 9.40283 6L 8.64746 6L 10.1753 4.09961L 9.30029 2.30176L 9.97705 2.30176L 10.5479 3.64844ZM 13.0327 6L 12.4175 6L 13.0601 2.30176L 13.6753 2.30176L 13.0327 6ZM 13.542 0.95166C 13.6468 0.947103 13.7334 0.979004 13.8018 1.04736C 13.8724 1.11344 13.9077 1.20117 13.9077 1.31055C 13.9054 1.41764 13.8701 1.50537 13.8018 1.57373C 13.7357 1.64209 13.6491 1.67855 13.542 1.68311C 13.4349 1.68766 13.3472 1.6569 13.2788 1.59082C 13.2104 1.52474 13.1774 1.43815 13.1797 1.33105C 13.182 1.22396 13.2161 1.13509 13.2822 1.06445C 13.3483 0.993815 13.4349 0.956218 13.542 0.95166ZM 16.3345 4.99854C 16.3687 4.74333 16.2285 4.56331 15.9141 4.4585L 15.2715 4.27051C 14.7292 4.08366 14.4671 3.77376 14.4854 3.34082C 14.5013 3.01497 14.6494 2.74837 14.9297 2.54102C 15.2122 2.33138 15.5438 2.22884 15.9243 2.2334C 16.298 2.23796 16.6011 2.34733 16.8335 2.56152C 17.0682 2.77344 17.181 3.05029 17.1719 3.39209L 16.5566 3.38867C 16.5612 3.2041 16.5031 3.05371 16.3823 2.9375C 16.2616 2.82129 16.1009 2.7609 15.9004 2.75635C 15.6862 2.75179 15.5016 2.8042 15.3467 2.91357C 15.2031 3.01611 15.12 3.15055 15.0972 3.31689C 15.0675 3.53109 15.1986 3.68717 15.4902 3.78516L 15.8013 3.87061C 16.2251 3.97998 16.5259 4.1224 16.7036 4.29785C 16.8813 4.47331 16.9634 4.69092 16.9497 4.95068C 16.936 5.18083 16.8608 5.38135 16.7241 5.55225C 16.5874 5.72314 16.4051 5.85417 16.1772 5.94531C 15.9494 6.03418 15.7067 6.0752 15.4492 6.06836C 15.0573 6.0638 14.7337 5.94987 14.4785 5.72656C 14.2233 5.50098 14.1003 5.21159 14.1094 4.8584L 14.728 4.86182C 14.728 5.06917 14.7941 5.23551 14.9263 5.36084C 15.0584 5.48617 15.2396 5.54883 15.4697 5.54883C 15.6953 5.55339 15.8901 5.50667 16.0542 5.40869C 16.2183 5.30843 16.3117 5.17171 16.3345 4.99854Z"/>
<path id="path23_fill" d="M 7.54688 11L 6.41602 11L 6.41602 7.05664L 2.11523 7.05664L 2.11523 11L 0.990234 11L 0.990234 2.46875L 2.11523 2.46875L 2.11523 6.13672L 6.41602 6.13672L 6.41602 2.46875L 7.54688 2.46875L 7.54688 11ZM 10.5527 11L 9.46875 11L 9.46875 4.66016L 10.5527 4.66016L 10.5527 11ZM 9.38086 2.97852C 9.38086 2.80273 9.43359 2.6543 9.53906 2.5332C 9.64844 2.41211 9.80859 2.35156 10.0195 2.35156C 10.2305 2.35156 10.3906 2.41211 10.5 2.5332C 10.6094 2.6543 10.6641 2.80273 10.6641 2.97852C 10.6641 3.1543 10.6094 3.30078 10.5 3.41797C 10.3906 3.53516 10.2305 3.59375 10.0195 3.59375C 9.80859 3.59375 9.64844 3.53516 9.53906 3.41797C 9.43359 3.30078 9.38086 3.1543 9.38086 2.97852ZM 17.6484 7.90039C 17.6484 8.86523 17.4277 9.64258 16.9863 10.2324C 16.5449 10.8223 15.9473 11.1172 15.1934 11.1172C 14.4238 11.1172 13.8184 10.873 13.377 10.3848L 13.377 13.4375L 12.293 13.4375L 12.293 4.66016L 13.2832 4.66016L 13.3359 5.36328C 13.7773 4.81641 14.3906 4.54297 15.1758 4.54297C 15.9375 4.54297 16.5391 4.83008 16.9805 5.4043C 17.4258 5.97852 17.6484 6.77734 17.6484 7.80078L 17.6484 7.90039ZM 16.5645 7.77734C 16.5645 7.0625 16.4121 6.49805 16.1074 6.08398C 15.8027 5.66992 15.3848 5.46289 14.8535 5.46289C 14.1973 5.46289 13.7051 5.75391 13.377 6.33594L 13.377 9.36523C 13.7012 9.94336 14.1973 10.2324 14.8652 10.2324C 15.3848 10.2324 15.7969 10.0273 16.1016 9.61719C 16.4102 9.20313 16.5645 8.58984 16.5645 7.77734Z"/>
<path id="path24_stroke" d="M 0.257248 21.642L 1.51994 20.8843L 1.00544 20.0268L -0.257248 20.7845L 0.257248 21.642ZM 4.04531 19.3691L 6.57069 17.8539L 6.0562 16.9964L 3.53082 18.5116L 4.04531 19.3691ZM 9.09607 16.3386L 11.6214 14.8234L 11.107 13.9659L 8.58157 15.4812L 9.09607 16.3386ZM 14.1468 13.3082L 16.6722 11.793L 16.1577 10.9355L 13.6323 12.4507L 14.1468 13.3082ZM 19.1976 10.2777L 21.723 8.7625L 21.2085 7.90501L 18.6831 9.42024L 19.1976 10.2777ZM 24.2483 7.24728L 26.7737 5.73205L 26.2592 4.87455L 23.7338 6.38978L 24.2483 7.24728ZM 29.2991 4.21682L 31.8245 2.70159L 31.31 1.8441L 28.7846 3.35933L 29.2991 4.21682ZM 34.3498 1.18636L 35.6125 0.428746L 35.098 -0.428746L 33.8354 0.328868L 34.3498 1.18636Z"/>
<path id="path25_stroke" d="M 0.260367 52.3992L 85.4667 0.42686L 84.946 -0.42686L -0.260367 51.5455L 0.260367 52.3992Z"/>
<path id="path26_stroke" d="M 51.2987 61.9088L 0.386979 -0.316619L -0.386979 0.316619L 50.5247 62.542L 51.2987 61.9088Z"/>
<path id="path27_stroke" d="M -0.396206 0.304993L 0.549549 1.53359L 1.34196 0.923605L 0.396206 -0.304993L -0.396206 0.304993ZM 2.44106 3.99079L 4.33257 6.44798L 5.12498 5.838L 3.23347 3.3808L 2.44106 3.99079ZM 6.22408 8.90518L 8.11559 11.3624L 8.908 10.7524L 7.01649 8.29519L 6.22408 8.90518ZM 10.0071 13.8196L 11.8986 16.2768L 12.691 15.6668L 10.7995 13.2096L 10.0071 13.8196ZM 13.7901 18.734L 15.6816 21.1912L 16.474 20.5812L 14.5825 18.124L 13.7901 18.734ZM 17.5731 23.6484L 18.5189 24.877L 19.3113 24.267L 18.3656 23.0384L 17.5731 23.6484Z"/>
<path id="path28_stroke" d="M 0.132979 4.3291L 25.0115 0.991119L 24.7456 -0.991119L -0.132979 2.34686L 0.132979 4.3291Z"/>
<path id="path29_stroke" d="M 3.75744e-15 0L 3.75744e-15 -0.5L -0.5 -0.5L -0.5 -3.1312e-16L 3.75744e-15 0ZM 3.75744e-15 0.5L 6 0.5L 6 -0.5L 3.75744e-15 -0.5L 3.75744e-15 0.5ZM -0.5 -3.1312e-16L -0.5 6L 0.5 6L 0.5 3.1312e-16L -0.5 -3.1312e-16Z"/>
<path id="path30_stroke" d="M 12.3259 -0.127701C 10.2166 7.8808 5.75555 14.8589 -0.3274 20.1221L 0.3274 20.8779C 6.51209 15.5129 11.1323 8.2826 13.2927 0.127701L 12.3259 -0.127701Z"/>
<path id="path31_stroke" d="M 12.2227 -0.127858C 10.1566 7.70807 5.72339 14.5049 -0.320708 19.5509L 0.320708 20.3181C 6.47112 15.1689 11.0704 8.1142 13.1895 0.127858L 12.2227 -0.127858Z"/>
<path id="path32_stroke" d="M 25.347 -0.393523C 18.6478 4.8574 9.19849 8 0 8L 0 9C 9.40453 9 19.0752 5.79291 25.9639 0.393523L 25.347 -0.393523Z"/>
<path id="path33_stroke" d="M 0.5 11C 0.5 6.79875 2.28611 3.01543 5.14189 0.366586L 4.46184 -0.366586C 1.4106 2.46355 -0.5 6.50903 -0.5 11L 0.5 11ZM 0.507908 11.4836C 0.502588 11.3217 0.499983 11.1632 0.5 11L -0.5 11C -0.499983 11.1714 -0.497109 11.3463 -0.491556 11.5164L 0.507908 11.4836Z"/>
<path id="path34_fill" d="M 6.14205 0.102041L 8 0.102041L 4.38332 6.23178C 4.4735 6.88775 4.5186 7.46113 4.5186 7.95189C 4.5186 9.3173 4.20293 10 3.57159 10C 3.11462 10 2.88613 9.71331 2.88613 9.13994C 2.88613 8.39164 3.22284 7.45384 3.89628 6.32653C 3.76399 5.62682 3.5791 4.78377 3.3416 3.79738C 3.10409 2.81099 2.86058 2.10399 2.61105 1.67638C 2.36152 1.24879 2.00526 1.03499 1.54228 1.03499C 0.784667 1.03499 0.378804 1.49174 0.324689 2.40525L 0 2.40525C 0 0.801755 0.58925 6.77817e-06 1.76776 0C 2.4472 6.77817e-06 2.95227 0.324351 3.28298 0.973032C 3.61368 1.62173 3.9534 3.03207 4.30214 5.20408L 6.14205 0.102041Z"/>
</defs>
</svg>
