<svg width="173" height="165" viewBox="0 0 173 165" version="1.1" xmlns="http://www.w3.org/2000/svg" xmlns:xlink="http://www.w3.org/1999/xlink">
<title>inverse-kinematics-frontalview</title>
<desc>Created using Figma</desc>
<g id="Canvas" transform="translate(-77 213)">
<clipPath id="clip-0" clip-rule="evenodd">
<path d="M 77 -213L 250 -213L 250 -48L 77 -48L 77 -213Z" fill="#FFFFFF"/>
</clipPath>
<g id="inverse-kinematics-frontalview" clip-path="url(#clip-0)">
<path d="M 77 -213L 250 -213L 250 -48L 77 -48L 77 -213Z" fill="#FFFFFF"/>
<g id="Line 5">
<use xlink:href="#path0_stroke" transform="translate(101 -106)" fill="#2D9CDB"/>
</g>
<g id="Line 5">
<use xlink:href="#path1_stroke" transform="matrix(6.12323e-17 1 -1 6.12323e-17 189.5 -106)" fill="#2D9CDB"/>
</g>
<g id="Y2">
<use xlink:href="#path2_fill" transform="translate(139 -102)"/>
</g>
<g id="Z2">
<use xlink:href="#path3_fill" transform="translate(83 -152)"/>
</g>
<g id="Z3">
<use xlink:href="#path4_fill" transform="translate(154 -157)"/>
</g>
<g id="Hiproll">
<use xlink:href="#path5_fill" transform="translate(108 -150)"/>
</g>
<g id="foot">
<use xlink:href="#path6_fill" transform="translate(196 -122)"/>
</g>
<g id="Arrow">
<use xlink:href="#path7_stroke" transform="matrix(6.12323e-17 1 1 -6.12323e-17 101 -204)"/>
</g>
<g id="Arrow">
<use xlink:href="#path8_stroke" transform="matrix(1 -2.67189e-24 -2.67189e-24 -1 90.5 -193.5)"/>
</g>
<g id="y axis">
<use xlink:href="#path9_fill" transform="translate(232 -207)"/>
</g>
<g id="z axis">
<use xlink:href="#path10_fill" transform="translate(77 -57)"/>
</g>
<g id="Hip">
<use xlink:href="#path11_fill" transform="translate(79 -213)"/>
</g>
<g id="Line 4">
<use xlink:href="#path12_stroke" transform="matrix(0.707107 0.707107 -0.707107 0.707107 101.452 -193.952)"/>
</g>
<g id="Line 4">
<use xlink:href="#path13_stroke" transform="matrix(0.707107 0.707107 -0.707107 0.707107 190.15 -105.557)"/>
</g>
<g id="Ellipse 2">
<use xlink:href="#path14_stroke" transform="translate(101 -165.017)" fill="#2D9CDB"/>
</g>
<g id="Ellipse 2">
<use xlink:href="#path15_stroke" transform="translate(189.5 -82.5)" fill="#2D9CDB"/>
</g>
<g id="Group">
<g id="Line 6">
<use xlink:href="#path16_stroke" transform="matrix(5.85701e-17 1 -1 6.40156e-17 107 -113)"/>
</g>
</g>
<g id="Footroll">
<use xlink:href="#path17_fill" transform="translate(203 -75)"/>
</g>
<g id="Line 7">
<use xlink:href="#path18_stroke" transform="translate(175 -106)"/>
</g>
</g>
</g>
<defs>
<path id="path0_stroke" d="M 0 0L 1.46667 0L 1.46667 -1L 0 -1L 0 0ZM 4.4 0L 7.33333 0L 7.33333 -1L 4.4 -1L 4.4 0ZM 10.2667 0L 13.2 0L 13.2 -1L 10.2667 -1L 10.2667 0ZM 16.1333 0L 19.0667 0L 19.0667 -1L 16.1333 -1L 16.1333 0ZM 22 0L 24.9333 0L 24.9333 -1L 22 -1L 22 0ZM 27.8667 0L 30.8 0L 30.8 -1L 27.8667 -1L 27.8667 0ZM 33.7333 0L 36.6667 0L 36.6667 -1L 33.7333 -1L 33.7333 0ZM 39.6 0L 42.5333 0L 42.5333 -1L 39.6 -1L 39.6 0ZM 45.4667 0L 48.4 0L 48.4 -1L 45.4667 -1L 45.4667 0ZM 51.3333 0L 54.2667 0L 54.2667 -1L 51.3333 -1L 51.3333 0ZM 57.2 0L 60.1333 0L 60.1333 -1L 57.2 -1L 57.2 0ZM 63.0667 0L 66 0L 66 -1L 63.0667 -1L 63.0667 0ZM 68.9333 0L 71.8667 0L 71.8667 -1L 68.9333 -1L 68.9333 0ZM 74.8 0L 77.7333 0L 77.7333 -1L 74.8 -1L 74.8 0ZM 80.6667 0L 83.6 0L 83.6 -1L 80.6667 -1L 80.6667 0ZM 86.5333 -5.55112e-17L 88 -5.55112e-17L 88 -1L 86.5333 -1L 86.5333 -5.55112e-17Z"/>
<path id="path1_stroke" d="M 0 0.25L 1.5 0.25L 1.5 -0.25L 0 -0.25L 0 0.25ZM 4.5 0.25L 7.5 0.25L 7.5 -0.25L 4.5 -0.25L 4.5 0.25ZM 10.5 0.25L 13.5 0.25L 13.5 -0.25L 10.5 -0.25L 10.5 0.25ZM 16.5 0.25L 19.5 0.25L 19.5 -0.25L 16.5 -0.25L 16.5 0.25ZM 22.5 0.25L 25.5 0.25L 25.5 -0.25L 22.5 -0.25L 22.5 0.25ZM 28.5 0.25L 31.5 0.25L 31.5 -0.25L 28.5 -0.25L 28.5 0.25ZM 34.5 0.25L 37.5 0.25L 37.5 -0.25L 34.5 -0.25L 34.5 0.25ZM 40.5 0.25L 42 0.25L 42 -0.25L 40.5 -0.25L 40.5 0.25ZM 0 0.5L 1.5 0.5L 1.5 -0.5L 0 -0.5L 0 0.5ZM 4.5 0.5L 7.5 0.5L 7.5 -0.5L 4.5 -0.5L 4.5 0.5ZM 10.5 0.5L 13.5 0.5L 13.5 -0.5L 10.5 -0.5L 10.5 0.5ZM 16.5 0.5L 19.5 0.5L 19.5 -0.5L 16.5 -0.5L 16.5 0.5ZM 22.5 0.5L 25.5 0.5L 25.5 -0.5L 22.5 -0.5L 22.5 0.5ZM 28.5 0.5L 31.5 0.5L 31.5 -0.5L 28.5 -0.5L 28.5 0.5ZM 34.5 0.5L 37.5 0.5L 37.5 -0.5L 34.5 -0.5L 34.5 0.5ZM 40.5 0.5L 42 0.5L 42 -0.5L 40.5 -0.5L 40.5 0.5Z"/>
<path id="path2_fill" d="M 3.5918 6.75195L 5.81836 2.46875L 7.0957 2.46875L 4.1543 7.81836L 4.1543 11L 3.0293 11L 3.0293 7.81836L 0.0878906 2.46875L 1.37695 2.46875L 3.5918 6.75195ZM 10.4541 11L 7.28564 11L 7.36084 10.5181L 9.19629 8.73389L 9.53125 8.40234C 9.91634 8.01725 10.1294 7.66178 10.1704 7.33594C 10.2 7.08529 10.151 6.88135 10.0234 6.72412C 9.89583 6.56462 9.71582 6.48031 9.4834 6.47119C 9.1849 6.46208 8.93538 6.5498 8.73486 6.73438C 8.53434 6.91667 8.41243 7.16732 8.36914 7.48633L 7.75732 7.48975C 7.78695 7.18441 7.88037 6.91439 8.0376 6.67969C 8.1971 6.44271 8.4056 6.26156 8.66309 6.13623C 8.92285 6.00863 9.20426 5.94824 9.50732 5.95508C 9.91976 5.96419 10.2467 6.08952 10.4883 6.33105C 10.7321 6.57031 10.8369 6.88135 10.8027 7.26416C 10.764 7.70166 10.5122 8.16195 10.0474 8.64502L 9.73291 8.96289L 8.1333 10.4839L 10.5361 10.4839L 10.4541 11Z"/>
<path id="path3_fill" d="M 1.83398 10.0801L 6.71484 10.0801L 6.71484 11L 0.503906 11L 0.503906 10.1562L 5.17969 3.39453L 0.580078 3.39453L 0.580078 2.46875L 6.52734 2.46875L 6.52734 3.29492L 1.83398 10.0801ZM 10.4307 11L 7.26221 11L 7.3374 10.5181L 9.17285 8.73389L 9.50781 8.40234C 9.8929 8.01725 10.106 7.66178 10.147 7.33594C 10.1766 7.08529 10.1276 6.88135 10 6.72412C 9.8724 6.56462 9.69238 6.48031 9.45996 6.47119C 9.16146 6.46208 8.91195 6.5498 8.71143 6.73438C 8.5109 6.91667 8.389 7.16732 8.3457 7.48633L 7.73389 7.48975C 7.76351 7.18441 7.85693 6.91439 8.01416 6.67969C 8.17367 6.44271 8.38216 6.26156 8.63965 6.13623C 8.89941 6.00863 9.18083 5.94824 9.48389 5.95508C 9.89632 5.96419 10.2233 6.08952 10.4648 6.33105C 10.7087 6.57031 10.8135 6.88135 10.7793 7.26416C 10.7406 7.70166 10.4888 8.16195 10.0239 8.64502L 9.70947 8.96289L 8.10986 10.4839L 10.5127 10.4839L 10.4307 11Z"/>
<path id="path4_fill" d="M 1.83398 10.0801L 6.71484 10.0801L 6.71484 11L 0.503906 11L 0.503906 10.1562L 5.17969 3.39453L 0.580078 3.39453L 0.580078 2.46875L 6.52734 2.46875L 6.52734 3.29492L 1.83398 10.0801ZM 8.60547 8.2041L 9.01562 8.20752C 9.31641 8.20752 9.56934 8.12891 9.77441 7.97168C 9.98177 7.81217 10.1003 7.59684 10.1299 7.32568C 10.1595 7.06136 10.1105 6.854 9.98291 6.70361C 9.85531 6.55094 9.6696 6.47233 9.42578 6.46777C 9.16602 6.46322 8.94499 6.53955 8.7627 6.69678C 8.58268 6.85173 8.47217 7.06136 8.43115 7.32568L 7.81934 7.3291C 7.85807 6.91895 8.03239 6.58626 8.34229 6.33105C 8.65446 6.07357 9.02588 5.9471 9.45654 5.95166C 9.87354 5.96077 10.2005 6.0918 10.4375 6.34473C 10.6768 6.59538 10.7804 6.92692 10.7485 7.33936C 10.728 7.57406 10.638 7.78825 10.4785 7.98193C 10.319 8.17562 10.098 8.33626 9.81543 8.46387C 10.041 8.55501 10.2096 8.69971 10.3213 8.89795C 10.4329 9.09391 10.4797 9.32406 10.4614 9.58838C 10.425 10.0373 10.2461 10.3984 9.9248 10.6719C 9.60579 10.9453 9.21729 11.0775 8.75928 11.0684C 8.33317 11.0592 7.99365 10.9271 7.74072 10.6719C 7.48779 10.4167 7.37044 10.0874 7.38867 9.68408L 8.00732 9.6875C 7.99365 9.94271 8.05518 10.1489 8.19189 10.3062C 8.32861 10.4611 8.52686 10.5431 8.78662 10.5522C 9.07829 10.5614 9.32096 10.4782 9.51465 10.3027C 9.70833 10.1273 9.81885 9.89258 9.84619 9.59863C 9.87126 9.32747 9.80973 9.1167 9.66162 8.96631C 9.51351 8.81364 9.29248 8.73275 8.99854 8.72363L 8.52344 8.72021L 8.60547 8.2041Z"/>
<path id="path5_fill" d="M 7.54688 11L 6.41602 11L 6.41602 7.05664L 2.11523 7.05664L 2.11523 11L 0.990234 11L 0.990234 2.46875L 2.11523 2.46875L 2.11523 6.13672L 6.41602 6.13672L 6.41602 2.46875L 7.54688 2.46875L 7.54688 11ZM 10.5527 11L 9.46875 11L 9.46875 4.66016L 10.5527 4.66016L 10.5527 11ZM 9.38086 2.97852C 9.38086 2.80273 9.43359 2.6543 9.53906 2.5332C 9.64844 2.41211 9.80859 2.35156 10.0195 2.35156C 10.2305 2.35156 10.3906 2.41211 10.5 2.5332C 10.6094 2.6543 10.6641 2.80273 10.6641 2.97852C 10.6641 3.1543 10.6094 3.30078 10.5 3.41797C 10.3906 3.53516 10.2305 3.59375 10.0195 3.59375C 9.80859 3.59375 9.64844 3.53516 9.53906 3.41797C 9.43359 3.30078 9.38086 3.1543 9.38086 2.97852ZM 17.6484 7.90039C 17.6484 8.86523 17.4277 9.64258 16.9863 10.2324C 16.5449 10.8223 15.9473 11.1172 15.1934 11.1172C 14.4238 11.1172 13.8184 10.873 13.377 10.3848L 13.377 13.4375L 12.293 13.4375L 12.293 4.66016L 13.2832 4.66016L 13.3359 5.36328C 13.7773 4.81641 14.3906 4.54297 15.1758 4.54297C 15.9375 4.54297 16.5391 4.83008 16.9805 5.4043C 17.4258 5.97852 17.6484 6.77734 17.6484 7.80078L 17.6484 7.90039ZM 16.5645 7.77734C 16.5645 7.0625 16.4121 6.49805 16.1074 6.08398C 15.8027 5.66992 15.3848 5.46289 14.8535 5.46289C 14.1973 5.46289 13.7051 5.75391 13.377 6.33594L 13.377 9.36523C 13.7012 9.94336 14.1973 10.2324 14.8652 10.2324C 15.3848 10.2324 15.7969 10.0273 16.1016 9.61719C 16.4102 9.20312 16.5645 8.58984 16.5645 7.77734ZM 20.6172 7.86572L 20.3267 7.83496C 19.9302 7.83496 19.618 8.01383 19.3901 8.37158L 18.9355 11L 18.3169 11L 18.9595 7.30176L 19.5576 7.29834L 19.4653 7.729C 19.7274 7.38493 20.0361 7.21745 20.3916 7.22656C 20.4668 7.22656 20.5648 7.24365 20.6855 7.27783L 20.6172 7.86572ZM 22.6338 7.2334C 22.9437 7.23796 23.2091 7.32227 23.4302 7.48633C 23.6512 7.65039 23.8141 7.87712 23.9189 8.1665C 24.026 8.45361 24.0625 8.76807 24.0283 9.10986L 24.0215 9.18506C 23.9782 9.54508 23.8711 9.87093 23.7002 10.1626C 23.5293 10.452 23.3083 10.6776 23.0371 10.8394C 22.766 11.0011 22.4686 11.0775 22.145 11.0684C 21.8374 11.0638 21.5719 10.9795 21.3486 10.8154C 21.1276 10.6514 20.9658 10.4281 20.8633 10.1455C 20.7607 9.86296 20.7243 9.55192 20.7539 9.2124C 20.7881 8.82959 20.8918 8.48551 21.0649 8.18018C 21.2381 7.87484 21.4603 7.639 21.7314 7.47266C 22.0049 7.30404 22.3057 7.22428 22.6338 7.2334ZM 21.376 9.21582C 21.36 9.35938 21.36 9.50863 21.376 9.66357C 21.3988 9.93245 21.4785 10.1466 21.6152 10.3062C 21.7542 10.4657 21.9388 10.5488 22.1689 10.5557C 22.374 10.5625 22.5632 10.5124 22.7363 10.4053C 22.9095 10.2959 23.0553 10.1318 23.1738 9.91309C 23.2923 9.69434 23.3687 9.45166 23.4028 9.18506C 23.4211 8.97542 23.4245 8.79883 23.4131 8.65527C 23.3857 8.37956 23.3026 8.16195 23.1636 8.00244C 23.0246 7.84294 22.84 7.75863 22.6099 7.74951C 22.2909 7.74268 22.0197 7.868 21.7964 8.12549C 21.5731 8.38298 21.4352 8.72021 21.3828 9.13721L 21.376 9.21582ZM 25.1597 11L 24.5444 11L 25.4536 5.75L 26.0723 5.75L 25.1597 11ZM 26.8413 11L 26.2261 11L 27.1353 5.75L 27.7539 5.75L 26.8413 11Z"/>
<path id="path6_fill" d="M 0.581055 9L 1.38184 4.41504L 0.566406 4.41504L 0.688477 3.7168L 1.49902 3.7168L 1.58691 3.0918C 1.67155 2.5612 1.87663 2.14616 2.20215 1.84668C 2.54395 1.53418 2.98014 1.38118 3.51074 1.3877C 3.67676 1.3877 3.88672 1.41536 4.14062 1.4707L 4.0332 2.20801C 3.87695 2.17546 3.71908 2.15592 3.55957 2.14941C 3.25358 2.14941 3.00456 2.24544 2.8125 2.4375C 2.6237 2.6263 2.50651 2.87858 2.46094 3.19434L 2.38281 3.7168L 3.47656 3.7168L 3.35449 4.41504L 2.26074 4.41504L 1.46484 9L 0.581055 9ZM 6.50391 3.61914C 6.94661 3.62565 7.32585 3.74609 7.6416 3.98047C 7.95736 4.21484 8.1901 4.53874 8.33984 4.95215C 8.49284 5.3623 8.54492 5.81152 8.49609 6.2998L 8.48633 6.40723C 8.42448 6.92155 8.27148 7.38704 8.02734 7.80371C 7.7832 8.21712 7.46745 8.53939 7.08008 8.77051C 6.69271 9.00163 6.2679 9.11068 5.80566 9.09766C 5.36621 9.09115 4.98698 8.9707 4.66797 8.73633C 4.35221 8.50195 4.12109 8.18294 3.97461 7.7793C 3.82812 7.37565 3.77604 6.93132 3.81836 6.44629C 3.86719 5.89941 4.0153 5.40788 4.2627 4.97168C 4.51009 4.53548 4.82747 4.19857 5.21484 3.96094C 5.60547 3.72005 6.03516 3.60612 6.50391 3.61914ZM 4.70703 6.45117C 4.68424 6.65625 4.68424 6.86947 4.70703 7.09082C 4.73958 7.47493 4.85352 7.78092 5.04883 8.00879C 5.2474 8.23665 5.51107 8.35547 5.83984 8.36523C 6.13281 8.375 6.40299 8.30339 6.65039 8.15039C 6.89779 7.99414 7.10612 7.75977 7.27539 7.44727C 7.44466 7.13477 7.55371 6.78809 7.60254 6.40723C 7.62858 6.10775 7.63346 5.85547 7.61719 5.65039C 7.57812 5.25651 7.45931 4.94564 7.26074 4.71777C 7.06217 4.48991 6.7985 4.36947 6.46973 4.35645C 6.014 4.34668 5.62663 4.52572 5.30762 4.89355C 4.98861 5.26139 4.79167 5.74316 4.7168 6.33887L 4.70703 6.45117ZM 12.0898 3.61914C 12.5326 3.62565 12.9118 3.74609 13.2275 3.98047C 13.5433 4.21484 13.776 4.53874 13.9258 4.95215C 14.0788 5.3623 14.1309 5.81152 14.082 6.2998L 14.0723 6.40723C 14.0104 6.92155 13.8574 7.38704 13.6133 7.80371C 13.3691 8.21712 13.0534 8.53939 12.666 8.77051C 12.2786 9.00163 11.8538 9.11068 11.3916 9.09766C 10.9521 9.09115 10.5729 8.9707 10.2539 8.73633C 9.93815 8.50195 9.70703 8.18294 9.56055 7.7793C 9.41406 7.37565 9.36198 6.93132 9.4043 6.44629C 9.45312 5.89941 9.60124 5.40788 9.84863 4.97168C 10.096 4.53548 10.4134 4.19857 10.8008 3.96094C 11.1914 3.72005 11.6211 3.60612 12.0898 3.61914ZM 10.293 6.45117C 10.2702 6.65625 10.2702 6.86947 10.293 7.09082C 10.3255 7.47493 10.4395 7.78092 10.6348 8.00879C 10.8333 8.23665 11.097 8.35547 11.4258 8.36523C 11.7188 8.375 11.9889 8.30339 12.2363 8.15039C 12.4837 7.99414 12.6921 7.75977 12.8613 7.44727C 13.0306 7.13477 13.1396 6.78809 13.1885 6.40723C 13.2145 6.10775 13.2194 5.85547 13.2031 5.65039C 13.1641 5.25651 13.0452 4.94564 12.8467 4.71777C 12.6481 4.48991 12.3844 4.36947 12.0557 4.35645C 11.5999 4.34668 11.2126 4.52572 10.8936 4.89355C 10.5745 5.26139 10.3776 5.74316 10.3027 6.33887L 10.293 6.45117ZM 17.0752 2.4375L 16.8506 3.7168L 17.8125 3.7168L 17.6904 4.41504L 16.7334 4.41504L 16.1816 7.70117C 16.1719 7.78581 16.1702 7.86393 16.1768 7.93555C 16.1995 8.18945 16.3379 8.31641 16.5918 8.31641C 16.6992 8.31641 16.8424 8.30013 17.0215 8.26758L 16.9531 9.00488C 16.7415 9.06348 16.5267 9.09277 16.3086 9.09277C 15.957 9.08626 15.6934 8.95768 15.5176 8.70703C 15.3418 8.45312 15.2734 8.11296 15.3125 7.68652L 15.8496 4.41504L 14.917 4.41504L 15.0391 3.7168L 15.9717 3.7168L 16.1963 2.4375L 17.0752 2.4375Z"/>
<path id="path7_stroke" d="M -0.353553 -0.353553C -0.548816 -0.158291 -0.548816 0.158291 -0.353553 0.353553L 2.82843 3.53553C 3.02369 3.7308 3.34027 3.7308 3.53553 3.53553C 3.7308 3.34027 3.7308 3.02369 3.53553 2.82843L 0.707107 0L 3.53553 -2.82843C 3.7308 -3.02369 3.7308 -3.34027 3.53553 -3.53553C 3.34027 -3.7308 3.02369 -3.7308 2.82843 -3.53553L -0.353553 -0.353553ZM 152.354 0.353553C 152.549 0.158291 152.549 -0.158291 152.354 -0.353553L 149.172 -3.53553C 148.976 -3.7308 148.66 -3.7308 148.464 -3.53553C 148.269 -3.34027 148.269 -3.02369 148.464 -2.82843L 151.293 0L 148.464 2.82843C 148.269 3.02369 148.269 3.34027 148.464 3.53553C 148.66 3.7308 148.976 3.7308 149.172 3.53553L 152.354 0.353553ZM 0 0.5L 152 0.5L 152 -0.5L 0 -0.5L 0 0.5Z"/>
<path id="path8_stroke" d="M -0.353553 -0.353553C -0.548816 -0.158291 -0.548816 0.158291 -0.353553 0.353553L 2.82843 3.53553C 3.02369 3.7308 3.34027 3.7308 3.53553 3.53553C 3.7308 3.34027 3.7308 3.02369 3.53553 2.82843L 0.707107 0L 3.53553 -2.82843C 3.7308 -3.02369 3.7308 -3.34027 3.53553 -3.53553C 3.34027 -3.7308 3.02369 -3.7308 2.82843 -3.53553L -0.353553 -0.353553ZM 142.354 0.353553C 142.549 0.158291 142.549 -0.158291 142.354 -0.353553L 139.172 -3.53553C 138.976 -3.7308 138.66 -3.7308 138.464 -3.53553C 138.269 -3.34027 138.269 -3.02369 138.464 -2.82843L 141.293 0L 138.464 2.82843C 138.269 3.02369 138.269 3.34027 138.464 3.53553C 138.66 3.7308 138.976 3.7308 139.172 3.53553L 142.354 0.353553ZM 0 0.5L 142 0.5L 142 -0.5L 0 -0.5L 0 0.5Z"/>
<path id="path9_fill" d="M 1.43213 5.06689L 2.74805 2.30176L 3.43164 2.30176L 1.2373 6.61523C 0.931966 7.21452 0.540039 7.51074 0.0615234 7.50391C -0.0227865 7.50163 -0.146973 7.48112 -0.311035 7.44238L -0.256348 6.92969L -0.0957031 6.94678C 0.10026 6.95589 0.26888 6.91146 0.410156 6.81348C 0.553711 6.71777 0.680176 6.56169 0.789551 6.34521L 1.01172 5.92139L 0.372559 2.30176L 1.01855 2.30176L 1.43213 5.06689ZM 7.33154 6C 7.31559 5.93392 7.30762 5.86898 7.30762 5.80518L 7.31787 5.61035C 6.97835 5.9248 6.61833 6.07747 6.23779 6.06836C 5.91195 6.0638 5.64648 5.96126 5.44141 5.76074C 5.23861 5.55794 5.14632 5.30501 5.16455 5.00195C 5.18734 4.61003 5.35824 4.30469 5.67725 4.08594C 5.99854 3.86491 6.42008 3.75439 6.94189 3.75439L 7.58789 3.75781L 7.62891 3.46387C 7.65169 3.24284 7.6084 3.06852 7.49902 2.94092C 7.39193 2.81104 7.23014 2.74382 7.01367 2.73926C 6.80176 2.7347 6.61377 2.78711 6.44971 2.89648C 6.28792 3.00358 6.1888 3.146 6.15234 3.32373L 5.53027 3.32715C 5.55078 3.11068 5.63509 2.91927 5.7832 2.75293C 5.93132 2.58431 6.12158 2.45443 6.354 2.36328C 6.58643 2.26986 6.82682 2.22542 7.0752 2.22998C 7.46029 2.2391 7.75993 2.35645 7.97412 2.58203C 8.18831 2.80534 8.27832 3.1027 8.24414 3.47412L 7.94336 5.30615L 7.92627 5.56934C 7.92171 5.69466 7.93538 5.81885 7.96729 5.94189L 7.96045 6L 7.33154 6ZM 6.36084 5.52148C 6.55908 5.52604 6.74593 5.47933 6.92139 5.38135C 7.09912 5.28109 7.25179 5.14323 7.37939 4.96777L 7.5127 4.20557L 7.04443 4.20215C 6.65479 4.20215 6.35628 4.26367 6.14893 4.38672C 5.94157 4.50977 5.82422 4.68408 5.79688 4.90967C 5.77637 5.08285 5.81624 5.22754 5.9165 5.34375C 6.01904 5.45768 6.16715 5.51693 6.36084 5.52148ZM 10.3906 3.64844L 11.3955 2.30176L 12.1543 2.30176L 10.6709 4.16113L 11.5732 6L 10.8999 6L 10.2881 4.61914L 9.24561 6L 8.49023 6L 10.0181 4.09961L 9.14307 2.30176L 9.81982 2.30176L 10.3906 3.64844ZM 12.8755 6L 12.2603 6L 12.9028 2.30176L 13.5181 2.30176L 12.8755 6ZM 13.3848 0.95166C 13.4896 0.947103 13.5762 0.979004 13.6445 1.04736C 13.7152 1.11344 13.7505 1.20117 13.7505 1.31055C 13.7482 1.41764 13.7129 1.50537 13.6445 1.57373C 13.5785 1.64209 13.4919 1.67855 13.3848 1.68311C 13.2777 1.68766 13.1899 1.6569 13.1216 1.59082C 13.0532 1.52474 13.0202 1.43815 13.0225 1.33105C 13.0247 1.22396 13.0589 1.13509 13.125 1.06445C 13.1911 0.993815 13.2777 0.956217 13.3848 0.95166ZM 16.1772 4.99854C 16.2114 4.74333 16.0713 4.56331 15.7568 4.4585L 15.1143 4.27051C 14.5719 4.08366 14.3099 3.77376 14.3281 3.34082C 14.3441 3.01497 14.4922 2.74837 14.7725 2.54102C 15.055 2.33138 15.3866 2.22884 15.7671 2.2334C 16.1408 2.23796 16.4438 2.34733 16.6763 2.56152C 16.911 2.77344 17.0238 3.05029 17.0146 3.39209L 16.3994 3.38867C 16.404 3.2041 16.3459 3.05371 16.2251 2.9375C 16.1043 2.82129 15.9437 2.7609 15.7432 2.75635C 15.529 2.75179 15.3444 2.8042 15.1895 2.91357C 15.0459 3.01611 14.9627 3.15055 14.9399 3.31689C 14.9103 3.53109 15.0413 3.68717 15.333 3.78516L 15.644 3.87061C 16.0679 3.97998 16.3687 4.1224 16.5464 4.29785C 16.7241 4.47331 16.8062 4.69092 16.7925 4.95068C 16.7788 5.18083 16.7036 5.38135 16.5669 5.55225C 16.4302 5.72314 16.2479 5.85417 16.02 5.94531C 15.7922 6.03418 15.5495 6.0752 15.292 6.06836C 14.9001 6.0638 14.5765 5.94987 14.3213 5.72656C 14.0661 5.50098 13.943 5.21159 13.9521 4.8584L 14.5708 4.86182C 14.5708 5.06917 14.6369 5.23551 14.769 5.36084C 14.9012 5.48617 15.0824 5.54883 15.3125 5.54883C 15.5381 5.55339 15.7329 5.50667 15.897 5.40869C 16.061 5.30843 16.1545 5.17171 16.1772 4.99854Z"/>
<path id="path10_fill" d="M 0.799805 5.48389L 2.87793 5.48389L 2.78564 6L -0.0649414 6L 0.0205078 5.50439L 2.44385 2.82471L 0.512695 2.82471L 0.608398 2.30176L 3.3291 2.30176L 3.24707 2.78027L 0.799805 5.48389ZM 7.48877 6C 7.47282 5.93392 7.46484 5.86898 7.46484 5.80518L 7.4751 5.61035C 7.13558 5.9248 6.77555 6.07747 6.39502 6.06836C 6.06917 6.0638 5.80371 5.96126 5.59863 5.76074C 5.39583 5.55794 5.30355 5.30501 5.32178 5.00195C 5.34456 4.61003 5.51546 4.30469 5.83447 4.08594C 6.15576 3.86491 6.57731 3.75439 7.09912 3.75439L 7.74512 3.75781L 7.78613 3.46387C 7.80892 3.24284 7.76562 3.06852 7.65625 2.94092C 7.54915 2.81104 7.38737 2.74382 7.1709 2.73926C 6.95898 2.7347 6.771 2.78711 6.60693 2.89648C 6.44515 3.00358 6.34603 3.146 6.30957 3.32373L 5.6875 3.32715C 5.70801 3.11068 5.79232 2.91927 5.94043 2.75293C 6.08854 2.58431 6.27881 2.45443 6.51123 2.36328C 6.74365 2.26986 6.98405 2.22542 7.23242 2.22998C 7.61751 2.2391 7.91715 2.35645 8.13135 2.58203C 8.34554 2.80534 8.43555 3.1027 8.40137 3.47412L 8.10059 5.30615L 8.0835 5.56934C 8.07894 5.69466 8.09261 5.81885 8.12451 5.94189L 8.11768 6L 7.48877 6ZM 6.51807 5.52148C 6.71631 5.52604 6.90316 5.47933 7.07861 5.38135C 7.25635 5.28109 7.40902 5.14323 7.53662 4.96777L 7.66992 4.20557L 7.20166 4.20215C 6.81201 4.20215 6.51351 4.26367 6.30615 4.38672C 6.0988 4.50977 5.98145 4.68408 5.9541 4.90967C 5.93359 5.08285 5.97347 5.22754 6.07373 5.34375C 6.17627 5.45768 6.32438 5.51693 6.51807 5.52148ZM 10.5479 3.64844L 11.5527 2.30176L 12.3115 2.30176L 10.8281 4.16113L 11.7305 6L 11.0571 6L 10.4453 4.61914L 9.40283 6L 8.64746 6L 10.1753 4.09961L 9.30029 2.30176L 9.97705 2.30176L 10.5479 3.64844ZM 13.0327 6L 12.4175 6L 13.0601 2.30176L 13.6753 2.30176L 13.0327 6ZM 13.542 0.95166C 13.6468 0.947103 13.7334 0.979004 13.8018 1.04736C 13.8724 1.11344 13.9077 1.20117 13.9077 1.31055C 13.9054 1.41764 13.8701 1.50537 13.8018 1.57373C 13.7357 1.64209 13.6491 1.67855 13.542 1.68311C 13.4349 1.68766 13.3472 1.6569 13.2788 1.59082C 13.2104 1.52474 13.1774 1.43815 13.1797 1.33105C 13.182 1.22396 13.2161 1.13509 13.2822 1.06445C 13.3483 0.993815 13.4349 0.956217 13.542 0.95166ZM 16.3345 4.99854C 16.3687 4.74333 16.2285 4.56331 15.9141 4.4585L 15.2715 4.27051C 14.7292 4.08366 14.4671 3.77376 14.4854 3.34082C 14.5013 3.01497 14.6494 2.74837 14.9297 2.54102C 15.2122 2.33138 15.5438 2.22884 15.9243 2.2334C 16.298 2.23796 16.6011 2.34733 16.8335 2.56152C 17.0682 2.77344 17.181 3.05029 17.1719 3.39209L 16.5566 3.38867C 16.5612 3.2041 16.5031 3.05371 16.3823 2.9375C 16.2616 2.82129 16.1009 2.7609 15.9004 2.75635C 15.6862 2.75179 15.5016 2.8042 15.3467 2.91357C 15.2031 3.01611 15.12 3.15055 15.0972 3.31689C 15.0675 3.53109 15.1986 3.68717 15.4902 3.78516L 15.8013 3.87061C 16.2251 3.97998 16.5259 4.1224 16.7036 4.29785C 16.8813 4.47331 16.9634 4.69092 16.9497 4.95068C 16.936 5.18083 16.8608 5.38135 16.7241 5.55225C 16.5874 5.72314 16.4051 5.85417 16.1772 5.94531C 15.9494 6.03418 15.7067 6.0752 15.4492 6.06836C 15.0573 6.0638 14.7337 5.94987 14.4785 5.72656C 14.2233 5.50098 14.1003 5.21159 14.1094 4.8584L 14.728 4.86182C 14.728 5.06917 14.7941 5.23551 14.9263 5.36084C 15.0584 5.48617 15.2396 5.54883 15.4697 5.54883C 15.6953 5.55339 15.8901 5.50667 16.0542 5.40869C 16.2183 5.30843 16.3117 5.17171 16.3345 4.99854Z"/>
<path id="path11_fill" d="M 7.54688 11L 6.41602 11L 6.41602 7.05664L 2.11523 7.05664L 2.11523 11L 0.990234 11L 0.990234 2.46875L 2.11523 2.46875L 2.11523 6.13672L 6.41602 6.13672L 6.41602 2.46875L 7.54688 2.46875L 7.54688 11ZM 10.5527 11L 9.46875 11L 9.46875 4.66016L 10.5527 4.66016L 10.5527 11ZM 9.38086 2.97852C 9.38086 2.80273 9.43359 2.6543 9.53906 2.5332C 9.64844 2.41211 9.80859 2.35156 10.0195 2.35156C 10.2305 2.35156 10.3906 2.41211 10.5 2.5332C 10.6094 2.6543 10.6641 2.80273 10.6641 2.97852C 10.6641 3.1543 10.6094 3.30078 10.5 3.41797C 10.3906 3.53516 10.2305 3.59375 10.0195 3.59375C 9.80859 3.59375 9.64844 3.53516 9.53906 3.41797C 9.43359 3.30078 9.38086 3.1543 9.38086 2.97852ZM 17.6484 7.90039C 17.6484 8.86523 17.4277 9.64258 16.9863 10.2324C 16.5449 10.8223 15.9473 11.1172 15.1934 11.1172C 14.4238 11.1172 13.8184 10.873 13.377 10.3848L 13.377 13.4375L 12.293 13.4375L 12.293 4.66016L 13.2832 4.66016L 13.3359 5.36328C 13.7773 4.81641 14.3906 4.54297 15.1758 4.54297C 15.9375 4.54297 16.5391 4.83008 16.9805 5.4043C 17.4258 5.97852 17.6484 6.77734 17.6484 7.80078L 17.6484 7.90039ZM 16.5645 7.77734C 16.5645 7.0625 16.4121 6.49805 16.1074 6.08398C 15.8027 5.66992 15.3848 5.46289 14.8535 5.46289C 14.1973 5.46289 13.7051 5.75391 13.377 6.33594L 13.377 9.36523C 13.7012 9.94336 14.1973 10.2324 14.8652 10.2324C 15.3848 10.2324 15.7969 10.0273 16.1016 9.61719C 16.4102 9.20312 16.5645 8.58984 16.5645 7.77734Z"/>
<path id="path12_stroke" d="M 0.0025628 1.13928L 124.725 0.499993L 124.719 -0.499993L -0.0025628 0.139289L 0.0025628 1.13928Z"/>
<path id="path13_stroke" d="M 0.0025628 0.711686L 1.47758 0.704125L 1.47245 -0.295862L -0.0025628 -0.288301L 0.0025628 0.711686ZM 4.42761 0.689004L 7.37765 0.673883L 7.37252 -0.326103L 4.42249 -0.310983L 4.42761 0.689004ZM 10.3277 0.658763L 13.2777 0.643642L 13.2726 -0.356345L 10.3226 -0.341224L 10.3277 0.658763ZM 16.2278 0.628521L 19.1778 0.6134L 19.1727 -0.386587L 16.2226 -0.371466L 16.2278 0.628521ZM 22.1278 0.598279L 25.0779 0.583158L 25.0727 -0.416829L 22.1227 -0.401708L 22.1278 0.598279ZM 28.0279 0.568037L 30.9779 0.552916L 30.9728 -0.44707L 28.0228 -0.43195L 28.0279 0.568037ZM 33.928 0.537796L 36.878 0.522675L 36.8729 -0.477312L 33.9228 -0.462191L 33.928 0.537796ZM 39.828 0.507554L 41.303 0.499993L 41.2979 -0.499993L 39.8229 -0.492433L 39.828 0.507554Z"/>
<path id="path14_stroke" d="M 28.6463 -0.353449C 21.3161 6.98116 11.1882 11.5173 0 11.5173L 0 12.5173C 11.4642 12.5173 21.8435 7.86805 29.3537 0.353449L 28.6463 -0.353449Z"/>
<path id="path15_stroke" d="M 23.5661 -0.371839C 17.1775 5.37905 9.02749 9.09512 -0.0421195 9.85448L 0.0421195 10.8509C 9.28068 10.0625 17.7255 6.21555 24.2346 0.371839L 23.5661 -0.371839Z"/>
<path id="path16_stroke" d="M 3.75744e-15 0L 3.75744e-15 -0.5L -0.5 -0.5L -0.5 -3.1312e-16L 3.75744e-15 0ZM 3.75744e-15 0.5L 6 0.5L 6 -0.5L 3.75744e-15 -0.5L 3.75744e-15 0.5ZM -0.5 -3.1312e-16L -0.5 6L 0.5 6L 0.5 3.1312e-16L -0.5 -3.1312e-16Z"/>
<path id="path17_fill" d="M 4.74609 5.86035L 1.7627 5.86035L 1.7627 9L 0.825195 9L 0.825195 1.89062L 5.22949 1.89062L 5.22949 2.66211L 1.7627 2.66211L 1.7627 5.09375L 4.74609 5.09375L 4.74609 5.86035ZM 5.86426 6.30957C 5.86426 5.79199 5.96517 5.3265 6.16699 4.91309C 6.37207 4.49967 6.65527 4.18066 7.0166 3.95605C 7.38118 3.73145 7.79622 3.61914 8.26172 3.61914C 8.98112 3.61914 9.56217 3.86816 10.0049 4.36621C 10.4508 4.86426 10.6738 5.52669 10.6738 6.35352L 10.6738 6.41699C 10.6738 6.93132 10.5745 7.39355 10.376 7.80371C 10.1807 8.21061 9.89909 8.52799 9.53125 8.75586C 9.16667 8.98372 8.74674 9.09766 8.27148 9.09766C 7.55534 9.09766 6.97428 8.84863 6.52832 8.35059C 6.08561 7.85254 5.86426 7.19336 5.86426 6.37305L 5.86426 6.30957ZM 6.77246 6.41699C 6.77246 7.00293 6.90755 7.47331 7.17773 7.82812C 7.45117 8.18294 7.81576 8.36035 8.27148 8.36035C 8.73047 8.36035 9.09505 8.18132 9.36523 7.82324C 9.63542 7.46191 9.77051 6.95736 9.77051 6.30957C 9.77051 5.73014 9.63216 5.26139 9.35547 4.90332C 9.08203 4.54199 8.71745 4.36133 8.26172 4.36133C 7.81576 4.36133 7.45605 4.53874 7.18262 4.89355C 6.90918 5.24837 6.77246 5.75618 6.77246 6.41699ZM 11.5674 6.30957C 11.5674 5.79199 11.6683 5.3265 11.8701 4.91309C 12.0752 4.49967 12.3584 4.18066 12.7197 3.95605C 13.0843 3.73145 13.4993 3.61914 13.9648 3.61914C 14.6842 3.61914 15.2653 3.86816 15.708 4.36621C 16.154 4.86426 16.377 5.52669 16.377 6.35352L 16.377 6.41699C 16.377 6.93132 16.2777 7.39355 16.0791 7.80371C 15.8838 8.21061 15.6022 8.52799 15.2344 8.75586C 14.8698 8.98372 14.4499 9.09766 13.9746 9.09766C 13.2585 9.09766 12.6774 8.84863 12.2314 8.35059C 11.7887 7.85254 11.5674 7.19336 11.5674 6.37305L 11.5674 6.30957ZM 12.4756 6.41699C 12.4756 7.00293 12.6107 7.47331 12.8809 7.82812C 13.1543 8.18294 13.5189 8.36035 13.9746 8.36035C 14.4336 8.36035 14.7982 8.18132 15.0684 7.82324C 15.3385 7.46191 15.4736 6.95736 15.4736 6.30957C 15.4736 5.73014 15.3353 5.26139 15.0586 4.90332C 14.7852 4.54199 14.4206 4.36133 13.9648 4.36133C 13.5189 4.36133 13.1592 4.53874 12.8857 4.89355C 12.6123 5.24837 12.4756 5.75618 12.4756 6.41699ZM 18.7354 2.4375L 18.7354 3.7168L 19.7217 3.7168L 19.7217 4.41504L 18.7354 4.41504L 18.7354 7.69141C 18.7354 7.90299 18.7793 8.0625 18.8672 8.16992C 18.9551 8.27409 19.1048 8.32617 19.3164 8.32617C 19.4206 8.32617 19.5638 8.30664 19.7461 8.26758L 19.7461 9C 19.5085 9.0651 19.2773 9.09766 19.0527 9.09766C 18.6491 9.09766 18.3447 8.97559 18.1396 8.73145C 17.9346 8.4873 17.832 8.14062 17.832 7.69141L 17.832 4.41504L 16.8701 4.41504L 16.8701 3.7168L 17.832 3.7168L 17.832 2.4375L 18.7354 2.4375ZM 22.5039 5.86572L 22.2134 5.83496C 21.8169 5.83496 21.5047 6.01383 21.2769 6.37158L 20.8223 9L 20.2036 9L 20.8462 5.30176L 21.4443 5.29834L 21.3521 5.729C 21.6141 5.38493 21.9229 5.21745 22.2783 5.22656C 22.3535 5.22656 22.4515 5.24365 22.5723 5.27783L 22.5039 5.86572ZM 24.5205 5.2334C 24.8304 5.23796 25.0959 5.32227 25.3169 5.48633C 25.5379 5.65039 25.7008 5.87712 25.8057 6.1665C 25.9128 6.45361 25.9492 6.76807 25.915 7.10986L 25.9082 7.18506C 25.8649 7.54508 25.7578 7.87093 25.5869 8.1626C 25.416 8.45199 25.195 8.67757 24.9238 8.83936C 24.6527 9.00114 24.3553 9.07747 24.0317 9.06836C 23.7241 9.0638 23.4587 8.97949 23.2354 8.81543C 23.0143 8.65137 22.8525 8.42806 22.75 8.14551C 22.6475 7.86296 22.611 7.55192 22.6406 7.2124C 22.6748 6.82959 22.7785 6.48551 22.9517 6.18018C 23.1248 5.87484 23.347 5.639 23.6182 5.47266C 23.8916 5.30404 24.1924 5.22428 24.5205 5.2334ZM 23.2627 7.21582C 23.2467 7.35938 23.2467 7.50863 23.2627 7.66357C 23.2855 7.93245 23.3652 8.14665 23.502 8.30615C 23.641 8.46566 23.8255 8.54883 24.0557 8.55566C 24.2607 8.5625 24.4499 8.51237 24.623 8.40527C 24.7962 8.2959 24.9421 8.13184 25.0605 7.91309C 25.179 7.69434 25.2554 7.45166 25.2896 7.18506C 25.3078 6.97542 25.3112 6.79883 25.2998 6.65527C 25.2725 6.37956 25.1893 6.16195 25.0503 6.00244C 24.9113 5.84294 24.7267 5.75863 24.4966 5.74951C 24.1776 5.74268 23.9064 5.868 23.6831 6.12549C 23.4598 6.38298 23.3219 6.72021 23.2695 7.13721L 23.2627 7.21582ZM 27.0464 9L 26.4312 9L 27.3403 3.75L 27.959 3.75L 27.0464 9ZM 28.728 9L 28.1128 9L 29.022 3.75L 29.6406 3.75L 28.728 9Z"/>
<path id="path18_stroke" d="M 0 0L 26 0L 26 -2L 0 -2L 0 0Z"/>
</defs>
</svg>
