<svg width="173" height="165" viewBox="0 0 173 165" version="1.1" xmlns="http://www.w3.org/2000/svg" xmlns:xlink="http://www.w3.org/1999/xlink">
<title>inverse-kinematics-upperview</title>
<desc>Created using Figma</desc>
<g id="Canvas" transform="translate(163 213)">
<clipPath id="clip-0" clip-rule="evenodd">
<path d="M -163 -213L 10 -213L 10 -48L -163 -48L -163 -213Z" fill="#FFFFFF"/>
</clipPath>
<g id="inverse-kinematics-upperview" clip-path="url(#clip-0)">
<path d="M -163 -213L 10 -213L 10 -48L -163 -48L -163 -213Z" fill="#FFFFFF"/>
<g id="Ellipse">
<use xlink:href="#path0_stroke" transform="translate(-139 -130)" fill="#2D9CDB"/>
</g>
<g id="Line 3">
<use xlink:href="#path1_stroke" transform="matrix(6.12323e-17 1 -1 6.12323e-17 -56 -70)"/>
</g>
<g id="Arrow">
<use xlink:href="#path2_stroke" transform="matrix(6.12323e-17 -1 1 6.12323e-17 -139 -57)"/>
</g>
<g id="Arrow">
<use xlink:href="#path3_stroke" transform="matrix(1 2.67189e-24 -2.67189e-24 1 -149.5 -67.5)"/>
</g>
<g id="Rectangle (Stroke)">
<use xlink:href="#path4_fill" transform="matrix(0.651778 0.75841 -0.761128 0.648601 -49.0487 -192.218)"/>
</g>
<g id="Line">
<use xlink:href="#path5_stroke" transform="matrix(0.44425 -0.895903 0.897766 0.440472 -139 -97.5)"/>
</g>
<g id="Line 2">
<use xlink:href="#path6_stroke" transform="matrix(6.12323e-17 1 -1 6.12323e-17 -55.5 -170.5)" fill="#2D9CDB"/>
</g>
<g id="X1">
<use xlink:href="#path7_fill" transform="translate(-48 -126)"/>
</g>
<g id="y axis">
<use xlink:href="#path8_fill" transform="translate(-8 -63)"/>
</g>
<g id="x axis">
<use xlink:href="#path9_fill" transform="translate(-163 -213)"/>
</g>
<g id="Hipyaw">
<use xlink:href="#path10_fill" transform="translate(-136 -146)"/>
</g>
<g id="Hip">
<use xlink:href="#path11_fill" transform="translate(-161 -63)"/>
</g>
<g id="foot">
<use xlink:href="#path12_fill" transform="translate(-36 -199)"/>
</g>
<g id="Y1">
<use xlink:href="#path13_fill" transform="translate(-101 -64)"/>
</g>
</g>
</g>
<defs>
<path id="path0_stroke" d="M 0 0.5C 10.0056 0.4916 19.1102 3.99508 26.2886 9.88671L 26.9225 9.11329C 19.613 3.13069 10.1882 -0.4916 0 -0.5L 0 0.5Z"/>
<path id="path1_stroke" d="M 0 0L 5 0L 5 -1L 0 -1L 0 0Z"/>
<path id="path2_stroke" d="M -0.353553 -0.353553C -0.548816 -0.158291 -0.548816 0.158291 -0.353553 0.353553L 2.82843 3.53553C 3.02369 3.7308 3.34027 3.7308 3.53553 3.53553C 3.7308 3.34027 3.7308 3.02369 3.53553 2.82843L 0.707107 0L 3.53553 -2.82843C 3.7308 -3.02369 3.7308 -3.34027 3.53553 -3.53553C 3.34027 -3.7308 3.02369 -3.7308 2.82843 -3.53553L -0.353553 -0.353553ZM 152.354 0.353553C 152.549 0.158291 152.549 -0.158291 152.354 -0.353553L 149.172 -3.53553C 148.976 -3.7308 148.66 -3.7308 148.464 -3.53553C 148.269 -3.34027 148.269 -3.02369 148.464 -2.82843L 151.293 0L 148.464 2.82843C 148.269 3.02369 148.269 3.34027 148.464 3.53553C 148.66 3.7308 148.976 3.7308 149.172 3.53553L 152.354 0.353553ZM 0 0.5L 152 0.5L 152 -0.5L 0 -0.5L 0 0.5Z"/>
<path id="path3_stroke" d="M -0.353553 -0.353553C -0.548816 -0.158291 -0.548816 0.158291 -0.353553 0.353553L 2.82843 3.53553C 3.02369 3.7308 3.34027 3.7308 3.53553 3.53553C 3.7308 3.34027 3.7308 3.02369 3.53553 2.82843L 0.707107 0L 3.53553 -2.82843C 3.7308 -3.02369 3.7308 -3.34027 3.53553 -3.53553C 3.34027 -3.7308 3.02369 -3.7308 2.82843 -3.53553L -0.353553 -0.353553ZM 142.354 0.353553C 142.549 0.158291 142.549 -0.158291 142.354 -0.353553L 139.172 -3.53553C 138.976 -3.7308 138.66 -3.7308 138.464 -3.53553C 138.269 -3.34027 138.269 -3.02369 138.464 -2.82843L 141.293 0L 138.464 2.82843C 138.269 3.02369 138.269 3.34027 138.464 3.53553C 138.66 3.7308 138.976 3.7308 139.172 3.53553L 142.354 0.353553ZM 0 0.5L 142 0.5L 142 -0.5L 0 -0.5L 0 0.5Z"/>
<path id="path4_fill" fill-rule="evenodd" d="M 23.9737 2L 2 2L 2 37.8289L 23.9737 37.8289L 23.9737 2ZM 2 0L 0 0L 0 2L 0 37.8289L 0 39.8289L 2 39.8289L 23.9737 39.8289L 25.9737 39.8289L 25.9737 37.8289L 25.9737 2L 25.9737 0L 23.9737 0L 2 0Z"/>
<path id="path5_stroke" d="M -0.191329 0.461945L 1.22974 1.05053L 1.6124 0.126638L 0.191329 -0.461945L -0.191329 0.461945ZM 4.07189 2.22769L 6.91404 3.40486L 7.2967 2.48097L 4.45455 1.3038L 4.07189 2.22769ZM 9.75619 4.58203L 12.5983 5.75919L 12.981 4.8353L 10.1388 3.65814L 9.75619 4.58203ZM 15.4405 6.93636L 18.2826 8.11352L 18.6653 7.18963L 15.8231 6.01247L 15.4405 6.93636ZM 21.1248 9.29069L 23.9669 10.4679L 24.3496 9.54397L 21.5074 8.3668L 21.1248 9.29069ZM 26.8091 11.645L 29.6512 12.8222L 30.0339 11.8983L 27.1917 10.7211L 26.8091 11.645ZM 32.4934 13.9994L 35.3355 15.1765L 35.7182 14.2526L 32.876 13.0755L 32.4934 13.9994ZM 38.1777 16.3537L 41.0198 17.5309L 41.4025 16.607L 38.5603 15.4298L 38.1777 16.3537ZM 43.862 18.708L 46.7041 19.8852L 47.0868 18.9613L 44.2446 17.7841L 43.862 18.708ZM 49.5462 21.0624L 52.3884 22.2395L 52.7711 21.3156L 49.9289 20.1385L 49.5462 21.0624ZM 55.2305 23.4167L 58.0727 24.5938L 58.4553 23.67L 55.6132 22.4928L 55.2305 23.4167ZM 60.9148 25.771L 63.757 26.9482L 64.1396 26.0243L 61.2975 24.8471L 60.9148 25.771ZM 66.5991 28.1253L 69.4413 29.3025L 69.8239 28.3786L 66.9818 27.2015L 66.5991 28.1253ZM 72.2834 30.4797L 75.1256 31.6568L 75.5082 30.733L 72.6661 29.5558L 72.2834 30.4797ZM 77.9677 32.834L 80.8099 34.0112L 81.1925 33.0873L 78.3504 31.9101L 77.9677 32.834ZM 83.652 35.1883L 86.4942 36.3655L 86.8768 35.4416L 84.0347 34.2645L 83.652 35.1883ZM 89.3363 37.5427L 92.1785 38.7198L 92.5611 37.796L 89.719 36.6188L 89.3363 37.5427ZM 95.0206 39.897L 97.8627 41.0742L 98.2454 40.1503L 95.4033 38.9731L 95.0206 39.897ZM 100.705 42.2513L 102.126 42.8399L 102.509 41.916L 101.088 41.3274L 100.705 42.2513Z"/>
<path id="path6_stroke" d="M -0.353553 -0.353553C -0.548816 -0.158291 -0.548816 0.158291 -0.353553 0.353553L 2.82843 3.53553C 3.02369 3.7308 3.34027 3.7308 3.53553 3.53553C 3.7308 3.34027 3.7308 3.02369 3.53553 2.82843L 0.707107 3.64847e-15L 3.53553 -2.82843C 3.7308 -3.02369 3.7308 -3.34027 3.53553 -3.53553C 3.34027 -3.7308 3.02369 -3.7308 2.82843 -3.53553L -0.353553 -0.353553ZM 102.354 0.353553C 102.549 0.158291 102.549 -0.158291 102.354 -0.353553L 99.1716 -3.53553C 98.9763 -3.7308 98.6597 -3.7308 98.4645 -3.53553C 98.2692 -3.34027 98.2692 -3.02369 98.4645 -2.82843L 101.293 2.54693e-17L 98.4645 2.82843C 98.2692 3.02369 98.2692 3.34027 98.4645 3.53553C 98.6597 3.7308 98.9763 3.7308 99.1716 3.53553L 102.354 0.353553ZM 1.80095e-17 0.5L 1.5 0.5L 1.5 -0.5L -1.80095e-17 -0.5L 1.80095e-17 0.5ZM 4.5 0.5L 7.5 0.5L 7.5 -0.5L 4.5 -0.5L 4.5 0.5ZM 10.5 0.5L 13.5 0.5L 13.5 -0.5L 10.5 -0.5L 10.5 0.5ZM 16.5 0.5L 19.5 0.5L 19.5 -0.5L 16.5 -0.5L 16.5 0.5ZM 22.5 0.5L 25.5 0.5L 25.5 -0.5L 22.5 -0.5L 22.5 0.5ZM 28.5 0.5L 31.5 0.5L 31.5 -0.5L 28.5 -0.5L 28.5 0.5ZM 34.5 0.5L 37.5 0.5L 37.5 -0.5L 34.5 -0.5L 34.5 0.5ZM 40.5 0.5L 43.5 0.5L 43.5 -0.5L 40.5 -0.5L 40.5 0.5ZM 46.5 0.5L 49.5 0.5L 49.5 -0.5L 46.5 -0.5L 46.5 0.5ZM 52.5 0.5L 55.5 0.5L 55.5 -0.5L 52.5 -0.5L 52.5 0.5ZM 58.5 0.5L 61.5 0.5L 61.5 -0.5L 58.5 -0.5L 58.5 0.5ZM 64.5 0.5L 67.5 0.5L 67.5 -0.5L 64.5 -0.5L 64.5 0.5ZM 70.5 0.5L 73.5 0.5L 73.5 -0.5L 70.5 -0.5L 70.5 0.5ZM 76.5 0.5L 79.5 0.5L 79.5 -0.5L 76.5 -0.5L 76.5 0.5ZM 82.5 0.5L 85.5 0.5L 85.5 -0.5L 82.5 -0.5L 82.5 0.5ZM 88.5 0.5L 91.5 0.5L 91.5 -0.5L 88.5 -0.5L 88.5 0.5ZM 94.5 0.5L 97.5 0.5L 97.5 -0.5L 94.5 -0.5L 94.5 0.5ZM 100.5 0.5L 102 0.5L 102 -0.5L 100.5 -0.5L 100.5 0.5Z"/>
<path id="path7_fill" d="M 3.77344 5.73828L 5.81836 2.46875L 7.14258 2.46875L 4.44727 6.69922L 7.20703 11L 5.87109 11L 3.77344 7.67188L 1.66406 11L 0.333984 11L 3.09961 6.69922L 0.398438 2.46875L 1.7168 2.46875L 3.77344 5.73828ZM 9.58789 11L 8.96582 11L 9.69727 6.80273L 8.37451 7.26758L 8.48047 6.66602L 10.3262 5.99951L 10.4355 5.99951L 9.58789 11Z"/>
<path id="path8_fill" d="M 1.43213 5.06689L 2.74805 2.30176L 3.43164 2.30176L 1.2373 6.61523C 0.931966 7.21452 0.540039 7.51074 0.0615234 7.50391C -0.0227865 7.50163 -0.146973 7.48112 -0.311035 7.44238L -0.256348 6.92969L -0.0957031 6.94678C 0.10026 6.95589 0.26888 6.91146 0.410156 6.81348C 0.553711 6.71777 0.680176 6.56169 0.789551 6.34521L 1.01172 5.92139L 0.372559 2.30176L 1.01855 2.30176L 1.43213 5.06689ZM 7.33154 6C 7.31559 5.93392 7.30762 5.86898 7.30762 5.80518L 7.31787 5.61035C 6.97835 5.9248 6.61833 6.07747 6.23779 6.06836C 5.91195 6.0638 5.64648 5.96126 5.44141 5.76074C 5.23861 5.55794 5.14632 5.30501 5.16455 5.00195C 5.18734 4.61003 5.35824 4.30469 5.67725 4.08594C 5.99854 3.86491 6.42008 3.75439 6.94189 3.75439L 7.58789 3.75781L 7.62891 3.46387C 7.65169 3.24284 7.6084 3.06852 7.49902 2.94092C 7.39193 2.81104 7.23014 2.74382 7.01367 2.73926C 6.80176 2.7347 6.61377 2.78711 6.44971 2.89648C 6.28792 3.00358 6.1888 3.146 6.15234 3.32373L 5.53027 3.32715C 5.55078 3.11068 5.63509 2.91927 5.7832 2.75293C 5.93132 2.58431 6.12158 2.45443 6.354 2.36328C 6.58643 2.26986 6.82682 2.22542 7.0752 2.22998C 7.46029 2.2391 7.75993 2.35645 7.97412 2.58203C 8.18831 2.80534 8.27832 3.1027 8.24414 3.47412L 7.94336 5.30615L 7.92627 5.56934C 7.92171 5.69466 7.93538 5.81885 7.96729 5.94189L 7.96045 6L 7.33154 6ZM 6.36084 5.52148C 6.55908 5.52604 6.74593 5.47933 6.92139 5.38135C 7.09912 5.28109 7.25179 5.14323 7.37939 4.96777L 7.5127 4.20557L 7.04443 4.20215C 6.65479 4.20215 6.35628 4.26367 6.14893 4.38672C 5.94157 4.50977 5.82422 4.68408 5.79688 4.90967C 5.77637 5.08285 5.81624 5.22754 5.9165 5.34375C 6.01904 5.45768 6.16715 5.51693 6.36084 5.52148ZM 10.3906 3.64844L 11.3955 2.30176L 12.1543 2.30176L 10.6709 4.16113L 11.5732 6L 10.8999 6L 10.2881 4.61914L 9.24561 6L 8.49023 6L 10.0181 4.09961L 9.14307 2.30176L 9.81982 2.30176L 10.3906 3.64844ZM 12.8755 6L 12.2603 6L 12.9028 2.30176L 13.5181 2.30176L 12.8755 6ZM 13.3848 0.95166C 13.4896 0.947103 13.5762 0.979004 13.6445 1.04736C 13.7152 1.11344 13.7505 1.20117 13.7505 1.31055C 13.7482 1.41764 13.7129 1.50537 13.6445 1.57373C 13.5785 1.64209 13.4919 1.67855 13.3848 1.68311C 13.2777 1.68766 13.1899 1.6569 13.1216 1.59082C 13.0532 1.52474 13.0202 1.43815 13.0225 1.33105C 13.0247 1.22396 13.0589 1.13509 13.125 1.06445C 13.1911 0.993815 13.2777 0.956217 13.3848 0.95166ZM 16.1772 4.99854C 16.2114 4.74333 16.0713 4.56331 15.7568 4.4585L 15.1143 4.27051C 14.5719 4.08366 14.3099 3.77376 14.3281 3.34082C 14.3441 3.01497 14.4922 2.74837 14.7725 2.54102C 15.055 2.33138 15.3866 2.22884 15.7671 2.2334C 16.1408 2.23796 16.4438 2.34733 16.6763 2.56152C 16.911 2.77344 17.0238 3.05029 17.0146 3.39209L 16.3994 3.38867C 16.404 3.2041 16.3459 3.05371 16.2251 2.9375C 16.1043 2.82129 15.9437 2.7609 15.7432 2.75635C 15.529 2.75179 15.3444 2.8042 15.1895 2.91357C 15.0459 3.01611 14.9627 3.15055 14.9399 3.31689C 14.9103 3.53109 15.0413 3.68717 15.333 3.78516L 15.644 3.87061C 16.0679 3.97998 16.3687 4.1224 16.5464 4.29785C 16.7241 4.47331 16.8062 4.69092 16.7925 4.95068C 16.7788 5.18083 16.7036 5.38135 16.5669 5.55225C 16.4302 5.72314 16.2479 5.85417 16.02 5.94531C 15.7922 6.03418 15.5495 6.0752 15.292 6.06836C 14.9001 6.0638 14.5765 5.94987 14.3213 5.72656C 14.0661 5.50098 13.943 5.21159 13.9521 4.8584L 14.5708 4.86182C 14.5708 5.06917 14.6369 5.23551 14.769 5.36084C 14.9012 5.48617 15.0824 5.54883 15.3125 5.54883C 15.5381 5.55339 15.7329 5.50667 15.897 5.40869C 16.061 5.30843 16.1545 5.17171 16.1772 4.99854Z"/>
<path id="path9_fill" d="M 1.69531 3.64844L 2.7002 2.30176L 3.45898 2.30176L 1.97559 4.16113L 2.87793 6L 2.20459 6L 1.59277 4.61914L 0.550293 6L -0.205078 6L 1.32275 4.09961L 0.447754 2.30176L 1.12451 2.30176L 1.69531 3.64844ZM 7.48877 6C 7.47282 5.93392 7.46484 5.86898 7.46484 5.80518L 7.4751 5.61035C 7.13558 5.9248 6.77555 6.07747 6.39502 6.06836C 6.06917 6.0638 5.80371 5.96126 5.59863 5.76074C 5.39583 5.55794 5.30355 5.30501 5.32178 5.00195C 5.34456 4.61003 5.51546 4.30469 5.83447 4.08594C 6.15576 3.86491 6.57731 3.75439 7.09912 3.75439L 7.74512 3.75781L 7.78613 3.46387C 7.80892 3.24284 7.76562 3.06852 7.65625 2.94092C 7.54915 2.81104 7.38737 2.74382 7.1709 2.73926C 6.95898 2.7347 6.771 2.78711 6.60693 2.89648C 6.44515 3.00358 6.34603 3.146 6.30957 3.32373L 5.6875 3.32715C 5.70801 3.11068 5.79232 2.91927 5.94043 2.75293C 6.08854 2.58431 6.27881 2.45443 6.51123 2.36328C 6.74365 2.26986 6.98405 2.22542 7.23242 2.22998C 7.61751 2.2391 7.91715 2.35645 8.13135 2.58203C 8.34554 2.80534 8.43555 3.1027 8.40137 3.47412L 8.10059 5.30615L 8.0835 5.56934C 8.07894 5.69466 8.09261 5.81885 8.12451 5.94189L 8.11768 6L 7.48877 6ZM 6.51807 5.52148C 6.71631 5.52604 6.90316 5.47933 7.07861 5.38135C 7.25635 5.28109 7.40902 5.14323 7.53662 4.96777L 7.66992 4.20557L 7.20166 4.20215C 6.81201 4.20215 6.51351 4.26367 6.30615 4.38672C 6.0988 4.50977 5.98145 4.68408 5.9541 4.90967C 5.93359 5.08285 5.97347 5.22754 6.07373 5.34375C 6.17627 5.45768 6.32438 5.51693 6.51807 5.52148ZM 10.5479 3.64844L 11.5527 2.30176L 12.3115 2.30176L 10.8281 4.16113L 11.7305 6L 11.0571 6L 10.4453 4.61914L 9.40283 6L 8.64746 6L 10.1753 4.09961L 9.30029 2.30176L 9.97705 2.30176L 10.5479 3.64844ZM 13.0327 6L 12.4175 6L 13.0601 2.30176L 13.6753 2.30176L 13.0327 6ZM 13.542 0.95166C 13.6468 0.947103 13.7334 0.979004 13.8018 1.04736C 13.8724 1.11344 13.9077 1.20117 13.9077 1.31055C 13.9054 1.41764 13.8701 1.50537 13.8018 1.57373C 13.7357 1.64209 13.6491 1.67855 13.542 1.68311C 13.4349 1.68766 13.3472 1.6569 13.2788 1.59082C 13.2104 1.52474 13.1774 1.43815 13.1797 1.33105C 13.182 1.22396 13.2161 1.13509 13.2822 1.06445C 13.3483 0.993815 13.4349 0.956217 13.542 0.95166ZM 16.3345 4.99854C 16.3687 4.74333 16.2285 4.56331 15.9141 4.4585L 15.2715 4.27051C 14.7292 4.08366 14.4671 3.77376 14.4854 3.34082C 14.5013 3.01497 14.6494 2.74837 14.9297 2.54102C 15.2122 2.33138 15.5438 2.22884 15.9243 2.2334C 16.298 2.23796 16.6011 2.34733 16.8335 2.56152C 17.0682 2.77344 17.181 3.05029 17.1719 3.39209L 16.5566 3.38867C 16.5612 3.2041 16.5031 3.05371 16.3823 2.9375C 16.2616 2.82129 16.1009 2.7609 15.9004 2.75635C 15.6862 2.75179 15.5016 2.8042 15.3467 2.91357C 15.2031 3.01611 15.12 3.15055 15.0972 3.31689C 15.0675 3.53109 15.1986 3.68717 15.4902 3.78516L 15.8013 3.87061C 16.2251 3.97998 16.5259 4.1224 16.7036 4.29785C 16.8813 4.47331 16.9634 4.69092 16.9497 4.95068C 16.936 5.18083 16.8608 5.38135 16.7241 5.55225C 16.5874 5.72314 16.4051 5.85417 16.1772 5.94531C 15.9494 6.03418 15.7067 6.0752 15.4492 6.06836C 15.0573 6.0638 14.7337 5.94987 14.4785 5.72656C 14.2233 5.50098 14.1003 5.21159 14.1094 4.8584L 14.728 4.86182C 14.728 5.06917 14.7941 5.23551 14.9263 5.36084C 15.0584 5.48617 15.2396 5.54883 15.4697 5.54883C 15.6953 5.55339 15.8901 5.50667 16.0542 5.40869C 16.2183 5.30843 16.3117 5.17171 16.3345 4.99854Z"/>
<path id="path10_fill" d="M 7.54688 11L 6.41602 11L 6.41602 7.05664L 2.11523 7.05664L 2.11523 11L 0.990234 11L 0.990234 2.46875L 2.11523 2.46875L 2.11523 6.13672L 6.41602 6.13672L 6.41602 2.46875L 7.54688 2.46875L 7.54688 11ZM 10.5527 11L 9.46875 11L 9.46875 4.66016L 10.5527 4.66016L 10.5527 11ZM 9.38086 2.97852C 9.38086 2.80273 9.43359 2.6543 9.53906 2.5332C 9.64844 2.41211 9.80859 2.35156 10.0195 2.35156C 10.2305 2.35156 10.3906 2.41211 10.5 2.5332C 10.6094 2.6543 10.6641 2.80273 10.6641 2.97852C 10.6641 3.1543 10.6094 3.30078 10.5 3.41797C 10.3906 3.53516 10.2305 3.59375 10.0195 3.59375C 9.80859 3.59375 9.64844 3.53516 9.53906 3.41797C 9.43359 3.30078 9.38086 3.1543 9.38086 2.97852ZM 17.6484 7.90039C 17.6484 8.86523 17.4277 9.64258 16.9863 10.2324C 16.5449 10.8223 15.9473 11.1172 15.1934 11.1172C 14.4238 11.1172 13.8184 10.873 13.377 10.3848L 13.377 13.4375L 12.293 13.4375L 12.293 4.66016L 13.2832 4.66016L 13.3359 5.36328C 13.7773 4.81641 14.3906 4.54297 15.1758 4.54297C 15.9375 4.54297 16.5391 4.83008 16.9805 5.4043C 17.4258 5.97852 17.6484 6.77734 17.6484 7.80078L 17.6484 7.90039ZM 16.5645 7.77734C 16.5645 7.0625 16.4121 6.49805 16.1074 6.08398C 15.8027 5.66992 15.3848 5.46289 14.8535 5.46289C 14.1973 5.46289 13.7051 5.75391 13.377 6.33594L 13.377 9.36523C 13.7012 9.94336 14.1973 10.2324 14.8652 10.2324C 15.3848 10.2324 15.7969 10.0273 16.1016 9.61719C 16.4102 9.20312 16.5645 8.58984 16.5645 7.77734ZM 19.8994 10.0737L 20.7607 7.30176L 21.4375 7.30176L 19.9507 11.5708C 19.7205 12.186 19.3548 12.4937 18.8535 12.4937L 18.7339 12.4834L 18.498 12.439L 18.498 11.9263L 18.6689 11.9399C 18.8831 11.9399 19.0495 11.8966 19.168 11.8101C 19.2887 11.7235 19.3879 11.5651 19.4653 11.335L 19.6055 10.959L 18.2861 7.30176L 18.9766 7.30176L 19.8994 10.0737ZM 24.2334 11C 24.1969 10.9271 24.1673 10.7972 24.1445 10.6104C 23.8506 10.9157 23.4997 11.0684 23.0918 11.0684C 22.7272 11.0684 22.4276 10.9658 22.1929 10.7607C 21.9604 10.5534 21.8442 10.2913 21.8442 9.97461C 21.8442 9.58952 21.9901 9.29102 22.2817 9.0791C 22.5757 8.86491 22.9881 8.75781 23.519 8.75781L 24.1343 8.75781L 24.1343 8.46729C 24.1343 8.24626 24.0682 8.0708 23.936 7.94092C 23.8039 7.80876 23.609 7.74268 23.3516 7.74268C 23.126 7.74268 22.9368 7.79964 22.7842 7.91357C 22.6315 8.02751 22.5552 8.16536 22.5552 8.32715L 21.9194 8.32715C 21.9194 8.14258 21.9844 7.96484 22.1143 7.79395C 22.2464 7.62077 22.4242 7.48405 22.6475 7.38379C 22.873 7.28353 23.1203 7.2334 23.3892 7.2334C 23.8153 7.2334 24.1491 7.34049 24.3906 7.55469C 24.6322 7.7666 24.7575 8.05941 24.7666 8.43311L 24.7666 10.1353C 24.7666 10.4748 24.8099 10.7448 24.8965 10.9453L 24.8965 11L 24.2334 11ZM 23.1841 10.5181C 23.3823 10.5181 23.5703 10.4668 23.748 10.3643C 23.9258 10.2617 24.0545 10.1284 24.1343 9.96436L 24.1343 9.20557L 23.6387 9.20557C 22.8639 9.20557 22.4766 9.43229 22.4766 9.88574C 22.4766 10.084 22.5426 10.2389 22.6748 10.3506C 22.807 10.4622 22.9767 10.5181 23.1841 10.5181ZM 29.0322 10.1284L 29.7432 7.30176L 30.3755 7.30176L 29.2988 11L 28.7861 11L 27.8872 8.19727L 27.0122 11L 26.4995 11L 25.4263 7.30176L 26.0552 7.30176L 26.7832 10.0703L 27.6445 7.30176L 28.1538 7.30176L 29.0322 10.1284Z"/>
<path id="path11_fill" d="M 7.54688 11L 6.41602 11L 6.41602 7.05664L 2.11523 7.05664L 2.11523 11L 0.990234 11L 0.990234 2.46875L 2.11523 2.46875L 2.11523 6.13672L 6.41602 6.13672L 6.41602 2.46875L 7.54688 2.46875L 7.54688 11ZM 10.5527 11L 9.46875 11L 9.46875 4.66016L 10.5527 4.66016L 10.5527 11ZM 9.38086 2.97852C 9.38086 2.80273 9.43359 2.6543 9.53906 2.5332C 9.64844 2.41211 9.80859 2.35156 10.0195 2.35156C 10.2305 2.35156 10.3906 2.41211 10.5 2.5332C 10.6094 2.6543 10.6641 2.80273 10.6641 2.97852C 10.6641 3.1543 10.6094 3.30078 10.5 3.41797C 10.3906 3.53516 10.2305 3.59375 10.0195 3.59375C 9.80859 3.59375 9.64844 3.53516 9.53906 3.41797C 9.43359 3.30078 9.38086 3.1543 9.38086 2.97852ZM 17.6484 7.90039C 17.6484 8.86523 17.4277 9.64258 16.9863 10.2324C 16.5449 10.8223 15.9473 11.1172 15.1934 11.1172C 14.4238 11.1172 13.8184 10.873 13.377 10.3848L 13.377 13.4375L 12.293 13.4375L 12.293 4.66016L 13.2832 4.66016L 13.3359 5.36328C 13.7773 4.81641 14.3906 4.54297 15.1758 4.54297C 15.9375 4.54297 16.5391 4.83008 16.9805 5.4043C 17.4258 5.97852 17.6484 6.77734 17.6484 7.80078L 17.6484 7.90039ZM 16.5645 7.77734C 16.5645 7.0625 16.4121 6.49805 16.1074 6.08398C 15.8027 5.66992 15.3848 5.46289 14.8535 5.46289C 14.1973 5.46289 13.7051 5.75391 13.377 6.33594L 13.377 9.36523C 13.7012 9.94336 14.1973 10.2324 14.8652 10.2324C 15.3848 10.2324 15.7969 10.0273 16.1016 9.61719C 16.4102 9.20312 16.5645 8.58984 16.5645 7.77734Z"/>
<path id="path12_fill" d="M 0.697266 11L 1.6582 5.49805L 0.679688 5.49805L 0.826172 4.66016L 1.79883 4.66016L 1.9043 3.91016C 2.00586 3.27344 2.25195 2.77539 2.64258 2.41602C 3.05273 2.04102 3.57617 1.85742 4.21289 1.86523C 4.41211 1.86523 4.66406 1.89844 4.96875 1.96484L 4.83984 2.84961C 4.65234 2.81055 4.46289 2.78711 4.27148 2.7793C 3.9043 2.7793 3.60547 2.89453 3.375 3.125C 3.14844 3.35156 3.00781 3.6543 2.95312 4.0332L 2.85938 4.66016L 4.17188 4.66016L 4.02539 5.49805L 2.71289 5.49805L 1.75781 11L 0.697266 11ZM 7.80469 4.54297C 8.33594 4.55078 8.79102 4.69531 9.16992 4.97656C 9.54883 5.25781 9.82812 5.64648 10.0078 6.14258C 10.1914 6.63477 10.2539 7.17383 10.1953 7.75977L 10.1836 7.88867C 10.1094 8.50586 9.92578 9.06445 9.63281 9.56445C 9.33984 10.0605 8.96094 10.4473 8.49609 10.7246C 8.03125 11.002 7.52148 11.1328 6.9668 11.1172C 6.43945 11.1094 5.98438 10.9648 5.60156 10.6836C 5.22266 10.4023 4.94531 10.0195 4.76953 9.53516C 4.59375 9.05078 4.53125 8.51758 4.58203 7.93555C 4.64062 7.2793 4.81836 6.68945 5.11523 6.16602C 5.41211 5.64258 5.79297 5.23828 6.25781 4.95312C 6.72656 4.66406 7.24219 4.52734 7.80469 4.54297ZM 5.64844 7.94141C 5.62109 8.1875 5.62109 8.44336 5.64844 8.70898C 5.6875 9.16992 5.82422 9.53711 6.05859 9.81055C 6.29688 10.084 6.61328 10.2266 7.00781 10.2383C 7.35938 10.25 7.68359 10.1641 7.98047 9.98047C 8.27734 9.79297 8.52734 9.51172 8.73047 9.13672C 8.93359 8.76172 9.06445 8.3457 9.12305 7.88867C 9.1543 7.5293 9.16016 7.22656 9.14062 6.98047C 9.09375 6.50781 8.95117 6.13477 8.71289 5.86133C 8.47461 5.58789 8.1582 5.44336 7.76367 5.42773C 7.2168 5.41602 6.75195 5.63086 6.36914 6.07227C 5.98633 6.51367 5.75 7.0918 5.66016 7.80664L 5.64844 7.94141ZM 14.5078 4.54297C 15.0391 4.55078 15.4941 4.69531 15.873 4.97656C 16.252 5.25781 16.5312 5.64648 16.7109 6.14258C 16.8945 6.63477 16.957 7.17383 16.8984 7.75977L 16.8867 7.88867C 16.8125 8.50586 16.6289 9.06445 16.3359 9.56445C 16.043 10.0605 15.6641 10.4473 15.1992 10.7246C 14.7344 11.002 14.2246 11.1328 13.6699 11.1172C 13.1426 11.1094 12.6875 10.9648 12.3047 10.6836C 11.9258 10.4023 11.6484 10.0195 11.4727 9.53516C 11.2969 9.05078 11.2344 8.51758 11.2852 7.93555C 11.3438 7.2793 11.5215 6.68945 11.8184 6.16602C 12.1152 5.64258 12.4961 5.23828 12.9609 4.95312C 13.4297 4.66406 13.9453 4.52734 14.5078 4.54297ZM 12.3516 7.94141C 12.3242 8.1875 12.3242 8.44336 12.3516 8.70898C 12.3906 9.16992 12.5273 9.53711 12.7617 9.81055C 13 10.084 13.3164 10.2266 13.7109 10.2383C 14.0625 10.25 14.3867 10.1641 14.6836 9.98047C 14.9805 9.79297 15.2305 9.51172 15.4336 9.13672C 15.6367 8.76172 15.7676 8.3457 15.8262 7.88867C 15.8574 7.5293 15.8633 7.22656 15.8438 6.98047C 15.7969 6.50781 15.6543 6.13477 15.416 5.86133C 15.1777 5.58789 14.8613 5.44336 14.4668 5.42773C 13.9199 5.41602 13.4551 5.63086 13.0723 6.07227C 12.6895 6.51367 12.4531 7.0918 12.3633 7.80664L 12.3516 7.94141ZM 20.4902 3.125L 20.2207 4.66016L 21.375 4.66016L 21.2285 5.49805L 20.0801 5.49805L 19.418 9.44141C 19.4062 9.54297 19.4043 9.63672 19.4121 9.72266C 19.4395 10.0273 19.6055 10.1797 19.9102 10.1797C 20.0391 10.1797 20.2109 10.1602 20.4258 10.1211L 20.3438 11.0059C 20.0898 11.0762 19.832 11.1113 19.5703 11.1113C 19.1484 11.1035 18.832 10.9492 18.6211 10.6484C 18.4102 10.3438 18.3281 9.93555 18.375 9.42383L 19.0195 5.49805L 17.9004 5.49805L 18.0469 4.66016L 19.166 4.66016L 19.4355 3.125L 20.4902 3.125Z"/>
<path id="path13_fill" d="M 3.5918 6.75195L 5.81836 2.46875L 7.0957 2.46875L 4.1543 7.81836L 4.1543 11L 3.0293 11L 3.0293 7.81836L 0.0878906 2.46875L 1.37695 2.46875L 3.5918 6.75195ZM 9.27148 11L 8.64941 11L 9.38086 6.80273L 8.05811 7.26758L 8.16406 6.66602L 10.0098 5.99951L 10.1191 5.99951L 9.27148 11Z"/>
</defs>
</svg>
