<svg width="227" height="351" viewBox="0 0 227 351" version="1.1" xmlns="http://www.w3.org/2000/svg" xmlns:xlink="http://www.w3.org/1999/xlink">
<title>softwarearchitecture-actuators-hierarchy</title>
<desc>Created using Figma</desc>
<g id="Canvas" transform="translate(-1072 416)">
<clipPath id="clip-0" clip-rule="evenodd">
<path d="M 1072 -416L 1298.66 -416L 1298.66 -65.8057L 1072 -65.8057L 1072 -416Z" fill="#FFFFFF"/>
</clipPath>
<g id="softwarearchitecture-actuators-hierarchy" clip-path="url(#clip-0)">
<path d="M 1072 -416L 1298.66 -416L 1298.66 -65.8057L 1072 -65.8057L 1072 -416Z" fill="#FFFFFF"/>
<g id="Group">
<g id="Vector">
<use xlink:href="#path0_fill" transform="matrix(1.3333 0 0 1.3333 1077.33 -414.667)" fill="#FFFFCC"/>
</g>
<g id="Vector (Stroke)">
<use xlink:href="#path1_fill" transform="matrix(1.3333 0 0 1.3333 1076 -416)"/>
</g>
</g>
<g id="Group">
<g id="Vector">
<use xlink:href="#path2_fill" transform="matrix(1.3333 0 0 1.3333 1091.27 -341.32)"/>
</g>
</g>
<g id="Group">
<g id="Vector">
<use xlink:href="#path3_fill" transform="matrix(1.3333 0 0 1.3333 1091.27 -372.399)"/>
</g>
</g>
<g id="Group">
<g id="Vector">
<use xlink:href="#path4_stroke" transform="matrix(1.3333 0 0 1.3333 1077.33 -351.132)"/>
</g>
<g id="Vector">
<use xlink:href="#path5_stroke" transform="matrix(1.3333 0 0 1.3333 1077.33 -382.899)"/>
</g>
</g>
<g id="Group">
<g id="Vector">
<use xlink:href="#path6_fill" transform="matrix(1.3333 0 0 1.3333 1156.73 -403.375)"/>
</g>
</g>
<g id="Group">
<g id="Vector">
<use xlink:href="#path7_fill" transform="matrix(1.3333 0 0 1.3333 1114.67 -269.337)" fill="#FFFFCC"/>
</g>
<g id="Vector">
<use xlink:href="#path8_stroke" transform="matrix(1.3333 0 0 1.3333 1114.67 -269.337)"/>
</g>
</g>
<g id="Group">
<g id="Vector">
<use xlink:href="#path9_fill" transform="matrix(1.3333 0 0 1.3333 1128.6 -227.07)"/>
</g>
</g>
<g id="Group">
<g id="Vector">
<use xlink:href="#path10_stroke" transform="matrix(1.3333 0 0 1.3333 1114.67 -205.802)"/>
</g>
<g id="Vector">
<use xlink:href="#path11_stroke" transform="matrix(1.3333 0 0 1.3333 1114.67 -237.57)"/>
</g>
</g>
<g id="Group">
<g id="Vector">
<use xlink:href="#path12_fill" transform="matrix(1.3333 0 0 1.3333 1129.02 -258.671)"/>
</g>
</g>
<g id="Group">
<g id="Vector">
<use xlink:href="#path13_fill" transform="matrix(1.3333 0 0 1.3333 1073.33 -145.34)" fill="#FFFFCC"/>
</g>
<g id="Vector (Stroke)">
<use xlink:href="#path14_fill" transform="matrix(1.3333 0 0 1.3333 1072 -146.673)"/>
</g>
</g>
<g id="Group">
<g id="Vector">
<use xlink:href="#path15_fill" transform="matrix(1.3333 0 0 1.3333 1087.27 -93.0731)"/>
</g>
</g>
<g id="Group">
<g id="Vector">
<use xlink:href="#path16_stroke" transform="matrix(1.3333 0 0 1.3333 1073.33 -102.906)"/>
</g>
<g id="Vector">
<use xlink:href="#path16_stroke" transform="matrix(1.3333 0 0 1.3333 1073.33 -113.573)"/>
</g>
</g>
<g id="Group">
<g id="Vector">
<use xlink:href="#path17_fill" transform="matrix(1.3333 0 0 1.3333 1119.02 -134.674)"/>
</g>
</g>
<g id="Group">
<g id="Vector">
<use xlink:href="#path18_stroke" transform="matrix(1.3333 0 0 1.3333 1185.75 -176.126)"/>
</g>
<g id="Vector">
<use xlink:href="#path19_fill" transform="matrix(1.3333 0 0 1.3333 1177.73 -190.672)" fill="#FFFFFF"/>
</g>
<g id="Vector">
<use xlink:href="#path20_stroke" transform="matrix(1.3333 0 0 1.3333 1177.73 -190.672)"/>
</g>
<g id="Vector">
<use xlink:href="#path21_stroke" transform="matrix(1.3333 0 0 1.3333 1186.86 -300.354)"/>
</g>
<g id="Vector">
<use xlink:href="#path22_fill" transform="matrix(1.3333 0 0 1.3333 1177.73 -316.003)" fill="#FFFFFF"/>
</g>
<g id="Vector">
<use xlink:href="#path23_stroke" transform="matrix(1.3333 0 0 1.3333 1177.73 -316.003)"/>
</g>
</g>
</g>
</g>
<defs>
<path id="path0_fill" d="M 165 0L 0 0L 0 74.4785L 165 74.4785L 165 0Z"/>
<path id="path1_fill" fill-rule="evenodd" d="M 0 0L 1 0L 166 0L 167 0L 167 1L 167 75.4785L 167 76.4785L 166 76.4785L 1 76.4785L 0 76.4785L 0 75.4785L 0 1L 0 0ZM 2 2L 2 74.4785L 165 74.4785L 165 2L 2 2Z"/>
<path id="path2_fill" d="M 3.5469 5.0625L 5.8594 5.0625L 5.6719 6.0937L 3.375 6.0937L 2.9063 8.7812L 1.8281 8.7812L 2.2969 6.0937L -4.14848e-09 6.0937L 0.1719 5.0625L 2.4844 5.0625L 2.9063 2.5781L 3.9844 2.5781L 3.5469 5.0625ZM 15.0196 8.1406L 17.0352 3.2968L 18.1289 3.2968L 15.2383 9.6406L 14.3789 9.6406L 13.7227 4.8437L 11.4414 9.6406L 10.5821 9.6406L 9.8946 3.2968L 10.9102 3.2968L 11.3008 8.0156L 13.5508 3.2968L 14.3946 3.2968L 15.0196 8.1406ZM 22.0762 4.2656L 21.5762 4.2187C 20.8991 4.2187 20.3627 4.526 19.9668 5.1406L 19.2012 9.6406L 18.1387 9.6406L 19.2324 3.2968L 20.2637 3.2968L 20.1074 4.0312C 20.5553 3.43747 21.0814 3.151 21.6856 3.1718C 21.821 3.1718 21.9929 3.20307 22.2012 3.2656L 22.0762 4.2656ZM 23.2754 9.6406L 22.2285 9.6406L 23.3223 3.2968L 24.3848 3.2968L 23.2754 9.6406ZM 24.1504 0.9844C 24.3275 0.973933 24.4759 1.026 24.5957 1.1406C 24.7155 1.2552 24.7754 1.40623 24.7754 1.5937C 24.7754 1.78123 24.7181 1.9349 24.6035 2.0547C 24.489 2.1745 24.3379 2.237 24.1504 2.2422C 23.9629 2.2474 23.8119 2.1927 23.6973 2.0781C 23.5827 1.9635 23.528 1.81507 23.5332 1.6328C 23.5384 1.45053 23.5957 1.2995 23.7051 1.1797C 23.8145 1.0599 23.9629 0.9948 24.1504 0.9844ZM 27.8145 1.7656L 27.5489 3.2968L 28.7051 3.2968L 28.5489 4.1406L 27.4082 4.1406L 26.7364 8.0781C 26.7259 8.1823 26.7259 8.27607 26.7364 8.3594C 26.7676 8.66147 26.9343 8.8125 27.2364 8.8125C 27.3614 8.8125 27.5333 8.79687 27.752 8.7656L 27.6739 9.6406C 27.4134 9.71353 27.153 9.75 26.8926 9.75C 26.4759 9.7396 26.1608 9.58333 25.9473 9.2812C 25.7338 8.97913 25.653 8.5729 25.7051 8.0625L 26.3457 4.1406L 25.2207 4.1406L 25.377 3.2968L 26.4864 3.2968L 26.752 1.7656L 27.8145 1.7656ZM 31.6133 9.7656C 30.8216 9.7448 30.2044 9.45053 29.7617 8.8828C 29.319 8.31507 29.1342 7.5885 29.2071 6.7031L 29.2383 6.4531C 29.3008 5.8281 29.4857 5.2552 29.793 4.7344C 30.1003 4.21353 30.4753 3.8229 30.918 3.5625C 31.3607 3.30203 31.8373 3.17703 32.3477 3.1875C 32.9935 3.1979 33.5039 3.41143 33.8789 3.8281C 34.2539 4.24477 34.457 4.81247 34.4883 5.5312C 34.4987 5.7812 34.4883 6.0364 34.4571 6.2968L 34.3946 6.7812L 30.2539 6.7812C 30.181 7.35413 30.2748 7.84113 30.5352 8.2422C 30.7956 8.6432 31.1862 8.85413 31.7071 8.875C 32.3321 8.8854 32.9102 8.60413 33.4414 8.0312L 34.0508 8.5468C 33.78 8.93227 33.4363 9.23177 33.0196 9.4453C 32.6029 9.65883 32.1342 9.7656 31.6133 9.7656ZM 32.2852 4.0625C 31.8477 4.05203 31.4675 4.20047 31.1446 4.5078C 30.8217 4.81507 30.5612 5.276 30.3633 5.8906L 33.4571 5.8906L 33.4727 5.7968C 33.5352 5.30727 33.457 4.89843 33.2383 4.5703C 33.0196 4.24217 32.7019 4.0729 32.2852 4.0625ZM 35.6953 6.2031C 35.8203 5.29683 36.0573 4.41663 36.4063 3.5625C 36.7552 2.7083 37.1849 1.97913 37.6953 1.375C 38.2058 0.7708 38.7735 0.312466 39.3985 -2.04468e-07L 39.5547 0.7344C 38.9401 1.19267 38.4141 1.789 37.9766 2.5234C 37.5391 3.2578 37.2005 4.1328 36.961 5.1484C 36.7214 6.164 36.6068 7.1614 36.6172 8.1406C 36.6172 8.95313 36.7214 9.66667 36.9297 10.2812C 37.138 10.8958 37.4401 11.3802 37.836 11.7344L 37.5703 12.3906C 36.9141 11.9427 36.4141 11.2734 36.0703 10.3828C 35.7266 9.49213 35.5703 8.4791 35.6016 7.3437C 35.612 6.9687 35.638 6.60933 35.6797 6.2656L 35.6953 6.2031ZM 42.6543 3.1875C 43.1856 3.1875 43.6413 3.32813 44.0215 3.6094C 44.4017 3.8906 44.683 4.2786 44.8653 4.7734C 45.0476 5.2682 45.1074 5.81247 45.0449 6.4062L 45.0293 6.5312C 44.9564 7.1458 44.7741 7.7031 44.4824 8.2031C 44.1907 8.7031 43.8131 9.09113 43.3496 9.3672C 42.8861 9.6432 42.3731 9.776 41.8106 9.7656C 41.2897 9.7552 40.8392 9.60937 40.459 9.3281C 40.0788 9.04683 39.8002 8.66403 39.6231 8.1797C 39.446 7.6953 39.3835 7.16143 39.4356 6.5781C 39.4877 5.92183 39.6621 5.3307 39.959 4.8047C 40.2559 4.27863 40.6387 3.87237 41.1074 3.5859C 41.5762 3.29943 42.0918 3.16663 42.6543 3.1875ZM 40.4981 6.5781C 40.4668 6.8281 40.4668 7.0833 40.4981 7.3437C 40.5398 7.81243 40.6778 8.18223 40.9121 8.4531C 41.1465 8.72397 41.4616 8.8646 41.8574 8.875C 42.2116 8.8854 42.5371 8.79947 42.834 8.6172C 43.1309 8.43487 43.3809 8.1562 43.584 7.7812C 43.7871 7.4062 43.9147 6.98953 43.9668 6.5312C 43.9981 6.16667 44.0085 5.8646 43.9981 5.625C 43.946 5.1458 43.8001 4.7708 43.5606 4.5C 43.321 4.22913 43.0033 4.0833 42.6074 4.0625C 42.0657 4.05203 41.6022 4.26817 41.2168 4.7109C 40.8314 5.15363 40.597 5.73437 40.5137 6.4531L 40.4981 6.5781ZM 49.8516 9.0156C 49.362 9.526 48.7318 9.776 47.961 9.7656C 47.3568 9.7448 46.9089 9.52607 46.6172 9.1094C 46.3255 8.69273 46.2162 8.1198 46.2891 7.3906L 46.9766 3.2968L 48.0391 3.2968L 47.3516 7.4062C 47.3307 7.58327 47.3255 7.75513 47.336 7.9218C 47.3568 8.20307 47.4401 8.42183 47.586 8.5781C 47.7318 8.73437 47.9401 8.8229 48.211 8.8437C 48.9714 8.86457 49.5547 8.55727 49.961 7.9218L 50.7578 3.2968L 51.8203 3.2968L 50.7266 9.6406L 49.7266 9.6406L 49.8516 9.0156ZM 55.1074 1.7656L 54.8418 3.2968L 55.9981 3.2968L 55.8418 4.1406L 54.7012 4.1406L 54.0293 8.0781C 54.0189 8.1823 54.0189 8.27607 54.0293 8.3594C 54.0606 8.66147 54.2272 8.8125 54.5293 8.8125C 54.6543 8.8125 54.8262 8.79687 55.0449 8.7656L 54.9668 9.6406C 54.7064 9.71353 54.446 9.75 54.1856 9.75C 53.7689 9.7396 53.4538 9.58333 53.2403 9.2812C 53.0267 8.97913 52.946 8.5729 52.9981 8.0625L 53.6387 4.1406L 52.5137 4.1406L 52.6699 3.2968L 53.7793 3.2968L 54.0449 1.7656L 55.1074 1.7656ZM 59.8946 8.4062C 60.0821 8.4062 60.2383 8.4661 60.3633 8.5859C 60.4883 8.7057 60.5482 8.86197 60.543 9.0547C 60.5378 9.24737 60.4727 9.4036 60.3477 9.5234C 60.2227 9.6432 60.0664 9.7057 59.8789 9.7109C 59.6914 9.7161 59.5378 9.6614 59.418 9.5468C 59.2982 9.43227 59.2383 9.27863 59.2383 9.0859C 59.2383 8.89317 59.2982 8.73433 59.418 8.6094C 59.5378 8.48433 59.6967 8.4166 59.8946 8.4062ZM 60.8946 2.6406C 61.0821 2.6406 61.2383 2.7005 61.3633 2.8203C 61.4883 2.9401 61.5482 3.09633 61.543 3.289C 61.5378 3.48173 61.4727 3.638 61.3477 3.7578C 61.2227 3.8776 61.0664 3.9401 60.8789 3.9453C 60.6914 3.9505 60.5378 3.8958 60.418 3.7812C 60.2982 3.66667 60.2383 3.51303 60.2383 3.3203C 60.2383 3.12757 60.2982 2.9687 60.418 2.8437C 60.5378 2.7187 60.6967 2.651 60.8946 2.6406ZM 68.4473 3.1875C 68.9786 3.1875 69.4343 3.32813 69.8145 3.6094C 70.1947 3.8906 70.4759 4.2786 70.6582 4.7734C 70.8405 5.2682 70.9004 5.81247 70.8379 6.4062L 70.8223 6.5312C 70.7494 7.1458 70.5671 7.7031 70.2754 8.2031C 69.9837 8.7031 69.6061 9.09113 69.1426 9.3672C 68.6791 9.6432 68.166 9.776 67.6035 9.7656C 67.0827 9.7552 66.6322 9.60937 66.252 9.3281C 65.8718 9.04683 65.5931 8.66403 65.416 8.1797C 65.2389 7.6953 65.1764 7.16143 65.2285 6.5781C 65.2806 5.92183 65.4551 5.3307 65.752 4.8047C 66.0489 4.27863 66.4317 3.87237 66.9004 3.5859C 67.3691 3.29943 67.8848 3.16663 68.4473 3.1875ZM 66.291 6.5781C 66.2598 6.8281 66.2598 7.0833 66.291 7.3437C 66.3327 7.81243 66.4707 8.18223 66.7051 8.4531C 66.9395 8.72397 67.2546 8.8646 67.6504 8.875C 68.0046 8.8854 68.3301 8.79947 68.627 8.6172C 68.9239 8.43487 69.1739 8.1562 69.377 7.7812C 69.5801 7.4062 69.7077 6.98953 69.7598 6.5312C 69.7911 6.16667 69.8015 5.8646 69.791 5.625C 69.7389 5.1458 69.5931 4.7708 69.3535 4.5C 69.114 4.22913 68.7963 4.0833 68.4004 4.0625C 67.8587 4.05203 67.3952 4.26817 67.0098 4.7109C 66.6244 5.15363 66.39 5.73437 66.3067 6.4531L 66.291 6.5781ZM 75.5508 7.9218C 75.6133 7.48433 75.3738 7.17707 74.8321 7L 73.7227 6.6718C 72.7956 6.34893 72.3477 5.8177 72.3789 5.0781C 72.4102 4.52603 72.6654 4.0703 73.1446 3.7109C 73.6237 3.3515 74.1914 3.17703 74.8477 3.1875C 75.4831 3.1875 76.0013 3.3724 76.4024 3.7422C 76.8034 4.11193 76.9987 4.58847 76.9883 5.1718L 75.9258 5.1562C 75.9362 4.84373 75.8372 4.58853 75.6289 4.3906C 75.4206 4.19267 75.1445 4.0885 74.8008 4.0781C 74.4362 4.0677 74.1237 4.15623 73.8633 4.3437C 73.6133 4.52083 73.4675 4.7552 73.4258 5.0468C 73.3737 5.4114 73.5977 5.67703 74.0977 5.8437L 74.6289 5.9844C 75.3581 6.17187 75.8763 6.41663 76.1836 6.7187C 76.4909 7.02077 76.629 7.39577 76.5977 7.8437C 76.5768 8.23957 76.4492 8.58333 76.2149 8.875C 75.9805 9.16667 75.668 9.3906 75.2774 9.5468C 74.8867 9.70307 74.4727 9.776 74.0352 9.7656C 73.3581 9.7552 72.8008 9.55727 72.3633 9.1718C 71.9258 8.7864 71.7175 8.29163 71.7383 7.6875L 72.8008 7.6875C 72.8008 8.04163 72.9128 8.32547 73.1367 8.539C 73.3607 8.7526 73.6706 8.8594 74.0664 8.8594C 74.4519 8.8698 74.7852 8.79167 75.0664 8.625C 75.3477 8.45833 75.5091 8.22393 75.5508 7.9218ZM 80.4844 1.7656L 80.2188 3.2968L 81.375 3.2968L 81.2188 4.1406L 80.0781 4.1406L 79.4063 8.0781C 79.3959 8.1823 79.3959 8.27607 79.4063 8.3594C 79.4375 8.66147 79.6042 8.8125 79.9063 8.8125C 80.0313 8.8125 80.2032 8.79687 80.4219 8.7656L 80.3438 9.6406C 80.0833 9.71353 79.8229 9.75 79.5625 9.75C 79.1458 9.7396 78.8307 9.58333 78.6172 9.2812C 78.4037 8.97913 78.3229 8.5729 78.375 8.0625L 79.0157 4.1406L 77.8907 4.1406L 78.0469 3.2968L 79.1563 3.2968L 79.4219 1.7656L 80.4844 1.7656ZM 85.4864 4.2656L 84.9864 4.2187C 84.3093 4.2187 83.7728 4.526 83.377 5.1406L 82.6114 9.6406L 81.5489 9.6406L 82.6426 3.2968L 83.6739 3.2968L 83.5176 4.0312C 83.9655 3.43747 84.4916 3.151 85.0957 3.1718C 85.2312 3.1718 85.4031 3.20307 85.6114 3.2656L 85.4864 4.2656ZM 88.2793 9.7656C 87.4876 9.7448 86.8705 9.45053 86.4278 8.8828C 85.9851 8.31507 85.8002 7.5885 85.8731 6.7031L 85.9043 6.4531C 85.9668 5.8281 86.1517 5.2552 86.459 4.7344C 86.7663 4.21353 87.1413 3.8229 87.584 3.5625C 88.0267 3.30203 88.5033 3.17703 89.0137 3.1875C 89.6595 3.1979 90.1699 3.41143 90.5449 3.8281C 90.9199 4.24477 91.123 4.81247 91.1543 5.5312C 91.1647 5.7812 91.1543 6.0364 91.1231 6.2968L 91.0606 6.7812L 86.9199 6.7812C 86.847 7.35413 86.9408 7.84113 87.2012 8.2422C 87.4616 8.6432 87.8522 8.85413 88.3731 8.875C 88.9981 8.8854 89.5762 8.60413 90.1074 8.0312L 90.7168 8.5468C 90.446 8.93227 90.1023 9.23177 89.6856 9.4453C 89.2689 9.65883 88.8002 9.7656 88.2793 9.7656ZM 88.9512 4.0625C 88.5137 4.05203 88.1335 4.20047 87.8106 4.5078C 87.4877 4.81507 87.2272 5.276 87.0293 5.8906L 90.1231 5.8906L 90.1387 5.7968C 90.2012 5.30727 90.123 4.89843 89.9043 4.5703C 89.6856 4.24217 89.3679 4.0729 88.9512 4.0625ZM 95.6426 9.6406C 95.6113 9.526 95.5957 9.41663 95.5957 9.3125L 95.6114 8.9687C 95.0385 9.51037 94.4239 9.776 93.7676 9.7656C 93.2051 9.7552 92.7494 9.5755 92.4004 9.2265C 92.0515 8.87757 91.8926 8.44267 91.9239 7.9218C 91.9656 7.25513 92.2598 6.73433 92.8067 6.3594C 93.3536 5.98433 94.0749 5.7968 94.9707 5.7968L 96.0801 5.7968L 96.1582 5.2968C 96.1895 4.9114 96.114 4.60933 95.9317 4.3906C 95.7494 4.17187 95.4707 4.05727 95.0957 4.0468C 94.7312 4.0364 94.4109 4.12497 94.1348 4.3125C 93.8587 4.49997 93.6895 4.74473 93.627 5.0468L 92.5489 5.0625C 92.5906 4.6875 92.7364 4.35677 92.9864 4.0703C 93.2364 3.78383 93.5619 3.56247 93.9629 3.4062C 94.364 3.24993 94.778 3.1718 95.2051 3.1718C 95.8614 3.19267 96.3744 3.3958 96.7442 3.7812C 97.114 4.16667 97.2676 4.6771 97.2051 5.3125L 96.6895 8.4531L 96.6582 8.9062C 96.6478 9.11453 96.6739 9.32807 96.7364 9.5468L 96.7207 9.6406L 95.6426 9.6406ZM 93.9707 8.8125C 94.3145 8.8229 94.6374 8.74477 94.9395 8.5781C 95.2416 8.41143 95.502 8.17707 95.7207 7.875L 95.9551 6.5625L 95.1426 6.5625C 94.4759 6.5625 93.9655 6.66667 93.6114 6.875C 93.2572 7.08333 93.0593 7.3802 93.0176 7.7656C 92.9759 8.06767 93.0436 8.31767 93.2207 8.5156C 93.3978 8.71353 93.6478 8.8125 93.9707 8.8125ZM 100.254 3.2968L 100.113 4C 100.645 3.43747 101.285 3.16663 102.035 3.1875C 102.441 3.1875 102.785 3.27603 103.066 3.4531C 103.348 3.63017 103.54 3.88017 103.645 4.2031C 104.238 3.50517 104.936 3.16663 105.738 3.1875C 106.374 3.1979 106.842 3.40883 107.145 3.8203C 107.447 4.23177 107.556 4.78123 107.473 5.4687L 106.785 9.6406L 105.723 9.6406L 106.41 5.4687C 106.441 5.26037 106.441 5.07287 106.41 4.9062C 106.337 4.375 105.993 4.10417 105.379 4.0937C 104.993 4.0833 104.642 4.2031 104.324 4.4531C 104.007 4.7031 103.806 5.026 103.723 5.4218L 102.988 9.6406L 101.926 9.6406L 102.629 5.4687C 102.681 5.03123 102.616 4.6953 102.434 4.4609C 102.251 4.22657 101.967 4.1094 101.582 4.1094C 100.926 4.08853 100.405 4.3854 100.02 5L 99.2071 9.6406L 98.1446 9.6406L 99.2539 3.2968L 100.254 3.2968ZM 111.436 6.2187C 111.3 7.16663 111.053 8.06507 110.693 8.914C 110.334 9.763 109.904 10.4792 109.404 11.0625C 108.904 11.6458 108.347 12.0937 107.732 12.4062L 107.576 11.7344C 108.91 10.7239 109.8 9.10413 110.248 6.875C 110.436 5.96873 110.524 5.09893 110.514 4.2656C 110.493 2.59893 110.087 1.401 109.295 0.6718L 109.576 0.0156C 110.014 0.317667 110.383 0.7213 110.686 1.2265C 110.988 1.73177 111.209 2.32033 111.35 2.9922C 111.49 3.66407 111.555 4.35937 111.545 5.0781C 111.524 5.4531 111.493 5.80727 111.451 6.1406L 111.436 6.2187ZM 116.25 8.4062C 116.438 8.4062 116.594 8.4661 116.719 8.5859C 116.844 8.7057 116.904 8.86197 116.898 9.0547C 116.893 9.24737 116.828 9.4036 116.703 9.5234C 116.578 9.6432 116.422 9.7057 116.234 9.7109C 116.047 9.7161 115.893 9.6614 115.773 9.5468C 115.654 9.43227 115.594 9.27863 115.594 9.0859C 115.594 8.89317 115.654 8.73433 115.773 8.6094C 115.893 8.48433 116.052 8.4166 116.25 8.4062ZM 117.25 2.6406C 117.438 2.6406 117.594 2.7005 117.719 2.8203C 117.844 2.9401 117.904 3.09633 117.898 3.289C 117.893 3.48173 117.828 3.638 117.703 3.7578C 117.578 3.8776 117.422 3.9401 117.234 3.9453C 117.047 3.9505 116.893 3.8958 116.773 3.7812C 116.654 3.66667 116.594 3.51303 116.594 3.3203C 116.594 3.12757 116.654 2.9687 116.773 2.8437C 116.893 2.7187 117.052 2.651 117.25 2.6406ZM 123.584 8.1562L 125.865 3.2968L 126.99 3.2968L 123.803 9.6406L 122.99 9.6406L 121.74 3.2968L 122.787 3.2968L 123.584 8.1562ZM 130.498 3.1875C 131.029 3.1875 131.485 3.32813 131.865 3.6094C 132.246 3.8906 132.527 4.2786 132.709 4.7734C 132.891 5.2682 132.951 5.81247 132.889 6.4062L 132.873 6.5312C 132.8 7.1458 132.618 7.7031 132.326 8.2031C 132.035 8.7031 131.657 9.09113 131.193 9.3672C 130.73 9.6432 130.217 9.776 129.654 9.7656C 129.134 9.7552 128.683 9.60937 128.303 9.3281C 127.923 9.04683 127.644 8.66403 127.467 8.1797C 127.29 7.6953 127.227 7.16143 127.279 6.5781C 127.331 5.92183 127.506 5.3307 127.803 4.8047C 128.1 4.27863 128.482 3.87237 128.951 3.5859C 129.42 3.29943 129.936 3.16663 130.498 3.1875ZM 128.342 6.5781C 128.311 6.8281 128.311 7.0833 128.342 7.3437C 128.383 7.81243 128.522 8.18223 128.756 8.4531C 128.99 8.72397 129.305 8.8646 129.701 8.875C 130.055 8.8854 130.381 8.79947 130.678 8.6172C 130.975 8.43487 131.225 8.1562 131.428 7.7812C 131.631 7.4062 131.758 6.98953 131.811 6.5312C 131.842 6.16667 131.852 5.8646 131.842 5.625C 131.79 5.1458 131.644 4.7708 131.404 4.5C 131.165 4.22913 130.847 4.0833 130.451 4.0625C 129.91 4.05203 129.446 4.26817 129.061 4.7109C 128.675 5.15363 128.441 5.73437 128.357 6.4531L 128.342 6.5781ZM 134.82 9.6406L 133.773 9.6406L 134.867 3.2968L 135.93 3.2968L 134.82 9.6406ZM 135.695 0.9844C 135.872 0.973933 136.021 1.026 136.141 1.1406C 136.26 1.2552 136.32 1.40623 136.32 1.5937C 136.32 1.78123 136.263 1.9349 136.148 2.0547C 136.034 2.1745 135.883 2.237 135.695 2.2422C 135.508 2.2474 135.357 2.1927 135.242 2.0781C 135.128 1.9635 135.073 1.81507 135.078 1.6328C 135.083 1.45053 135.141 1.2995 135.25 1.1797C 135.359 1.0599 135.508 0.9948 135.695 0.9844ZM 136.859 6.4531C 136.943 5.8073 137.122 5.22657 137.398 4.7109C 137.674 4.1953 138.016 3.80727 138.422 3.5468C 138.828 3.2864 139.276 3.1614 139.766 3.1718C 140.474 3.19267 141.016 3.4531 141.391 3.9531L 142 0.6406L 143.062 0.6406L 141.5 9.6406L 140.531 9.6406L 140.641 8.9531C 140.141 9.50517 139.526 9.776 138.797 9.7656C 138.214 9.7448 137.747 9.51303 137.398 9.0703C 137.049 8.62757 136.859 8.0312 136.828 7.2812C 136.818 7.05207 136.828 6.77603 136.859 6.4531ZM 137.875 7.0625C 137.865 7.62497 137.966 8.05987 138.18 8.3672C 138.393 8.67447 138.703 8.8333 139.109 8.8437C 139.724 8.87497 140.266 8.56767 140.734 7.9218L 141.25 4.9844C 141.01 4.41147 140.583 4.11457 139.969 4.0937C 139.552 4.0833 139.185 4.2109 138.867 4.4765C 138.55 4.74217 138.307 5.11197 138.141 5.5859C 137.974 6.05983 137.885 6.55203 137.875 7.0625Z"/>
<path id="path3_fill" d="M 3.4688 4.5469L 5.8594 4.5469L 5.8594 5.5781L 3.4688 5.5781L 3.4688 8.2656L 2.3907 8.2656L 2.3907 5.5781L -4.14848e-09 5.5781L -4.14848e-09 4.5469L 2.3907 4.5469L 2.3907 2.0625L 3.4688 2.0625L 3.4688 4.5469ZM 14.0547 9.125C 13.9922 9 13.9402 8.77603 13.8985 8.4531C 13.3985 8.98437 12.7995 9.25 12.1016 9.25C 11.4766 9.25 10.9636 9.07293 10.5625 8.7188C 10.1615 8.3646 9.961 7.91147 9.961 7.3594C 9.961 6.70313 10.211 6.1927 10.711 5.8281C 11.211 5.4635 11.9193 5.2812 12.836 5.2812L 13.8828 5.2812L 13.8828 4.7812C 13.8828 4.40627 13.7708 4.1068 13.5469 3.8828C 13.323 3.65887 12.987 3.5469 12.5391 3.5469C 12.1537 3.5469 11.8308 3.64323 11.5703 3.8359C 11.3099 4.02863 11.1797 4.26563 11.1797 4.5469L 10.086 4.5469C 10.086 4.22397 10.198 3.91667 10.4219 3.625C 10.6458 3.33333 10.9505 3.10157 11.336 2.9297C 11.7214 2.75783 12.1433 2.6719 12.6016 2.6719C 13.3412 2.6719 13.9167 2.8542 14.3281 3.2188C 14.7396 3.58333 14.9557 4.08333 14.9766 4.7188L 14.9766 7.6406C 14.9766 8.22393 15.0495 8.68747 15.1953 9.0312L 15.1953 9.125L 14.0547 9.125ZM 12.2578 8.2969C 12.6016 8.2969 12.9245 8.20833 13.2266 8.0312C 13.5287 7.85413 13.7474 7.625 13.8828 7.3438L 13.8828 6.0469L 13.0391 6.0469C 11.7058 6.0469 11.0391 6.43753 11.0391 7.2188C 11.0391 7.55213 11.1537 7.81513 11.3828 8.0078C 11.612 8.20053 11.9037 8.2969 12.2578 8.2969ZM 17.6914 2.7812L 17.7227 3.5781C 18.2123 2.97397 18.8477 2.6719 19.6289 2.6719C 20.9727 2.6719 21.6498 3.4271 21.6602 4.9375L 21.6602 9.125L 20.5664 9.125L 20.5664 4.9219C 20.5664 4.47397 20.4648 4.14063 20.2617 3.9219C 20.0586 3.70317 19.7383 3.5938 19.3008 3.5938C 18.9467 3.5938 18.6368 3.68753 18.3711 3.875C 18.1055 4.06247 17.8998 4.30727 17.7539 4.6094L 17.7539 9.125L 16.6758 9.125L 16.6758 2.7812L 17.6914 2.7812ZM 23.0313 5.9062C 23.0313 4.91667 23.2605 4.13023 23.7188 3.5469C 24.1771 2.96357 24.7813 2.6719 25.5313 2.6719C 26.3021 2.6719 26.9063 2.94273 27.3438 3.4844L 27.3907 2.7812L 28.3907 2.7812L 28.3907 8.9688C 28.3907 9.79167 28.1459 10.4401 27.6563 10.9141C 27.1667 11.388 26.5156 11.625 25.7031 11.625C 25.2448 11.625 24.7969 11.526 24.3594 11.3281C 23.9219 11.1302 23.5885 10.8645 23.3594 10.5312L 23.9219 9.875C 24.3802 10.4479 24.9479 10.7344 25.625 10.7344C 26.1459 10.7344 26.5547 10.586 26.8516 10.2891C 27.1485 9.99223 27.2969 9.57293 27.2969 9.0312L 27.2969 8.4844C 26.8594 8.9948 26.2657 9.25 25.5157 9.25C 24.7761 9.25 24.1771 8.95053 23.7188 8.3516C 23.2605 7.7526 23.0313 6.93747 23.0313 5.9062ZM 24.125 6.0312C 24.125 6.7396 24.2708 7.2995 24.5625 7.7109C 24.8542 8.12237 25.2656 8.3281 25.7969 8.3281C 26.474 8.3281 26.974 8.0156 27.2969 7.3906L 27.2969 4.5C 26.9636 3.89587 26.4636 3.5938 25.7969 3.5938C 25.2761 3.5938 24.8672 3.7969 24.5703 4.2031C 24.2734 4.60937 24.125 5.21873 24.125 6.0312ZM 31.2012 9.125L 30.1231 9.125L 30.1231 0.125L 31.2012 0.125L 31.2012 9.125ZM 35.5664 9.25C 34.7019 9.25 34.0014 8.96613 33.4649 8.3984C 32.9284 7.83073 32.6602 7.07293 32.6602 6.125L 32.6602 5.9375C 32.6602 5.3021 32.78 4.737 33.0196 4.2422C 33.2591 3.7474 33.5951 3.36197 34.0274 3.0859C 34.4597 2.8099 34.9258 2.6719 35.4258 2.6719C 36.2487 2.6719 36.8894 2.94273 37.3477 3.4844C 37.806 4.02607 38.0352 4.8021 38.0352 5.8125L 38.0352 6.2656L 33.7383 6.2656C 33.7592 6.8906 33.9441 7.3958 34.293 7.7812C 34.6419 8.16667 35.0872 8.3594 35.6289 8.3594C 36.0039 8.3594 36.3242 8.28127 36.5899 8.125C 36.8555 7.96873 37.0925 7.7604 37.3008 7.5L 37.9571 8.0156C 37.4258 8.83853 36.6289 9.25 35.5664 9.25ZM 35.4258 3.5625C 34.9883 3.5625 34.6211 3.72137 34.3242 4.0391C 34.0273 4.35677 33.8477 4.80207 33.7852 5.375L 36.9571 5.375L 36.9571 5.2969C 36.9258 4.74483 36.7774 4.31773 36.5117 4.0156C 36.2461 3.71353 35.8841 3.5625 35.4258 3.5625ZM 42.2852 8.5625C 42.2852 8.37497 42.3399 8.21873 42.4492 8.0938C 42.5586 7.96873 42.7253 7.9062 42.9492 7.9062C 43.1732 7.9062 43.3425 7.96873 43.4571 8.0938C 43.5716 8.21873 43.6289 8.37497 43.6289 8.5625C 43.6289 8.73957 43.5716 8.888 43.4571 9.0078C 43.3425 9.1276 43.1732 9.1875 42.9492 9.1875C 42.7253 9.1875 42.5586 9.1276 42.4492 9.0078C 42.3399 8.888 42.2852 8.73957 42.2852 8.5625ZM 42.2852 2.7812C 42.2852 2.59373 42.3399 2.4375 42.4492 2.3125C 42.5586 2.1875 42.7253 2.125 42.9492 2.125C 43.1732 2.125 43.3425 2.1875 43.4571 2.3125C 43.5716 2.4375 43.6289 2.59373 43.6289 2.7812C 43.6289 2.95833 43.5716 3.1068 43.4571 3.2266C 43.3425 3.34633 43.1732 3.4062 42.9492 3.4062C 42.7253 3.4062 42.5586 3.34633 42.4492 3.2266C 42.3399 3.1068 42.2852 2.95833 42.2852 2.7812ZM 48.6778 9.125L 48.6778 3.625L 47.6778 3.625L 47.6778 2.7812L 48.6778 2.7812L 48.6778 2.1406C 48.6778 1.45313 48.8575 0.9245 49.2168 0.5547C 49.5762 0.1849 50.0892 0 50.7559 0C 51.0059 0 51.2559 0.0312663 51.5059 0.0937996L 51.4434 0.9844C 51.2559 0.942733 51.0632 0.9219 50.8653 0.9219C 50.5111 0.9219 50.2376 1.02607 50.0449 1.2344C 49.8522 1.44273 49.7559 1.7344 49.7559 2.1094L 49.7559 2.7812L 51.1153 2.7812L 51.1153 3.625L 49.7559 3.625L 49.7559 9.125L 48.6778 9.125ZM 53.4844 9.125L 52.4063 9.125L 52.4063 0.125L 53.4844 0.125L 53.4844 9.125ZM 54.9278 5.8906C 54.9278 5.27607 55.0502 4.7188 55.2949 4.2188C 55.5397 3.7188 55.8809 3.33597 56.3184 3.0703C 56.7559 2.8047 57.2507 2.6719 57.8028 2.6719C 58.6673 2.6719 59.3678 2.96877 59.9043 3.5625C 60.4408 4.15623 60.709 4.9531 60.709 5.9531L 60.709 6.0312C 60.709 6.6458 60.5892 7.1979 60.3496 7.6875C 60.1101 8.1771 59.7715 8.5599 59.334 8.8359C 58.8965 9.11197 58.3913 9.25 57.8184 9.25C 56.9642 9.25 56.2689 8.95053 55.7324 8.3516C 55.196 7.7526 54.9278 6.95833 54.9278 5.9688L 54.9278 5.8906ZM 56.0215 6.0312C 56.0215 6.72913 56.1856 7.29167 56.5137 7.7188C 56.8418 8.14587 57.2767 8.3594 57.8184 8.3594C 58.3705 8.3594 58.808 8.14323 59.1309 7.7109C 59.4538 7.27863 59.6153 6.67187 59.6153 5.8906C 59.6153 5.20313 59.4512 4.64323 59.1231 4.2109C 58.795 3.77863 58.3549 3.5625 57.8028 3.5625C 57.2715 3.5625 56.8418 3.77343 56.5137 4.1953C 56.1856 4.61717 56.0215 5.22913 56.0215 6.0312ZM 65.9746 9.125C 65.9121 9 65.8601 8.77603 65.8184 8.4531C 65.3184 8.98437 64.7194 9.25 64.0215 9.25C 63.3965 9.25 62.8835 9.07293 62.4824 8.7188C 62.0814 8.3646 61.8809 7.91147 61.8809 7.3594C 61.8809 6.70313 62.1309 6.1927 62.6309 5.8281C 63.1309 5.4635 63.8392 5.2812 64.7559 5.2812L 65.8028 5.2812L 65.8028 4.7812C 65.8028 4.40627 65.6908 4.1068 65.4668 3.8828C 65.2429 3.65887 64.9069 3.5469 64.459 3.5469C 64.0736 3.5469 63.7507 3.64323 63.4903 3.8359C 63.2298 4.02863 63.0996 4.26563 63.0996 4.5469L 62.0059 4.5469C 62.0059 4.22397 62.1179 3.91667 62.3418 3.625C 62.5658 3.33333 62.8705 3.10157 63.2559 2.9297C 63.6413 2.75783 64.0632 2.6719 64.5215 2.6719C 65.2611 2.6719 65.8366 2.8542 66.2481 3.2188C 66.6596 3.58333 66.8757 4.08333 66.8965 4.7188L 66.8965 7.6406C 66.8965 8.22393 66.9694 8.68747 67.1153 9.0312L 67.1153 9.125L 65.9746 9.125ZM 64.1778 8.2969C 64.5215 8.2969 64.8444 8.20833 65.1465 8.0312C 65.4486 7.85413 65.6673 7.625 65.8028 7.3438L 65.8028 6.0469L 64.959 6.0469C 63.6257 6.0469 62.959 6.43753 62.959 7.2188C 62.959 7.55213 63.0736 7.81513 63.3028 8.0078C 63.5319 8.20053 63.8236 8.2969 64.1778 8.2969ZM 70.0645 1.25L 70.0645 2.7812L 71.2364 2.7812L 71.2364 3.625L 70.0645 3.625L 70.0645 7.5469C 70.0645 7.8073 70.1166 8 70.2207 8.125C 70.3249 8.25 70.502 8.3125 70.752 8.3125C 70.877 8.3125 71.0489 8.29167 71.2676 8.25L 71.2676 9.125C 70.9863 9.20833 70.7103 9.25 70.4395 9.25C 69.9603 9.25 69.5957 9.10157 69.3457 8.8047C 69.0957 8.50783 68.9707 8.08857 68.9707 7.5469L 68.9707 3.625L 67.8145 3.625L 67.8145 2.7812L 68.9707 2.7812L 68.9707 1.25L 70.0645 1.25Z"/>
<path id="path4_stroke" d="M 1.2207e-05 -0.500002L -0.499988 -0.500002L -0.499988 0.499998L 1.2207e-05 0.499998L 1.2207e-05 -0.500002ZM 165 0.499998L 165.5 0.499998L 165.5 -0.500002L 165 -0.500002L 165 0.499998ZM 1.2207e-05 0.499998L 165 0.499998L 165 -0.500002L 1.2207e-05 -0.500002L 1.2207e-05 0.499998Z"/>
<path id="path5_stroke" d="M 1.2207e-05 -0.499998L -0.499988 -0.499998L -0.499988 0.500002L 1.2207e-05 0.500002L 1.2207e-05 -0.499998ZM 165 0.500002L 165.5 0.500002L 165.5 -0.499998L 165 -0.499998L 165 0.500002ZM 1.2207e-05 0.500002L 165 0.500002L 165 -0.499998L 1.2207e-05 -0.499998L 1.2207e-05 0.500002Z"/>
<path id="path6_fill" d="M 5.5312 6.7656L 2.4531 6.7656L 1.8593 8.5312L 4.23193e-10 8.5312L 3.1719 -4.08936e-07L 4.7969 -4.08936e-07L 8 8.5312L 6.125 8.5312L 5.5312 6.7656ZM 2.9219 5.3437L 5.0625 5.3437L 3.9843 2.1562L 2.9219 5.3437ZM 11.3086 7.2812C 11.6211 7.2812 11.8763 7.19527 12.0742 7.0234C 12.2721 6.85153 12.3763 6.62497 12.3867 6.3437L 13.9648 6.3437C 13.9648 6.77077 13.8502 7.164 13.6211 7.5234C 13.3919 7.88273 13.0768 8.16137 12.6758 8.3593C 12.2747 8.55723 11.8294 8.6562 11.3398 8.6562C 10.4335 8.6562 9.72 8.36713 9.1992 7.789C 8.67833 7.21087 8.4179 6.4114 8.4179 5.3906L 8.4179 5.2812C 8.4179 4.302 8.67833 3.52337 9.1992 2.9453C 9.72 2.36717 10.4335 2.0781 11.3398 2.0781C 12.1315 2.0781 12.7669 2.30207 13.2461 2.75C 13.7252 3.19787 13.9648 3.7968 13.9648 4.5468L 12.3867 4.5468C 12.3763 4.22387 12.2721 3.95827 12.0742 3.75C 11.8763 3.5416 11.6211 3.4374 11.3086 3.4374C 10.9127 3.4374 10.6132 3.58327 10.4101 3.875C 10.207 4.1666 10.1054 4.63013 10.1054 5.2656L 10.1054 5.4531C 10.1054 6.0989 10.2044 6.56503 10.4023 6.8515C 10.6002 7.13797 10.9023 7.2812 11.3086 7.2812ZM 16.957 0.625L 16.957 2.1874L 18.0508 2.1874L 18.0508 3.4374L 16.957 3.4374L 16.957 6.5937C 16.957 6.8333 17.0039 7.00257 17.0976 7.1015C 17.1914 7.2005 17.3633 7.25 17.6133 7.25C 17.8008 7.25 17.9674 7.23957 18.1133 7.2187L 18.1133 8.5C 17.78 8.60413 17.4362 8.6562 17.082 8.6562C 15.8945 8.6562 15.2904 8.05203 15.2695 6.8437L 15.2695 3.4374L 14.3476 3.4374L 14.3476 2.1874L 15.2695 2.1874L 15.2695 0.625L 16.957 0.625ZM 22.7929 7.8906C 22.3762 8.401 21.7981 8.6562 21.0586 8.6562C 20.3711 8.6562 19.8502 8.45827 19.4961 8.0624C 19.1419 7.6666 18.9596 7.0937 18.9492 6.3437L 18.9492 2.1874L 20.6367 2.1874L 20.6367 6.2812C 20.6367 6.94787 20.9388 7.2812 21.5429 7.2812C 22.1158 7.2812 22.5117 7.07807 22.7304 6.6718L 22.7304 2.1874L 24.4336 2.1874L 24.4336 8.5312L 22.8398 8.5312L 22.7929 7.8906ZM 29.3828 8.5312C 29.2995 8.37493 29.2422 8.18743 29.2109 7.9687C 28.8046 8.42703 28.2734 8.6562 27.6172 8.6562C 26.9922 8.6562 26.4766 8.4739 26.0703 8.1093C 25.664 7.7447 25.4609 7.2916 25.4609 6.75C 25.4609 6.07287 25.7083 5.55463 26.2031 5.1953C 26.6979 4.8359 27.4193 4.6562 28.3672 4.6562L 29.1328 4.6562L 29.1328 4.2968C 29.1328 4.00513 29.0599 3.77077 28.914 3.5937C 28.7682 3.41663 28.5286 3.3281 28.1953 3.3281C 27.914 3.3281 27.6927 3.3958 27.5312 3.5312C 27.3697 3.6666 27.289 3.8541 27.289 4.0937L 25.6015 4.0937C 25.6015 3.7291 25.7135 3.39057 25.9375 3.0781C 26.1614 2.76557 26.4817 2.52077 26.8984 2.3437C 27.3151 2.16663 27.7786 2.0781 28.289 2.0781C 29.0703 2.0781 29.6901 2.2734 30.1484 2.664C 30.6067 3.05467 30.8359 3.60413 30.8359 4.3124L 30.8359 7.0624C 30.8463 7.6666 30.9296 8.12493 31.0859 8.4374L 31.0859 8.5312L 29.3828 8.5312ZM 27.9765 7.3593C 28.2265 7.3593 28.4583 7.302 28.6719 7.1874C 28.8854 7.07287 29.0391 6.92183 29.1328 6.7343L 29.1328 5.6406L 28.5078 5.6406C 27.6641 5.6406 27.2109 5.93747 27.1484 6.5312L 27.1484 6.625C 27.1484 6.83327 27.2213 7.00773 27.3672 7.1484C 27.513 7.289 27.7161 7.3593 27.9765 7.3593ZM 34.1601 0.625L 34.1601 2.1874L 35.2539 2.1874L 35.2539 3.4374L 34.1601 3.4374L 34.1601 6.5937C 34.1601 6.8333 34.207 7.00257 34.3008 7.1015C 34.3945 7.2005 34.5664 7.25 34.8164 7.25C 35.0039 7.25 35.1705 7.23957 35.3164 7.2187L 35.3164 8.5C 34.9831 8.60413 34.6393 8.6562 34.2851 8.6562C 33.0976 8.6562 32.4935 8.05203 32.4726 6.8437L 32.4726 3.4374L 31.5508 3.4374L 31.5508 2.1874L 32.4726 2.1874L 32.4726 0.625L 34.1601 0.625ZM 35.9336 5.2968C 35.9336 4.6718 36.0534 4.1119 36.2929 3.6171C 36.5325 3.12237 36.8815 2.74217 37.3398 2.4765C 37.7981 2.2109 38.3242 2.0781 38.9179 2.0781C 39.7825 2.0781 40.483 2.3385 41.0195 2.8593C 41.556 3.38017 41.8554 4.0885 41.9179 4.9843L 41.9336 5.4218C 41.9336 6.401 41.6628 7.18487 41.1211 7.7734C 40.5794 8.36193 39.8503 8.6562 38.9336 8.6562C 38.0169 8.6562 37.2878 8.36193 36.7461 7.7734C 36.2044 7.18487 35.9336 6.3854 35.9336 5.375L 35.9336 5.2968ZM 37.6211 5.4218C 37.6211 6.026 37.7357 6.48693 37.9648 6.8046C 38.194 7.12233 38.5169 7.2812 38.9336 7.2812C 39.3503 7.2812 39.6732 7.12493 39.9023 6.8124C 40.1315 6.49993 40.2461 5.99473 40.2461 5.2968C 40.2461 4.71347 40.1315 4.25773 39.9023 3.9296C 39.6732 3.60147 39.345 3.4374 38.9179 3.4374C 38.5117 3.4374 38.194 3.59887 37.9648 3.9218C 37.7357 4.24473 37.6211 4.74473 37.6211 5.4218ZM 46.5469 3.7812C 46.3177 3.74993 46.1146 3.7343 45.9375 3.7343C 45.2916 3.7343 44.8698 3.94787 44.6719 4.375L 44.6719 8.5312L 42.9843 8.5312L 42.9843 2.1874L 44.5781 2.1874L 44.625 2.9531C 44.9687 2.36977 45.4375 2.0781 46.0312 2.0781C 46.2187 2.0781 46.3958 2.10413 46.5625 2.1562L 46.5469 3.7812Z"/>
<path id="path7_fill" d="M 108 0L 1.2207e-05 0L 1.2207e-05 58.6523L 108 58.6523L 108 0Z"/>
<path id="path8_stroke" d="M 1.2207e-05 0L 1.2207e-05 -1L -0.999988 -1L -0.999988 0L 1.2207e-05 0ZM 108 0L 109 0L 109 -1L 108 -1L 108 0ZM 108 58.6523L 108 59.6523L 109 59.6523L 109 58.6523L 108 58.6523ZM 1.2207e-05 58.6523L -0.999988 58.6523L -0.999988 59.6523L 1.2207e-05 59.6523L 1.2207e-05 58.6523ZM 1.2207e-05 1L 108 1L 108 -1L 1.2207e-05 -1L 1.2207e-05 1ZM 107 0L 107 58.6523L 109 58.6523L 109 0L 107 0ZM 108 57.6523L 1.2207e-05 57.6523L 1.2207e-05 59.6523L 108 59.6523L 108 57.6523ZM 1.00001 58.6523L 1.00001 0L -0.999988 0L -0.999988 58.6523L 1.00001 58.6523Z"/>
<path id="path9_fill" d="M 3.4688 4.5469L 5.8594 4.5469L 5.8594 5.5781L 3.4688 5.5781L 3.4688 8.2656L 2.3907 8.2656L 2.3907 5.5781L -4.14848e-09 5.5781L -4.14848e-09 4.5469L 2.3907 4.5469L 2.3907 2.0625L 3.4688 2.0625L 3.4688 4.5469ZM 13.836 7.4375C 13.836 7.14583 13.724 6.91927 13.5 6.7578C 13.2761 6.59633 12.8907 6.45833 12.3438 6.3438C 11.7969 6.2292 11.362 6.08857 11.0391 5.9219C 10.7162 5.75523 10.4792 5.5599 10.3281 5.3359C 10.1771 5.11197 10.1016 4.84373 10.1016 4.5312C 10.1016 4.0104 10.3203 3.5703 10.7578 3.2109C 11.1953 2.85157 11.7578 2.6719 12.4453 2.6719C 13.1641 2.6719 13.7448 2.8568 14.1875 3.2266C 14.6302 3.59633 14.8516 4.06767 14.8516 4.6406L 13.7735 4.6406C 13.7735 4.34893 13.6459 4.09633 13.3907 3.8828C 13.1354 3.66927 12.8203 3.5625 12.4453 3.5625C 12.0495 3.5625 11.7396 3.64843 11.5157 3.8203C 11.2917 3.99217 11.1797 4.21353 11.1797 4.4844C 11.1797 4.7448 11.2839 4.9427 11.4922 5.0781C 11.7005 5.2135 12.0755 5.3411 12.6172 5.4609C 13.1589 5.5807 13.5964 5.72393 13.9297 5.8906C 14.263 6.05727 14.5104 6.2604 14.6719 6.5C 14.8334 6.7396 14.9141 7.02607 14.9141 7.3594C 14.9141 7.93233 14.6875 8.39067 14.2344 8.7344C 13.7813 9.07813 13.1953 9.25 12.4766 9.25C 11.9662 9.25 11.5157 9.15887 11.125 8.9766C 10.7344 8.79427 10.4297 8.54167 10.211 8.2188C 9.9922 7.89587 9.8828 7.5469 9.8828 7.1719L 10.961 7.1719C 10.9818 7.5365 11.1276 7.82557 11.3985 8.0391C 11.6693 8.25263 12.0287 8.3594 12.4766 8.3594C 12.8829 8.3594 13.211 8.27607 13.461 8.1094C 13.711 7.94273 13.836 7.71877 13.836 7.4375ZM 21.6797 6.0312C 21.6797 6.9896 21.461 7.76567 21.0235 8.3594C 20.586 8.95313 19.987 9.25 19.2266 9.25C 18.4557 9.25 17.8516 9.0052 17.4141 8.5156L 17.4141 11.5625L 16.336 11.5625L 16.336 2.7812L 17.3203 2.7812L 17.3672 3.4844C 17.8151 2.94273 18.4297 2.6719 19.211 2.6719C 19.9714 2.6719 20.573 2.95833 21.0157 3.5312C 21.4584 4.10413 21.6797 4.90103 21.6797 5.9219L 21.6797 6.0312ZM 20.6016 5.9062C 20.6016 5.18747 20.448 4.62237 20.1407 4.2109C 19.8334 3.7995 19.4141 3.5938 18.8828 3.5938C 18.2266 3.5938 17.737 3.88023 17.4141 4.4531L 17.4141 7.4844C 17.737 8.06773 18.2318 8.3594 18.8985 8.3594C 19.4193 8.3594 19.8334 8.15367 20.1407 7.7422C 20.448 7.33073 20.6016 6.71873 20.6016 5.9062ZM 25.6934 9.25C 24.8288 9.25 24.1283 8.96613 23.5918 8.3984C 23.0553 7.83073 22.7871 7.07293 22.7871 6.125L 22.7871 5.9375C 22.7871 5.3021 22.9069 4.737 23.1465 4.2422C 23.3861 3.7474 23.722 3.36197 24.1543 3.0859C 24.5866 2.8099 25.0528 2.6719 25.5528 2.6719C 26.3757 2.6719 27.0163 2.94273 27.4746 3.4844C 27.9329 4.02607 28.1621 4.8021 28.1621 5.8125L 28.1621 6.2656L 23.8653 6.2656C 23.8861 6.8906 24.071 7.3958 24.4199 7.7812C 24.7689 8.16667 25.2142 8.3594 25.7559 8.3594C 26.1309 8.3594 26.4512 8.28127 26.7168 8.125C 26.9825 7.96873 27.2195 7.7604 27.4278 7.5L 28.084 8.0156C 27.5527 8.83853 26.7559 9.25 25.6934 9.25ZM 25.5528 3.5625C 25.1153 3.5625 24.7481 3.72137 24.4512 4.0391C 24.1543 4.35677 23.9746 4.80207 23.9121 5.375L 27.084 5.375L 27.084 5.2969C 27.0527 4.74483 26.9043 4.31773 26.6387 4.0156C 26.3731 3.71353 26.0111 3.5625 25.5528 3.5625ZM 32.0508 9.25C 31.1862 9.25 30.4857 8.96613 29.9492 8.3984C 29.4128 7.83073 29.1446 7.07293 29.1446 6.125L 29.1446 5.9375C 29.1446 5.3021 29.2644 4.737 29.5039 4.2422C 29.7435 3.7474 30.0794 3.36197 30.5117 3.0859C 30.944 2.8099 31.4102 2.6719 31.9102 2.6719C 32.7331 2.6719 33.3738 2.94273 33.8321 3.4844C 34.2904 4.02607 34.5196 4.8021 34.5196 5.8125L 34.5196 6.2656L 30.2227 6.2656C 30.2435 6.8906 30.4284 7.3958 30.7774 7.7812C 31.1263 8.16667 31.5716 8.3594 32.1133 8.3594C 32.4883 8.3594 32.8086 8.28127 33.0742 8.125C 33.3399 7.96873 33.5769 7.7604 33.7852 7.5L 34.4414 8.0156C 33.9102 8.83853 33.1133 9.25 32.0508 9.25ZM 31.9102 3.5625C 31.4727 3.5625 31.1055 3.72137 30.8086 4.0391C 30.5117 4.35677 30.3321 4.80207 30.2696 5.375L 33.4414 5.375L 33.4414 5.2969C 33.4102 4.74483 33.2618 4.31773 32.9961 4.0156C 32.7305 3.71353 32.3685 3.5625 31.9102 3.5625ZM 35.5176 5.9062C 35.5176 4.92707 35.7468 4.14323 36.2051 3.5547C 36.6634 2.96617 37.2676 2.6719 38.0176 2.6719C 38.7572 2.6719 39.3457 2.9219 39.7832 3.4219L 39.7832 0.125L 40.8614 0.125L 40.8614 9.125L 39.8614 9.125L 39.8145 8.4375C 39.377 8.97917 38.7728 9.25 38.002 9.25C 37.2728 9.25 36.6764 8.94793 36.2129 8.3438C 35.7494 7.7396 35.5176 6.95313 35.5176 5.9844L 35.5176 5.9062ZM 36.5957 6.0312C 36.5957 6.75 36.7441 7.31253 37.041 7.7188C 37.3379 8.125 37.7468 8.3281 38.2676 8.3281C 38.9551 8.3281 39.4603 8.0156 39.7832 7.3906L 39.7832 4.4844C 39.4603 3.89067 38.9603 3.5938 38.2832 3.5938C 37.752 3.5938 37.3379 3.7969 37.041 4.2031C 36.7441 4.60937 36.5957 5.21873 36.5957 6.0312ZM 45.5371 8.5625C 45.5371 8.37497 45.5918 8.21873 45.7012 8.0938C 45.8106 7.96873 45.9773 7.9062 46.2012 7.9062C 46.4251 7.9062 46.5944 7.96873 46.709 8.0938C 46.8236 8.21873 46.8809 8.37497 46.8809 8.5625C 46.8809 8.73957 46.8236 8.888 46.709 9.0078C 46.5944 9.1276 46.4251 9.1875 46.2012 9.1875C 45.9773 9.1875 45.8106 9.1276 45.7012 9.0078C 45.5918 8.888 45.5371 8.73957 45.5371 8.5625ZM 45.5371 2.7812C 45.5371 2.59373 45.5918 2.4375 45.7012 2.3125C 45.8106 2.1875 45.9773 2.125 46.2012 2.125C 46.4251 2.125 46.5944 2.1875 46.709 2.3125C 46.8236 2.4375 46.8809 2.59373 46.8809 2.7812C 46.8809 2.95833 46.8236 3.1068 46.709 3.2266C 46.5944 3.34633 46.4251 3.4062 46.2012 3.4062C 45.9773 3.4062 45.8106 3.34633 45.7012 3.2266C 45.5918 3.1068 45.5371 2.95833 45.5371 2.7812ZM 51.9297 9.125L 51.9297 3.625L 50.9297 3.625L 50.9297 2.7812L 51.9297 2.7812L 51.9297 2.1406C 51.9297 1.45313 52.1094 0.9245 52.4688 0.5547C 52.8281 0.1849 53.3411 0 54.0078 0C 54.2578 0 54.5078 0.0312663 54.7578 0.0937996L 54.6953 0.9844C 54.5078 0.942733 54.3151 0.9219 54.1172 0.9219C 53.7631 0.9219 53.4896 1.02607 53.2969 1.2344C 53.1042 1.44273 53.0078 1.7344 53.0078 2.1094L 53.0078 2.7812L 54.3672 2.7812L 54.3672 3.625L 53.0078 3.625L 53.0078 9.125L 51.9297 9.125ZM 56.7364 9.125L 55.6582 9.125L 55.6582 0.125L 56.7364 0.125L 56.7364 9.125ZM 58.1797 5.8906C 58.1797 5.27607 58.3021 4.7188 58.5469 4.2188C 58.7917 3.7188 59.1328 3.33597 59.5703 3.0703C 60.0078 2.8047 60.5026 2.6719 61.0547 2.6719C 61.9193 2.6719 62.6198 2.96877 63.1563 3.5625C 63.6928 4.15623 63.961 4.9531 63.961 5.9531L 63.961 6.0312C 63.961 6.6458 63.8412 7.1979 63.6016 7.6875C 63.362 8.1771 63.0235 8.5599 62.586 8.8359C 62.1485 9.11197 61.6432 9.25 61.0703 9.25C 60.2162 9.25 59.5209 8.95053 58.9844 8.3516C 58.4479 7.7526 58.1797 6.95833 58.1797 5.9688L 58.1797 5.8906ZM 59.2735 6.0312C 59.2735 6.72913 59.4376 7.29167 59.7657 7.7188C 60.0938 8.14587 60.5286 8.3594 61.0703 8.3594C 61.6224 8.3594 62.0599 8.14323 62.3828 7.7109C 62.7057 7.27863 62.8672 6.67187 62.8672 5.8906C 62.8672 5.20313 62.7031 4.64323 62.375 4.2109C 62.0469 3.77863 61.6068 3.5625 61.0547 3.5625C 60.5234 3.5625 60.0938 3.77343 59.7657 4.1953C 59.4376 4.61717 59.2735 5.22913 59.2735 6.0312ZM 69.2266 9.125C 69.1641 9 69.112 8.77603 69.0703 8.4531C 68.5703 8.98437 67.9714 9.25 67.2735 9.25C 66.6485 9.25 66.1355 9.07293 65.7344 8.7188C 65.3333 8.3646 65.1328 7.91147 65.1328 7.3594C 65.1328 6.70313 65.3828 6.1927 65.8828 5.8281C 66.3828 5.4635 67.0911 5.2812 68.0078 5.2812L 69.0547 5.2812L 69.0547 4.7812C 69.0547 4.40627 68.9427 4.1068 68.7188 3.8828C 68.4948 3.65887 68.1589 3.5469 67.711 3.5469C 67.3255 3.5469 67.0026 3.64323 66.7422 3.8359C 66.4818 4.02863 66.3516 4.26563 66.3516 4.5469L 65.2578 4.5469C 65.2578 4.22397 65.3698 3.91667 65.5938 3.625C 65.8177 3.33333 66.1224 3.10157 66.5078 2.9297C 66.8933 2.75783 67.3152 2.6719 67.7735 2.6719C 68.513 2.6719 69.0885 2.8542 69.5 3.2188C 69.9115 3.58333 70.1276 4.08333 70.1485 4.7188L 70.1485 7.6406C 70.1485 8.22393 70.2214 8.68747 70.3672 9.0312L 70.3672 9.125L 69.2266 9.125ZM 67.4297 8.2969C 67.7734 8.2969 68.0964 8.20833 68.3985 8.0312C 68.7006 7.85413 68.9193 7.625 69.0547 7.3438L 69.0547 6.0469L 68.211 6.0469C 66.8777 6.0469 66.211 6.43753 66.211 7.2188C 66.211 7.55213 66.3256 7.81513 66.5547 8.0078C 66.7839 8.20053 67.0756 8.2969 67.4297 8.2969ZM 73.3164 1.25L 73.3164 2.7812L 74.4883 2.7812L 74.4883 3.625L 73.3164 3.625L 73.3164 7.5469C 73.3164 7.8073 73.3685 8 73.4727 8.125C 73.5768 8.25 73.7539 8.3125 74.0039 8.3125C 74.1289 8.3125 74.3008 8.29167 74.5196 8.25L 74.5196 9.125C 74.2383 9.20833 73.9623 9.25 73.6914 9.25C 73.2123 9.25 72.8477 9.10157 72.5977 8.8047C 72.3477 8.50783 72.2227 8.08857 72.2227 7.5469L 72.2227 3.625L 71.0664 3.625L 71.0664 2.7812L 72.2227 2.7812L 72.2227 1.25L 73.3164 1.25Z"/>
<path id="path10_stroke" d="M 1.2207e-05 -0.499987L -0.499988 -0.499987L -0.499988 0.500013L 1.2207e-05 0.500013L 1.2207e-05 -0.499987ZM 108 0.500013L 108.5 0.500013L 108.5 -0.499987L 108 -0.499987L 108 0.500013ZM 1.2207e-05 0.500013L 108 0.500013L 108 -0.499987L 1.2207e-05 -0.499987L 1.2207e-05 0.500013Z"/>
<path id="path11_stroke" d="M 1.2207e-05 -0.499998L -0.499988 -0.499998L -0.499988 0.500002L 1.2207e-05 0.500002L 1.2207e-05 -0.499998ZM 108 0.500002L 108.5 0.500002L 108.5 -0.499998L 108 -0.499998L 108 0.500002ZM 1.2207e-05 0.500002L 108 0.500002L 108 -0.499998L 1.2207e-05 -0.499998L 1.2207e-05 0.500002Z"/>
<path id="path12_fill" d="M 3.1563 5.875L 1.75 5.875L 1.75 9L 2.56538e-08 9L 2.56538e-08 0.4688L 3.1719 0.4688C 4.1719 0.4688 4.94533 0.692734 5.4922 1.1406C 6.03907 1.58853 6.3125 2.22397 6.3125 3.0469C 6.3125 3.63023 6.1875 4.1146 5.9375 4.5C 5.6875 4.8854 5.3073 5.1979 4.7969 5.4375L 6.6406 8.9219L 6.6406 9L 4.75 9L 3.1563 5.875ZM 1.75 4.4531L 3.1719 4.4531C 3.60943 4.4531 3.95057 4.34113 4.1953 4.1172C 4.4401 3.8932 4.5625 3.5833 4.5625 3.1875C 4.5625 2.78123 4.44793 2.46353 4.2188 2.2344C 3.9896 2.0052 3.64063 1.8906 3.1719 1.8906L 1.75 1.8906L 1.75 4.4531ZM 7.2832 5.7656C 7.2832 5.1406 7.403 4.5807 7.6426 4.0859C 7.8822 3.59117 8.23117 3.21097 8.6895 2.9453C 9.14783 2.6797 9.67387 2.5469 10.2676 2.5469C 11.1322 2.5469 11.8327 2.8073 12.3692 3.3281C 12.9057 3.84897 13.2051 4.5573 13.2676 5.4531L 13.2832 5.8906C 13.2832 6.8698 13.0124 7.65367 12.4707 8.2422C 11.929 8.83073 11.1999 9.125 10.2832 9.125C 9.36653 9.125 8.63737 8.83073 8.0957 8.2422C 7.55403 7.65367 7.2832 6.8542 7.2832 5.8438L 7.2832 5.7656ZM 8.9707 5.8906C 8.9707 6.4948 9.0853 6.95573 9.3145 7.2734C 9.54363 7.59113 9.86653 7.75 10.2832 7.75C 10.6999 7.75 11.0228 7.59373 11.252 7.2812C 11.4811 6.96873 11.5957 6.46353 11.5957 5.7656C 11.5957 5.18227 11.4811 4.72653 11.252 4.3984C 11.0228 4.07027 10.6947 3.9062 10.2676 3.9062C 9.86133 3.9062 9.54363 4.06767 9.3145 4.3906C 9.0853 4.71353 8.9707 5.21353 8.9707 5.8906ZM 20.0371 5.8906C 20.0371 6.901 19.821 7.69267 19.3887 8.2656C 18.9564 8.83853 18.3497 9.125 17.5684 9.125C 16.8809 9.125 16.334 8.85937 15.9278 8.3281L 15.8496 9L 14.334 9L 14.334 0L 16.0215 0L 16.0215 3.2344C 16.4174 2.77607 16.933 2.5469 17.5684 2.5469C 18.3392 2.5469 18.9434 2.83073 19.3809 3.3984C 19.8184 3.96613 20.0371 4.76563 20.0371 5.7969L 20.0371 5.8906ZM 18.3496 5.7656C 18.3496 5.1198 18.248 4.65107 18.0449 4.3594C 17.8418 4.06773 17.5372 3.9219 17.1309 3.9219C 16.5996 3.9219 16.2298 4.14063 16.0215 4.5781L 16.0215 7.0781C 16.2298 7.52603 16.6048 7.75 17.1465 7.75C 17.6986 7.75 18.0579 7.47917 18.2246 6.9375C 18.3079 6.6875 18.3496 6.29687 18.3496 5.7656ZM 20.8242 5.7656C 20.8242 5.1406 20.944 4.5807 21.1836 4.0859C 21.4232 3.59117 21.7722 3.21097 22.2305 2.9453C 22.6888 2.6797 23.2149 2.5469 23.8086 2.5469C 24.6732 2.5469 25.3737 2.8073 25.9102 3.3281C 26.4467 3.84897 26.7461 4.5573 26.8086 5.4531L 26.8242 5.8906C 26.8242 6.8698 26.5534 7.65367 26.0117 8.2422C 25.47 8.83073 24.7409 9.125 23.8242 9.125C 22.9075 9.125 22.1784 8.83073 21.6367 8.2422C 21.095 7.65367 20.8242 6.8542 20.8242 5.8438L 20.8242 5.7656ZM 22.5117 5.8906C 22.5117 6.4948 22.6263 6.95573 22.8555 7.2734C 23.0846 7.59113 23.4075 7.75 23.8242 7.75C 24.2409 7.75 24.5638 7.59373 24.793 7.2812C 25.0221 6.96873 25.1367 6.46353 25.1367 5.7656C 25.1367 5.18227 25.0221 4.72653 24.793 4.3984C 24.5638 4.07027 24.2357 3.9062 23.8086 3.9062C 23.4023 3.9062 23.0846 4.06767 22.8555 4.3906C 22.6263 4.71353 22.5117 5.21353 22.5117 5.8906ZM 29.8906 1.0938L 29.8906 2.6562L 30.9844 2.6562L 30.9844 3.9062L 29.8906 3.9062L 29.8906 7.0625C 29.8906 7.3021 29.9375 7.47137 30.0313 7.5703C 30.125 7.6693 30.2969 7.7188 30.5469 7.7188C 30.7344 7.7188 30.9011 7.70837 31.0469 7.6875L 31.0469 8.9688C 30.7136 9.07293 30.3698 9.125 30.0156 9.125C 28.8281 9.125 28.224 8.52083 28.2032 7.3125L 28.2032 3.9062L 27.2813 3.9062L 27.2813 2.6562L 28.2032 2.6562L 28.2032 1.0938L 29.8906 1.0938ZM 33.711 9L 32.0078 9L 32.0078 2.6562L 33.711 2.6562L 33.711 9ZM 31.9141 1.0156C 31.9141 0.7656 32 0.557267 32.1719 0.3906C 32.3438 0.223934 32.5755 0.1406 32.8672 0.1406C 33.1485 0.1406 33.375 0.223934 33.5469 0.3906C 33.7188 0.557267 33.8047 0.7656 33.8047 1.0156C 33.8047 1.276 33.7188 1.48693 33.5469 1.6484C 33.375 1.80987 33.1459 1.8906 32.8594 1.8906C 32.5729 1.8906 32.3438 1.80987 32.1719 1.6484C 32 1.48693 31.9141 1.276 31.9141 1.0156ZM 38.5332 7.25C 38.5332 7.04167 38.4316 6.8776 38.2285 6.7578C 38.0254 6.638 37.6999 6.53123 37.252 6.4375C 35.7416 6.12503 34.9864 5.4844 34.9864 4.5156C 34.9864 3.95313 35.2182 3.4844 35.6817 3.1094C 36.1452 2.7344 36.7572 2.5469 37.5176 2.5469C 38.3197 2.5469 38.9629 2.7344 39.4473 3.1094C 39.9317 3.4844 40.1739 3.9792 40.1739 4.5938L 38.4707 4.5938C 38.4707 4.3438 38.3926 4.14067 38.2364 3.9844C 38.0801 3.82813 37.8353 3.75 37.502 3.75C 37.2207 3.75 37.002 3.8151 36.8457 3.9453C 36.6895 4.0755 36.6114 4.23957 36.6114 4.4375C 36.6114 4.62503 36.6999 4.77607 36.877 4.8906C 37.0541 5.0052 37.3535 5.10417 37.7754 5.1875C 38.1973 5.27083 38.554 5.3646 38.8457 5.4688C 39.7416 5.80213 40.1895 6.36983 40.1895 7.1719C 40.1895 7.75523 39.9421 8.22657 39.4473 8.5859C 38.9525 8.9453 38.3093 9.125 37.5176 9.125C 36.9863 9.125 36.515 9.02863 36.1035 8.8359C 35.6921 8.64323 35.3692 8.38283 35.1348 8.0547C 34.9004 7.72657 34.7832 7.3698 34.7832 6.9844L 36.3926 6.9844C 36.403 7.28647 36.5124 7.51823 36.7207 7.6797C 36.929 7.84117 37.2051 7.9219 37.5489 7.9219C 37.8822 7.9219 38.1296 7.8594 38.291 7.7344C 38.4525 7.6094 38.5332 7.44793 38.5332 7.25ZM 46.2032 7.2344L 43.125 7.2344L 42.5313 9L 40.6719 9L 43.8438 0.4688L 45.4688 0.4688L 48.6719 9L 46.7969 9L 46.2032 7.2344ZM 43.5938 5.8125L 45.7344 5.8125L 44.6563 2.625L 43.5938 5.8125ZM 51.9805 7.75C 52.293 7.75 52.5482 7.66407 52.7461 7.4922C 52.944 7.32033 53.0482 7.09377 53.0586 6.8125L 54.6367 6.8125C 54.6367 7.23957 54.5221 7.6328 54.293 7.9922C 54.0638 8.35153 53.7487 8.63017 53.3477 8.8281C 52.9466 9.02603 52.5013 9.125 52.0117 9.125C 51.1055 9.125 50.392 8.83593 49.8711 8.2578C 49.3503 7.67967 49.0899 6.8802 49.0899 5.8594L 49.0899 5.75C 49.0899 4.7708 49.3503 3.99217 49.8711 3.4141C 50.392 2.83597 51.1055 2.5469 52.0117 2.5469C 52.8034 2.5469 53.4388 2.77087 53.918 3.2188C 54.3971 3.66667 54.6367 4.2656 54.6367 5.0156L 53.0586 5.0156C 53.0482 4.69267 52.944 4.42707 52.7461 4.2188C 52.5482 4.0104 52.293 3.9062 51.9805 3.9062C 51.5846 3.9062 51.2852 4.05207 51.0821 4.3438C 50.879 4.6354 50.7774 5.09893 50.7774 5.7344L 50.7774 5.9219C 50.7774 6.5677 50.8763 7.03383 51.0742 7.3203C 51.2721 7.60677 51.5742 7.75 51.9805 7.75ZM 57.6289 1.0938L 57.6289 2.6562L 58.7227 2.6562L 58.7227 3.9062L 57.6289 3.9062L 57.6289 7.0625C 57.6289 7.3021 57.6758 7.47137 57.7696 7.5703C 57.8633 7.6693 58.0352 7.7188 58.2852 7.7188C 58.4727 7.7188 58.6393 7.70837 58.7852 7.6875L 58.7852 8.9688C 58.4519 9.07293 58.1081 9.125 57.7539 9.125C 56.5664 9.125 55.9623 8.52083 55.9414 7.3125L 55.9414 3.9062L 55.0196 3.9062L 55.0196 2.6562L 55.9414 2.6562L 55.9414 1.0938L 57.6289 1.0938ZM 63.4649 8.3594C 63.0482 8.8698 62.4701 9.125 61.7305 9.125C 61.043 9.125 60.5221 8.92707 60.168 8.5312C 59.8138 8.1354 59.6315 7.5625 59.6211 6.8125L 59.6211 2.6562L 61.3086 2.6562L 61.3086 6.75C 61.3086 7.41667 61.6107 7.75 62.2149 7.75C 62.7878 7.75 63.1836 7.54687 63.4024 7.1406L 63.4024 2.6562L 65.1055 2.6562L 65.1055 9L 63.5117 9L 63.4649 8.3594ZM 70.0547 9C 69.9714 8.84373 69.9141 8.65623 69.8828 8.4375C 69.4766 8.89583 68.9454 9.125 68.2891 9.125C 67.6641 9.125 67.1485 8.9427 66.7422 8.5781C 66.3359 8.2135 66.1328 7.7604 66.1328 7.2188C 66.1328 6.54167 66.3802 6.02343 66.875 5.6641C 67.3698 5.3047 68.0912 5.125 69.0391 5.125L 69.8047 5.125L 69.8047 4.7656C 69.8047 4.47393 69.7318 4.23957 69.586 4.0625C 69.4401 3.88543 69.2005 3.7969 68.8672 3.7969C 68.5859 3.7969 68.3646 3.8646 68.2032 4C 68.0417 4.1354 67.961 4.3229 67.961 4.5625L 66.2735 4.5625C 66.2735 4.1979 66.3855 3.85937 66.6094 3.5469C 66.8333 3.23437 67.1536 2.98957 67.5703 2.8125C 67.987 2.63543 68.4505 2.5469 68.961 2.5469C 69.7422 2.5469 70.362 2.7422 70.8203 3.1328C 71.2786 3.52347 71.5078 4.07293 71.5078 4.7812L 71.5078 7.5312C 71.5183 8.1354 71.6016 8.59373 71.7578 8.9062L 71.7578 9L 70.0547 9ZM 68.6485 7.8281C 68.8985 7.8281 69.1303 7.7708 69.3438 7.6562C 69.5573 7.54167 69.711 7.39063 69.8047 7.2031L 69.8047 6.1094L 69.1797 6.1094C 68.336 6.1094 67.8828 6.40627 67.8203 7L 67.8203 7.0938C 67.8203 7.30207 67.8932 7.47653 68.0391 7.6172C 68.1849 7.7578 68.388 7.8281 68.6485 7.8281ZM 74.8321 1.0938L 74.8321 2.6562L 75.9258 2.6562L 75.9258 3.9062L 74.8321 3.9062L 74.8321 7.0625C 74.8321 7.3021 74.879 7.47137 74.9727 7.5703C 75.0664 7.6693 75.2383 7.7188 75.4883 7.7188C 75.6758 7.7188 75.8425 7.70837 75.9883 7.6875L 75.9883 8.9688C 75.655 9.07293 75.3112 9.125 74.9571 9.125C 73.7696 9.125 73.1654 8.52083 73.1446 7.3125L 73.1446 3.9062L 72.2227 3.9062L 72.2227 2.6562L 73.1446 2.6562L 73.1446 1.0938L 74.8321 1.0938ZM 76.6055 5.7656C 76.6055 5.1406 76.7253 4.5807 76.9649 4.0859C 77.2044 3.59117 77.5534 3.21097 78.0117 2.9453C 78.47 2.6797 78.9961 2.5469 79.5899 2.5469C 80.4544 2.5469 81.1549 2.8073 81.6914 3.3281C 82.2279 3.84897 82.5274 4.5573 82.5899 5.4531L 82.6055 5.8906C 82.6055 6.8698 82.3347 7.65367 81.793 8.2422C 81.2513 8.83073 80.5222 9.125 79.6055 9.125C 78.6888 9.125 77.9597 8.83073 77.418 8.2422C 76.8763 7.65367 76.6055 6.8542 76.6055 5.8438L 76.6055 5.7656ZM 78.293 5.8906C 78.293 6.4948 78.4076 6.95573 78.6367 7.2734C 78.8659 7.59113 79.1888 7.75 79.6055 7.75C 80.0222 7.75 80.3451 7.59373 80.5742 7.2812C 80.8034 6.96873 80.918 6.46353 80.918 5.7656C 80.918 5.18227 80.8034 4.72653 80.5742 4.3984C 80.3451 4.07027 80.017 3.9062 79.5899 3.9062C 79.1836 3.9062 78.8659 4.06767 78.6367 4.3906C 78.4076 4.71353 78.293 5.21353 78.293 5.8906ZM 87.2188 4.25C 86.9896 4.21873 86.7865 4.2031 86.6094 4.2031C 85.9635 4.2031 85.5417 4.41667 85.3438 4.8438L 85.3438 9L 83.6563 9L 83.6563 2.6562L 85.25 2.6562L 85.2969 3.4219C 85.6406 2.83857 86.1094 2.5469 86.7032 2.5469C 86.8907 2.5469 87.0677 2.57293 87.2344 2.625L 87.2188 4.25Z"/>
<path id="path13_fill" d="M 168 0L 1.2207e-05 0L 1.2207e-05 58.6523L 168 58.6523L 168 0Z"/>
<path id="path14_fill" fill-rule="evenodd" d="M 0 0L 1 0L 169 0L 170 0L 170 1L 170 59.6523L 170 60.6523L 169 60.6523L 1 60.6523L 0 60.6523L 0 59.6523L 0 1L 0 0ZM 2 2L 2 58.6523L 168 58.6523L 168 2L 2 2Z"/>
<path id="path15_fill" d="M 3.4688 5.0469L 5.8594 5.0469L 5.8594 6.0781L 3.4688 6.0781L 3.4688 8.7656L 2.3907 8.7656L 2.3907 6.0781L -4.14848e-09 6.0781L -4.14848e-09 5.0469L 2.3907 5.0469L 2.3907 2.5625L 3.4688 2.5625L 3.4688 5.0469ZM 15.7578 8.125L 16.9766 3.2812L 18.0547 3.2812L 16.211 9.625L 15.336 9.625L 13.7891 4.8125L 12.2891 9.625L 11.4141 9.625L 9.5703 3.2812L 10.6485 3.2812L 11.8985 8.0312L 13.3828 3.2812L 14.2422 3.2812L 15.7578 8.125ZM 22.2285 4.25C 22.0618 4.2292 21.8848 4.2188 21.6973 4.2188C 20.9786 4.2188 20.4942 4.52087 20.2442 5.125L 20.2442 9.625L 19.166 9.625L 19.166 3.2812L 20.2129 3.2812L 20.2285 4.0156C 20.5827 3.45313 21.0879 3.1719 21.7442 3.1719C 21.9525 3.1719 22.114 3.19793 22.2285 3.25L 22.2285 4.25ZM 24.3985 9.625L 23.3203 9.625L 23.3203 3.2812L 24.3985 3.2812L 24.3985 9.625ZM 23.2266 1.6094C 23.2266 1.43233 23.2813 1.28127 23.3907 1.1562C 23.5 1.03127 23.6589 0.9688 23.8672 0.9688C 24.0755 0.9688 24.2344 1.03127 24.3438 1.1562C 24.4531 1.28127 24.5078 1.42973 24.5078 1.6016C 24.5078 1.77347 24.4531 1.9193 24.3438 2.0391C 24.2344 2.1589 24.0755 2.2188 23.8672 2.2188C 23.6589 2.2188 23.5 2.1589 23.3907 2.0391C 23.2813 1.9193 23.2266 1.77607 23.2266 1.6094ZM 27.6074 1.75L 27.6074 3.2812L 28.7793 3.2812L 28.7793 4.125L 27.6074 4.125L 27.6074 8.0469C 27.6074 8.3073 27.6595 8.5 27.7637 8.625C 27.8678 8.75 28.0449 8.8125 28.2949 8.8125C 28.4199 8.8125 28.5918 8.79167 28.8106 8.75L 28.8106 9.625C 28.5293 9.70833 28.2533 9.75 27.9824 9.75C 27.5033 9.75 27.1387 9.60157 26.8887 9.3047C 26.6387 9.00783 26.5137 8.58857 26.5137 8.0469L 26.5137 4.125L 25.3574 4.125L 25.3574 3.2812L 26.5137 3.2812L 26.5137 1.75L 27.6074 1.75ZM 32.6836 9.75C 31.819 9.75 31.1185 9.46613 30.5821 8.8984C 30.0456 8.33073 29.7774 7.57293 29.7774 6.625L 29.7774 6.4375C 29.7774 5.8021 29.8972 5.237 30.1367 4.7422C 30.3763 4.2474 30.7123 3.86197 31.1446 3.5859C 31.5769 3.3099 32.043 3.1719 32.543 3.1719C 33.3659 3.1719 34.0066 3.44273 34.4649 3.9844C 34.9232 4.52607 35.1524 5.3021 35.1524 6.3125L 35.1524 6.7656L 30.8555 6.7656C 30.8763 7.3906 31.0612 7.8958 31.4102 8.2812C 31.7591 8.66667 32.2044 8.8594 32.7461 8.8594C 33.1211 8.8594 33.4414 8.78127 33.7071 8.625C 33.9727 8.46873 34.2097 8.2604 34.418 8L 35.0742 8.5156C 34.543 9.33853 33.7461 9.75 32.6836 9.75ZM 32.543 4.0625C 32.1055 4.0625 31.7383 4.22137 31.4414 4.5391C 31.1445 4.85677 30.9649 5.30207 30.9024 5.875L 34.0742 5.875L 34.0742 5.7969C 34.043 5.24483 33.8946 4.81773 33.6289 4.5156C 33.3633 4.21353 33.0013 4.0625 32.543 4.0625ZM 36.3692 6.1562C 36.3692 5.28127 36.4864 4.43753 36.7207 3.625C 36.9551 2.81247 37.3067 2.07287 37.7754 1.4062C 38.2441 0.739534 38.7337 0.2708 39.2442 0L 39.4629 0.7188C 38.89 1.15627 38.4212 1.82293 38.0567 2.7188C 37.6921 3.6146 37.4942 4.6198 37.4629 5.7344L 37.4473 6.2344C 37.4473 7.7448 37.7233 9.05207 38.2754 10.1562C 38.6087 10.8229 39.0046 11.3437 39.4629 11.7188L 39.2442 12.375C 38.7233 12.0937 38.2233 11.6094 37.7442 10.9219C 36.8275 9.59897 36.3692 8.0104 36.3692 6.1562ZM 40.2207 6.3906C 40.2207 5.77607 40.3431 5.2188 40.5879 4.7188C 40.8327 4.2188 41.1739 3.83597 41.6114 3.5703C 42.0489 3.3047 42.5436 3.1719 43.0957 3.1719C 43.9603 3.1719 44.6608 3.46877 45.1973 4.0625C 45.7338 4.65623 46.002 5.4531 46.002 6.4531L 46.002 6.5312C 46.002 7.1458 45.8822 7.6979 45.6426 8.1875C 45.403 8.6771 45.0645 9.0599 44.627 9.3359C 44.1895 9.61197 43.6843 9.75 43.1114 9.75C 42.2572 9.75 41.5619 9.45053 41.0254 8.8516C 40.4889 8.2526 40.2207 7.45833 40.2207 6.4688L 40.2207 6.3906ZM 41.3145 6.5312C 41.3145 7.22913 41.4786 7.79167 41.8067 8.2188C 42.1348 8.64587 42.5697 8.8594 43.1114 8.8594C 43.6635 8.8594 44.101 8.64323 44.4239 8.2109C 44.7468 7.77863 44.9082 7.17187 44.9082 6.3906C 44.9082 5.70313 44.7441 5.14323 44.416 4.7109C 44.0879 4.27863 43.6478 4.0625 43.0957 4.0625C 42.5645 4.0625 42.1348 4.27343 41.8067 4.6953C 41.4786 5.11717 41.3145 5.72913 41.3145 6.5312ZM 51.2676 9C 50.8509 9.5 50.2311 9.75 49.4082 9.75C 48.7311 9.75 48.2155 9.55207 47.8614 9.1562C 47.5072 8.7604 47.3301 8.17707 47.3301 7.4062L 47.3301 3.2812L 48.4082 3.2812L 48.4082 7.375C 48.4082 8.34373 48.7988 8.8281 49.5801 8.8281C 50.4134 8.8281 50.9655 8.5156 51.2364 7.8906L 51.2364 3.2812L 52.3301 3.2812L 52.3301 9.625L 51.2989 9.625L 51.2676 9ZM 55.4453 1.75L 55.4453 3.2812L 56.6172 3.2812L 56.6172 4.125L 55.4453 4.125L 55.4453 8.0469C 55.4453 8.3073 55.4974 8.5 55.6016 8.625C 55.7057 8.75 55.8828 8.8125 56.1328 8.8125C 56.2578 8.8125 56.4297 8.79167 56.6485 8.75L 56.6485 9.625C 56.3672 9.70833 56.0912 9.75 55.8203 9.75C 55.3412 9.75 54.9766 9.60157 54.7266 9.3047C 54.4766 9.00783 54.3516 8.58857 54.3516 8.0469L 54.3516 4.125L 53.1953 4.125L 53.1953 3.2812L 54.3516 3.2812L 54.3516 1.75L 55.4453 1.75ZM 60.8828 9.0625C 60.8828 8.87497 60.9375 8.71873 61.0469 8.5938C 61.1563 8.46873 61.323 8.4062 61.5469 8.4062C 61.7708 8.4062 61.9401 8.46873 62.0547 8.5938C 62.1693 8.71873 62.2266 8.87497 62.2266 9.0625C 62.2266 9.23957 62.1693 9.388 62.0547 9.5078C 61.9401 9.6276 61.7708 9.6875 61.5469 9.6875C 61.323 9.6875 61.1563 9.6276 61.0469 9.5078C 60.9375 9.388 60.8828 9.23957 60.8828 9.0625ZM 60.8828 3.2812C 60.8828 3.09373 60.9375 2.9375 61.0469 2.8125C 61.1563 2.6875 61.323 2.625 61.5469 2.625C 61.7708 2.625 61.9401 2.6875 62.0547 2.8125C 62.1693 2.9375 62.2266 3.09373 62.2266 3.2812C 62.2266 3.45833 62.1693 3.6068 62.0547 3.7266C 61.9401 3.84633 61.7708 3.9062 61.5469 3.9062C 61.323 3.9062 61.1563 3.84633 61.0469 3.7266C 60.9375 3.6068 60.8828 3.45833 60.8828 3.2812ZM 66.4473 6.3906C 66.4473 5.77607 66.5697 5.2188 66.8145 4.7188C 67.0593 4.2188 67.4004 3.83597 67.8379 3.5703C 68.2754 3.3047 68.7702 3.1719 69.3223 3.1719C 70.1869 3.1719 70.8874 3.46877 71.4239 4.0625C 71.9603 4.65623 72.2285 5.4531 72.2285 6.4531L 72.2285 6.5312C 72.2285 7.1458 72.1087 7.6979 71.8692 8.1875C 71.6296 8.6771 71.291 9.0599 70.8535 9.3359C 70.416 9.61197 69.9108 9.75 69.3379 9.75C 68.4838 9.75 67.7885 9.45053 67.252 8.8516C 66.7155 8.2526 66.4473 7.45833 66.4473 6.4688L 66.4473 6.3906ZM 67.541 6.5312C 67.541 7.22913 67.7051 7.79167 68.0332 8.2188C 68.3613 8.64587 68.7962 8.8594 69.3379 8.8594C 69.89 8.8594 70.3275 8.64323 70.6504 8.2109C 70.9733 7.77863 71.1348 7.17187 71.1348 6.3906C 71.1348 5.70313 70.9707 5.14323 70.6426 4.7109C 70.3145 4.27863 69.8744 4.0625 69.3223 4.0625C 68.791 4.0625 68.3613 4.27343 68.0332 4.6953C 67.7051 5.11717 67.541 5.72913 67.541 6.5312ZM 77.2754 7.9375C 77.2754 7.64583 77.1634 7.41927 76.9395 7.2578C 76.7155 7.09633 76.3301 6.95833 75.7832 6.8438C 75.2363 6.7292 74.8014 6.58857 74.4785 6.4219C 74.1556 6.25523 73.9187 6.0599 73.7676 5.8359C 73.6165 5.61197 73.541 5.34373 73.541 5.0312C 73.541 4.5104 73.7598 4.0703 74.1973 3.7109C 74.6348 3.35157 75.1973 3.1719 75.8848 3.1719C 76.6035 3.1719 77.1843 3.3568 77.627 3.7266C 78.0697 4.09633 78.291 4.56767 78.291 5.1406L 77.2129 5.1406C 77.2129 4.84893 77.0853 4.59633 76.8301 4.3828C 76.5749 4.16927 76.2598 4.0625 75.8848 4.0625C 75.4889 4.0625 75.179 4.14843 74.9551 4.3203C 74.7312 4.49217 74.6192 4.71353 74.6192 4.9844C 74.6192 5.2448 74.7234 5.4427 74.9317 5.5781C 75.14 5.7135 75.515 5.8411 76.0567 5.9609C 76.5984 6.0807 77.0359 6.22393 77.3692 6.3906C 77.7025 6.55727 77.9499 6.7604 78.1114 7C 78.2728 7.2396 78.3535 7.52607 78.3535 7.8594C 78.3535 8.43233 78.127 8.89067 77.6739 9.2344C 77.2208 9.57813 76.6348 9.75 75.916 9.75C 75.4056 9.75 74.9551 9.65887 74.5645 9.4766C 74.1738 9.29427 73.8691 9.04167 73.6504 8.7188C 73.4317 8.39587 73.3223 8.0469 73.3223 7.6719L 74.4004 7.6719C 74.4213 8.0365 74.5671 8.32557 74.8379 8.5391C 75.1088 8.75263 75.4681 8.8594 75.916 8.8594C 76.3223 8.8594 76.6504 8.77607 76.9004 8.6094C 77.1504 8.44273 77.2754 8.21877 77.2754 7.9375ZM 81.2442 1.75L 81.2442 3.2812L 82.416 3.2812L 82.416 4.125L 81.2442 4.125L 81.2442 8.0469C 81.2442 8.3073 81.2963 8.5 81.4004 8.625C 81.5046 8.75 81.6817 8.8125 81.9317 8.8125C 82.0567 8.8125 82.2286 8.79167 82.4473 8.75L 82.4473 9.625C 82.166 9.70833 81.89 9.75 81.6192 9.75C 81.14 9.75 80.7754 9.60157 80.5254 9.3047C 80.2754 9.00783 80.1504 8.58857 80.1504 8.0469L 80.1504 4.125L 78.9942 4.125L 78.9942 3.2812L 80.1504 3.2812L 80.1504 1.75L 81.2442 1.75ZM 86.7578 4.25C 86.5911 4.2292 86.4141 4.2188 86.2266 4.2188C 85.5079 4.2188 85.0235 4.52087 84.7735 5.125L 84.7735 9.625L 83.6953 9.625L 83.6953 3.2812L 84.7422 3.2812L 84.7578 4.0156C 85.112 3.45313 85.6172 3.1719 86.2735 3.1719C 86.4818 3.1719 86.6433 3.19793 86.7578 3.25L 86.7578 4.25ZM 90.3809 9.75C 89.5163 9.75 88.8158 9.46613 88.2793 8.8984C 87.7428 8.33073 87.4746 7.57293 87.4746 6.625L 87.4746 6.4375C 87.4746 5.8021 87.5944 5.237 87.834 4.7422C 88.0736 4.2474 88.4095 3.86197 88.8418 3.5859C 89.2741 3.3099 89.7403 3.1719 90.2403 3.1719C 91.0632 3.1719 91.7038 3.44273 92.1621 3.9844C 92.6204 4.52607 92.8496 5.3021 92.8496 6.3125L 92.8496 6.7656L 88.5528 6.7656C 88.5736 7.3906 88.7585 7.8958 89.1074 8.2812C 89.4564 8.66667 89.9017 8.8594 90.4434 8.8594C 90.8184 8.8594 91.1387 8.78127 91.4043 8.625C 91.67 8.46873 91.907 8.2604 92.1153 8L 92.7715 8.5156C 92.2402 9.33853 91.4434 9.75 90.3809 9.75ZM 90.2403 4.0625C 89.8028 4.0625 89.4356 4.22137 89.1387 4.5391C 88.8418 4.85677 88.6621 5.30207 88.5996 5.875L 91.7715 5.875L 91.7715 5.7969C 91.7402 5.24483 91.5918 4.81773 91.3262 4.5156C 91.0606 4.21353 90.6986 4.0625 90.2403 4.0625ZM 98.0196 9.625C 97.9571 9.5 97.905 9.27603 97.8633 8.9531C 97.3633 9.48437 96.7643 9.75 96.0664 9.75C 95.4414 9.75 94.9284 9.57293 94.5274 9.2188C 94.1263 8.8646 93.9258 8.41147 93.9258 7.8594C 93.9258 7.20313 94.1758 6.6927 94.6758 6.3281C 95.1758 5.9635 95.8841 5.7812 96.8008 5.7812L 97.8477 5.7812L 97.8477 5.2812C 97.8477 4.90627 97.7357 4.6068 97.5117 4.3828C 97.2878 4.15887 96.9518 4.0469 96.5039 4.0469C 96.1185 4.0469 95.7956 4.14323 95.5352 4.3359C 95.2748 4.52863 95.1446 4.76563 95.1446 5.0469L 94.0508 5.0469C 94.0508 4.72397 94.1628 4.41667 94.3867 4.125C 94.6107 3.83333 94.9154 3.60157 95.3008 3.4297C 95.6862 3.25783 96.1081 3.1719 96.5664 3.1719C 97.306 3.1719 97.8815 3.3542 98.293 3.7188C 98.7045 4.08333 98.9206 4.58333 98.9414 5.2188L 98.9414 8.1406C 98.9414 8.72393 99.0143 9.18747 99.1602 9.5312L 99.1602 9.625L 98.0196 9.625ZM 96.2227 8.7969C 96.5664 8.7969 96.8893 8.70833 97.1914 8.5312C 97.4935 8.35413 97.7123 8.125 97.8477 7.8438L 97.8477 6.5469L 97.0039 6.5469C 95.6706 6.5469 95.0039 6.93753 95.0039 7.7188C 95.0039 8.05213 95.1185 8.31513 95.3477 8.5078C 95.5768 8.70053 95.8685 8.7969 96.2227 8.7969ZM 101.656 3.2812L 101.688 3.9844C 102.146 3.44273 102.771 3.1719 103.562 3.1719C 104.448 3.1719 105.052 3.51043 105.375 4.1875C 105.583 3.88543 105.857 3.64063 106.195 3.4531C 106.534 3.26563 106.932 3.1719 107.391 3.1719C 108.787 3.1719 109.495 3.90627 109.516 5.375L 109.516 9.625L 108.438 9.625L 108.438 5.4375C 108.438 4.98957 108.333 4.65363 108.125 4.4297C 107.917 4.20577 107.568 4.0938 107.078 4.0938C 106.672 4.0938 106.336 4.21357 106.07 4.4531C 105.805 4.6927 105.651 5.01563 105.609 5.4219L 105.609 9.625L 104.531 9.625L 104.531 5.4688C 104.531 4.55213 104.078 4.0938 103.172 4.0938C 102.464 4.0938 101.979 4.39587 101.719 5L 101.719 9.625L 100.625 9.625L 100.625 3.2812L 101.656 3.2812ZM 113.658 6.2188C 113.658 7.09373 113.544 7.92967 113.314 8.7266C 113.085 9.52347 112.734 10.2604 112.26 10.9375C 111.786 11.6146 111.294 12.0937 110.783 12.375L 110.549 11.7188C 111.153 11.2604 111.637 10.5442 112.002 9.5703C 112.367 8.59637 112.554 7.52087 112.564 6.3438L 112.564 6.1562C 112.564 5.33333 112.479 4.56773 112.307 3.8594C 112.135 3.15107 111.895 2.51823 111.588 1.9609C 111.281 1.40363 110.934 0.968734 110.549 0.6562L 110.783 0C 111.294 0.281267 111.783 0.755233 112.252 1.4219C 112.721 2.08857 113.072 2.82553 113.307 3.6328C 113.541 4.44013 113.658 5.30213 113.658 6.2188ZM 118.316 9.0625C 118.316 8.87497 118.371 8.71873 118.48 8.5938C 118.59 8.46873 118.757 8.4062 118.98 8.4062C 119.204 8.4062 119.374 8.46873 119.488 8.5938C 119.603 8.71873 119.66 8.87497 119.66 9.0625C 119.66 9.23957 119.603 9.388 119.488 9.5078C 119.374 9.6276 119.204 9.6875 118.98 9.6875C 118.757 9.6875 118.59 9.6276 118.48 9.5078C 118.371 9.388 118.316 9.23957 118.316 9.0625ZM 118.316 3.2812C 118.316 3.09373 118.371 2.9375 118.48 2.8125C 118.59 2.6875 118.757 2.625 118.98 2.625C 119.204 2.625 119.374 2.6875 119.488 2.8125C 119.603 2.9375 119.66 3.09373 119.66 3.2812C 119.66 3.45833 119.603 3.6068 119.488 3.7266C 119.374 3.84633 119.204 3.9062 118.98 3.9062C 118.757 3.9062 118.59 3.84633 118.48 3.7266C 118.371 3.6068 118.316 3.45833 118.316 3.2812ZM 126.256 8.1562L 127.834 3.2812L 128.943 3.2812L 126.662 9.625L 125.834 9.625L 123.537 3.2812L 124.646 3.2812L 126.256 8.1562ZM 129.693 6.3906C 129.693 5.77607 129.816 5.2188 130.061 4.7188C 130.305 4.2188 130.647 3.83597 131.084 3.5703C 131.522 3.3047 132.016 3.1719 132.568 3.1719C 133.433 3.1719 134.134 3.46877 134.67 4.0625C 135.206 4.65623 135.475 5.4531 135.475 6.4531L 135.475 6.5312C 135.475 7.1458 135.355 7.6979 135.115 8.1875C 134.876 8.6771 134.537 9.0599 134.1 9.3359C 133.662 9.61197 133.157 9.75 132.584 9.75C 131.73 9.75 131.035 9.45053 130.498 8.8516C 129.962 8.2526 129.693 7.45833 129.693 6.4688L 129.693 6.3906ZM 130.787 6.5312C 130.787 7.22913 130.951 7.79167 131.279 8.2188C 131.607 8.64587 132.042 8.8594 132.584 8.8594C 133.136 8.8594 133.574 8.64323 133.896 8.2109C 134.219 7.77863 134.381 7.17187 134.381 6.3906C 134.381 5.70313 134.217 5.14323 133.889 4.7109C 133.561 4.27863 133.12 4.0625 132.568 4.0625C 132.037 4.0625 131.607 4.27343 131.279 4.6953C 130.951 5.11717 130.787 5.72913 130.787 6.5312ZM 138.006 9.625L 136.928 9.625L 136.928 3.2812L 138.006 3.2812L 138.006 9.625ZM 136.834 1.6094C 136.834 1.43233 136.889 1.28127 136.998 1.1562C 137.107 1.03127 137.266 0.9688 137.475 0.9688C 137.683 0.9688 137.842 1.03127 137.951 1.1562C 138.061 1.28127 138.115 1.42973 138.115 1.6016C 138.115 1.77347 138.061 1.9193 137.951 2.0391C 137.842 2.1589 137.683 2.2188 137.475 2.2188C 137.266 2.2188 137.107 2.1589 136.998 2.0391C 136.889 1.9193 136.834 1.77607 136.834 1.6094ZM 139.48 6.4062C 139.48 5.42707 139.71 4.64323 140.168 4.0547C 140.626 3.46617 141.23 3.1719 141.98 3.1719C 142.72 3.1719 143.309 3.4219 143.746 3.9219L 143.746 0.625L 144.824 0.625L 144.824 9.625L 143.824 9.625L 143.777 8.9375C 143.34 9.47917 142.736 9.75 141.965 9.75C 141.236 9.75 140.639 9.44793 140.176 8.8438C 139.712 8.2396 139.48 7.45313 139.48 6.4844L 139.48 6.4062ZM 140.559 6.5312C 140.559 7.25 140.707 7.81253 141.004 8.2188C 141.301 8.625 141.71 8.8281 142.23 8.8281C 142.918 8.8281 143.423 8.5156 143.746 7.8906L 143.746 4.9844C 143.423 4.39067 142.923 4.0938 142.246 4.0938C 141.715 4.0938 141.301 4.2969 141.004 4.7031C 140.707 5.10937 140.559 5.71873 140.559 6.5312Z"/>
<path id="path16_stroke" d="M 1.2207e-05 -0.499998L -0.499988 -0.499998L -0.499988 0.500002L 1.2207e-05 0.500002L 1.2207e-05 -0.499998ZM 168 0.500002L 168.5 0.500002L 168.5 -0.499998L 168 -0.499998L 168 0.500002ZM 1.2207e-05 0.500002L 168 0.500002L 168 -0.499998L 1.2207e-05 -0.499998L 1.2207e-05 0.500002Z"/>
<path id="path17_fill" d="M 2.56538e-08 9L 2.56538e-08 0.4688L 2.625 0.4688C 3.375 0.4688 4.04427 0.638066 4.6328 0.9766C 5.22133 1.31513 5.68227 1.7943 6.0156 2.4141C 6.34893 3.0339 6.5156 3.74483 6.5156 4.5469L 6.5156 4.9375C 6.5156 5.72917 6.35417 6.4323 6.0313 7.0469C 5.70837 7.6615 5.25003 8.14067 4.6563 8.4844C 4.0625 8.82813 3.3906 9 2.6406 9L 2.56538e-08 9ZM 1.75 1.8906L 1.75 7.5938L 2.6094 7.5938C 3.29687 7.5938 3.8203 7.36723 4.1797 6.9141C 4.5391 6.46097 4.724 5.81773 4.7344 4.9844L 4.7344 4.5312C 4.7344 3.66667 4.5547 3.01043 4.1953 2.5625C 3.83597 2.11457 3.31253 1.8906 2.625 1.8906L 1.75 1.8906ZM 10.0489 6.6094L 11.2207 2.6562L 13.0332 2.6562L 10.4864 9.9844L 10.3457 10.3125C 9.9707 11.1458 9.3457 11.5625 8.4707 11.5625C 8.23117 11.5625 7.98117 11.526 7.7207 11.4531L 7.7207 10.1719L 7.9864 10.1719C 8.30927 10.1719 8.54883 10.1224 8.7051 10.0234C 8.86137 9.92447 8.98637 9.76563 9.0801 9.5469L 9.2676 9.0156L 7.0489 2.6562L 8.877 2.6562L 10.0489 6.6094ZM 17.3848 9C 17.3015 8.84373 17.2442 8.65623 17.2129 8.4375C 16.8066 8.89583 16.2754 9.125 15.6192 9.125C 14.9942 9.125 14.4786 8.9427 14.0723 8.5781C 13.666 8.2135 13.4629 7.7604 13.4629 7.2188C 13.4629 6.54167 13.7103 6.02343 14.2051 5.6641C 14.6999 5.3047 15.4213 5.125 16.3692 5.125L 17.1348 5.125L 17.1348 4.7656C 17.1348 4.47393 17.0619 4.23957 16.916 4.0625C 16.7702 3.88543 16.5306 3.7969 16.1973 3.7969C 15.916 3.7969 15.6947 3.8646 15.5332 4C 15.3717 4.1354 15.291 4.3229 15.291 4.5625L 13.6035 4.5625C 13.6035 4.1979 13.7155 3.85937 13.9395 3.5469C 14.1634 3.23437 14.4837 2.98957 14.9004 2.8125C 15.3171 2.63543 15.7806 2.5469 16.291 2.5469C 17.0723 2.5469 17.6921 2.7422 18.1504 3.1328C 18.6087 3.52347 18.8379 4.07293 18.8379 4.7812L 18.8379 7.5312C 18.8483 8.1354 18.9316 8.59373 19.0879 8.9062L 19.0879 9L 17.3848 9ZM 15.9785 7.8281C 16.2285 7.8281 16.4603 7.7708 16.6739 7.6562C 16.8874 7.54167 17.0411 7.39063 17.1348 7.2031L 17.1348 6.1094L 16.5098 6.1094C 15.6661 6.1094 15.2129 6.40627 15.1504 7L 15.1504 7.0938C 15.1504 7.30207 15.2233 7.47653 15.3692 7.6172C 15.515 7.7578 15.7181 7.8281 15.9785 7.8281ZM 21.7246 2.6562L 21.7871 3.375C 22.235 2.82293 22.8392 2.5469 23.5996 2.5469C 24.4225 2.5469 24.985 2.8698 25.2871 3.5156C 25.735 2.8698 26.3705 2.5469 27.1934 2.5469C 27.8809 2.5469 28.3913 2.7474 28.7246 3.1484C 29.0579 3.54947 29.2246 4.15103 29.2246 4.9531L 29.2246 9L 27.5371 9L 27.5371 4.9531C 27.5371 4.59897 27.4668 4.33857 27.3262 4.1719C 27.1856 4.00523 26.933 3.9219 26.5684 3.9219C 26.0684 3.9219 25.7194 4.16147 25.5215 4.6406L 25.5215 9L 23.834 9L 23.834 4.9688C 23.834 4.59373 23.7611 4.3255 23.6153 4.1641C 23.4694 4.00263 23.2246 3.9219 22.8809 3.9219C 22.4017 3.9219 22.0527 4.1198 21.834 4.5156L 21.834 9L 20.1465 9L 20.1465 2.6562L 21.7246 2.6562ZM 32.3164 9L 30.6133 9L 30.6133 2.6562L 32.3164 2.6562L 32.3164 9ZM 30.5196 1.0156C 30.5196 0.7656 30.6055 0.557267 30.7774 0.3906C 30.9493 0.223934 31.181 0.1406 31.4727 0.1406C 31.754 0.1406 31.9805 0.223934 32.1524 0.3906C 32.3243 0.557267 32.4102 0.7656 32.4102 1.0156C 32.4102 1.276 32.3243 1.48693 32.1524 1.6484C 31.9805 1.80987 31.7514 1.8906 31.4649 1.8906C 31.1784 1.8906 30.9493 1.80987 30.7774 1.6484C 30.6055 1.48693 30.5196 1.276 30.5196 1.0156ZM 36.1231 4.5469L 37.1856 2.6562L 38.9981 2.6562L 37.2012 5.7656L 39.0762 9L 37.2637 9L 36.1387 7L 35.0137 9L 33.1856 9L 35.0606 5.7656L 33.2637 2.6562L 35.0762 2.6562L 36.1231 4.5469ZM 42.7285 9.125C 41.8014 9.125 41.0462 8.83853 40.4629 8.2656C 39.8796 7.69267 39.5879 6.93227 39.5879 5.9844L 39.5879 5.8125C 39.5879 5.1771 39.7103 4.6094 39.9551 4.1094C 40.1999 3.6094 40.5489 3.22397 41.002 2.9531C 41.4551 2.6823 41.9681 2.5469 42.541 2.5469C 43.416 2.5469 44.1009 2.82033 44.5957 3.3672C 45.0905 3.91407 45.3379 4.6875 45.3379 5.6875L 45.3379 6.375L 41.3067 6.375C 41.3588 6.79167 41.5228 7.125 41.7989 7.375C 42.0749 7.625 42.4264 7.75 42.8535 7.75C 43.4994 7.75 44.0046 7.51563 44.3692 7.0469L 45.2129 7.9688C 44.9525 8.33333 44.6062 8.61717 44.1739 8.8203C 43.7416 9.02343 43.2598 9.125 42.7285 9.125ZM 42.541 3.9062C 42.2077 3.9062 41.9368 4.0208 41.7285 4.25C 41.5202 4.4792 41.3848 4.80213 41.3223 5.2188L 43.6817 5.2188L 43.6817 5.0938C 43.6712 4.71873 43.5697 4.42707 43.377 4.2188C 43.1843 4.0104 42.9056 3.9062 42.541 3.9062ZM 48.0899 9L 46.3867 9L 46.3867 0L 48.0899 0L 48.0899 9ZM 55.2559 9L 49.4121 9L 49.4121 7.8438L 52.1778 4.8906C 52.5528 4.48433 52.8314 4.12497 53.0137 3.8125C 53.196 3.50003 53.2871 3.20837 53.2871 2.9375C 53.2871 2.5521 53.1908 2.25263 52.9981 2.0391C 52.8054 1.82557 52.5319 1.7188 52.1778 1.7188C 51.7923 1.7188 51.4902 1.849 51.2715 2.1094C 51.0528 2.3698 50.9434 2.71873 50.9434 3.1562L 49.2403 3.1562C 49.2403 2.6354 49.3653 2.15887 49.6153 1.7266C 49.8653 1.29427 50.2168 0.9557 50.6699 0.7109C 51.123 0.466167 51.6361 0.3438 52.209 0.3438C 53.084 0.3438 53.7663 0.554733 54.2559 0.9766C 54.7455 1.39847 54.9903 1.9948 54.9903 2.7656C 54.9903 3.19267 54.8809 3.62497 54.6621 4.0625C 54.4434 4.50003 54.0684 5.01047 53.5371 5.5938L 51.5996 7.6406L 55.2559 7.6406L 55.2559 9ZM 61.2969 7.2344L 58.2188 7.2344L 57.625 9L 55.7656 9L 58.9375 0.4688L 60.5625 0.4688L 63.7656 9L 61.8906 9L 61.2969 7.2344ZM 58.6875 5.8125L 60.8282 5.8125L 59.75 2.625L 58.6875 5.8125ZM 67.0742 7.75C 67.3867 7.75 67.642 7.66407 67.8399 7.4922C 68.0378 7.32033 68.1419 7.09377 68.1524 6.8125L 69.7305 6.8125C 69.7305 7.23957 69.6159 7.6328 69.3867 7.9922C 69.1576 8.35153 68.8425 8.63017 68.4414 8.8281C 68.0404 9.02603 67.5951 9.125 67.1055 9.125C 66.1992 9.125 65.4857 8.83593 64.9649 8.2578C 64.444 7.67967 64.1836 6.8802 64.1836 5.8594L 64.1836 5.75C 64.1836 4.7708 64.444 3.99217 64.9649 3.4141C 65.4857 2.83597 66.1992 2.5469 67.1055 2.5469C 67.8972 2.5469 68.5326 2.77087 69.0117 3.2188C 69.4909 3.66667 69.7305 4.2656 69.7305 5.0156L 68.1524 5.0156C 68.1419 4.69267 68.0378 4.42707 67.8399 4.2188C 67.642 4.0104 67.3867 3.9062 67.0742 3.9062C 66.6784 3.9062 66.3789 4.05207 66.1758 4.3438C 65.9727 4.6354 65.8711 5.09893 65.8711 5.7344L 65.8711 5.9219C 65.8711 6.5677 65.9701 7.03383 66.168 7.3203C 66.3659 7.60677 66.668 7.75 67.0742 7.75ZM 72.7227 1.0938L 72.7227 2.6562L 73.8164 2.6562L 73.8164 3.9062L 72.7227 3.9062L 72.7227 7.0625C 72.7227 7.3021 72.7696 7.47137 72.8633 7.5703C 72.957 7.6693 73.1289 7.7188 73.3789 7.7188C 73.5664 7.7188 73.7331 7.70837 73.8789 7.6875L 73.8789 8.9688C 73.5456 9.07293 73.2018 9.125 72.8477 9.125C 71.6602 9.125 71.056 8.52083 71.0352 7.3125L 71.0352 3.9062L 70.1133 3.9062L 70.1133 2.6562L 71.0352 2.6562L 71.0352 1.0938L 72.7227 1.0938ZM 78.5586 8.3594C 78.1419 8.8698 77.5638 9.125 76.8242 9.125C 76.1367 9.125 75.6159 8.92707 75.2617 8.5312C 74.9076 8.1354 74.7253 7.5625 74.7149 6.8125L 74.7149 2.6562L 76.4024 2.6562L 76.4024 6.75C 76.4024 7.41667 76.7045 7.75 77.3086 7.75C 77.8815 7.75 78.2774 7.54687 78.4961 7.1406L 78.4961 2.6562L 80.1992 2.6562L 80.1992 9L 78.6055 9L 78.5586 8.3594ZM 85.1485 9C 85.0652 8.84373 85.0079 8.65623 84.9766 8.4375C 84.5703 8.89583 84.0391 9.125 83.3828 9.125C 82.7578 9.125 82.2422 8.9427 81.836 8.5781C 81.4297 8.2135 81.2266 7.7604 81.2266 7.2188C 81.2266 6.54167 81.474 6.02343 81.9688 5.6641C 82.4636 5.3047 83.1849 5.125 84.1328 5.125L 84.8985 5.125L 84.8985 4.7656C 84.8985 4.47393 84.8256 4.23957 84.6797 4.0625C 84.5339 3.88543 84.2943 3.7969 83.961 3.7969C 83.6797 3.7969 83.4584 3.8646 83.2969 4C 83.1354 4.1354 83.0547 4.3229 83.0547 4.5625L 81.3672 4.5625C 81.3672 4.1979 81.4792 3.85937 81.7032 3.5469C 81.9271 3.23437 82.2474 2.98957 82.6641 2.8125C 83.0808 2.63543 83.5443 2.5469 84.0547 2.5469C 84.836 2.5469 85.4558 2.7422 85.9141 3.1328C 86.3724 3.52347 86.6016 4.07293 86.6016 4.7812L 86.6016 7.5312C 86.612 8.1354 86.6953 8.59373 86.8516 8.9062L 86.8516 9L 85.1485 9ZM 83.7422 7.8281C 83.9922 7.8281 84.224 7.7708 84.4375 7.6562C 84.651 7.54167 84.8047 7.39063 84.8985 7.2031L 84.8985 6.1094L 84.2735 6.1094C 83.4297 6.1094 82.9766 6.40627 82.9141 7L 82.9141 7.0938C 82.9141 7.30207 82.987 7.47653 83.1328 7.6172C 83.2787 7.7578 83.4818 7.8281 83.7422 7.8281ZM 89.9258 1.0938L 89.9258 2.6562L 91.0196 2.6562L 91.0196 3.9062L 89.9258 3.9062L 89.9258 7.0625C 89.9258 7.3021 89.9727 7.47137 90.0664 7.5703C 90.1602 7.6693 90.3321 7.7188 90.5821 7.7188C 90.7696 7.7188 90.9362 7.70837 91.0821 7.6875L 91.0821 8.9688C 90.7488 9.07293 90.405 9.125 90.0508 9.125C 88.8633 9.125 88.2592 8.52083 88.2383 7.3125L 88.2383 3.9062L 87.3164 3.9062L 87.3164 2.6562L 88.2383 2.6562L 88.2383 1.0938L 89.9258 1.0938ZM 91.6992 5.7656C 91.6992 5.1406 91.819 4.5807 92.0586 4.0859C 92.2982 3.59117 92.6472 3.21097 93.1055 2.9453C 93.5638 2.6797 94.0899 2.5469 94.6836 2.5469C 95.5482 2.5469 96.2487 2.8073 96.7852 3.3281C 97.3217 3.84897 97.6211 4.5573 97.6836 5.4531L 97.6992 5.8906C 97.6992 6.8698 97.4284 7.65367 96.8867 8.2422C 96.345 8.83073 95.6159 9.125 94.6992 9.125C 93.7825 9.125 93.0534 8.83073 92.5117 8.2422C 91.97 7.65367 91.6992 6.8542 91.6992 5.8438L 91.6992 5.7656ZM 93.3867 5.8906C 93.3867 6.4948 93.5013 6.95573 93.7305 7.2734C 93.9596 7.59113 94.2825 7.75 94.6992 7.75C 95.1159 7.75 95.4388 7.59373 95.668 7.2812C 95.8971 6.96873 96.0117 6.46353 96.0117 5.7656C 96.0117 5.18227 95.8971 4.72653 95.668 4.3984C 95.4388 4.07027 95.1107 3.9062 94.6836 3.9062C 94.2773 3.9062 93.9596 4.06767 93.7305 4.3906C 93.5013 4.71353 93.3867 5.21353 93.3867 5.8906ZM 102.312 4.25C 102.083 4.21873 101.88 4.2031 101.703 4.2031C 101.057 4.2031 100.635 4.41667 100.438 4.8438L 100.438 9L 98.75 9L 98.75 2.6562L 100.344 2.6562L 100.391 3.4219C 100.734 2.83857 101.203 2.5469 101.797 2.5469C 101.984 2.5469 102.162 2.57293 102.328 2.625L 102.312 4.25Z"/>
<path id="path18_stroke" d="M 0.748282 0.00537994L 0.753658 -0.494591L -0.246284 -0.505344L -0.25166 -0.00537262L 0.748282 0.00537994ZM -0.499951 23.0846L -0.505328 23.5846L 0.494615 23.5953L 0.499991 23.0954L -0.499951 23.0846ZM -0.25166 -0.00537262L -0.499951 23.0846L 0.499991 23.0954L 0.748282 0.00537994L -0.25166 -0.00537262Z"/>
<path id="path19_fill" d="M 6 0L 0 11L 13 11L 6 0Z"/>
<path id="path20_stroke" d="M 6 0L 6.42183 -0.268438L 5.96686 -0.983399L 5.56105 -0.239426L 6 0ZM 0 11L -0.438948 10.7606L -0.842271 11.5L 0 11.5L 0 11ZM 13 11L 13 11.5L 13.9108 11.5L 13.4218 10.7316L 13 11ZM 5.56105 -0.239426L -0.438948 10.7606L 0.438948 11.2394L 6.43895 0.239426L 5.56105 -0.239426ZM 0 11.5L 13 11.5L 13 10.5L 0 10.5L 0 11.5ZM 13.4218 10.7316L 6.42183 -0.268438L 5.57817 0.268438L 12.5782 11.2684L 13.4218 10.7316Z"/>
<path id="path21_stroke" d="M 0.614977 0.0024658L 0.617448 -0.497528L -0.382539 -0.502471L -0.385011 -0.00247713L 0.614977 0.0024658ZM -0.500001 23.2608L -0.502473 23.7608L 0.497515 23.7658L 0.499987 23.2658L -0.500001 23.2608ZM -0.385011 -0.00247713L -0.500001 23.2608L 0.499987 23.2658L 0.614977 0.0024658L -0.385011 -0.00247713Z"/>
<path id="path22_fill" d="M 7 0L 0 12L 13 12L 7 0Z"/>
<path id="path23_stroke" d="M 7 0L 7.44721 -0.223607L 7.03385 -1.05034L 6.56811 -0.251936L 7 0ZM 0 12L -0.431889 11.7481L -0.870518 12.5L 0 12.5L 0 12ZM 13 12L 13 12.5L 13.809 12.5L 13.4472 11.7764L 13 12ZM 6.56811 -0.251936L -0.431889 11.7481L 0.431889 12.2519L 7.43189 0.251936L 6.56811 -0.251936ZM 0 12.5L 13 12.5L 13 11.5L 0 11.5L 0 12.5ZM 13.4472 11.7764L 7.44721 -0.223607L 6.55279 0.223607L 12.5528 12.2236L 13.4472 11.7764Z"/>
</defs>
</svg>
