<svg width="165" height="220" viewBox="0 0 165 220" version="1.1" xmlns="http://www.w3.org/2000/svg" xmlns:xlink="http://www.w3.org/1999/xlink">
<title>softwarearchitecture-actuators-hierarchy</title>
<desc>Created using Figma</desc>
<g id="Canvas" transform="translate(-1102 401)">
<clipPath id="clip-0" clip-rule="evenodd">
<path d="M 1102.67 -400.333L 1266.66 -400.333L 1266.66 -181.034L 1102.67 -181.034L 1102.67 -400.333Z" fill="#FFFFFF"/>
</clipPath>
<g id="softwarearchitecture-actuators-hierarchy" clip-path="url(#clip-0)">
<path d="M 1102.67 -400.333L 1266.66 -400.333L 1266.66 -181.034L 1102.67 -181.034L 1102.67 -400.333Z" fill="#FFFFFF"/>
<g id="Vector">
<use xlink:href="#path0_fill" transform="matrix(1.3333 0 0 1.3333 1121.33 -399)" fill="#FFFFCC"/>
</g>
<g id="Vector (Stroke)">
<use xlink:href="#path1_fill" transform="matrix(1.3333 0 0 1.3333 1120 -400.333)"/>
</g>
<g id="Vector">
<use xlink:href="#path2_fill" transform="matrix(1.3333 0 0 1.3333 1135.27 -356.733)"/>
</g>
<g id="Vector">
<use xlink:href="#path3_stroke" transform="matrix(1.3333 0 0 1.3333 1121.33 -335.465)"/>
</g>
<g id="Vector">
<use xlink:href="#path4_stroke" transform="matrix(1.3333 0 0 1.3333 1121.33 -367.233)"/>
</g>
<g id="Vector">
<use xlink:href="#path5_fill" transform="matrix(1.3333 0 0 1.3333 1152.52 -387.709)"/>
</g>
<g id="Vector">
<use xlink:href="#path6_fill" transform="matrix(1.3333 0 0 1.3333 1104 -281.67)" fill="#FFFFCC"/>
</g>
<g id="Vector (Stroke)">
<use xlink:href="#path7_fill" transform="matrix(1.3333 0 0 1.3333 1102.67 -283.003)"/>
</g>
<g id="Vector">
<use xlink:href="#path8_fill" transform="matrix(1.3333 0 0 1.3333 1117.94 -239.236)"/>
</g>
<g id="Vector">
<use xlink:href="#path9_fill" transform="matrix(1.3333 0 0 1.3333 1117.94 -218.301)"/>
</g>
<g id="Vector">
<use xlink:href="#path10_stroke" transform="matrix(1.3333 0 0 1.3333 1104 -197.034)"/>
</g>
<g id="Vector">
<use xlink:href="#path11_stroke" transform="matrix(1.3333 0 0 1.3333 1104 -249.902)"/>
</g>
<g id="Vector">
<use xlink:href="#path12_fill" transform="matrix(1.3333 0 0 1.3333 1118.35 -271.003)"/>
</g>
<g id="Vector">
<use xlink:href="#path13_stroke" transform="matrix(1.3333 0 0 1.3333 1184.28 -305.788)"/>
</g>
<g id="Vector">
<use xlink:href="#path14_fill" transform="matrix(1.3333 0 0 1.3333 1175.06 -320.335)" fill="#FFFFFF"/>
</g>
<g id="Vector">
<use xlink:href="#path15_stroke" transform="matrix(1.3333 0 0 1.3333 1175.06 -320.335)"/>
</g>
</g>
</g>
<defs>
<path id="path0_fill" d="M 94 0L 1.2207e-05 0L 1.2207e-05 58.6523L 94 58.6523L 94 0Z"/>
<path id="path1_fill" fill-rule="evenodd" d="M 0 0L 1 0L 95 0L 96 0L 96 1L 96 59.6523L 96 60.6523L 95 60.6523L 1 60.6523L 0 60.6523L 0 59.6523L 0 1L 0 0ZM 2 2L 2 58.6523L 94 58.6523L 94 2L 2 2Z"/>
<path id="path2_fill" d="M 3.4688 4.5469L 5.8594 4.5469L 5.8594 5.5781L 3.4688 5.5781L 3.4688 8.2656L 2.3907 8.2656L 2.3907 5.5781L -4.14848e-09 5.5781L -4.14848e-09 4.5469L 2.3907 4.5469L 2.3907 2.0625L 3.4688 2.0625L 3.4688 4.5469ZM 14.0547 9.125C 13.9922 9 13.9402 8.77603 13.8985 8.4531C 13.3985 8.98437 12.7995 9.25 12.1016 9.25C 11.4766 9.25 10.9636 9.07293 10.5625 8.7188C 10.1615 8.3646 9.961 7.91147 9.961 7.3594C 9.961 6.70313 10.211 6.1927 10.711 5.8281C 11.211 5.4635 11.9193 5.2812 12.836 5.2812L 13.8828 5.2812L 13.8828 4.7812C 13.8828 4.40627 13.7708 4.1068 13.5469 3.8828C 13.323 3.65887 12.987 3.5469 12.5391 3.5469C 12.1537 3.5469 11.8308 3.64323 11.5703 3.8359C 11.3099 4.02863 11.1797 4.26563 11.1797 4.5469L 10.086 4.5469C 10.086 4.22397 10.198 3.91667 10.4219 3.625C 10.6458 3.33333 10.9505 3.10157 11.336 2.9297C 11.7214 2.75783 12.1433 2.6719 12.6016 2.6719C 13.3412 2.6719 13.9167 2.8542 14.3281 3.2188C 14.7396 3.58333 14.9557 4.08333 14.9766 4.7188L 14.9766 7.6406C 14.9766 8.22393 15.0495 8.68747 15.1953 9.0312L 15.1953 9.125L 14.0547 9.125ZM 12.2578 8.2969C 12.6016 8.2969 12.9245 8.20833 13.2266 8.0312C 13.5287 7.85413 13.7474 7.625 13.8828 7.3438L 13.8828 6.0469L 13.0391 6.0469C 11.7058 6.0469 11.0391 6.43753 11.0391 7.2188C 11.0391 7.55213 11.1537 7.81513 11.3828 8.0078C 11.612 8.20053 11.9037 8.2969 12.2578 8.2969ZM 17.6914 2.7812L 17.7227 3.5781C 18.2123 2.97397 18.8477 2.6719 19.6289 2.6719C 20.9727 2.6719 21.6498 3.4271 21.6602 4.9375L 21.6602 9.125L 20.5664 9.125L 20.5664 4.9219C 20.5664 4.47397 20.4648 4.14063 20.2617 3.9219C 20.0586 3.70317 19.7383 3.5938 19.3008 3.5938C 18.9467 3.5938 18.6368 3.68753 18.3711 3.875C 18.1055 4.06247 17.8998 4.30727 17.7539 4.6094L 17.7539 9.125L 16.6758 9.125L 16.6758 2.7812L 17.6914 2.7812ZM 23.0313 5.9062C 23.0313 4.91667 23.2605 4.13023 23.7188 3.5469C 24.1771 2.96357 24.7813 2.6719 25.5313 2.6719C 26.3021 2.6719 26.9063 2.94273 27.3438 3.4844L 27.3907 2.7812L 28.3907 2.7812L 28.3907 8.9688C 28.3907 9.79167 28.1459 10.4401 27.6563 10.9141C 27.1667 11.388 26.5156 11.625 25.7031 11.625C 25.2448 11.625 24.7969 11.526 24.3594 11.3281C 23.9219 11.1302 23.5885 10.8645 23.3594 10.5312L 23.9219 9.875C 24.3802 10.4479 24.9479 10.7344 25.625 10.7344C 26.1459 10.7344 26.5547 10.586 26.8516 10.2891C 27.1485 9.99223 27.2969 9.57293 27.2969 9.0312L 27.2969 8.4844C 26.8594 8.9948 26.2657 9.25 25.5157 9.25C 24.7761 9.25 24.1771 8.95053 23.7188 8.3516C 23.2605 7.7526 23.0313 6.93747 23.0313 5.9062ZM 24.125 6.0312C 24.125 6.7396 24.2708 7.2995 24.5625 7.7109C 24.8542 8.12237 25.2656 8.3281 25.7969 8.3281C 26.474 8.3281 26.974 8.0156 27.2969 7.3906L 27.2969 4.5C 26.9636 3.89587 26.4636 3.5938 25.7969 3.5938C 25.2761 3.5938 24.8672 3.7969 24.5703 4.2031C 24.2734 4.60937 24.125 5.21873 24.125 6.0312ZM 31.2012 9.125L 30.1231 9.125L 30.1231 0.125L 31.2012 0.125L 31.2012 9.125ZM 35.5664 9.25C 34.7019 9.25 34.0014 8.96613 33.4649 8.3984C 32.9284 7.83073 32.6602 7.07293 32.6602 6.125L 32.6602 5.9375C 32.6602 5.3021 32.78 4.737 33.0196 4.2422C 33.2591 3.7474 33.5951 3.36197 34.0274 3.0859C 34.4597 2.8099 34.9258 2.6719 35.4258 2.6719C 36.2487 2.6719 36.8894 2.94273 37.3477 3.4844C 37.806 4.02607 38.0352 4.8021 38.0352 5.8125L 38.0352 6.2656L 33.7383 6.2656C 33.7592 6.8906 33.9441 7.3958 34.293 7.7812C 34.6419 8.16667 35.0872 8.3594 35.6289 8.3594C 36.0039 8.3594 36.3242 8.28127 36.5899 8.125C 36.8555 7.96873 37.0925 7.7604 37.3008 7.5L 37.9571 8.0156C 37.4258 8.83853 36.6289 9.25 35.5664 9.25ZM 35.4258 3.5625C 34.9883 3.5625 34.6211 3.72137 34.3242 4.0391C 34.0273 4.35677 33.8477 4.80207 33.7852 5.375L 36.9571 5.375L 36.9571 5.2969C 36.9258 4.74483 36.7774 4.31773 36.5117 4.0156C 36.2461 3.71353 35.8841 3.5625 35.4258 3.5625ZM 42.2852 8.5625C 42.2852 8.37497 42.3399 8.21873 42.4492 8.0938C 42.5586 7.96873 42.7253 7.9062 42.9492 7.9062C 43.1732 7.9062 43.3425 7.96873 43.4571 8.0938C 43.5716 8.21873 43.6289 8.37497 43.6289 8.5625C 43.6289 8.73957 43.5716 8.888 43.4571 9.0078C 43.3425 9.1276 43.1732 9.1875 42.9492 9.1875C 42.7253 9.1875 42.5586 9.1276 42.4492 9.0078C 42.3399 8.888 42.2852 8.73957 42.2852 8.5625ZM 42.2852 2.7812C 42.2852 2.59373 42.3399 2.4375 42.4492 2.3125C 42.5586 2.1875 42.7253 2.125 42.9492 2.125C 43.1732 2.125 43.3425 2.1875 43.4571 2.3125C 43.5716 2.4375 43.6289 2.59373 43.6289 2.7812C 43.6289 2.95833 43.5716 3.1068 43.4571 3.2266C 43.3425 3.34633 43.1732 3.4062 42.9492 3.4062C 42.7253 3.4062 42.5586 3.34633 42.4492 3.2266C 42.3399 3.1068 42.2852 2.95833 42.2852 2.7812ZM 48.6778 9.125L 48.6778 3.625L 47.6778 3.625L 47.6778 2.7812L 48.6778 2.7812L 48.6778 2.1406C 48.6778 1.45313 48.8575 0.9245 49.2168 0.5547C 49.5762 0.1849 50.0892 0 50.7559 0C 51.0059 0 51.2559 0.0312663 51.5059 0.0937996L 51.4434 0.9844C 51.2559 0.942733 51.0632 0.9219 50.8653 0.9219C 50.5111 0.9219 50.2376 1.02607 50.0449 1.2344C 49.8522 1.44273 49.7559 1.7344 49.7559 2.1094L 49.7559 2.7812L 51.1153 2.7812L 51.1153 3.625L 49.7559 3.625L 49.7559 9.125L 48.6778 9.125ZM 53.4844 9.125L 52.4063 9.125L 52.4063 0.125L 53.4844 0.125L 53.4844 9.125ZM 54.9278 5.8906C 54.9278 5.27607 55.0502 4.7188 55.2949 4.2188C 55.5397 3.7188 55.8809 3.33597 56.3184 3.0703C 56.7559 2.8047 57.2507 2.6719 57.8028 2.6719C 58.6673 2.6719 59.3678 2.96877 59.9043 3.5625C 60.4408 4.15623 60.709 4.9531 60.709 5.9531L 60.709 6.0312C 60.709 6.6458 60.5892 7.1979 60.3496 7.6875C 60.1101 8.1771 59.7715 8.5599 59.334 8.8359C 58.8965 9.11197 58.3913 9.25 57.8184 9.25C 56.9642 9.25 56.2689 8.95053 55.7324 8.3516C 55.196 7.7526 54.9278 6.95833 54.9278 5.9688L 54.9278 5.8906ZM 56.0215 6.0312C 56.0215 6.72913 56.1856 7.29167 56.5137 7.7188C 56.8418 8.14587 57.2767 8.3594 57.8184 8.3594C 58.3705 8.3594 58.808 8.14323 59.1309 7.7109C 59.4538 7.27863 59.6153 6.67187 59.6153 5.8906C 59.6153 5.20313 59.4512 4.64323 59.1231 4.2109C 58.795 3.77863 58.3549 3.5625 57.8028 3.5625C 57.2715 3.5625 56.8418 3.77343 56.5137 4.1953C 56.1856 4.61717 56.0215 5.22913 56.0215 6.0312ZM 65.9746 9.125C 65.9121 9 65.8601 8.77603 65.8184 8.4531C 65.3184 8.98437 64.7194 9.25 64.0215 9.25C 63.3965 9.25 62.8835 9.07293 62.4824 8.7188C 62.0814 8.3646 61.8809 7.91147 61.8809 7.3594C 61.8809 6.70313 62.1309 6.1927 62.6309 5.8281C 63.1309 5.4635 63.8392 5.2812 64.7559 5.2812L 65.8028 5.2812L 65.8028 4.7812C 65.8028 4.40627 65.6908 4.1068 65.4668 3.8828C 65.2429 3.65887 64.9069 3.5469 64.459 3.5469C 64.0736 3.5469 63.7507 3.64323 63.4903 3.8359C 63.2298 4.02863 63.0996 4.26563 63.0996 4.5469L 62.0059 4.5469C 62.0059 4.22397 62.1179 3.91667 62.3418 3.625C 62.5658 3.33333 62.8705 3.10157 63.2559 2.9297C 63.6413 2.75783 64.0632 2.6719 64.5215 2.6719C 65.2611 2.6719 65.8366 2.8542 66.2481 3.2188C 66.6596 3.58333 66.8757 4.08333 66.8965 4.7188L 66.8965 7.6406C 66.8965 8.22393 66.9694 8.68747 67.1153 9.0312L 67.1153 9.125L 65.9746 9.125ZM 64.1778 8.2969C 64.5215 8.2969 64.8444 8.20833 65.1465 8.0312C 65.4486 7.85413 65.6673 7.625 65.8028 7.3438L 65.8028 6.0469L 64.959 6.0469C 63.6257 6.0469 62.959 6.43753 62.959 7.2188C 62.959 7.55213 63.0736 7.81513 63.3028 8.0078C 63.5319 8.20053 63.8236 8.2969 64.1778 8.2969ZM 70.0645 1.25L 70.0645 2.7812L 71.2364 2.7812L 71.2364 3.625L 70.0645 3.625L 70.0645 7.5469C 70.0645 7.8073 70.1166 8 70.2207 8.125C 70.3249 8.25 70.502 8.3125 70.752 8.3125C 70.877 8.3125 71.0489 8.29167 71.2676 8.25L 71.2676 9.125C 70.9863 9.20833 70.7103 9.25 70.4395 9.25C 69.9603 9.25 69.5957 9.10157 69.3457 8.8047C 69.0957 8.50783 68.9707 8.08857 68.9707 7.5469L 68.9707 3.625L 67.8145 3.625L 67.8145 2.7812L 68.9707 2.7812L 68.9707 1.25L 70.0645 1.25Z"/>
<path id="path3_stroke" d="M 1.2207e-05 -0.500002L -0.499988 -0.500002L -0.499988 0.499998L 1.2207e-05 0.499998L 1.2207e-05 -0.500002ZM 94 0.499998L 94.5 0.499998L 94.5 -0.500002L 94 -0.500002L 94 0.499998ZM 1.2207e-05 0.499998L 94 0.499998L 94 -0.500002L 1.2207e-05 -0.500002L 1.2207e-05 0.499998Z"/>
<path id="path4_stroke" d="M 1.2207e-05 -0.499998L -0.499988 -0.499998L -0.499988 0.500002L 1.2207e-05 0.500002L 1.2207e-05 -0.499998ZM 94 0.500002L 94.5 0.500002L 94.5 -0.499998L 94 -0.499998L 94 0.500002ZM 1.2207e-05 0.500002L 94 0.500002L 94 -0.499998L 1.2207e-05 -0.499998L 1.2207e-05 0.500002Z"/>
<path id="path5_fill" d="M 5.75 6.7656L 2.7656 6.7656L 1.8906 8.5312L 2.56538e-08 8.5312L 4.5625 -4.08936e-07L 6.1406 -4.08936e-07L 7.7656 8.5312L 6.0156 8.5312L 5.75 6.7656ZM 3.4688 5.3437L 5.5313 5.3437L 5.0469 2.1718L 3.4688 5.3437ZM 11.2989 7.2812C 11.601 7.2916 11.8536 7.21087 12.0567 7.039C 12.2598 6.86713 12.3926 6.63537 12.4551 6.3437L 14.0176 6.3437C 13.9863 6.78123 13.8457 7.17967 13.5957 7.539C 13.3457 7.8984 13.0098 8.17707 12.5879 8.375C 12.166 8.57287 11.7207 8.6666 11.252 8.6562C 10.4811 8.6458 9.87177 8.38017 9.4239 7.8593C 8.97597 7.3385 8.7624 6.6458 8.7832 5.7812L 8.7989 5.4531L 8.7989 5.3906C 8.90303 4.35933 9.25197 3.5416 9.8457 2.9374C 10.4395 2.33327 11.1687 2.04683 12.0332 2.0781C 12.7415 2.0885 13.3066 2.32027 13.7285 2.7734C 14.1504 3.22653 14.3562 3.82287 14.3457 4.5624L 12.8145 4.5624C 12.8145 4.21867 12.739 3.95047 12.5879 3.7578C 12.4369 3.56507 12.2156 3.45827 11.9239 3.4374C 11.1322 3.4166 10.6531 3.99473 10.4864 5.1718C 10.4239 5.59887 10.403 5.95827 10.4239 6.25C 10.4551 6.92707 10.7468 7.2708 11.2989 7.2812ZM 18.0059 0.625L 17.7246 2.1874L 18.7871 2.1874L 18.5684 3.4374L 17.5059 3.4374L 16.9746 6.6093C 16.9434 6.80723 16.9564 6.95827 17.0137 7.0624C 17.071 7.1666 17.2038 7.2239 17.4121 7.2343C 17.4746 7.2343 17.6413 7.2239 17.9121 7.2031L 17.8028 8.5C 17.5111 8.60413 17.1934 8.651 16.8496 8.6406C 16.3079 8.6302 15.9043 8.45833 15.6387 8.125C 15.3731 7.79167 15.2663 7.34373 15.3184 6.7812L 15.8496 3.4374L 14.959 3.4374L 15.1778 2.1874L 16.0684 2.1874L 16.3496 0.625L 18.0059 0.625ZM 22.5586 7.875C 22.0899 8.4062 21.5117 8.6666 20.8242 8.6562C 20.2097 8.6458 19.7461 8.42443 19.4336 7.9921C 19.1211 7.55983 19.0013 6.99473 19.0742 6.2968L 19.7617 2.1874L 21.418 2.1874L 20.7149 6.3124C 20.694 6.43747 20.694 6.55727 20.7149 6.6718C 20.7461 7.06767 20.9596 7.2708 21.3555 7.2812C 21.8659 7.2916 22.293 7.09367 22.6367 6.6874L 23.418 2.1874L 25.0899 2.1874L 23.9805 8.5312L 22.4492 8.5312L 22.5586 7.875ZM 28.8828 8.5312C 28.8307 8.37493 28.8099 8.18223 28.8203 7.9531C 28.3412 8.43223 27.7995 8.6666 27.1953 8.6562C 26.6432 8.6458 26.1849 8.4635 25.8203 8.1093C 25.4558 7.75517 25.2839 7.31767 25.3047 6.7968C 25.336 6.10933 25.6276 5.5807 26.1797 5.2109C 26.7318 4.8411 27.4714 4.6562 28.3985 4.6562L 29.1797 4.6562L 29.2578 4.2812C 29.2787 4.1562 29.2839 4.0312 29.2735 3.9062C 29.2526 3.72913 29.1823 3.5885 29.0625 3.4843C 28.9427 3.38017 28.7891 3.3281 28.6016 3.3281C 28.3412 3.31763 28.1198 3.38013 27.9375 3.5156C 27.7552 3.651 27.6381 3.8437 27.586 4.0937L 25.9297 4.0937C 25.961 3.4895 26.2422 2.99993 26.7735 2.625C 27.3047 2.24993 27.9557 2.06763 28.7266 2.0781C 29.4453 2.0885 30.0078 2.29943 30.4141 2.7109C 30.8204 3.12237 30.9922 3.6562 30.9297 4.3124L 30.4453 7.3437L 30.4141 7.7187C 30.4037 7.98957 30.4349 8.22393 30.5078 8.4218L 30.5078 8.5312L 28.8828 8.5312ZM 27.6172 7.3593C 28.0859 7.38017 28.4974 7.17707 28.8516 6.75L 29.0703 5.6406L 28.4922 5.6406C 27.8776 5.6614 27.4349 5.8489 27.1641 6.2031C 27.0704 6.3281 27.0131 6.48433 26.9922 6.6718C 26.9609 6.88013 27.0052 7.0468 27.125 7.1718C 27.2448 7.2968 27.4089 7.3593 27.6172 7.3593ZM 34.8692 0.625L 34.5879 2.1874L 35.6504 2.1874L 35.4317 3.4374L 34.3692 3.4374L 33.8379 6.6093C 33.8066 6.80723 33.8197 6.95827 33.877 7.0624C 33.9343 7.1666 34.0671 7.2239 34.2754 7.2343C 34.3379 7.2343 34.5046 7.2239 34.7754 7.2031L 34.666 8.5C 34.3743 8.60413 34.0566 8.651 33.7129 8.6406C 33.1712 8.6302 32.7676 8.45833 32.502 8.125C 32.2363 7.79167 32.1296 7.34373 32.1817 6.7812L 32.7129 3.4374L 31.8223 3.4374L 32.041 2.1874L 32.9317 2.1874L 33.2129 0.625L 34.8692 0.625ZM 39.125 2.0781C 39.6875 2.0781 40.1719 2.21873 40.5782 2.5C 40.9844 2.7812 41.2813 3.1666 41.4688 3.6562C 41.6563 4.1458 41.724 4.69267 41.6719 5.2968C 41.5782 6.2968 41.2266 7.1093 40.6172 7.7343C 40.0079 8.3593 39.2501 8.6666 38.3438 8.6562C 37.8021 8.6458 37.3282 8.50257 36.9219 8.2265C 36.5156 7.95043 36.2188 7.56763 36.0313 7.0781C 35.8438 6.5885 35.7761 6.04683 35.8282 5.4531C 35.9323 4.41143 36.2891 3.5807 36.8985 2.9609C 37.5078 2.3411 38.25 2.04683 39.125 2.0781ZM 37.4532 6.0624C 37.4636 6.43747 37.5521 6.73437 37.7188 6.9531C 37.8855 7.17183 38.125 7.2812 38.4375 7.2812C 38.9375 7.302 39.3333 7.07023 39.625 6.5859C 39.9167 6.1015 40.0521 5.46867 40.0313 4.6874C 40.0208 4.31247 39.9323 4.013 39.7656 3.789C 39.5989 3.56507 39.3594 3.44787 39.0469 3.4374C 38.5573 3.427 38.1641 3.6588 37.8672 4.1328C 37.5703 4.60673 37.4323 5.24993 37.4532 6.0624ZM 46.4824 3.7812C 46.2533 3.73953 46.0658 3.7187 45.9199 3.7187C 45.3366 3.7083 44.873 3.92707 44.5293 4.375L 43.7949 8.5312L 42.1387 8.5312L 43.2481 2.1874L 44.7949 2.1874L 44.6387 2.9531C 45.045 2.3593 45.5398 2.0624 46.1231 2.0624C 46.2898 2.0624 46.4825 2.08847 46.7012 2.1406L 46.4824 3.7812Z"/>
<path id="path6_fill" d="M 121 0L 1.2207e-05 0L 1.2207e-05 74.4785L 121 74.4785L 121 0Z"/>
<path id="path7_fill" fill-rule="evenodd" d="M 0 0L 1 0L 122 0L 123 0L 123 1L 123 75.4785L 123 76.4785L 122 76.4785L 1 76.4785L 0 76.4785L 0 75.4785L 0 1L 0 0ZM 2 2L 2 74.4785L 121 74.4785L 121 2L 2 2Z"/>
<path id="path8_fill" d="M 3.4688 4.4219L 5.8594 4.4219L 5.8594 5.4531L 3.4688 5.4531L 3.4688 8.1406L 2.3907 8.1406L 2.3907 5.4531L -4.14848e-09 5.4531L -4.14848e-09 4.4219L 2.3907 4.4219L 2.3907 1.9375L 3.4688 1.9375L 3.4688 4.4219ZM 11.3203 9L 10.2422 9L 10.2422 2.6562L 11.3203 2.6562L 11.3203 9ZM 10.1485 0.9844C 10.1485 0.807333 10.2032 0.656267 10.3125 0.5312C 10.4219 0.406267 10.5808 0.3438 10.7891 0.3438C 10.9974 0.3438 11.1563 0.406267 11.2657 0.5312C 11.375 0.656267 11.4297 0.804733 11.4297 0.9766C 11.4297 1.14847 11.375 1.2943 11.2657 1.4141C 11.1563 1.5339 10.9974 1.5938 10.7891 1.5938C 10.5808 1.5938 10.4219 1.5339 10.3125 1.4141C 10.2032 1.2943 10.1485 1.15107 10.1485 0.9844ZM 12.7949 5.7812C 12.7949 4.80207 13.0241 4.01823 13.4824 3.4297C 13.9407 2.84117 14.5449 2.5469 15.2949 2.5469C 16.0345 2.5469 16.6231 2.7969 17.0606 3.2969L 17.0606 0L 18.1387 0L 18.1387 9L 17.1387 9L 17.0918 8.3125C 16.6543 8.85417 16.0502 9.125 15.2793 9.125C 14.5502 9.125 13.9538 8.82293 13.4903 8.2188C 13.0267 7.6146 12.7949 6.82813 12.7949 5.8594L 12.7949 5.7812ZM 13.8731 5.9062C 13.8731 6.625 14.0215 7.18753 14.3184 7.5938C 14.6153 8 15.0241 8.2031 15.5449 8.2031C 16.2324 8.2031 16.7377 7.8906 17.0606 7.2656L 17.0606 4.3594C 16.7377 3.76567 16.2377 3.4688 15.5606 3.4688C 15.0293 3.4688 14.6153 3.6719 14.3184 4.0781C 14.0215 4.48437 13.8731 5.09373 13.8731 5.9062ZM 22.8145 8.4375C 22.8145 8.24997 22.8692 8.09373 22.9785 7.9688C 23.0879 7.84373 23.2546 7.7812 23.4785 7.7812C 23.7025 7.7812 23.8718 7.84373 23.9864 7.9688C 24.1009 8.09373 24.1582 8.24997 24.1582 8.4375C 24.1582 8.61457 24.1009 8.763 23.9864 8.8828C 23.8718 9.0026 23.7025 9.0625 23.4785 9.0625C 23.2546 9.0625 23.0879 9.0026 22.9785 8.8828C 22.8692 8.763 22.8145 8.61457 22.8145 8.4375ZM 22.8145 2.6562C 22.8145 2.46873 22.8692 2.3125 22.9785 2.1875C 23.0879 2.0625 23.2546 2 23.4785 2C 23.7025 2 23.8718 2.0625 23.9864 2.1875C 24.1009 2.3125 24.1582 2.46873 24.1582 2.6562C 24.1582 2.83333 24.1009 2.9818 23.9864 3.1016C 23.8718 3.22133 23.7025 3.2812 23.4785 3.2812C 23.2546 3.2812 23.0879 3.22133 22.9785 3.1016C 22.8692 2.9818 22.8145 2.83333 22.8145 2.6562ZM 29.8477 9L 28.7696 9L 28.7696 2.6562L 29.8477 2.6562L 29.8477 9ZM 28.6758 0.9844C 28.6758 0.807333 28.7305 0.656267 28.8399 0.5312C 28.9492 0.406267 29.1081 0.3438 29.3164 0.3438C 29.5247 0.3438 29.6836 0.406267 29.793 0.5312C 29.9024 0.656267 29.9571 0.804733 29.9571 0.9766C 29.9571 1.14847 29.9024 1.2943 29.793 1.4141C 29.6836 1.5339 29.5247 1.5938 29.3164 1.5938C 29.1081 1.5938 28.9492 1.5339 28.8399 1.4141C 28.7305 1.2943 28.6758 1.15107 28.6758 0.9844ZM 32.6035 2.6562L 32.6348 3.4531C 33.1244 2.84897 33.7598 2.5469 34.541 2.5469C 35.8848 2.5469 36.5619 3.3021 36.5723 4.8125L 36.5723 9L 35.4785 9L 35.4785 4.7969C 35.4785 4.34897 35.377 4.01563 35.1739 3.7969C 34.9708 3.57817 34.6504 3.4688 34.2129 3.4688C 33.8588 3.4688 33.5489 3.56253 33.2832 3.75C 33.0176 3.93747 32.8119 4.18227 32.666 4.4844L 32.666 9L 31.5879 9L 31.5879 2.6562L 32.6035 2.6562ZM 39.6778 1.125L 39.6778 2.6562L 40.8496 2.6562L 40.8496 3.5L 39.6778 3.5L 39.6778 7.4219C 39.6778 7.6823 39.7299 7.875 39.834 8C 39.9382 8.125 40.1153 8.1875 40.3653 8.1875C 40.4903 8.1875 40.6622 8.16667 40.8809 8.125L 40.8809 9C 40.5996 9.08333 40.3236 9.125 40.0528 9.125C 39.5736 9.125 39.209 8.97657 38.959 8.6797C 38.709 8.38283 38.584 7.96357 38.584 7.4219L 38.584 3.5L 37.4278 3.5L 37.4278 2.6562L 38.584 2.6562L 38.584 1.125L 39.6778 1.125Z"/>
<path id="path9_fill" d="M 3.4688 4.5469L 5.8594 4.5469L 5.8594 5.5781L 3.4688 5.5781L 3.4688 8.2656L 2.3907 8.2656L 2.3907 5.5781L -4.14848e-09 5.5781L -4.14848e-09 4.5469L 2.3907 4.5469L 2.3907 2.0625L 3.4688 2.0625L 3.4688 4.5469ZM 13.836 7.4375C 13.836 7.14583 13.724 6.91927 13.5 6.7578C 13.2761 6.59633 12.8907 6.45833 12.3438 6.3438C 11.7969 6.2292 11.362 6.08857 11.0391 5.9219C 10.7162 5.75523 10.4792 5.5599 10.3281 5.3359C 10.1771 5.11197 10.1016 4.84373 10.1016 4.5312C 10.1016 4.0104 10.3203 3.5703 10.7578 3.2109C 11.1953 2.85157 11.7578 2.6719 12.4453 2.6719C 13.1641 2.6719 13.7448 2.8568 14.1875 3.2266C 14.6302 3.59633 14.8516 4.06767 14.8516 4.6406L 13.7735 4.6406C 13.7735 4.34893 13.6459 4.09633 13.3907 3.8828C 13.1354 3.66927 12.8203 3.5625 12.4453 3.5625C 12.0495 3.5625 11.7396 3.64843 11.5157 3.8203C 11.2917 3.99217 11.1797 4.21353 11.1797 4.4844C 11.1797 4.7448 11.2839 4.9427 11.4922 5.0781C 11.7005 5.2135 12.0755 5.3411 12.6172 5.4609C 13.1589 5.5807 13.5964 5.72393 13.9297 5.8906C 14.263 6.05727 14.5104 6.2604 14.6719 6.5C 14.8334 6.7396 14.9141 7.02607 14.9141 7.3594C 14.9141 7.93233 14.6875 8.39067 14.2344 8.7344C 13.7813 9.07813 13.1953 9.25 12.4766 9.25C 11.9662 9.25 11.5157 9.15887 11.125 8.9766C 10.7344 8.79427 10.4297 8.54167 10.211 8.2188C 9.9922 7.89587 9.8828 7.5469 9.8828 7.1719L 10.961 7.1719C 10.9818 7.5365 11.1276 7.82557 11.3985 8.0391C 11.6693 8.25263 12.0287 8.3594 12.4766 8.3594C 12.8829 8.3594 13.211 8.27607 13.461 8.1094C 13.711 7.94273 13.836 7.71877 13.836 7.4375ZM 21.6797 6.0312C 21.6797 6.9896 21.461 7.76567 21.0235 8.3594C 20.586 8.95313 19.987 9.25 19.2266 9.25C 18.4557 9.25 17.8516 9.0052 17.4141 8.5156L 17.4141 11.5625L 16.336 11.5625L 16.336 2.7812L 17.3203 2.7812L 17.3672 3.4844C 17.8151 2.94273 18.4297 2.6719 19.211 2.6719C 19.9714 2.6719 20.573 2.95833 21.0157 3.5312C 21.4584 4.10413 21.6797 4.90103 21.6797 5.9219L 21.6797 6.0312ZM 20.6016 5.9062C 20.6016 5.18747 20.448 4.62237 20.1407 4.2109C 19.8334 3.7995 19.4141 3.5938 18.8828 3.5938C 18.2266 3.5938 17.737 3.88023 17.4141 4.4531L 17.4141 7.4844C 17.737 8.06773 18.2318 8.3594 18.8985 8.3594C 19.4193 8.3594 19.8334 8.15367 20.1407 7.7422C 20.448 7.33073 20.6016 6.71873 20.6016 5.9062ZM 25.6934 9.25C 24.8288 9.25 24.1283 8.96613 23.5918 8.3984C 23.0553 7.83073 22.7871 7.07293 22.7871 6.125L 22.7871 5.9375C 22.7871 5.3021 22.9069 4.737 23.1465 4.2422C 23.3861 3.7474 23.722 3.36197 24.1543 3.0859C 24.5866 2.8099 25.0528 2.6719 25.5528 2.6719C 26.3757 2.6719 27.0163 2.94273 27.4746 3.4844C 27.9329 4.02607 28.1621 4.8021 28.1621 5.8125L 28.1621 6.2656L 23.8653 6.2656C 23.8861 6.8906 24.071 7.3958 24.4199 7.7812C 24.7689 8.16667 25.2142 8.3594 25.7559 8.3594C 26.1309 8.3594 26.4512 8.28127 26.7168 8.125C 26.9825 7.96873 27.2195 7.7604 27.4278 7.5L 28.084 8.0156C 27.5527 8.83853 26.7559 9.25 25.6934 9.25ZM 25.5528 3.5625C 25.1153 3.5625 24.7481 3.72137 24.4512 4.0391C 24.1543 4.35677 23.9746 4.80207 23.9121 5.375L 27.084 5.375L 27.084 5.2969C 27.0527 4.74483 26.9043 4.31773 26.6387 4.0156C 26.3731 3.71353 26.0111 3.5625 25.5528 3.5625ZM 32.0508 9.25C 31.1862 9.25 30.4857 8.96613 29.9492 8.3984C 29.4128 7.83073 29.1446 7.07293 29.1446 6.125L 29.1446 5.9375C 29.1446 5.3021 29.2644 4.737 29.5039 4.2422C 29.7435 3.7474 30.0794 3.36197 30.5117 3.0859C 30.944 2.8099 31.4102 2.6719 31.9102 2.6719C 32.7331 2.6719 33.3738 2.94273 33.8321 3.4844C 34.2904 4.02607 34.5196 4.8021 34.5196 5.8125L 34.5196 6.2656L 30.2227 6.2656C 30.2435 6.8906 30.4284 7.3958 30.7774 7.7812C 31.1263 8.16667 31.5716 8.3594 32.1133 8.3594C 32.4883 8.3594 32.8086 8.28127 33.0742 8.125C 33.3399 7.96873 33.5769 7.7604 33.7852 7.5L 34.4414 8.0156C 33.9102 8.83853 33.1133 9.25 32.0508 9.25ZM 31.9102 3.5625C 31.4727 3.5625 31.1055 3.72137 30.8086 4.0391C 30.5117 4.35677 30.3321 4.80207 30.2696 5.375L 33.4414 5.375L 33.4414 5.2969C 33.4102 4.74483 33.2618 4.31773 32.9961 4.0156C 32.7305 3.71353 32.3685 3.5625 31.9102 3.5625ZM 35.5176 5.9062C 35.5176 4.92707 35.7468 4.14323 36.2051 3.5547C 36.6634 2.96617 37.2676 2.6719 38.0176 2.6719C 38.7572 2.6719 39.3457 2.9219 39.7832 3.4219L 39.7832 0.125L 40.8614 0.125L 40.8614 9.125L 39.8614 9.125L 39.8145 8.4375C 39.377 8.97917 38.7728 9.25 38.002 9.25C 37.2728 9.25 36.6764 8.94793 36.2129 8.3438C 35.7494 7.7396 35.5176 6.95313 35.5176 5.9844L 35.5176 5.9062ZM 36.5957 6.0312C 36.5957 6.75 36.7441 7.31253 37.041 7.7188C 37.3379 8.125 37.7468 8.3281 38.2676 8.3281C 38.9551 8.3281 39.4603 8.0156 39.7832 7.3906L 39.7832 4.4844C 39.4603 3.89067 38.9603 3.5938 38.2832 3.5938C 37.752 3.5938 37.3379 3.7969 37.041 4.2031C 36.7441 4.60937 36.5957 5.21873 36.5957 6.0312ZM 45.5371 8.5625C 45.5371 8.37497 45.5918 8.21873 45.7012 8.0938C 45.8106 7.96873 45.9773 7.9062 46.2012 7.9062C 46.4251 7.9062 46.5944 7.96873 46.709 8.0938C 46.8236 8.21873 46.8809 8.37497 46.8809 8.5625C 46.8809 8.73957 46.8236 8.888 46.709 9.0078C 46.5944 9.1276 46.4251 9.1875 46.2012 9.1875C 45.9773 9.1875 45.8106 9.1276 45.7012 9.0078C 45.5918 8.888 45.5371 8.73957 45.5371 8.5625ZM 45.5371 2.7812C 45.5371 2.59373 45.5918 2.4375 45.7012 2.3125C 45.8106 2.1875 45.9773 2.125 46.2012 2.125C 46.4251 2.125 46.5944 2.1875 46.709 2.3125C 46.8236 2.4375 46.8809 2.59373 46.8809 2.7812C 46.8809 2.95833 46.8236 3.1068 46.709 3.2266C 46.5944 3.34633 46.4251 3.4062 46.2012 3.4062C 45.9773 3.4062 45.8106 3.34633 45.7012 3.2266C 45.5918 3.1068 45.5371 2.95833 45.5371 2.7812ZM 51.9297 9.125L 51.9297 3.625L 50.9297 3.625L 50.9297 2.7812L 51.9297 2.7812L 51.9297 2.1406C 51.9297 1.45313 52.1094 0.9245 52.4688 0.5547C 52.8281 0.1849 53.3411 0 54.0078 0C 54.2578 0 54.5078 0.0312663 54.7578 0.0937996L 54.6953 0.9844C 54.5078 0.942733 54.3151 0.9219 54.1172 0.9219C 53.7631 0.9219 53.4896 1.02607 53.2969 1.2344C 53.1042 1.44273 53.0078 1.7344 53.0078 2.1094L 53.0078 2.7812L 54.3672 2.7812L 54.3672 3.625L 53.0078 3.625L 53.0078 9.125L 51.9297 9.125ZM 56.7364 9.125L 55.6582 9.125L 55.6582 0.125L 56.7364 0.125L 56.7364 9.125ZM 58.1797 5.8906C 58.1797 5.27607 58.3021 4.7188 58.5469 4.2188C 58.7917 3.7188 59.1328 3.33597 59.5703 3.0703C 60.0078 2.8047 60.5026 2.6719 61.0547 2.6719C 61.9193 2.6719 62.6198 2.96877 63.1563 3.5625C 63.6928 4.15623 63.961 4.9531 63.961 5.9531L 63.961 6.0312C 63.961 6.6458 63.8412 7.1979 63.6016 7.6875C 63.362 8.1771 63.0235 8.5599 62.586 8.8359C 62.1485 9.11197 61.6432 9.25 61.0703 9.25C 60.2162 9.25 59.5209 8.95053 58.9844 8.3516C 58.4479 7.7526 58.1797 6.95833 58.1797 5.9688L 58.1797 5.8906ZM 59.2735 6.0312C 59.2735 6.72913 59.4376 7.29167 59.7657 7.7188C 60.0938 8.14587 60.5286 8.3594 61.0703 8.3594C 61.6224 8.3594 62.0599 8.14323 62.3828 7.7109C 62.7057 7.27863 62.8672 6.67187 62.8672 5.8906C 62.8672 5.20313 62.7031 4.64323 62.375 4.2109C 62.0469 3.77863 61.6068 3.5625 61.0547 3.5625C 60.5234 3.5625 60.0938 3.77343 59.7657 4.1953C 59.4376 4.61717 59.2735 5.22913 59.2735 6.0312ZM 69.2266 9.125C 69.1641 9 69.112 8.77603 69.0703 8.4531C 68.5703 8.98437 67.9714 9.25 67.2735 9.25C 66.6485 9.25 66.1355 9.07293 65.7344 8.7188C 65.3333 8.3646 65.1328 7.91147 65.1328 7.3594C 65.1328 6.70313 65.3828 6.1927 65.8828 5.8281C 66.3828 5.4635 67.0911 5.2812 68.0078 5.2812L 69.0547 5.2812L 69.0547 4.7812C 69.0547 4.40627 68.9427 4.1068 68.7188 3.8828C 68.4948 3.65887 68.1589 3.5469 67.711 3.5469C 67.3255 3.5469 67.0026 3.64323 66.7422 3.8359C 66.4818 4.02863 66.3516 4.26563 66.3516 4.5469L 65.2578 4.5469C 65.2578 4.22397 65.3698 3.91667 65.5938 3.625C 65.8177 3.33333 66.1224 3.10157 66.5078 2.9297C 66.8933 2.75783 67.3152 2.6719 67.7735 2.6719C 68.513 2.6719 69.0885 2.8542 69.5 3.2188C 69.9115 3.58333 70.1276 4.08333 70.1485 4.7188L 70.1485 7.6406C 70.1485 8.22393 70.2214 8.68747 70.3672 9.0312L 70.3672 9.125L 69.2266 9.125ZM 67.4297 8.2969C 67.7734 8.2969 68.0964 8.20833 68.3985 8.0312C 68.7006 7.85413 68.9193 7.625 69.0547 7.3438L 69.0547 6.0469L 68.211 6.0469C 66.8777 6.0469 66.211 6.43753 66.211 7.2188C 66.211 7.55213 66.3256 7.81513 66.5547 8.0078C 66.7839 8.20053 67.0756 8.2969 67.4297 8.2969ZM 73.3164 1.25L 73.3164 2.7812L 74.4883 2.7812L 74.4883 3.625L 73.3164 3.625L 73.3164 7.5469C 73.3164 7.8073 73.3685 8 73.4727 8.125C 73.5768 8.25 73.7539 8.3125 74.0039 8.3125C 74.1289 8.3125 74.3008 8.29167 74.5196 8.25L 74.5196 9.125C 74.2383 9.20833 73.9623 9.25 73.6914 9.25C 73.2123 9.25 72.8477 9.10157 72.5977 8.8047C 72.3477 8.50783 72.2227 8.08857 72.2227 7.5469L 72.2227 3.625L 71.0664 3.625L 71.0664 2.7812L 72.2227 2.7812L 72.2227 1.25L 73.3164 1.25Z"/>
<path id="path10_stroke" d="M 1.2207e-05 -0.500015L -0.499988 -0.500015L -0.499988 0.499985L 1.2207e-05 0.499985L 1.2207e-05 -0.500015ZM 121 0.499985L 121.5 0.499985L 121.5 -0.500015L 121 -0.500015L 121 0.499985ZM 1.2207e-05 0.499985L 121 0.499985L 121 -0.500015L 1.2207e-05 -0.500015L 1.2207e-05 0.499985Z"/>
<path id="path11_stroke" d="M 1.2207e-05 -0.499998L -0.499988 -0.499998L -0.499988 0.500002L 1.2207e-05 0.500002L 1.2207e-05 -0.499998ZM 121 0.500002L 121.5 0.500002L 121.5 -0.499998L 121 -0.499998L 121 0.500002ZM 1.2207e-05 0.500002L 121 0.500002L 121 -0.499998L 1.2207e-05 -0.499998L 1.2207e-05 0.500002Z"/>
<path id="path12_fill" d="M 2.56538e-08 9L 2.56538e-08 0.4688L 2.625 0.4688C 3.375 0.4688 4.04427 0.638066 4.6328 0.9766C 5.22133 1.31513 5.68227 1.7943 6.0156 2.4141C 6.34893 3.0339 6.5156 3.74483 6.5156 4.5469L 6.5156 4.9375C 6.5156 5.72917 6.35417 6.4323 6.0313 7.0469C 5.70837 7.6615 5.25003 8.14067 4.6563 8.4844C 4.0625 8.82813 3.3906 9 2.6406 9L 2.56538e-08 9ZM 1.75 1.8906L 1.75 7.5938L 2.6094 7.5938C 3.29687 7.5938 3.8203 7.36723 4.1797 6.9141C 4.5391 6.46097 4.724 5.81773 4.7344 4.9844L 4.7344 4.5312C 4.7344 3.66667 4.5547 3.01043 4.1953 2.5625C 3.83597 2.11457 3.31253 1.8906 2.625 1.8906L 1.75 1.8906ZM 10.0489 6.6094L 11.2207 2.6562L 13.0332 2.6562L 10.4864 9.9844L 10.3457 10.3125C 9.9707 11.1458 9.3457 11.5625 8.4707 11.5625C 8.23117 11.5625 7.98117 11.526 7.7207 11.4531L 7.7207 10.1719L 7.9864 10.1719C 8.30927 10.1719 8.54883 10.1224 8.7051 10.0234C 8.86137 9.92447 8.98637 9.76563 9.0801 9.5469L 9.2676 9.0156L 7.0489 2.6562L 8.877 2.6562L 10.0489 6.6094ZM 17.3848 9C 17.3015 8.84373 17.2442 8.65623 17.2129 8.4375C 16.8066 8.89583 16.2754 9.125 15.6192 9.125C 14.9942 9.125 14.4786 8.9427 14.0723 8.5781C 13.666 8.2135 13.4629 7.7604 13.4629 7.2188C 13.4629 6.54167 13.7103 6.02343 14.2051 5.6641C 14.6999 5.3047 15.4213 5.125 16.3692 5.125L 17.1348 5.125L 17.1348 4.7656C 17.1348 4.47393 17.0619 4.23957 16.916 4.0625C 16.7702 3.88543 16.5306 3.7969 16.1973 3.7969C 15.916 3.7969 15.6947 3.8646 15.5332 4C 15.3717 4.1354 15.291 4.3229 15.291 4.5625L 13.6035 4.5625C 13.6035 4.1979 13.7155 3.85937 13.9395 3.5469C 14.1634 3.23437 14.4837 2.98957 14.9004 2.8125C 15.3171 2.63543 15.7806 2.5469 16.291 2.5469C 17.0723 2.5469 17.6921 2.7422 18.1504 3.1328C 18.6087 3.52347 18.8379 4.07293 18.8379 4.7812L 18.8379 7.5312C 18.8483 8.1354 18.9316 8.59373 19.0879 8.9062L 19.0879 9L 17.3848 9ZM 15.9785 7.8281C 16.2285 7.8281 16.4603 7.7708 16.6739 7.6562C 16.8874 7.54167 17.0411 7.39063 17.1348 7.2031L 17.1348 6.1094L 16.5098 6.1094C 15.6661 6.1094 15.2129 6.40627 15.1504 7L 15.1504 7.0938C 15.1504 7.30207 15.2233 7.47653 15.3692 7.6172C 15.515 7.7578 15.7181 7.8281 15.9785 7.8281ZM 21.7246 2.6562L 21.7871 3.375C 22.235 2.82293 22.8392 2.5469 23.5996 2.5469C 24.4225 2.5469 24.985 2.8698 25.2871 3.5156C 25.735 2.8698 26.3705 2.5469 27.1934 2.5469C 27.8809 2.5469 28.3913 2.7474 28.7246 3.1484C 29.0579 3.54947 29.2246 4.15103 29.2246 4.9531L 29.2246 9L 27.5371 9L 27.5371 4.9531C 27.5371 4.59897 27.4668 4.33857 27.3262 4.1719C 27.1856 4.00523 26.933 3.9219 26.5684 3.9219C 26.0684 3.9219 25.7194 4.16147 25.5215 4.6406L 25.5215 9L 23.834 9L 23.834 4.9688C 23.834 4.59373 23.7611 4.3255 23.6153 4.1641C 23.4694 4.00263 23.2246 3.9219 22.8809 3.9219C 22.4017 3.9219 22.0527 4.1198 21.834 4.5156L 21.834 9L 20.1465 9L 20.1465 2.6562L 21.7246 2.6562ZM 32.3164 9L 30.6133 9L 30.6133 2.6562L 32.3164 2.6562L 32.3164 9ZM 30.5196 1.0156C 30.5196 0.7656 30.6055 0.557267 30.7774 0.3906C 30.9493 0.223934 31.181 0.1406 31.4727 0.1406C 31.754 0.1406 31.9805 0.223934 32.1524 0.3906C 32.3243 0.557267 32.4102 0.7656 32.4102 1.0156C 32.4102 1.276 32.3243 1.48693 32.1524 1.6484C 31.9805 1.80987 31.7514 1.8906 31.4649 1.8906C 31.1784 1.8906 30.9493 1.80987 30.7774 1.6484C 30.6055 1.48693 30.5196 1.276 30.5196 1.0156ZM 36.1231 4.5469L 37.1856 2.6562L 38.9981 2.6562L 37.2012 5.7656L 39.0762 9L 37.2637 9L 36.1387 7L 35.0137 9L 33.1856 9L 35.0606 5.7656L 33.2637 2.6562L 35.0762 2.6562L 36.1231 4.5469ZM 42.7285 9.125C 41.8014 9.125 41.0462 8.83853 40.4629 8.2656C 39.8796 7.69267 39.5879 6.93227 39.5879 5.9844L 39.5879 5.8125C 39.5879 5.1771 39.7103 4.6094 39.9551 4.1094C 40.1999 3.6094 40.5489 3.22397 41.002 2.9531C 41.4551 2.6823 41.9681 2.5469 42.541 2.5469C 43.416 2.5469 44.1009 2.82033 44.5957 3.3672C 45.0905 3.91407 45.3379 4.6875 45.3379 5.6875L 45.3379 6.375L 41.3067 6.375C 41.3588 6.79167 41.5228 7.125 41.7989 7.375C 42.0749 7.625 42.4264 7.75 42.8535 7.75C 43.4994 7.75 44.0046 7.51563 44.3692 7.0469L 45.2129 7.9688C 44.9525 8.33333 44.6062 8.61717 44.1739 8.8203C 43.7416 9.02343 43.2598 9.125 42.7285 9.125ZM 42.541 3.9062C 42.2077 3.9062 41.9368 4.0208 41.7285 4.25C 41.5202 4.4792 41.3848 4.80213 41.3223 5.2188L 43.6817 5.2188L 43.6817 5.0938C 43.6712 4.71873 43.5697 4.42707 43.377 4.2188C 43.1843 4.0104 42.9056 3.9062 42.541 3.9062ZM 48.0899 9L 46.3867 9L 46.3867 0L 48.0899 0L 48.0899 9ZM 55.2559 9L 49.4121 9L 49.4121 7.8438L 52.1778 4.8906C 52.5528 4.48433 52.8314 4.12497 53.0137 3.8125C 53.196 3.50003 53.2871 3.20837 53.2871 2.9375C 53.2871 2.5521 53.1908 2.25263 52.9981 2.0391C 52.8054 1.82557 52.5319 1.7188 52.1778 1.7188C 51.7923 1.7188 51.4902 1.849 51.2715 2.1094C 51.0528 2.3698 50.9434 2.71873 50.9434 3.1562L 49.2403 3.1562C 49.2403 2.6354 49.3653 2.15887 49.6153 1.7266C 49.8653 1.29427 50.2168 0.9557 50.6699 0.7109C 51.123 0.466167 51.6361 0.3438 52.209 0.3438C 53.084 0.3438 53.7663 0.554733 54.2559 0.9766C 54.7455 1.39847 54.9903 1.9948 54.9903 2.7656C 54.9903 3.19267 54.8809 3.62497 54.6621 4.0625C 54.4434 4.50003 54.0684 5.01047 53.5371 5.5938L 51.5996 7.6406L 55.2559 7.6406L 55.2559 9ZM 61.2969 7.2344L 58.2188 7.2344L 57.625 9L 55.7656 9L 58.9375 0.4688L 60.5625 0.4688L 63.7656 9L 61.8906 9L 61.2969 7.2344ZM 58.6875 5.8125L 60.8282 5.8125L 59.75 2.625L 58.6875 5.8125ZM 67.0742 7.75C 67.3867 7.75 67.642 7.66407 67.8399 7.4922C 68.0378 7.32033 68.1419 7.09377 68.1524 6.8125L 69.7305 6.8125C 69.7305 7.23957 69.6159 7.6328 69.3867 7.9922C 69.1576 8.35153 68.8425 8.63017 68.4414 8.8281C 68.0404 9.02603 67.5951 9.125 67.1055 9.125C 66.1992 9.125 65.4857 8.83593 64.9649 8.2578C 64.444 7.67967 64.1836 6.8802 64.1836 5.8594L 64.1836 5.75C 64.1836 4.7708 64.444 3.99217 64.9649 3.4141C 65.4857 2.83597 66.1992 2.5469 67.1055 2.5469C 67.8972 2.5469 68.5326 2.77087 69.0117 3.2188C 69.4909 3.66667 69.7305 4.2656 69.7305 5.0156L 68.1524 5.0156C 68.1419 4.69267 68.0378 4.42707 67.8399 4.2188C 67.642 4.0104 67.3867 3.9062 67.0742 3.9062C 66.6784 3.9062 66.3789 4.05207 66.1758 4.3438C 65.9727 4.6354 65.8711 5.09893 65.8711 5.7344L 65.8711 5.9219C 65.8711 6.5677 65.9701 7.03383 66.168 7.3203C 66.3659 7.60677 66.668 7.75 67.0742 7.75ZM 72.7227 1.0938L 72.7227 2.6562L 73.8164 2.6562L 73.8164 3.9062L 72.7227 3.9062L 72.7227 7.0625C 72.7227 7.3021 72.7696 7.47137 72.8633 7.5703C 72.957 7.6693 73.1289 7.7188 73.3789 7.7188C 73.5664 7.7188 73.7331 7.70837 73.8789 7.6875L 73.8789 8.9688C 73.5456 9.07293 73.2018 9.125 72.8477 9.125C 71.6602 9.125 71.056 8.52083 71.0352 7.3125L 71.0352 3.9062L 70.1133 3.9062L 70.1133 2.6562L 71.0352 2.6562L 71.0352 1.0938L 72.7227 1.0938ZM 78.5586 8.3594C 78.1419 8.8698 77.5638 9.125 76.8242 9.125C 76.1367 9.125 75.6159 8.92707 75.2617 8.5312C 74.9076 8.1354 74.7253 7.5625 74.7149 6.8125L 74.7149 2.6562L 76.4024 2.6562L 76.4024 6.75C 76.4024 7.41667 76.7045 7.75 77.3086 7.75C 77.8815 7.75 78.2774 7.54687 78.4961 7.1406L 78.4961 2.6562L 80.1992 2.6562L 80.1992 9L 78.6055 9L 78.5586 8.3594ZM 85.1485 9C 85.0652 8.84373 85.0079 8.65623 84.9766 8.4375C 84.5703 8.89583 84.0391 9.125 83.3828 9.125C 82.7578 9.125 82.2422 8.9427 81.836 8.5781C 81.4297 8.2135 81.2266 7.7604 81.2266 7.2188C 81.2266 6.54167 81.474 6.02343 81.9688 5.6641C 82.4636 5.3047 83.1849 5.125 84.1328 5.125L 84.8985 5.125L 84.8985 4.7656C 84.8985 4.47393 84.8256 4.23957 84.6797 4.0625C 84.5339 3.88543 84.2943 3.7969 83.961 3.7969C 83.6797 3.7969 83.4584 3.8646 83.2969 4C 83.1354 4.1354 83.0547 4.3229 83.0547 4.5625L 81.3672 4.5625C 81.3672 4.1979 81.4792 3.85937 81.7032 3.5469C 81.9271 3.23437 82.2474 2.98957 82.6641 2.8125C 83.0808 2.63543 83.5443 2.5469 84.0547 2.5469C 84.836 2.5469 85.4558 2.7422 85.9141 3.1328C 86.3724 3.52347 86.6016 4.07293 86.6016 4.7812L 86.6016 7.5312C 86.612 8.1354 86.6953 8.59373 86.8516 8.9062L 86.8516 9L 85.1485 9ZM 83.7422 7.8281C 83.9922 7.8281 84.224 7.7708 84.4375 7.6562C 84.651 7.54167 84.8047 7.39063 84.8985 7.2031L 84.8985 6.1094L 84.2735 6.1094C 83.4297 6.1094 82.9766 6.40627 82.9141 7L 82.9141 7.0938C 82.9141 7.30207 82.987 7.47653 83.1328 7.6172C 83.2787 7.7578 83.4818 7.8281 83.7422 7.8281ZM 89.9258 1.0938L 89.9258 2.6562L 91.0196 2.6562L 91.0196 3.9062L 89.9258 3.9062L 89.9258 7.0625C 89.9258 7.3021 89.9727 7.47137 90.0664 7.5703C 90.1602 7.6693 90.3321 7.7188 90.5821 7.7188C 90.7696 7.7188 90.9362 7.70837 91.0821 7.6875L 91.0821 8.9688C 90.7488 9.07293 90.405 9.125 90.0508 9.125C 88.8633 9.125 88.2592 8.52083 88.2383 7.3125L 88.2383 3.9062L 87.3164 3.9062L 87.3164 2.6562L 88.2383 2.6562L 88.2383 1.0938L 89.9258 1.0938ZM 91.6992 5.7656C 91.6992 5.1406 91.819 4.5807 92.0586 4.0859C 92.2982 3.59117 92.6472 3.21097 93.1055 2.9453C 93.5638 2.6797 94.0899 2.5469 94.6836 2.5469C 95.5482 2.5469 96.2487 2.8073 96.7852 3.3281C 97.3217 3.84897 97.6211 4.5573 97.6836 5.4531L 97.6992 5.8906C 97.6992 6.8698 97.4284 7.65367 96.8867 8.2422C 96.345 8.83073 95.6159 9.125 94.6992 9.125C 93.7825 9.125 93.0534 8.83073 92.5117 8.2422C 91.97 7.65367 91.6992 6.8542 91.6992 5.8438L 91.6992 5.7656ZM 93.3867 5.8906C 93.3867 6.4948 93.5013 6.95573 93.7305 7.2734C 93.9596 7.59113 94.2825 7.75 94.6992 7.75C 95.1159 7.75 95.4388 7.59373 95.668 7.2812C 95.8971 6.96873 96.0117 6.46353 96.0117 5.7656C 96.0117 5.18227 95.8971 4.72653 95.668 4.3984C 95.4388 4.07027 95.1107 3.9062 94.6836 3.9062C 94.2773 3.9062 93.9596 4.06767 93.7305 4.3906C 93.5013 4.71353 93.3867 5.21353 93.3867 5.8906ZM 102.312 4.25C 102.083 4.21873 101.88 4.2031 101.703 4.2031C 101.057 4.2031 100.635 4.41667 100.438 4.8438L 100.438 9L 98.75 9L 98.75 2.6562L 100.344 2.6562L 100.391 3.4219C 100.734 2.83857 101.203 2.5469 101.797 2.5469C 101.984 2.5469 102.162 2.57293 102.328 2.625L 102.312 4.25Z"/>
<path id="path13_stroke" d="M 0.500014 -0.00261449L 0.497408 -0.502608L -0.502579 -0.497395L -0.499972 0.00259837L 0.500014 -0.00261449ZM -0.405673 18.0921L -0.403066 18.5921L 0.59692 18.5869L 0.594314 18.0869L -0.405673 18.0921ZM -0.499972 0.00259837L -0.405673 18.0921L 0.594314 18.0869L 0.500014 -0.00261449L -0.499972 0.00259837Z"/>
<path id="path14_fill" d="M 7 0L 0 11L 13 11L 7 0Z"/>
<path id="path15_stroke" d="M 7 0L 7.43895 -0.239426L 7.03314 -0.983399L 6.57817 -0.268438L 7 0ZM 0 11L -0.421831 10.7316L -0.910837 11.5L 0 11.5L 0 11ZM 13 11L 13 11.5L 13.8423 11.5L 13.4389 10.7606L 13 11ZM 6.57817 -0.268438L -0.421831 10.7316L 0.421831 11.2684L 7.42183 0.268438L 6.57817 -0.268438ZM 0 11.5L 13 11.5L 13 10.5L 0 10.5L 0 11.5ZM 13.4389 10.7606L 7.43895 -0.239426L 6.56105 0.239426L 12.5611 11.2394L 13.4389 10.7606Z"/>
</defs>
</svg>
