<svg width="335" height="302" viewBox="0 0 335 302" version="1.1" xmlns="http://www.w3.org/2000/svg" xmlns:xlink="http://www.w3.org/1999/xlink">
<title>velocities-diagram</title>
<desc>Created using Figma</desc>
<g id="Canvas" transform="translate(-813 438)">
<clipPath id="clip-0" clip-rule="evenodd">
<path d="M 813 -438L 1148 -438L 1148 -136L 813 -136L 813 -438Z" fill="#FFFFFF"/>
</clipPath>
<g id="velocities-diagram" clip-path="url(#clip-0)">
<path d="M 813 -438L 1148 -438L 1148 -136L 813 -136L 813 -438Z" fill="#FFFFFF"/>
<g id="Group">
<g id="Rectangle">
<use xlink:href="#path0_fill" transform="translate(836 -319)" fill="#9ADDF2"/>
</g>
<g id="Rectangle (Stroke)">
<use xlink:href="#path1_fill" transform="translate(834 -321)"/>
</g>
<g id="P&#195;&#169; Esq.">
<use xlink:href="#path2_fill" transform="translate(845 -302)"/>
</g>
</g>
<g id="Group">
<g id="Rectangle">
<use xlink:href="#path0_fill" transform="translate(990 -213)" fill="#9ADDF2"/>
</g>
<g id="Rectangle (Stroke)">
<use xlink:href="#path1_fill" transform="translate(988 -215)"/>
</g>
<g id="P&#195;&#169; Dir.">
<use xlink:href="#path3_fill" transform="translate(1001 -196)"/>
</g>
</g>
<g id="Rectangle 2">
<use xlink:href="#path4_fill" transform="translate(1088 -181)" fill="#9ADDF2"/>
</g>
<g id="Rectangle 2 (Stroke)">
<use xlink:href="#path5_fill" transform="translate(1086 -183)"/>
</g>
<g id="t = 0">
<use xlink:href="#path6_fill" transform="translate(1108 -182)"/>
</g>
<g id="Rectangle 2">
<use xlink:href="#path4_fill" transform="translate(1088 -160)" fill="#C4C4C4"/>
</g>
<g id="Rectangle 2 (Stroke)">
<use xlink:href="#path7_fill" transform="translate(1086 -162)"/>
</g>
<g id="t = &#207;&#128;/2">
<use xlink:href="#path8_fill" transform="translate(1108 -162)"/>
</g>
<g id="Group">
<g id="Rectangle">
<use xlink:href="#path0_fill" transform="matrix(0.965926 0.258819 -0.258819 0.965926 1045 -435)" fill="#C4C4C4"/>
</g>
<g id="Rectangle (Stroke)">
<use xlink:href="#path9_fill" transform="matrix(0.965926 0.258819 -0.258819 0.965926 1043.59 -437.449)"/>
</g>
<g id="P&#195;&#169; Dir.">
<use xlink:href="#path3_fill" transform="matrix(0.965926 0.258819 -0.258819 0.965926 1051 -415)"/>
</g>
</g>
<g id="Rectangle">
<g id="Rectangle">
<use xlink:href="#path10_fill" transform="translate(891 -261)" fill="#9ADDF2"/>
</g>
<g id="Rectangle (Stroke)">
<use xlink:href="#path11_fill" transform="translate(889 -263)"/>
</g>
<g id="Torso">
<use xlink:href="#path12_fill" transform="translate(920 -227)"/>
</g>
</g>
<g id="Rectangle">
<g id="Rectangle">
<use xlink:href="#path10_fill" transform="matrix(0.965926 0.258819 -0.258819 0.965926 930 -378.529)" fill="#C4C4C4"/>
</g>
<g id="Rectangle (Stroke)">
<use xlink:href="#path13_fill" transform="matrix(0.965926 0.258819 -0.258819 0.965926 928.586 -380.979)"/>
</g>
<g id="Torso">
<use xlink:href="#path12_fill" transform="matrix(0.965926 0.258819 -0.258819 0.965926 949.212 -338.182)"/>
</g>
</g>
<g id="Line">
<use xlink:href="#path14_stroke" transform="matrix(1 -2.62903e-24 2.71545e-24 1 982.856 -229.161)"/>
</g>
<g id="Line">
<use xlink:href="#path15_stroke" transform="matrix(1 -2.62903e-24 2.71545e-24 1 1014.36 -337.657)"/>
</g>
<g id="Line">
<use xlink:href="#path16_stroke" transform="matrix(6.12323e-17 1 -1 6.12323e-17 936.5 -300)"/>
</g>
<g id="Line">
<use xlink:href="#path17_stroke" transform="matrix(6.12323e-17 1 -1 6.12323e-17 984.5 -408)"/>
</g>
<g id="Line">
<use xlink:href="#path16_stroke" transform="matrix(2.77556e-17 -1 1 2.77556e-17 965 -271)"/>
</g>
<g id="Line 3">
<use xlink:href="#path18_stroke" transform="translate(937.5 -278.5)" fill="#2D9CDB"/>
</g>
<g id="Vy">
<use xlink:href="#path19_fill" transform="translate(946 -293)"/>
</g>
<g id="Vx">
<use xlink:href="#path20_fill" transform="translate(1038 -293)"/>
</g>
<g id="V&#206;&#184;">
<use xlink:href="#path21_fill" transform="translate(968 -413)"/>
</g>
<g id="Arrow 2">
<use xlink:href="#path22_stroke" transform="matrix(6.12323e-17 1 -1 6.12323e-17 1035 -337)" fill="#2D9CDB"/>
</g>
<g id="Ellipse 3">
<use xlink:href="#path23_stroke" transform="translate(965.736 -396.995)" fill="#2D9CDB"/>
</g>
<g id="Axis">
<g id="x">
<use xlink:href="#path24_fill" transform="translate(823 -194)"/>
</g>
<g id="y">
<use xlink:href="#path25_fill" transform="translate(866.06 -150.931)"/>
</g>
<g id="z">
<use xlink:href="#path26_fill" transform="translate(816.06 -150.931)"/>
</g>
<g id="Arrow">
<use xlink:href="#path27_stroke" transform="matrix(-4.37114e-08 -1 1 -4.37114e-08 827 -144.278)"/>
</g>
<g id="Ellipse 2">
<use xlink:href="#path28_fill" transform="translate(824 -147.5)"/>
</g>
</g>
<g id="Frente do rob&#195;&#180;">
<use xlink:href="#path29_fill" transform="translate(904 -438)"/>
</g>
<g id="Costas do rob&#195;&#180;">
<use xlink:href="#path30_fill" transform="translate(902 -148)"/>
</g>
<g id="Direita">
<use xlink:href="#path31_fill" transform="matrix(6.12323e-17 -1 1 6.12323e-17 1061.5 -218)"/>
</g>
<g id="Esquerda">
<use xlink:href="#path32_fill" transform="matrix(6.12323e-17 -1 1 6.12323e-17 812.5 -212)"/>
</g>
</g>
</g>
<defs>
<path id="path0_fill" d="M 0 0L 40 0L 40 64L 0 64L 0 0Z"/>
<path id="path1_fill" fill-rule="evenodd" d="M 0 0L 2 0L 42 0L 44 0L 44 2L 44 66L 44 68L 42 68L 2 68L 0 68L 0 66L 0 2L 0 0ZM 4 2L 2 2L 2 4L 2 64L 2 66L 4 66L 40 66L 42 66L 42 64L 42 4L 42 2L 40 2L 4 2Z"/>
<path id="path2_fill" d="M 6.68945 7.66016L 6.68945 11L 5.56445 11L 5.56445 2.46875L 8.71094 2.46875C 9.64453 2.46875 10.375 2.70703 10.9023 3.18359C 11.4336 3.66016 11.6992 4.29102 11.6992 5.07617C 11.6992 5.9043 11.4395 6.54297 10.9199 6.99219C 10.4043 7.4375 9.66406 7.66016 8.69922 7.66016L 6.68945 7.66016ZM 6.68945 6.74023L 8.71094 6.74023C 9.3125 6.74023 9.77344 6.59961 10.0938 6.31836C 10.4141 6.0332 10.5742 5.62305 10.5742 5.08789C 10.5742 4.58008 10.4141 4.17383 10.0938 3.86914C 9.77344 3.56445 9.33398 3.40625 8.77539 3.39453L 6.68945 3.39453L 6.68945 6.74023ZM 15.5137 11.1172C 14.6543 11.1172 13.9551 10.8359 13.416 10.2734C 12.877 9.70703 12.6074 8.95117 12.6074 8.00586L 12.6074 7.80664C 12.6074 7.17773 12.7266 6.61719 12.9648 6.125C 13.207 5.62891 13.543 5.24219 13.9727 4.96484C 14.4062 4.68359 14.875 4.54297 15.3789 4.54297C 16.2031 4.54297 16.8438 4.81445 17.3008 5.35742C 17.7578 5.90039 17.9863 6.67773 17.9863 7.68945L 17.9863 8.14062L 13.6914 8.14062C 13.707 8.76562 13.8887 9.27148 14.2363 9.6582C 14.5879 10.041 15.0332 10.2324 15.5723 10.2324C 15.9551 10.2324 16.2793 10.1543 16.5449 9.99805C 16.8105 9.8418 17.043 9.63477 17.2422 9.37695L 17.9043 9.89258C 17.373 10.709 16.5762 11.1172 15.5137 11.1172ZM 15.3789 5.43359C 14.9414 5.43359 14.5742 5.59375 14.2773 5.91406C 13.9805 6.23047 13.7969 6.67578 13.7266 7.25L 16.9023 7.25L 16.9023 7.16797C 16.8711 6.61719 16.7227 6.19141 16.457 5.89062C 16.1914 5.58594 15.832 5.43359 15.3789 5.43359ZM 15.9062 2.01172L 17.2188 2.01172L 15.6484 3.73438L 14.7754 3.73438L 15.9062 2.01172ZM 5.81641 21.0566L 2.11914 21.0566L 2.11914 24.0801L 6.41406 24.0801L 6.41406 25L 0.994141 25L 0.994141 16.4688L 6.35547 16.4688L 6.35547 17.3945L 2.11914 17.3945L 2.11914 20.1367L 5.81641 20.1367L 5.81641 21.0566ZM 11.3359 23.3184C 11.3359 23.0254 11.2246 22.7988 11.002 22.6387C 10.7832 22.4746 10.3984 22.334 9.84766 22.2168C 9.30078 22.0996 8.86523 21.959 8.54102 21.7949C 8.2207 21.6309 7.98242 21.4355 7.82617 21.209C 7.67383 20.9824 7.59766 20.7129 7.59766 20.4004C 7.59766 19.8809 7.81641 19.4414 8.25391 19.082C 8.69531 18.7227 9.25781 18.543 9.94141 18.543C 10.6602 18.543 11.2422 18.7285 11.6875 19.0996C 12.1367 19.4707 12.3613 19.9453 12.3613 20.5234L 11.2715 20.5234C 11.2715 20.2266 11.1445 19.9707 10.8906 19.7559C 10.6406 19.541 10.3242 19.4336 9.94141 19.4336C 9.54687 19.4336 9.23828 19.5195 9.01562 19.6914C 8.79297 19.8633 8.68164 20.0879 8.68164 20.3652C 8.68164 20.627 8.78516 20.8242 8.99219 20.957C 9.19922 21.0898 9.57227 21.2168 10.1113 21.3379C 10.6543 21.459 11.0938 21.6035 11.4297 21.7715C 11.7656 21.9395 12.0137 22.1426 12.1738 22.3809C 12.3379 22.6152 12.4199 22.9023 12.4199 23.2422C 12.4199 23.8086 12.1934 24.2637 11.7402 24.6074C 11.2871 24.9473 10.6992 25.1172 9.97656 25.1172C 9.46875 25.1172 9.01953 25.0273 8.62891 24.8477C 8.23828 24.668 7.93164 24.418 7.70898 24.0977C 7.49023 23.7734 7.38086 23.4238 7.38086 23.0488L 8.46484 23.0488C 8.48438 23.4121 8.62891 23.7012 8.89844 23.916C 9.17187 24.127 9.53125 24.2324 9.97656 24.2324C 10.3867 24.2324 10.7148 24.1504 10.9609 23.9863C 11.2109 23.8184 11.3359 23.5957 11.3359 23.3184ZM 13.5684 21.7773C 13.5684 20.7812 13.7969 19.9941 14.2539 19.416C 14.7109 18.834 15.3242 18.543 16.0938 18.543C 16.8438 18.543 17.4355 18.7949 17.8691 19.2988L 17.916 18.6602L 18.9121 18.6602L 18.9121 27.4375L 17.8281 27.4375L 17.8281 24.4141C 17.3906 24.8828 16.8086 25.1172 16.082 25.1172C 15.3164 25.1172 14.7051 24.8203 14.248 24.2266C 13.7949 23.6289 13.5684 22.8379 13.5684 21.8535L 13.5684 21.7773ZM 14.6523 21.9004C 14.6523 22.627 14.8047 23.1973 15.1094 23.6113C 15.418 24.0254 15.832 24.2324 16.3516 24.2324C 16.9961 24.2324 17.4883 23.9473 17.8281 23.377L 17.8281 20.2715C 17.4844 19.7129 16.9961 19.4336 16.3633 19.4336C 15.8398 19.4336 15.4238 19.6426 15.1152 20.0605C 14.8066 20.4746 14.6523 21.0879 14.6523 21.9004ZM 20.6758 24.4316C 20.6758 24.2441 20.7305 24.0879 20.8398 23.9629C 20.9531 23.8379 21.1211 23.7754 21.3438 23.7754C 21.5664 23.7754 21.7344 23.8379 21.8477 23.9629C 21.9648 24.0879 22.0234 24.2441 22.0234 24.4316C 22.0234 24.6113 21.9648 24.7617 21.8477 24.8828C 21.7344 25.0039 21.5664 25.0645 21.3438 25.0645C 21.1211 25.0645 20.9531 25.0039 20.8398 24.8828C 20.7305 24.7617 20.6758 24.6113 20.6758 24.4316Z"/>
<path id="path3_fill" d="M 4.18945 7.66016L 4.18945 11L 3.06445 11L 3.06445 2.46875L 6.21094 2.46875C 7.14453 2.46875 7.875 2.70703 8.40234 3.18359C 8.93359 3.66016 9.19922 4.29102 9.19922 5.07617C 9.19922 5.9043 8.93945 6.54297 8.41992 6.99219C 7.9043 7.4375 7.16406 7.66016 6.19922 7.66016L 4.18945 7.66016ZM 4.18945 6.74023L 6.21094 6.74023C 6.8125 6.74023 7.27344 6.59961 7.59375 6.31836C 7.91406 6.0332 8.07422 5.62305 8.07422 5.08789C 8.07422 4.58008 7.91406 4.17383 7.59375 3.86914C 7.27344 3.56445 6.83398 3.40625 6.27539 3.39453L 4.18945 3.39453L 4.18945 6.74023ZM 13.0137 11.1172C 12.1543 11.1172 11.4551 10.8359 10.916 10.2734C 10.377 9.70703 10.1074 8.95117 10.1074 8.00586L 10.1074 7.80664C 10.1074 7.17773 10.2266 6.61719 10.4648 6.125C 10.707 5.62891 11.043 5.24219 11.4727 4.96484C 11.9062 4.68359 12.375 4.54297 12.8789 4.54297C 13.7031 4.54297 14.3438 4.81445 14.8008 5.35742C 15.2578 5.90039 15.4863 6.67773 15.4863 7.68945L 15.4863 8.14062L 11.1914 8.14062C 11.207 8.76562 11.3887 9.27148 11.7363 9.6582C 12.0879 10.041 12.5332 10.2324 13.0723 10.2324C 13.4551 10.2324 13.7793 10.1543 14.0449 9.99805C 14.3105 9.8418 14.543 9.63477 14.7422 9.37695L 15.4043 9.89258C 14.873 10.709 14.0762 11.1172 13.0137 11.1172ZM 12.8789 5.43359C 12.4414 5.43359 12.0742 5.59375 11.7773 5.91406C 11.4805 6.23047 11.2969 6.67578 11.2266 7.25L 14.4023 7.25L 14.4023 7.16797C 14.3711 6.61719 14.2227 6.19141 13.957 5.89062C 13.6914 5.58594 13.332 5.43359 12.8789 5.43359ZM 13.4062 2.01172L 14.7188 2.01172L 13.1484 3.73438L 12.2754 3.73438L 13.4062 2.01172ZM 1.3418 25L 1.3418 16.4688L 3.75 16.4688C 4.49219 16.4688 5.14844 16.6328 5.71875 16.9609C 6.28906 17.2891 6.72852 17.7559 7.03711 18.3613C 7.34961 18.9668 7.50781 19.6621 7.51172 20.4473L 7.51172 20.9922C 7.51172 21.7969 7.35547 22.502 7.04297 23.1074C 6.73438 23.7129 6.29102 24.1777 5.71289 24.502C 5.13867 24.8262 4.46875 24.9922 3.70312 25L 1.3418 25ZM 2.4668 17.3945L 2.4668 24.0801L 3.65039 24.0801C 4.51758 24.0801 5.19141 23.8105 5.67188 23.2715C 6.15625 22.7324 6.39844 21.9648 6.39844 20.9688L 6.39844 20.4707C 6.39844 19.502 6.16992 18.75 5.71289 18.2148C 5.25977 17.6758 4.61523 17.4023 3.7793 17.3945L 2.4668 17.3945ZM 10.2246 25L 9.14062 25L 9.14062 18.6602L 10.2246 18.6602L 10.2246 25ZM 9.05273 16.9785C 9.05273 16.8027 9.10547 16.6543 9.21094 16.5332C 9.32031 16.4121 9.48047 16.3516 9.69141 16.3516C 9.90234 16.3516 10.0625 16.4121 10.1719 16.5332C 10.2812 16.6543 10.3359 16.8027 10.3359 16.9785C 10.3359 17.1543 10.2812 17.3008 10.1719 17.418C 10.0625 17.5352 9.90234 17.5938 9.69141 17.5938C 9.48047 17.5938 9.32031 17.5352 9.21094 17.418C 9.10547 17.3008 9.05273 17.1543 9.05273 16.9785ZM 15.0293 19.6328C 14.8652 19.6055 14.6875 19.5918 14.4961 19.5918C 13.7852 19.5918 13.3027 19.8945 13.0488 20.5L 13.0488 25L 11.9648 25L 11.9648 18.6602L 13.0195 18.6602L 13.0371 19.3926C 13.3926 18.8262 13.8965 18.543 14.5488 18.543C 14.7598 18.543 14.9199 18.5703 15.0293 18.625L 15.0293 19.6328ZM 15.3281 24.4316C 15.3281 24.2441 15.3828 24.0879 15.4922 23.9629C 15.6055 23.8379 15.7734 23.7754 15.9961 23.7754C 16.2188 23.7754 16.3867 23.8379 16.5 23.9629C 16.6172 24.0879 16.6758 24.2441 16.6758 24.4316C 16.6758 24.6113 16.6172 24.7617 16.5 24.8828C 16.3867 25.0039 16.2188 25.0645 15.9961 25.0645C 15.7734 25.0645 15.6055 25.0039 15.4922 24.8828C 15.3828 24.7617 15.3281 24.6113 15.3281 24.4316Z"/>
<path id="path4_fill" d="M 0 0L 11 0L 11 11.0465L 0 11.0465L 0 0Z"/>
<path id="path5_fill" fill-rule="evenodd" d="M 0 0L 2 0L 13 0L 15 0L 15 2L 15 13.0465L 15 15.0465L 13 15.0465L 2 15.0465L 0 15.0465L 0 13.0465L 0 2L 0 0ZM 4 2L 2 2L 2 4L 2 11.0465L 2 13.0465L 4 13.0465L 11 13.0465L 13 13.0465L 13 11.0465L 13 4L 13 2L 11 2L 4 2Z"/>
<path id="path6_fill" d="M 2.98242 3.125L 2.71289 4.66016L 3.86719 4.66016L 3.7207 5.49805L 2.57227 5.49805L 1.91016 9.44141C 1.89844 9.54297 1.89648 9.63672 1.9043 9.72266C 1.93164 10.0273 2.09766 10.1797 2.40234 10.1797C 2.53125 10.1797 2.70313 10.1602 2.91797 10.1211L 2.83594 11.0059C 2.58203 11.0762 2.32422 11.1113 2.0625 11.1113C 1.64062 11.1035 1.32422 10.9492 1.11328 10.6484C 0.902344 10.3438 0.820312 9.93555 0.867188 9.42383L 1.51172 5.49805L 0.392578 5.49805L 0.539062 4.66016L 1.6582 4.66016L 1.92773 3.125L 2.98242 3.125ZM 12.6211 6.23047L 7.73438 6.23047L 7.73438 5.28711L 12.6211 5.28711L 12.6211 6.23047ZM 12.6211 8.66211L 7.73438 8.66211L 7.73438 7.72461L 12.6211 7.72461L 12.6211 8.66211ZM 22.4648 7.36133C 22.4648 8.63086 22.248 9.57422 21.8145 10.1914C 21.3809 10.8086 20.7031 11.1172 19.7812 11.1172C 18.8711 11.1172 18.1973 10.8164 17.7598 10.2148C 17.3223 9.60938 17.0957 8.70703 17.0801 7.50781L 17.0801 6.06055C 17.0801 4.80664 17.2969 3.875 17.7305 3.26562C 18.1641 2.65625 18.8438 2.35156 19.7695 2.35156C 20.6875 2.35156 21.3633 2.64648 21.7969 3.23633C 22.2305 3.82227 22.4531 4.72852 22.4648 5.95508L 22.4648 7.36133ZM 21.3809 5.87891C 21.3809 4.96094 21.252 4.29297 20.9941 3.875C 20.7363 3.45312 20.3281 3.24219 19.7695 3.24219C 19.2148 3.24219 18.8105 3.45117 18.5566 3.86914C 18.3027 4.28711 18.1719 4.92969 18.1641 5.79688L 18.1641 7.53125C 18.1641 8.45313 18.2969 9.13477 18.5625 9.57617C 18.832 10.0137 19.2383 10.2324 19.7812 10.2324C 20.3164 10.2324 20.7129 10.0254 20.9707 9.61133C 21.2324 9.19727 21.3691 8.54492 21.3809 7.6543L 21.3809 5.87891Z"/>
<path id="path7_fill" fill-rule="evenodd" d="M 2 3.38081L 2 3L 2 2L 3 2L 3.375 2L 3.375 1L 3.375 0L 2 0L 0 0L 0 2L 0 3.38081L 1 3.38081L 2 3.38081ZM 2 6.14244L 1 6.14244L 0 6.14244L 0 8.90407L 1 8.90407L 2 8.90407L 2 6.14244ZM 2 11.6657L 1 11.6657L 0 11.6657L 0 13.0465L 0 15.0465L 2 15.0465L 3.375 15.0465L 3.375 14.0465L 3.375 13.0465L 3 13.0465L 2 13.0465L 2 12.0465L 2 11.6657ZM 6.125 13.0465L 6.125 14.0465L 6.125 15.0465L 8.875 15.0465L 8.875 14.0465L 8.875 13.0465L 6.125 13.0465ZM 11.625 13.0465L 11.625 14.0465L 11.625 15.0465L 13 15.0465L 15 15.0465L 15 13.0465L 15 11.6657L 14 11.6657L 13 11.6657L 13 12.0465L 13 13.0465L 12 13.0465L 11.625 13.0465ZM 13 8.90407L 14 8.90407L 15 8.90407L 15 6.14244L 14 6.14244L 13 6.14244L 13 8.90407ZM 13 3.38081L 13 3L 13 2L 12 2L 11.625 2L 11.625 1L 11.625 0L 13 0L 15 0L 15 2L 15 3.38081L 14 3.38081L 13 3.38081ZM 8.875 2L 8.875 1L 8.875 0L 6.125 0L 6.125 1L 6.125 2L 8.875 2Z"/>
<path id="path8_fill" d="M 2.98242 3.125L 2.71289 4.66016L 3.86719 4.66016L 3.7207 5.49805L 2.57227 5.49805L 1.91016 9.44141C 1.89844 9.54297 1.89648 9.63672 1.9043 9.72266C 1.93164 10.0273 2.09766 10.1797 2.40234 10.1797C 2.53125 10.1797 2.70313 10.1602 2.91797 10.1211L 2.83594 11.0059C 2.58203 11.0762 2.32422 11.1113 2.0625 11.1113C 1.64062 11.1035 1.32422 10.9492 1.11328 10.6484C 0.902344 10.3438 0.820312 9.93555 0.867188 9.42383L 1.51172 5.49805L 0.392578 5.49805L 0.539062 4.66016L 1.6582 4.66016L 1.92773 3.125L 2.98242 3.125ZM 12.6211 6.23047L 7.73438 6.23047L 7.73438 5.28711L 12.6211 5.28711L 12.6211 6.23047ZM 12.6211 8.66211L 7.73438 8.66211L 7.73438 7.72461L 12.6211 7.72461L 12.6211 8.66211ZM 23.0684 5.55664L 22.1543 5.55664L 22.1543 9.38867C 22.1543 9.63867 22.207 9.82812 22.3125 9.95703C 22.418 10.082 22.5977 10.1445 22.8516 10.1445C 23.0391 10.1445 23.209 10.1211 23.3613 10.0742L 23.3672 10.959C 23.0938 11.0332 22.8145 11.0703 22.5293 11.0703C 21.5566 11.0703 21.0703 10.4961 21.0703 9.34766L 21.0703 5.55664L 18.7207 5.55664L 18.7207 11L 17.6367 11L 17.6367 5.55664L 16.6465 5.55664L 16.6465 4.66016L 23.0684 4.66016L 23.0684 5.55664ZM 24.5918 11.7324L 23.6602 11.7324L 27.2227 2.46875L 28.1484 2.46875L 24.5918 11.7324ZM 34.7988 11L 29.209 11L 29.209 10.2207L 32.1621 6.93945C 32.5996 6.44336 32.9004 6.04102 33.0645 5.73242C 33.2324 5.41992 33.3164 5.09766 33.3164 4.76562C 33.3164 4.32031 33.1816 3.95508 32.9121 3.66992C 32.6426 3.38477 32.2832 3.24219 31.834 3.24219C 31.2949 3.24219 30.875 3.39648 30.5742 3.70508C 30.2773 4.00977 30.1289 4.43555 30.1289 4.98242L 29.0449 4.98242C 29.0449 4.19727 29.2969 3.5625 29.8008 3.07812C 30.3086 2.59375 30.9863 2.35156 31.834 2.35156C 32.627 2.35156 33.2539 2.56055 33.7148 2.97852C 34.1758 3.39258 34.4062 3.94531 34.4062 4.63672C 34.4062 5.47656 33.8711 6.47656 32.8008 7.63672L 30.5156 10.1152L 34.7988 10.1152L 34.7988 11Z"/>
<path id="path9_fill" fill-rule="evenodd" d="M 2 4.66667L 1 4.66667L 0 4.66667L 0 2L 0 0L 2 0L 4.5 0L 4.5 1L 4.5 2L 4 2L 3 2L 2 2L 2 3L 2 4L 2 4.66667ZM 9.5 2L 9.5 1L 9.5 0L 14.5 0L 14.5 1L 14.5 2L 9.5 2ZM 19.5 2L 19.5 1L 19.5 0L 24.5 0L 24.5 1L 24.5 2L 19.5 2ZM 29.5 2L 29.5 1L 29.5 0L 34.5 0L 34.5 1L 34.5 2L 29.5 2ZM 39.5 2L 39.5 1L 39.5 0L 42 0L 44 0L 44 2L 44 4.66667L 43 4.66667L 42 4.66667L 42 4L 42 3L 42 2L 41 2L 40 2L 39.5 2ZM 42 10L 43 10L 44 10L 44 15.3333L 43 15.3333L 42 15.3333L 42 10ZM 42 20.6667L 43 20.6667L 44 20.6667L 44 26L 43 26L 42 26L 42 20.6667ZM 42 31.3333L 43 31.3333L 44 31.3333L 44 36.6667L 43 36.6667L 42 36.6667L 42 31.3333ZM 42 42L 43 42L 44 42L 44 47.3333L 43 47.3333L 42 47.3333L 42 42ZM 42 52.6667L 43 52.6667L 44 52.6667L 44 58L 43 58L 42 58L 42 52.6667ZM 42 63.3333L 43 63.3333L 44 63.3333L 44 66L 44 68L 42 68L 39.5 68L 39.5 67L 39.5 66L 40 66L 41 66L 42 66L 42 65L 42 64L 42 63.3333ZM 2 10L 1 10L 0 10L 0 15.3333L 1 15.3333L 2 15.3333L 2 10ZM 2 20.6667L 1 20.6667L 0 20.6667L 0 26L 1 26L 2 26L 2 20.6667ZM 2 31.3333L 1 31.3333L 0 31.3333L 0 36.6667L 1 36.6667L 2 36.6667L 2 31.3333ZM 2 42L 1 42L 0 42L 0 47.3333L 1 47.3333L 2 47.3333L 2 42ZM 2 52.6667L 1 52.6667L 0 52.6667L 0 58L 1 58L 2 58L 2 52.6667ZM 2 63.3333L 1 63.3333L 0 63.3333L 0 66L 0 68L 2 68L 4.5 68L 4.5 67L 4.5 66L 4 66L 3 66L 2 66L 2 65L 2 64L 2 63.3333ZM 9.5 66L 9.5 67L 9.5 68L 14.5 68L 14.5 67L 14.5 66L 9.5 66ZM 19.5 66L 19.5 67L 19.5 68L 24.5 68L 24.5 67L 24.5 66L 19.5 66ZM 29.5 66L 29.5 67L 29.5 68L 34.5 68L 34.5 67L 34.5 66L 29.5 66Z"/>
<path id="path10_fill" d="M 0 0L 89 0L 89 58L 0 58L 0 0Z"/>
<path id="path11_fill" fill-rule="evenodd" d="M 0 0L 2 0L 91 0L 93 0L 93 2L 93 60L 93 62L 91 62L 2 62L 0 62L 0 60L 0 2L 0 0ZM 4 2L 2 2L 2 4L 2 58L 2 60L 4 60L 89 60L 91 60L 91 58L 91 4L 91 2L 89 2L 4 2Z"/>
<path id="path12_fill" d="M 6.88477 3.39453L 4.14258 3.39453L 4.14258 11L 3.02344 11L 3.02344 3.39453L 0.287109 3.39453L 0.287109 2.46875L 6.88477 2.46875L 6.88477 3.39453ZM 7.10742 7.77148C 7.10742 7.15039 7.22852 6.5918 7.4707 6.0957C 7.7168 5.59961 8.05664 5.2168 8.49023 4.94727C 8.92773 4.67773 9.42578 4.54297 9.98438 4.54297C 10.8477 4.54297 11.5449 4.8418 12.0762 5.43945C 12.6113 6.03711 12.8789 6.83203 12.8789 7.82422L 12.8789 7.90039C 12.8789 8.51758 12.7598 9.07227 12.5215 9.56445C 12.2871 10.0527 11.9492 10.4336 11.5078 10.707C 11.0703 10.9805 10.5664 11.1172 9.99609 11.1172C 9.13672 11.1172 8.43945 10.8184 7.9043 10.2207C 7.37305 9.62305 7.10742 8.83203 7.10742 7.84766L 7.10742 7.77148ZM 8.19727 7.90039C 8.19727 8.60352 8.35937 9.16797 8.68359 9.59375C 9.01172 10.0195 9.44922 10.2324 9.99609 10.2324C 10.5469 10.2324 10.9844 10.0176 11.3086 9.58789C 11.6328 9.1543 11.7949 8.54883 11.7949 7.77148C 11.7949 7.07617 11.6289 6.51367 11.2969 6.08398C 10.9688 5.65039 10.5312 5.43359 9.98438 5.43359C 9.44922 5.43359 9.01758 5.64648 8.68945 6.07227C 8.36133 6.49805 8.19727 7.10742 8.19727 7.90039ZM 17.3027 5.63281C 17.1387 5.60547 16.9609 5.5918 16.7695 5.5918C 16.0586 5.5918 15.5762 5.89453 15.3223 6.5L 15.3223 11L 14.2383 11L 14.2383 4.66016L 15.293 4.66016L 15.3105 5.39258C 15.666 4.82617 16.1699 4.54297 16.8223 4.54297C 17.0332 4.54297 17.1934 4.57031 17.3027 4.625L 17.3027 5.63281ZM 21.9961 9.31836C 21.9961 9.02539 21.8848 8.79883 21.6621 8.63867C 21.4434 8.47461 21.0586 8.33398 20.5078 8.2168C 19.9609 8.09961 19.5254 7.95898 19.2012 7.79492C 18.8809 7.63086 18.6426 7.43555 18.4863 7.20898C 18.334 6.98242 18.2578 6.71289 18.2578 6.40039C 18.2578 5.88086 18.4766 5.44141 18.9141 5.08203C 19.3555 4.72266 19.918 4.54297 20.6016 4.54297C 21.3203 4.54297 21.9023 4.72852 22.3477 5.09961C 22.7969 5.4707 23.0215 5.94531 23.0215 6.52344L 21.9316 6.52344C 21.9316 6.22656 21.8047 5.9707 21.5508 5.75586C 21.3008 5.54102 20.9844 5.43359 20.6016 5.43359C 20.207 5.43359 19.8984 5.51953 19.6758 5.69141C 19.4531 5.86328 19.3418 6.08789 19.3418 6.36523C 19.3418 6.62695 19.4453 6.82422 19.6523 6.95703C 19.8594 7.08984 20.2324 7.2168 20.7715 7.33789C 21.3145 7.45898 21.7539 7.60352 22.0898 7.77148C 22.4258 7.93945 22.6738 8.14258 22.834 8.38086C 22.998 8.61523 23.0801 8.90234 23.0801 9.24219C 23.0801 9.80859 22.8535 10.2637 22.4004 10.6074C 21.9473 10.9473 21.3594 11.1172 20.6367 11.1172C 20.1289 11.1172 19.6797 11.0273 19.2891 10.8477C 18.8984 10.668 18.5918 10.418 18.3691 10.0977C 18.1504 9.77344 18.041 9.42383 18.041 9.04883L 19.125 9.04883C 19.1445 9.41211 19.2891 9.70117 19.5586 9.91602C 19.832 10.127 20.1914 10.2324 20.6367 10.2324C 21.0469 10.2324 21.375 10.1504 21.6211 9.98633C 21.8711 9.81836 21.9961 9.5957 21.9961 9.31836ZM 24.2051 7.77148C 24.2051 7.15039 24.3262 6.5918 24.5684 6.0957C 24.8145 5.59961 25.1543 5.2168 25.5879 4.94727C 26.0254 4.67773 26.5234 4.54297 27.082 4.54297C 27.9453 4.54297 28.6426 4.8418 29.1738 5.43945C 29.709 6.03711 29.9766 6.83203 29.9766 7.82422L 29.9766 7.90039C 29.9766 8.51758 29.8574 9.07227 29.6191 9.56445C 29.3848 10.0527 29.0469 10.4336 28.6055 10.707C 28.168 10.9805 27.6641 11.1172 27.0938 11.1172C 26.2344 11.1172 25.5371 10.8184 25.002 10.2207C 24.4707 9.62305 24.2051 8.83203 24.2051 7.84766L 24.2051 7.77148ZM 25.2949 7.90039C 25.2949 8.60352 25.457 9.16797 25.7812 9.59375C 26.1094 10.0195 26.5469 10.2324 27.0938 10.2324C 27.6445 10.2324 28.082 10.0176 28.4062 9.58789C 28.7305 9.1543 28.8926 8.54883 28.8926 7.77148C 28.8926 7.07617 28.7266 6.51367 28.3945 6.08398C 28.0664 5.65039 27.6289 5.43359 27.082 5.43359C 26.5469 5.43359 26.1152 5.64648 25.7871 6.07227C 25.459 6.49805 25.2949 7.10742 25.2949 7.90039Z"/>
<path id="path13_fill" fill-rule="evenodd" d="M 2 4.41667L 1 4.41667L 0 4.41667L 0 2L 0 0L 2 0L 4.47222 0L 4.47222 1L 4.47222 2L 4 2L 3 2L 2 2L 2 3L 2 4L 2 4.41667ZM 9.41666 2L 9.41666 1L 9.41666 0L 14.3611 0L 14.3611 1L 14.3611 2L 9.41666 2ZM 19.3056 2L 19.3056 1L 19.3056 0L 24.25 0L 24.25 1L 24.25 2L 19.3056 2ZM 29.1944 2L 29.1944 1L 29.1944 0L 34.1389 0L 34.1389 1L 34.1389 2L 29.1944 2ZM 39.0833 2L 39.0833 1L 39.0833 0L 44.0278 0L 44.0278 1L 44.0278 2L 39.0833 2ZM 48.9722 2L 48.9722 1L 48.9722 0L 53.9167 0L 53.9167 1L 53.9167 2L 48.9722 2ZM 58.8611 2L 58.8611 1L 58.8611 0L 63.8056 0L 63.8056 1L 63.8056 2L 58.8611 2ZM 68.75 2L 68.75 1L 68.75 0L 73.6944 0L 73.6944 1L 73.6944 2L 68.75 2ZM 78.6389 2L 78.6389 1L 78.6389 0L 83.5833 0L 83.5833 1L 83.5833 2L 78.6389 2ZM 88.5278 2L 88.5278 1L 88.5278 0L 91 0L 93 0L 93 2L 93 4.41667L 92 4.41667L 91 4.41667L 91 4L 91 3L 91 2L 90 2L 89 2L 88.5278 2ZM 91 9.25L 92 9.25L 93 9.25L 93 14.0833L 92 14.0833L 91 14.0833L 91 9.25ZM 91 18.9167L 92 18.9167L 93 18.9167L 93 23.75L 92 23.75L 91 23.75L 91 18.9167ZM 91 28.5833L 92 28.5833L 93 28.5833L 93 33.4167L 92 33.4167L 91 33.4167L 91 28.5833ZM 91 38.25L 92 38.25L 93 38.25L 93 43.0833L 92 43.0833L 91 43.0833L 91 38.25ZM 91 47.9167L 92 47.9167L 93 47.9167L 93 52.75L 92 52.75L 91 52.75L 91 47.9167ZM 91 57.5833L 92 57.5833L 93 57.5833L 93 60L 93 62L 91 62L 88.5278 62L 88.5278 61L 88.5278 60L 89 60L 90 60L 91 60L 91 59L 91 58L 91 57.5833ZM 2 9.25L 1 9.25L 0 9.25L 0 14.0833L 1 14.0833L 2 14.0833L 2 9.25ZM 2 18.9167L 1 18.9167L 0 18.9167L 0 23.75L 1 23.75L 2 23.75L 2 18.9167ZM 2 28.5833L 1 28.5833L 0 28.5833L 0 33.4167L 1 33.4167L 2 33.4167L 2 28.5833ZM 2 38.25L 1 38.25L 0 38.25L 0 43.0833L 1 43.0833L 2 43.0833L 2 38.25ZM 2 47.9167L 1 47.9167L 0 47.9167L 0 52.75L 1 52.75L 2 52.75L 2 47.9167ZM 2 57.5833L 1 57.5833L 0 57.5833L 0 60L 0 62L 2 62L 4.47222 62L 4.47222 61L 4.47222 60L 4 60L 3 60L 2 60L 2 59L 2 58L 2 57.5833ZM 9.41667 60L 9.41667 61L 9.41667 62L 14.3611 62L 14.3611 61L 14.3611 60L 9.41667 60ZM 19.3056 60L 19.3056 61L 19.3056 62L 24.25 62L 24.25 61L 24.25 60L 19.3056 60ZM 29.1944 60L 29.1944 61L 29.1944 62L 34.1389 62L 34.1389 61L 34.1389 60L 29.1944 60ZM 39.0833 60L 39.0833 61L 39.0833 62L 44.0278 62L 44.0278 61L 44.0278 60L 39.0833 60ZM 48.9722 60L 48.9722 61L 48.9722 62L 53.9167 62L 53.9167 61L 53.9167 60L 48.9722 60ZM 58.8611 60L 58.8611 61L 58.8611 62L 63.8056 62L 63.8056 61L 63.8056 60L 58.8611 60ZM 68.75 60L 68.75 61L 68.75 62L 73.6945 62L 73.6945 61L 73.6945 60L 68.75 60ZM 78.6389 60L 78.6389 61L 78.6389 62L 83.5833 62L 83.5833 61L 83.5833 60L 78.6389 60Z"/>
<path id="path14_stroke" d="M 2.88153e-17 0.5L 1.46093 0.5L 1.46093 -0.5L -2.88153e-17 -0.5L 2.88153e-17 0.5ZM 4.3828 0.5L 7.30467 0.5L 7.30467 -0.5L 4.3828 -0.5L 4.3828 0.5ZM 10.2265 0.5L 13.1484 0.5L 13.1484 -0.5L 10.2265 -0.5L 10.2265 0.5ZM 16.0703 0.5L 18.9921 0.5L 18.9921 -0.5L 16.0703 -0.5L 16.0703 0.5ZM 21.914 0.5L 24.8359 0.5L 24.8359 -0.5L 21.914 -0.5L 21.914 0.5ZM 27.7577 0.5L 30.6796 0.5L 30.6796 -0.5L 27.7577 -0.5L 27.7577 0.5ZM 33.6015 0.5L 36.5233 0.5L 36.5233 -0.5L 33.6015 -0.5L 33.6015 0.5ZM 39.4452 0.5L 42.3671 0.5L 42.3671 -0.5L 39.4452 -0.5L 39.4452 0.5ZM 45.2889 0.5L 48.2108 0.5L 48.2108 -0.5L 45.2889 -0.5L 45.2889 0.5ZM 51.1327 0.5L 54.0546 0.5L 54.0546 -0.5L 51.1327 -0.5L 51.1327 0.5ZM 56.9764 0.5L 59.8983 0.5L 59.8983 -0.5L 56.9764 -0.5L 56.9764 0.5ZM 62.8202 0.5L 65.742 0.5L 65.742 -0.5L 62.8202 -0.5L 62.8202 0.5ZM 68.6639 0.5L 70.1248 0.5L 70.1248 -0.5L 68.6639 -0.5L 68.6639 0.5Z"/>
<path id="path15_stroke" d="M 5.52293e-17 0.5L 1.52445 0.5L 1.52445 -0.5L -5.52293e-17 -0.5L 5.52293e-17 0.5ZM 4.57336 0.5L 7.62226 0.5L 7.62226 -0.5L 4.57336 -0.5L 4.57336 0.5ZM 10.6712 0.5L 13.7201 0.5L 13.7201 -0.5L 10.6712 -0.5L 10.6712 0.5ZM 16.769 0.5L 19.8179 0.5L 19.8179 -0.5L 16.769 -0.5L 16.769 0.5ZM 22.8668 0.5L 25.9157 0.5L 25.9157 -0.5L 22.8668 -0.5L 22.8668 0.5ZM 28.9646 0.5L 32.0135 0.5L 32.0135 -0.5L 28.9646 -0.5L 28.9646 0.5ZM 35.0624 0.5L 36.5869 0.5L 36.5869 -0.5L 35.0624 -0.5L 35.0624 0.5Z"/>
<path id="path16_stroke" d="M 5.1812e-17 0.5L 1.39286 0.5L 1.39286 -0.5L -5.1812e-17 -0.5L 5.1812e-17 0.5ZM 4.17857 0.5L 6.96429 0.5L 6.96429 -0.5L 4.17857 -0.5L 4.17857 0.5ZM 9.75 0.5L 12.5357 0.5L 12.5357 -0.5L 9.75 -0.5L 9.75 0.5ZM 15.3214 0.5L 18.1071 0.5L 18.1071 -0.5L 15.3214 -0.5L 15.3214 0.5ZM 20.8929 0.5L 23.6786 0.5L 23.6786 -0.5L 20.8929 -0.5L 20.8929 0.5ZM 26.4643 0.5L 29.25 0.5L 29.25 -0.5L 26.4643 -0.5L 26.4643 0.5ZM 32.0357 0.5L 34.8214 0.5L 34.8214 -0.5L 32.0357 -0.5L 32.0357 0.5ZM 37.6071 0.5L 39 0.5L 39 -0.5L 37.6071 -0.5L 37.6071 0.5Z"/>
<path id="path17_stroke" d="M 69 19.5L 69 20L 69.136 19.0188L 69 19.5ZM -0.135979 0.481155L 1.30152 0.887405L 1.57348 -0.0749047L 0.135979 -0.481155L -0.135979 0.481155ZM 4.17652 1.6999L 7.05152 2.5124L 7.32348 1.5501L 4.44848 0.737595L 4.17652 1.6999ZM 9.92652 3.3249L 12.8015 4.1374L 13.0735 3.1751L 10.1985 2.3626L 9.92652 3.3249ZM 15.6765 4.9499L 18.5515 5.7624L 18.8235 4.8001L 15.9485 3.9876L 15.6765 4.9499ZM 21.4265 6.5749L 24.3015 7.3874L 24.5735 6.4251L 21.6985 5.6126L 21.4265 6.5749ZM 27.1765 8.1999L 30.0515 9.0124L 30.3235 8.05009L 27.4485 7.2376L 27.1765 8.1999ZM 32.9265 9.8249L 35.8015 10.6374L 36.0735 9.67509L 33.1985 8.86259L 32.9265 9.8249ZM 38.6765 11.4499L 41.5515 12.2624L 41.8235 11.3001L 38.9485 10.4876L 38.6765 11.4499ZM 44.4265 13.0749L 47.3015 13.8874L 47.5735 12.9251L 44.6985 12.1126L 44.4265 13.0749ZM 50.1765 14.6999L 53.0515 15.5124L 53.3235 14.5501L 50.4485 13.7376L 50.1765 14.6999ZM 55.9265 16.3249L 58.8015 17.1374L 59.0735 16.1751L 56.1985 15.3626L 55.9265 16.3249ZM 61.6765 17.9499L 64.5515 18.7624L 64.8235 17.8001L 61.9485 16.9876L 61.6765 17.9499ZM 67.4265 19.5749L 68.864 19.9812L 69.136 19.0188L 67.6985 18.6126L 67.4265 19.5749ZM 69 19L 67.5625 19L 67.5625 20L 69 20L 69 19ZM 64.6875 19L 61.8125 19L 61.8125 20L 64.6875 20L 64.6875 19ZM 58.9375 19L 56.0625 19L 56.0625 20L 58.9375 20L 58.9375 19ZM 53.1875 19L 50.3125 19L 50.3125 20L 53.1875 20L 53.1875 19ZM 47.4375 19L 44.5625 19L 44.5625 20L 47.4375 20L 47.4375 19ZM 41.6875 19L 38.8125 19L 38.8125 20L 41.6875 20L 41.6875 19ZM 35.9375 19L 33.0625 19L 33.0625 20L 35.9375 20L 35.9375 19ZM 30.1875 19L 27.3125 19L 27.3125 20L 30.1875 20L 30.1875 19ZM 24.4375 19L 21.5625 19L 21.5625 20L 24.4375 20L 24.4375 19ZM 18.6875 19L 15.8125 19L 15.8125 20L 18.6875 20L 18.6875 19ZM 12.9375 19L 10.0625 19L 10.0625 20L 12.9375 20L 12.9375 19ZM 7.1875 19L 4.3125 19L 4.3125 20L 7.1875 20L 7.1875 19ZM 1.4375 19L 0 19L 0 20L 1.4375 20L 1.4375 19Z"/>
<path id="path18_stroke" d="M -0.353553 -0.353553C -0.548816 -0.158291 -0.548816 0.158291 -0.353553 0.353553L 2.82843 3.53553C 3.02369 3.7308 3.34027 3.7308 3.53553 3.53553C 3.7308 3.34027 3.7308 3.02369 3.53553 2.82843L 0.707107 0L 3.53553 -2.82843C 3.7308 -3.02369 3.7308 -3.34027 3.53553 -3.53553C 3.34027 -3.7308 3.02369 -3.7308 2.82843 -3.53553L -0.353553 -0.353553ZM 27.3536 0.353553C 27.5488 0.158291 27.5488 -0.158291 27.3536 -0.353553L 24.1716 -3.53553C 23.9763 -3.7308 23.6597 -3.7308 23.4645 -3.53553C 23.2692 -3.34027 23.2692 -3.02369 23.4645 -2.82843L 26.2929 0L 23.4645 2.82843C 23.2692 3.02369 23.2692 3.34027 23.4645 3.53553C 23.6597 3.7308 23.9763 3.7308 24.1716 3.53553L 27.3536 0.353553ZM 0 0.5L 27 0.5L 27 -0.5L 0 -0.5L 0 0.5Z"/>
<path id="path19_fill" d="M 3.87061 9.50586L 6.30811 2.46875L 7.53857 2.46875L 4.37451 11L 3.37842 11L 0.220215 2.46875L 1.44482 2.46875L 3.87061 9.50586ZM 9.12891 10.0669L 10.4448 7.30176L 11.1284 7.30176L 8.93408 11.6152C 8.62874 12.2145 8.23682 12.5107 7.7583 12.5039C 7.67399 12.5016 7.5498 12.4811 7.38574 12.4424L 7.44043 11.9297L 7.60107 11.9468C 7.79704 11.9559 7.96566 11.9115 8.10693 11.8135C 8.25049 11.7178 8.37695 11.5617 8.48633 11.3452L 8.7085 10.9214L 8.06934 7.30176L 8.71533 7.30176L 9.12891 10.0669Z"/>
<path id="path20_fill" d="M 3.81445 9.50586L 6.25195 2.46875L 7.48242 2.46875L 4.31836 11L 3.32227 11L 0.164062 2.46875L 1.38867 2.46875L 3.81445 9.50586ZM 9.33594 8.64844L 10.3408 7.30176L 11.0996 7.30176L 9.61621 9.16113L 10.5186 11L 9.84521 11L 9.2334 9.61914L 8.19092 11L 7.43555 11L 8.96338 9.09961L 8.08838 7.30176L 8.76514 7.30176L 9.33594 8.64844Z"/>
<path id="path21_fill" d="M 3.81445 9.50586L 6.25195 2.46875L 7.48242 2.46875L 4.31836 11L 3.32227 11L 0.164062 2.46875L 1.38867 2.46875L 3.81445 9.50586ZM 9.26758 11.0684C 8.99186 11.0615 8.75944 10.9863 8.57031 10.8428C 8.38346 10.6992 8.24674 10.493 8.16016 10.2241C 8.07585 9.95296 8.03825 9.64535 8.04736 9.30127C 8.0542 9.03923 8.10205 8.6359 8.19092 8.09131C 8.27979 7.54671 8.43587 7.09326 8.65918 6.73096C 8.9873 6.20003 9.44645 5.94141 10.0366 5.95508C 10.4513 5.96419 10.7635 6.12028 10.9731 6.42334C 11.1828 6.7264 11.2808 7.14795 11.2671 7.68799C 11.2625 7.85889 11.25 8.02295 11.2295 8.18018L 11.1338 8.80566C 11.0176 9.5599 10.8 10.1296 10.481 10.5146C 10.1642 10.8997 9.75977 11.0843 9.26758 11.0684ZM 8.76514 8.26562L 10.5972 8.26562L 10.6279 8.0708C 10.6621 7.81104 10.6769 7.59684 10.6724 7.42822C 10.6473 6.80615 10.4251 6.48714 10.0059 6.47119C 9.69596 6.46208 9.44076 6.58968 9.24023 6.854C 9.04199 7.11833 8.89616 7.52393 8.80273 8.0708L 8.76514 8.26562ZM 10.5356 8.78174L 8.70703 8.78174C 8.6569 9.0734 8.63525 9.33431 8.64209 9.56445C 8.64893 9.88346 8.70931 10.1273 8.82324 10.2959C 8.93717 10.4622 9.09668 10.5488 9.30176 10.5557C 9.85775 10.583 10.2394 10.1398 10.4468 9.22607L 10.5356 8.78174Z"/>
<path id="path22_stroke" d="M -0.353553 -0.353553C -0.548816 -0.158291 -0.548816 0.158291 -0.353553 0.353553L 2.82843 3.53553C 3.02369 3.7308 3.34027 3.7308 3.53553 3.53553C 3.7308 3.34027 3.7308 3.02369 3.53553 2.82843L 0.707107 6.08239e-17L 3.53553 -2.82843C 3.7308 -3.02369 3.7308 -3.34027 3.53553 -3.53553C 3.34027 -3.7308 3.02369 -3.7308 2.82843 -3.53553L -0.353553 -0.353553ZM 106.354 0.353553C 106.549 0.158291 106.549 -0.158291 106.354 -0.353553L 103.172 -3.53553C 102.976 -3.7308 102.66 -3.7308 102.464 -3.53553C 102.269 -3.34027 102.269 -3.02369 102.464 -2.82843L 105.293 4.0847e-19L 102.464 2.82843C 102.269 3.02369 102.269 3.34027 102.464 3.53553C 102.66 3.7308 102.976 3.7308 103.172 3.53553L 106.354 0.353553ZM 2.88832e-19 0.5L 106 0.5L 106 -0.5L -2.88832e-19 -0.5L 2.88832e-19 0.5Z"/>
<path id="path23_stroke" d="M -0.349132 -0.35792C -0.546806 -0.1651 -0.55074 0.151458 -0.35792 0.349132L 2.78427 3.57041C 2.97709 3.76809 3.29365 3.77202 3.49132 3.5792C 3.68899 3.38638 3.69293 3.06982 3.50011 2.87215L 0.707052 0.00878825L 3.57041 -2.78427C 3.76809 -2.97709 3.77202 -3.29365 3.5792 -3.49132C 3.38638 -3.68899 3.06982 -3.69293 2.87215 -3.50011L -0.349132 -0.35792ZM 14.5148 2.38656C 14.7538 2.24827 14.8354 1.9424 14.6972 1.70338L 12.4436 -2.1917C 12.3053 -2.43072 11.9995 -2.51238 11.7605 -2.37409C 11.5214 -2.2358 11.4398 -1.92993 11.5781 -1.69091L 13.5812 1.77138L 10.1189 3.77451C 9.87988 3.9128 9.79822 4.21867 9.93651 4.45769C 10.0748 4.69671 10.3807 4.77837 10.6197 4.64009L 14.5148 2.38656ZM -0.00621423 0.499961C 4.88894 0.559782 9.60661 1.22682 14.1354 2.43685L 14.3933 1.47069C 9.80593 0.246889 4.9653 -0.437299 0.00621423 -0.499961L -0.00621423 0.499961Z"/>
<path id="path24_fill" d="M 3.91324 5.64551L 5.08511 3.7168L 6.1398 3.7168L 4.41128 6.3291L 6.19351 9L 5.14859 9L 3.92789 7.02246L 2.70718 9L 1.65738 9L 3.4396 6.3291L 1.71109 3.7168L 2.75601 3.7168L 3.91324 5.64551Z"/>
<path id="path25_fill" d="M 3.9816 7.67676L 5.21206 3.7168L 6.17886 3.7168L 4.05484 9.81543C 3.72606 10.6943 3.2036 11.1338 2.48746 11.1338L 2.31656 11.1191L 1.97964 11.0557L 1.97964 10.3232L 2.22378 10.3428C 2.52977 10.3428 2.7674 10.2809 2.93667 10.1572C 3.1092 10.0335 3.2508 9.80729 3.36148 9.47852L 3.56167 8.94141L 1.67691 3.7168L 2.66324 3.7168L 3.9816 7.67676Z"/>
<path id="path26_fill" d="M 2.99039 8.2627L 6.08121 8.2627L 6.08121 9L 1.88687 9L 1.88687 8.33594L 4.80191 4.46387L 1.93081 4.46387L 1.93081 3.7168L 5.93472 3.7168L 5.93472 4.35645L 2.99039 8.2627Z"/>
<path id="path27_stroke" d="M 0 0L 0 -0.5L -0.5 -0.5L -0.5 0L 0 0ZM 38.3536 0.353553C 38.5488 0.158291 38.5488 -0.158291 38.3536 -0.353553L 35.1716 -3.53553C 34.9763 -3.7308 34.6597 -3.7308 34.4645 -3.53553C 34.2692 -3.34027 34.2692 -3.02369 34.4645 -2.82843L 37.2929 0L 34.4645 2.82843C 34.2692 3.02369 34.2692 3.34027 34.4645 3.53553C 34.6597 3.7308 34.9763 3.7308 35.1716 3.53553L 38.3536 0.353553ZM -0.353553 38.3536C -0.158291 38.5488 0.158291 38.5488 0.353553 38.3536L 3.53553 35.1716C 3.7308 34.9763 3.7308 34.6597 3.53553 34.4645C 3.34027 34.2692 3.02369 34.2692 2.82843 34.4645L 0 37.2929L -2.82843 34.4645C -3.02369 34.2692 -3.34027 34.2692 -3.53553 34.4645C -3.7308 34.6597 -3.7308 34.9763 -3.53553 35.1716L -0.353553 38.3536ZM 0 0.5L 38 0.5L 38 -0.5L 0 -0.5L 0 0.5ZM -0.5 0L -0.5 38L 0.5 38L 0.5 0L -0.5 0Z"/>
<path id="path28_fill" d="M 6 3C 6 4.65685 4.65685 6 3 6C 1.34315 6 0 4.65685 0 3C 0 1.34315 1.34315 0 3 0C 4.65685 0 6 1.34315 6 3Z"/>
<path id="path29_fill" d="M 4.64355 5.86035L 1.75293 5.86035L 1.20605 9L 0.288086 9L 1.52344 1.89062L 5.80078 1.89062L 5.66406 2.66211L 2.30469 2.66211L 1.88477 5.09375L 4.78027 5.09375L 4.64355 5.86035ZM 8.7207 4.52246L 8.30566 4.47852C 7.73926 4.47852 7.29329 4.73405 6.96777 5.24512L 6.31836 9L 5.43457 9L 6.35254 3.7168L 7.20703 3.71191L 7.0752 4.32715C 7.44954 3.83561 7.89062 3.59635 8.39844 3.60938C 8.50586 3.60938 8.64583 3.63379 8.81836 3.68262L 8.7207 4.52246ZM 10.9521 9.09766C 10.2946 9.08464 9.78027 8.84212 9.40918 8.37012C 9.03809 7.89811 8.88184 7.29427 8.94043 6.55859L 8.96484 6.34863C 9.02018 5.82454 9.1748 5.34603 9.42871 4.91309C 9.68587 4.48014 9.99837 4.15462 10.3662 3.93652C 10.734 3.71517 11.1312 3.60938 11.5576 3.61914C 12.1012 3.63216 12.5277 3.81283 12.8369 4.16113C 13.1462 4.50944 13.3154 4.98145 13.3447 5.57715C 13.3545 5.78874 13.348 6.00033 13.3252 6.21191L 13.2715 6.61719L 9.81934 6.61719C 9.76074 7.0957 9.83887 7.5026 10.0537 7.83789C 10.2718 8.17318 10.5957 8.34733 11.0254 8.36035C 11.5462 8.37337 12.028 8.139 12.4707 7.65723L 12.9785 8.08691C 12.7572 8.40592 12.4707 8.65658 12.1191 8.83887C 11.7708 9.0179 11.3818 9.10417 10.9521 9.09766ZM 11.5137 4.35645C 11.1491 4.34668 10.8301 4.47038 10.5566 4.72754C 10.2865 4.9847 10.0716 5.36719 9.91211 5.875L 12.4805 5.87988L 12.5 5.80176C 12.5521 5.3916 12.4854 5.05143 12.2998 4.78125C 12.1175 4.50781 11.8555 4.36621 11.5137 4.35645ZM 15.6055 3.71191L 15.4785 4.38086C 15.9538 3.86003 16.4941 3.60612 17.0996 3.61914C 17.5977 3.63216 17.9655 3.80469 18.2031 4.13672C 18.4408 4.46875 18.5286 4.93587 18.4668 5.53809L 17.8906 9L 17.0068 9L 17.5879 5.52344C 17.6074 5.36393 17.609 5.21582 17.5928 5.0791C 17.5374 4.62337 17.2689 4.39062 16.7871 4.38086C 16.2565 4.37109 15.791 4.6543 15.3906 5.23047L 14.7363 9L 13.8525 9L 14.7705 3.7168L 15.6055 3.71191ZM 21.5869 2.4375L 21.3623 3.7168L 22.3242 3.7168L 22.2021 4.41504L 21.2451 4.41504L 20.6934 7.70117C 20.6836 7.78581 20.682 7.86393 20.6885 7.93555C 20.7113 8.18945 20.8496 8.31641 21.1035 8.31641C 21.2109 8.31641 21.3542 8.30013 21.5332 8.26758L 21.4648 9.00488C 21.2533 9.06348 21.0384 9.09277 20.8203 9.09277C 20.4688 9.08626 20.2051 8.95768 20.0293 8.70703C 19.8535 8.45312 19.7852 8.11296 19.8242 7.68652L 20.3613 4.41504L 19.4287 4.41504L 19.5508 3.7168L 20.4834 3.7168L 20.708 2.4375L 21.5869 2.4375ZM 24.7607 9.09766C 24.1032 9.08464 23.5889 8.84212 23.2178 8.37012C 22.8467 7.89811 22.6904 7.29427 22.749 6.55859L 22.7734 6.34863C 22.8288 5.82454 22.9834 5.34603 23.2373 4.91309C 23.4945 4.48014 23.807 4.15462 24.1748 3.93652C 24.5426 3.71517 24.9398 3.60938 25.3662 3.61914C 25.9098 3.63216 26.3363 3.81283 26.6455 4.16113C 26.9548 4.50944 27.124 4.98145 27.1533 5.57715C 27.1631 5.78874 27.1566 6.00033 27.1338 6.21191L 27.0801 6.61719L 23.6279 6.61719C 23.5693 7.0957 23.6475 7.5026 23.8623 7.83789C 24.0804 8.17318 24.4043 8.34733 24.834 8.36035C 25.3548 8.37337 25.8366 8.139 26.2793 7.65723L 26.7871 8.08691C 26.5658 8.40592 26.2793 8.65658 25.9277 8.83887C 25.5794 9.0179 25.1904 9.10417 24.7607 9.09766ZM 25.3223 4.35645C 24.9577 4.34668 24.6387 4.47038 24.3652 4.72754C 24.0951 4.9847 23.8802 5.36719 23.7207 5.875L 26.2891 5.87988L 26.3086 5.80176C 26.3607 5.3916 26.2939 5.05143 26.1084 4.78125C 25.9261 4.50781 25.6641 4.36621 25.3223 4.35645ZM 30.3662 6.34863C 30.4313 5.81152 30.5794 5.3265 30.8105 4.89355C 31.0417 4.46061 31.3265 4.13672 31.665 3.92188C 32.0036 3.70703 32.3763 3.60449 32.7832 3.61426C 33.3724 3.62728 33.8249 3.84212 34.1406 4.25879L 34.6484 1.5L 35.5322 1.5L 34.2334 9L 33.4277 9L 33.5205 8.43359C 33.1038 8.88932 32.5895 9.11068 31.9775 9.09766C 31.4893 9.08464 31.1003 8.89421 30.8105 8.52637C 30.5208 8.15527 30.3646 7.65885 30.3418 7.03711C 30.332 6.84505 30.3402 6.61556 30.3662 6.34863ZM 31.2158 6.85645C 31.2061 7.32194 31.2891 7.68327 31.4648 7.94043C 31.6406 8.19759 31.8978 8.32943 32.2363 8.33594C 32.7474 8.35872 33.2015 8.10156 33.5986 7.56445L 34.0186 5.12305C 33.8232 4.64128 33.4684 4.39388 32.9541 4.38086C 32.6058 4.37109 32.2982 4.47689 32.0312 4.69824C 31.7676 4.91634 31.5658 5.22396 31.4258 5.62109C 31.2891 6.01497 31.2191 6.42676 31.2158 6.85645ZM 38.5645 3.61914C 39.0072 3.62565 39.3864 3.74609 39.7021 3.98047C 40.0179 4.21484 40.2507 4.53874 40.4004 4.95215C 40.5534 5.3623 40.6055 5.81152 40.5566 6.2998L 40.5469 6.40723C 40.485 6.92155 40.332 7.38704 40.0879 7.80371C 39.8438 8.21712 39.528 8.53939 39.1406 8.77051C 38.7533 9.00163 38.3285 9.11068 37.8662 9.09766C 37.4268 9.09115 37.0475 8.9707 36.7285 8.73633C 36.4128 8.50195 36.1816 8.18294 36.0352 7.7793C 35.8887 7.37565 35.8366 6.93132 35.8789 6.44629C 35.9277 5.89941 36.0758 5.40788 36.3232 4.97168C 36.5706 4.53548 36.888 4.19857 37.2754 3.96094C 37.666 3.72005 38.0957 3.60612 38.5645 3.61914ZM 36.7676 6.45117C 36.7448 6.65625 36.7448 6.86947 36.7676 7.09082C 36.8001 7.47493 36.9141 7.78092 37.1094 8.00879C 37.3079 8.23665 37.5716 8.35547 37.9004 8.36523C 38.1934 8.375 38.4635 8.30339 38.7109 8.15039C 38.9583 7.99414 39.1667 7.75977 39.3359 7.44727C 39.5052 7.13477 39.6143 6.78809 39.6631 6.40723C 39.6891 6.10775 39.694 5.85547 39.6777 5.65039C 39.6387 5.25651 39.5199 4.94564 39.3213 4.71777C 39.1227 4.48991 38.859 4.36947 38.5303 4.35645C 38.0745 4.34668 37.6872 4.52572 37.3682 4.89355C 37.0492 5.26139 36.8522 5.74316 36.7773 6.33887L 36.7676 6.45117ZM 46.9531 4.52246L 46.5381 4.47852C 45.9717 4.47852 45.5257 4.73405 45.2002 5.24512L 44.5508 9L 43.667 9L 44.585 3.7168L 45.4395 3.71191L 45.3076 4.32715C 45.682 3.83561 46.123 3.59635 46.6309 3.60938C 46.7383 3.60938 46.8783 3.63379 47.0508 3.68262L 46.9531 4.52246ZM 49.834 3.61914C 50.2767 3.62565 50.6559 3.74609 50.9717 3.98047C 51.2874 4.21484 51.5202 4.53874 51.6699 4.95215C 51.8229 5.3623 51.875 5.81152 51.8262 6.2998L 51.8164 6.40723C 51.7546 6.92155 51.6016 7.38704 51.3574 7.80371C 51.1133 8.21712 50.7975 8.53939 50.4102 8.77051C 50.0228 9.00163 49.598 9.11068 49.1357 9.09766C 48.6963 9.09115 48.3171 8.9707 47.998 8.73633C 47.6823 8.50195 47.4512 8.18294 47.3047 7.7793C 47.1582 7.37565 47.1061 6.93132 47.1484 6.44629C 47.1973 5.89941 47.3454 5.40788 47.5928 4.97168C 47.8402 4.53548 48.1576 4.19857 48.5449 3.96094C 48.9355 3.72005 49.3652 3.60612 49.834 3.61914ZM 48.0371 6.45117C 48.0143 6.65625 48.0143 6.86947 48.0371 7.09082C 48.0697 7.47493 48.1836 7.78092 48.3789 8.00879C 48.5775 8.23665 48.8411 8.35547 49.1699 8.36523C 49.4629 8.375 49.7331 8.30339 49.9805 8.15039C 50.2279 7.99414 50.4362 7.75977 50.6055 7.44727C 50.7747 7.13477 50.8838 6.78809 50.9326 6.40723C 50.9587 6.10775 50.9635 5.85547 50.9473 5.65039C 50.9082 5.25651 50.7894 4.94564 50.5908 4.71777C 50.3923 4.48991 50.1286 4.36947 49.7998 4.35645C 49.3441 4.34668 48.9567 4.52572 48.6377 4.89355C 48.3187 5.26139 48.1217 5.74316 48.0469 6.33887L 48.0371 6.45117ZM 57.2803 6.38281C 57.2152 6.92318 57.0671 7.40983 56.8359 7.84277C 56.6048 8.27572 56.3249 8.59635 55.9961 8.80469C 55.6673 9.01302 55.3027 9.1123 54.9023 9.10254C 54.2643 9.08952 53.7907 8.85026 53.4814 8.38477L 53.3008 9L 52.4854 9L 53.7891 1.5L 54.6729 1.5L 54.1406 4.30273C 54.5638 3.83398 55.0781 3.60612 55.6836 3.61914C 56.1914 3.63216 56.5869 3.81934 56.8701 4.18066C 57.1533 4.54199 57.3031 5.04004 57.3193 5.6748C 57.3226 5.88314 57.3128 6.08496 57.29 6.28027L 57.2803 6.38281ZM 56.4404 5.87012C 56.4502 5.39486 56.3704 5.0319 56.2012 4.78125C 56.0319 4.52734 55.7731 4.39388 55.4248 4.38086C 54.8747 4.36784 54.4092 4.64453 54.0283 5.21094L 53.6328 7.51074C 53.8281 8.04785 54.1943 8.32292 54.7314 8.33594C 55.0765 8.34896 55.3776 8.24642 55.6348 8.02832C 55.8952 7.81022 56.0921 7.50586 56.2256 7.11523C 56.359 6.72135 56.4307 6.30632 56.4404 5.87012ZM 60.918 3.61914C 61.3607 3.62565 61.7399 3.74609 62.0557 3.98047C 62.3714 4.21484 62.6042 4.53874 62.7539 4.95215C 62.9069 5.3623 62.959 5.81152 62.9102 6.2998L 62.9004 6.40723C 62.8385 6.92155 62.6855 7.38704 62.4414 7.80371C 62.1973 8.21712 61.8815 8.53939 61.4941 8.77051C 61.1068 9.00163 60.682 9.11068 60.2197 9.09766C 59.7803 9.09115 59.401 8.9707 59.082 8.73633C 58.7663 8.50195 58.5352 8.18294 58.3887 7.7793C 58.2422 7.37565 58.1901 6.93132 58.2324 6.44629C 58.2812 5.89941 58.4294 5.40788 58.6768 4.97168C 58.9242 4.53548 59.2415 4.19857 59.6289 3.96094C 60.0195 3.72005 60.4492 3.60612 60.918 3.61914ZM 59.1211 6.45117C 59.0983 6.65625 59.0983 6.86947 59.1211 7.09082C 59.1536 7.47493 59.2676 7.78092 59.4629 8.00879C 59.6615 8.23665 59.9251 8.35547 60.2539 8.36523C 60.5469 8.375 60.8171 8.30339 61.0645 8.15039C 61.3118 7.99414 61.5202 7.75977 61.6895 7.44727C 61.8587 7.13477 61.9678 6.78809 62.0166 6.40723C 62.0426 6.10775 62.0475 5.85547 62.0312 5.65039C 61.9922 5.25651 61.8734 4.94564 61.6748 4.71777C 61.4762 4.48991 61.2126 4.36947 60.8838 4.35645C 60.4281 4.34668 60.0407 4.52572 59.7217 4.89355C 59.4027 5.26139 59.2057 5.74316 59.1309 6.33887L 59.1211 6.45117ZM 62.5049 2.82812L 62.5049 2.89648L 61.7871 2.88672L 61.2354 2.06152L 60.376 2.88184L 59.6289 2.89648L 59.6289 2.81836L 60.9863 1.5L 61.5039 1.5L 62.5049 2.82812Z"/>
<path id="path30_fill" d="M 5.70801 6.73438C 5.57129 7.47005 5.23763 8.05273 4.70703 8.48242C 4.17969 8.91211 3.54655 9.11719 2.80762 9.09766C 2.36816 9.08789 1.98405 8.98047 1.65527 8.77539C 1.3265 8.56706 1.07096 8.26921 0.888672 7.88184C 0.70638 7.49121 0.605469 7.0599 0.585938 6.58789C 0.572917 6.32096 0.58431 6.06055 0.620117 5.80664L 0.703125 5.2207C 0.85612 4.15299 1.23047 3.31152 1.82617 2.69629C 2.42513 2.0778 3.15267 1.77669 4.00879 1.79297C 4.67611 1.80599 5.20508 2.02246 5.5957 2.44238C 5.98633 2.85905 6.19303 3.43848 6.21582 4.18066L 5.30273 4.18066C 5.26042 3.18457 4.86979 2.64746 4.13086 2.56934L 3.96973 2.55957C 3.35449 2.54329 2.84017 2.77279 2.42676 3.24805C 2.0166 3.72005 1.7513 4.36621 1.63086 5.18652L 1.52344 5.92383L 1.49414 6.35352C 1.47461 6.95247 1.5804 7.42936 1.81152 7.78418C 2.0459 8.13574 2.39258 8.31803 2.85156 8.33105C 3.34635 8.34733 3.75488 8.22852 4.07715 7.97461C 4.40267 7.7207 4.65007 7.31217 4.81934 6.74902L 5.70801 6.73438ZM 9.45312 3.61914C 9.89583 3.62565 10.2751 3.74609 10.5908 3.98047C 10.9066 4.21484 11.1393 4.53874 11.2891 4.95215C 11.4421 5.3623 11.4941 5.81152 11.4453 6.2998L 11.4355 6.40723C 11.3737 6.92155 11.2207 7.38704 10.9766 7.80371C 10.7324 8.21712 10.4167 8.53939 10.0293 8.77051C 9.64193 9.00163 9.21712 9.11068 8.75488 9.09766C 8.31543 9.09115 7.9362 8.9707 7.61719 8.73633C 7.30143 8.50195 7.07031 8.18294 6.92383 7.7793C 6.77734 7.37565 6.72526 6.93132 6.76758 6.44629C 6.81641 5.89941 6.96452 5.40788 7.21191 4.97168C 7.45931 4.53548 7.77669 4.19857 8.16406 3.96094C 8.55469 3.72005 8.98438 3.60612 9.45312 3.61914ZM 7.65625 6.45117C 7.63346 6.65625 7.63346 6.86947 7.65625 7.09082C 7.6888 7.47493 7.80273 7.78092 7.99805 8.00879C 8.19661 8.23665 8.46029 8.35547 8.78906 8.36523C 9.08203 8.375 9.35221 8.30339 9.59961 8.15039C 9.84701 7.99414 10.0553 7.75977 10.2246 7.44727C 10.3939 7.13477 10.5029 6.78809 10.5518 6.40723C 10.5778 6.10775 10.5827 5.85547 10.5664 5.65039C 10.5273 5.25651 10.4085 4.94564 10.21 4.71777C 10.0114 4.48991 9.74772 4.36947 9.41895 4.35645C 8.96322 4.34668 8.57585 4.52572 8.25684 4.89355C 7.93783 5.26139 7.74089 5.74316 7.66602 6.33887L 7.65625 6.45117ZM 15.376 7.56934C 15.4248 7.20475 15.2246 6.94759 14.7754 6.79785L 13.8574 6.5293C 13.0827 6.26237 12.7083 5.81966 12.7344 5.20117C 12.7572 4.73568 12.9688 4.35482 13.3691 4.05859C 13.7728 3.75911 14.2464 3.61263 14.79 3.61914C 15.3239 3.62565 15.7568 3.7819 16.0889 4.08789C 16.4242 4.39062 16.5853 4.78613 16.5723 5.27441L 15.6934 5.26953C 15.6999 5.00586 15.6169 4.79102 15.4443 4.625C 15.2718 4.45898 15.0423 4.37272 14.7559 4.36621C 14.4499 4.3597 14.1862 4.43457 13.9648 4.59082C 13.7598 4.7373 13.641 4.92936 13.6084 5.16699C 13.5661 5.47298 13.7533 5.69596 14.1699 5.83594L 14.6143 5.95801C 15.2197 6.11426 15.6494 6.31771 15.9033 6.56836C 16.1572 6.81901 16.2744 7.12988 16.2549 7.50098C 16.2354 7.82975 16.1279 8.11621 15.9326 8.36035C 15.7373 8.60449 15.4769 8.79167 15.1514 8.92188C 14.8258 9.04883 14.4792 9.10742 14.1113 9.09766C 13.5514 9.09115 13.0892 8.92839 12.7246 8.60938C 12.36 8.28711 12.1842 7.8737 12.1973 7.36914L 13.0811 7.37402C 13.0811 7.67025 13.1755 7.90788 13.3643 8.08691C 13.5531 8.26595 13.8118 8.35547 14.1406 8.35547C 14.4629 8.36198 14.7412 8.29525 14.9756 8.15527C 15.21 8.01204 15.3434 7.81673 15.376 7.56934ZM 19.4873 2.4375L 19.2627 3.7168L 20.2246 3.7168L 20.1025 4.41504L 19.1455 4.41504L 18.5938 7.70117C 18.584 7.78581 18.5824 7.86393 18.5889 7.93555C 18.6117 8.18945 18.75 8.31641 19.0039 8.31641C 19.1113 8.31641 19.2546 8.30013 19.4336 8.26758L 19.3652 9.00488C 19.1536 9.06348 18.9388 9.09277 18.7207 9.09277C 18.3691 9.08626 18.1055 8.95768 17.9297 8.70703C 17.7539 8.45312 17.6855 8.11296 17.7246 7.68652L 18.2617 4.41504L 17.3291 4.41504L 17.4512 3.7168L 18.3838 3.7168L 18.6084 2.4375L 19.4873 2.4375ZM 23.6084 9C 23.5856 8.9056 23.5742 8.81283 23.5742 8.72168L 23.5889 8.44336C 23.1038 8.89258 22.5895 9.11068 22.0459 9.09766C 21.5804 9.09115 21.2012 8.94466 20.9082 8.6582C 20.6185 8.36849 20.4867 8.00716 20.5127 7.57422C 20.5452 7.01432 20.7894 6.57812 21.2451 6.26562C 21.7041 5.94987 22.3063 5.79199 23.0518 5.79199L 23.9746 5.79688L 24.0332 5.37695C 24.0658 5.0612 24.0039 4.81217 23.8477 4.62988C 23.6947 4.44434 23.4635 4.34831 23.1543 4.3418C 22.8516 4.33529 22.583 4.41016 22.3486 4.56641C 22.1175 4.7194 21.9759 4.92285 21.9238 5.17676L 21.0352 5.18164C 21.0645 4.8724 21.1849 4.59896 21.3965 4.36133C 21.6081 4.12044 21.8799 3.9349 22.2119 3.80469C 22.5439 3.67122 22.8874 3.60775 23.2422 3.61426C 23.7923 3.62728 24.2204 3.79492 24.5264 4.11719C 24.8324 4.4362 24.9609 4.861 24.9121 5.3916L 24.4824 8.00879L 24.458 8.38477C 24.4515 8.5638 24.471 8.74121 24.5166 8.91699L 24.5068 9L 23.6084 9ZM 22.2217 8.31641C 22.5049 8.32292 22.7718 8.25618 23.0225 8.11621C 23.2764 7.97298 23.4945 7.77604 23.6768 7.52539L 23.8672 6.43652L 23.1982 6.43164C 22.6416 6.43164 22.2152 6.51953 21.9189 6.69531C 21.6227 6.87109 21.4551 7.12012 21.416 7.44238C 21.3867 7.68978 21.4437 7.89648 21.5869 8.0625C 21.7334 8.22526 21.945 8.3099 22.2217 8.31641ZM 28.9795 7.56934C 29.0283 7.20475 28.8281 6.94759 28.3789 6.79785L 27.4609 6.5293C 26.6862 6.26237 26.3118 5.81966 26.3379 5.20117C 26.3607 4.73568 26.5723 4.35482 26.9727 4.05859C 27.3763 3.75911 27.8499 3.61263 28.3936 3.61914C 28.9274 3.62565 29.3604 3.7819 29.6924 4.08789C 30.0277 4.39062 30.1888 4.78613 30.1758 5.27441L 29.2969 5.26953C 29.3034 5.00586 29.2204 4.79102 29.0479 4.625C 28.8753 4.45898 28.6458 4.37272 28.3594 4.36621C 28.0534 4.3597 27.7897 4.43457 27.5684 4.59082C 27.3633 4.7373 27.2445 4.92936 27.2119 5.16699C 27.1696 5.47298 27.3568 5.69596 27.7734 5.83594L 28.2178 5.95801C 28.8232 6.11426 29.2529 6.31771 29.5068 6.56836C 29.7607 6.81901 29.8779 7.12988 29.8584 7.50098C 29.8389 7.82975 29.7314 8.11621 29.5361 8.36035C 29.3408 8.60449 29.0804 8.79167 28.7549 8.92188C 28.4294 9.04883 28.0827 9.10742 27.7148 9.09766C 27.1549 9.09115 26.6927 8.92839 26.3281 8.60938C 25.9635 8.28711 25.7878 7.8737 25.8008 7.36914L 26.6846 7.37402C 26.6846 7.67025 26.779 7.90788 26.9678 8.08691C 27.1566 8.26595 27.4154 8.35547 27.7441 8.35547C 28.0664 8.36198 28.3447 8.29525 28.5791 8.15527C 28.8135 8.01204 28.9469 7.81673 28.9795 7.56934ZM 33.4619 6.34863C 33.527 5.81152 33.6751 5.3265 33.9062 4.89355C 34.1374 4.46061 34.4222 4.13672 34.7607 3.92188C 35.0993 3.70703 35.472 3.60449 35.8789 3.61426C 36.4681 3.62728 36.9206 3.84212 37.2363 4.25879L 37.7441 1.5L 38.6279 1.5L 37.3291 9L 36.5234 9L 36.6162 8.43359C 36.1995 8.88932 35.6852 9.11068 35.0732 9.09766C 34.585 9.08464 34.196 8.89421 33.9062 8.52637C 33.6165 8.15527 33.4603 7.65885 33.4375 7.03711C 33.4277 6.84505 33.4359 6.61556 33.4619 6.34863ZM 34.3115 6.85645C 34.3018 7.32194 34.3848 7.68327 34.5605 7.94043C 34.7363 8.19759 34.9935 8.32943 35.332 8.33594C 35.8431 8.35872 36.2972 8.10156 36.6943 7.56445L 37.1143 5.12305C 36.9189 4.64128 36.5641 4.39388 36.0498 4.38086C 35.7015 4.37109 35.3939 4.47689 35.127 4.69824C 34.8633 4.91634 34.6615 5.22396 34.5215 5.62109C 34.3848 6.01497 34.3148 6.42676 34.3115 6.85645ZM 41.6602 3.61914C 42.1029 3.62565 42.4821 3.74609 42.7979 3.98047C 43.1136 4.21484 43.3464 4.53874 43.4961 4.95215C 43.6491 5.3623 43.7012 5.81152 43.6523 6.2998L 43.6426 6.40723C 43.5807 6.92155 43.4277 7.38704 43.1836 7.80371C 42.9395 8.21712 42.6237 8.53939 42.2363 8.77051C 41.849 9.00163 41.4242 9.11068 40.9619 9.09766C 40.5225 9.09115 40.1432 8.9707 39.8242 8.73633C 39.5085 8.50195 39.2773 8.18294 39.1309 7.7793C 38.9844 7.37565 38.9323 6.93132 38.9746 6.44629C 39.0234 5.89941 39.1715 5.40788 39.4189 4.97168C 39.6663 4.53548 39.9837 4.19857 40.3711 3.96094C 40.7617 3.72005 41.1914 3.60612 41.6602 3.61914ZM 39.8633 6.45117C 39.8405 6.65625 39.8405 6.86947 39.8633 7.09082C 39.8958 7.47493 40.0098 7.78092 40.2051 8.00879C 40.4036 8.23665 40.6673 8.35547 40.9961 8.36523C 41.2891 8.375 41.5592 8.30339 41.8066 8.15039C 42.054 7.99414 42.2624 7.75977 42.4316 7.44727C 42.6009 7.13477 42.71 6.78809 42.7588 6.40723C 42.7848 6.10775 42.7897 5.85547 42.7734 5.65039C 42.7344 5.25651 42.6156 4.94564 42.417 4.71777C 42.2184 4.48991 41.9548 4.36947 41.626 4.35645C 41.1702 4.34668 40.7829 4.52572 40.4639 4.89355C 40.1449 5.26139 39.9479 5.74316 39.873 6.33887L 39.8633 6.45117ZM 50.0488 4.52246L 49.6338 4.47852C 49.0674 4.47852 48.6214 4.73405 48.2959 5.24512L 47.6465 9L 46.7627 9L 47.6807 3.7168L 48.5352 3.71191L 48.4033 4.32715C 48.7777 3.83561 49.2188 3.59635 49.7266 3.60938C 49.834 3.60938 49.974 3.63379 50.1465 3.68262L 50.0488 4.52246ZM 52.9297 3.61914C 53.3724 3.62565 53.7516 3.74609 54.0674 3.98047C 54.3831 4.21484 54.6159 4.53874 54.7656 4.95215C 54.9186 5.3623 54.9707 5.81152 54.9219 6.2998L 54.9121 6.40723C 54.8503 6.92155 54.6973 7.38704 54.4531 7.80371C 54.209 8.21712 53.8932 8.53939 53.5059 8.77051C 53.1185 9.00163 52.6937 9.11068 52.2314 9.09766C 51.792 9.09115 51.4128 8.9707 51.0938 8.73633C 50.778 8.50195 50.5469 8.18294 50.4004 7.7793C 50.2539 7.37565 50.2018 6.93132 50.2441 6.44629C 50.293 5.89941 50.4411 5.40788 50.6885 4.97168C 50.9359 4.53548 51.2533 4.19857 51.6406 3.96094C 52.0312 3.72005 52.4609 3.60612 52.9297 3.61914ZM 51.1328 6.45117C 51.11 6.65625 51.11 6.86947 51.1328 7.09082C 51.1654 7.47493 51.2793 7.78092 51.4746 8.00879C 51.6732 8.23665 51.9368 8.35547 52.2656 8.36523C 52.5586 8.375 52.8288 8.30339 53.0762 8.15039C 53.3236 7.99414 53.5319 7.75977 53.7012 7.44727C 53.8704 7.13477 53.9795 6.78809 54.0283 6.40723C 54.0544 6.10775 54.0592 5.85547 54.043 5.65039C 54.0039 5.25651 53.8851 4.94564 53.6865 4.71777C 53.488 4.48991 53.2243 4.36947 52.8955 4.35645C 52.4398 4.34668 52.0524 4.52572 51.7334 4.89355C 51.4144 5.26139 51.2174 5.74316 51.1426 6.33887L 51.1328 6.45117ZM 60.376 6.38281C 60.3109 6.92318 60.1628 7.40983 59.9316 7.84277C 59.7005 8.27572 59.4206 8.59635 59.0918 8.80469C 58.763 9.01302 58.3984 9.1123 57.998 9.10254C 57.36 9.08952 56.8864 8.85026 56.5771 8.38477L 56.3965 9L 55.5811 9L 56.8848 1.5L 57.7686 1.5L 57.2363 4.30273C 57.6595 3.83398 58.1738 3.60612 58.7793 3.61914C 59.2871 3.63216 59.6826 3.81934 59.9658 4.18066C 60.249 4.54199 60.3988 5.04004 60.415 5.6748C 60.4183 5.88314 60.4085 6.08496 60.3857 6.28027L 60.376 6.38281ZM 59.5361 5.87012C 59.5459 5.39486 59.4661 5.0319 59.2969 4.78125C 59.1276 4.52734 58.8688 4.39388 58.5205 4.38086C 57.9704 4.36784 57.5049 4.64453 57.124 5.21094L 56.7285 7.51074C 56.9238 8.04785 57.29 8.32292 57.8271 8.33594C 58.1722 8.34896 58.4733 8.24642 58.7305 8.02832C 58.9909 7.81022 59.1878 7.50586 59.3213 7.11523C 59.4548 6.72135 59.5264 6.30632 59.5361 5.87012ZM 64.0137 3.61914C 64.4564 3.62565 64.8356 3.74609 65.1514 3.98047C 65.4671 4.21484 65.6999 4.53874 65.8496 4.95215C 66.0026 5.3623 66.0547 5.81152 66.0059 6.2998L 65.9961 6.40723C 65.9342 6.92155 65.7812 7.38704 65.5371 7.80371C 65.293 8.21712 64.9772 8.53939 64.5898 8.77051C 64.2025 9.00163 63.7777 9.11068 63.3154 9.09766C 62.876 9.09115 62.4967 8.9707 62.1777 8.73633C 61.862 8.50195 61.6309 8.18294 61.4844 7.7793C 61.3379 7.37565 61.2858 6.93132 61.3281 6.44629C 61.377 5.89941 61.5251 5.40788 61.7725 4.97168C 62.0199 4.53548 62.3372 4.19857 62.7246 3.96094C 63.1152 3.72005 63.5449 3.60612 64.0137 3.61914ZM 62.2168 6.45117C 62.194 6.65625 62.194 6.86947 62.2168 7.09082C 62.2493 7.47493 62.3633 7.78092 62.5586 8.00879C 62.7572 8.23665 63.0208 8.35547 63.3496 8.36523C 63.6426 8.375 63.9128 8.30339 64.1602 8.15039C 64.4076 7.99414 64.6159 7.75977 64.7852 7.44727C 64.9544 7.13477 65.0635 6.78809 65.1123 6.40723C 65.1383 6.10775 65.1432 5.85547 65.127 5.65039C 65.0879 5.25651 64.9691 4.94564 64.7705 4.71777C 64.5719 4.48991 64.3083 4.36947 63.9795 4.35645C 63.5238 4.34668 63.1364 4.52572 62.8174 4.89355C 62.4984 5.26139 62.3014 5.74316 62.2266 6.33887L 62.2168 6.45117ZM 65.6006 2.82812L 65.6006 2.89648L 64.8828 2.88672L 64.3311 2.06152L 63.4717 2.88184L 62.7246 2.89648L 62.7246 2.81836L 64.082 1.5L 64.5996 1.5L 65.6006 2.82812Z"/>
<path id="path31_fill" d="M 0.288086 9L 1.52344 1.89062L 3.36914 1.89551C 3.94857 1.89551 4.44661 2.04036 4.86328 2.33008C 5.2832 2.61979 5.58431 3.02018 5.7666 3.53125C 5.94889 4.03906 6.0026 4.60872 5.92773 5.24023L 5.87891 5.59668C 5.73568 6.63184 5.33366 7.45866 4.67285 8.07715C 4.01204 8.69238 3.18197 9 2.18262 9L 0.288086 9ZM 2.30469 2.66211L 1.33789 8.2334L 2.24121 8.23828C 2.93132 8.23828 3.51562 8.02344 3.99414 7.59375C 4.47591 7.16406 4.78841 6.57487 4.93164 5.82617C 5.04557 5.22721 5.08464 4.71777 5.04883 4.29785C 5 3.79329 4.83236 3.39941 4.5459 3.11621C 4.25944 2.82975 3.87533 2.68001 3.39355 2.66699L 2.30469 2.66211ZM 7.52441 9L 6.64551 9L 7.56348 3.7168L 8.44238 3.7168L 7.52441 9ZM 8.25195 1.78809C 8.40169 1.78158 8.52539 1.82715 8.62305 1.9248C 8.72396 2.01921 8.77441 2.14453 8.77441 2.30078C 8.77116 2.45378 8.7207 2.5791 8.62305 2.67676C 8.52865 2.77441 8.40495 2.8265 8.25195 2.83301C 8.09896 2.83952 7.97363 2.79557 7.87598 2.70117C 7.77832 2.60677 7.73112 2.48307 7.73438 2.33008C 7.73763 2.17708 7.78646 2.05013 7.88086 1.94922C 7.97526 1.84831 8.09896 1.7946 8.25195 1.78809ZM 12.2559 4.52246L 11.8408 4.47852C 11.2744 4.47852 10.8285 4.73405 10.5029 5.24512L 9.85352 9L 8.96973 9L 9.8877 3.7168L 10.7422 3.71191L 10.6104 4.32715C 10.9847 3.83561 11.4258 3.59635 11.9336 3.60938C 12.041 3.60938 12.181 3.63379 12.3535 3.68262L 12.2559 4.52246ZM 14.4873 9.09766C 13.8298 9.08464 13.3154 8.84212 12.9443 8.37012C 12.5732 7.89811 12.417 7.29427 12.4756 6.55859L 12.5 6.34863C 12.5553 5.82454 12.71 5.34603 12.9639 4.91309C 13.221 4.48014 13.5335 4.15462 13.9014 3.93652C 14.2692 3.71517 14.6663 3.60938 15.0928 3.61914C 15.6364 3.63216 16.0628 3.81283 16.3721 4.16113C 16.6813 4.50944 16.8506 4.98145 16.8799 5.57715C 16.8896 5.78874 16.8831 6.00033 16.8604 6.21191L 16.8066 6.61719L 13.3545 6.61719C 13.2959 7.0957 13.374 7.5026 13.5889 7.83789C 13.807 8.17318 14.1309 8.34733 14.5605 8.36035C 15.0814 8.37337 15.5632 8.139 16.0059 7.65723L 16.5137 8.08691C 16.2923 8.40592 16.0059 8.65658 15.6543 8.83887C 15.306 9.0179 14.917 9.10417 14.4873 9.09766ZM 15.0488 4.35645C 14.6842 4.34668 14.3652 4.47038 14.0918 4.72754C 13.8216 4.9847 13.6068 5.36719 13.4473 5.875L 16.0156 5.87988L 16.0352 5.80176C 16.0872 5.3916 16.0205 5.05143 15.835 4.78125C 15.6527 4.50781 15.3906 4.36621 15.0488 4.35645ZM 18.3447 9L 17.4658 9L 18.3838 3.7168L 19.2627 3.7168L 18.3447 9ZM 19.0723 1.78809C 19.222 1.78158 19.3457 1.82715 19.4434 1.9248C 19.5443 2.01921 19.5947 2.14453 19.5947 2.30078C 19.5915 2.45378 19.541 2.5791 19.4434 2.67676C 19.349 2.77441 19.2253 2.8265 19.0723 2.83301C 18.9193 2.83952 18.7939 2.79557 18.6963 2.70117C 18.5986 2.60677 18.5514 2.48307 18.5547 2.33008C 18.5579 2.17708 18.6068 2.05013 18.7012 1.94922C 18.7956 1.84831 18.9193 1.7946 19.0723 1.78809ZM 22.124 2.4375L 21.8994 3.7168L 22.8613 3.7168L 22.7393 4.41504L 21.7822 4.41504L 21.2305 7.70117C 21.2207 7.78581 21.2191 7.86393 21.2256 7.93555C 21.2484 8.18945 21.3867 8.31641 21.6406 8.31641C 21.748 8.31641 21.8913 8.30013 22.0703 8.26758L 22.002 9.00488C 21.7904 9.06348 21.5755 9.09277 21.3574 9.09277C 21.0059 9.08626 20.7422 8.95768 20.5664 8.70703C 20.3906 8.45312 20.3223 8.11296 20.3613 7.68652L 20.8984 4.41504L 19.9658 4.41504L 20.0879 3.7168L 21.0205 3.7168L 21.2451 2.4375L 22.124 2.4375ZM 26.2451 9C 26.2223 8.9056 26.2109 8.81283 26.2109 8.72168L 26.2256 8.44336C 25.7406 8.89258 25.2262 9.11068 24.6826 9.09766C 24.2171 9.09115 23.8379 8.94466 23.5449 8.6582C 23.2552 8.36849 23.1234 8.00716 23.1494 7.57422C 23.182 7.01432 23.4261 6.57812 23.8818 6.26562C 24.3408 5.94987 24.943 5.79199 25.6885 5.79199L 26.6113 5.79688L 26.6699 5.37695C 26.7025 5.0612 26.6406 4.81217 26.4844 4.62988C 26.3314 4.44434 26.1003 4.34831 25.791 4.3418C 25.4883 4.33529 25.2197 4.41016 24.9854 4.56641C 24.7542 4.7194 24.6126 4.92285 24.5605 5.17676L 23.6719 5.18164C 23.7012 4.8724 23.8216 4.59896 24.0332 4.36133C 24.2448 4.12044 24.5166 3.9349 24.8486 3.80469C 25.1807 3.67122 25.5241 3.60775 25.8789 3.61426C 26.429 3.62728 26.8571 3.79492 27.1631 4.11719C 27.4691 4.4362 27.5977 4.861 27.5488 5.3916L 27.1191 8.00879L 27.0947 8.38477C 27.0882 8.5638 27.1077 8.74121 27.1533 8.91699L 27.1436 9L 26.2451 9ZM 24.8584 8.31641C 25.1416 8.32292 25.4085 8.25618 25.6592 8.11621C 25.9131 7.97298 26.1312 7.77604 26.3135 7.52539L 26.5039 6.43652L 25.835 6.43164C 25.2783 6.43164 24.8519 6.51953 24.5557 6.69531C 24.2594 6.87109 24.0918 7.12012 24.0527 7.44238C 24.0234 7.68978 24.0804 7.89648 24.2236 8.0625C 24.3701 8.22526 24.5817 8.3099 24.8584 8.31641Z"/>
<path id="path32_fill" d="M 4.76562 5.71387L 1.77734 5.71387L 1.33789 8.2334L 4.81445 8.2334L 4.67773 9L 0.288086 9L 1.52344 1.89062L 5.86426 1.89062L 5.72754 2.66211L 2.30469 2.66211L 1.90918 4.94727L 4.89746 4.94727L 4.76562 5.71387ZM 8.98926 7.56934C 9.03809 7.20475 8.83789 6.94759 8.38867 6.79785L 7.4707 6.5293C 6.69596 6.26237 6.32161 5.81966 6.34766 5.20117C 6.37044 4.73568 6.58203 4.35482 6.98242 4.05859C 7.38607 3.75911 7.8597 3.61263 8.40332 3.61914C 8.93717 3.62565 9.37012 3.7819 9.70215 4.08789C 10.0374 4.39062 10.1986 4.78613 10.1855 5.27441L 9.30664 5.26953C 9.31315 5.00586 9.23014 4.79102 9.05762 4.625C 8.88509 4.45898 8.6556 4.37272 8.36914 4.36621C 8.06315 4.3597 7.79948 4.43457 7.57812 4.59082C 7.37305 4.7373 7.25423 4.92936 7.22168 5.16699C 7.17936 5.47298 7.36654 5.69596 7.7832 5.83594L 8.22754 5.95801C 8.83301 6.11426 9.2627 6.31771 9.5166 6.56836C 9.77051 6.81901 9.8877 7.12988 9.86816 7.50098C 9.84863 7.82975 9.74121 8.11621 9.5459 8.36035C 9.35059 8.60449 9.09017 8.79167 8.76465 8.92188C 8.43913 9.04883 8.09245 9.10742 7.72461 9.09766C 7.16471 9.09115 6.70247 8.92839 6.33789 8.60938C 5.97331 8.28711 5.79753 7.8737 5.81055 7.36914L 6.69434 7.37402C 6.69434 7.67025 6.78874 7.90788 6.97754 8.08691C 7.16634 8.26595 7.42513 8.35547 7.75391 8.35547C 8.07617 8.36198 8.35449 8.29525 8.58887 8.15527C 8.82324 8.01204 8.95671 7.81673 8.98926 7.56934ZM 13.4717 3.61426C 14.0674 3.62728 14.5215 3.84049 14.834 4.25391L 14.9951 3.7168L 15.8105 3.7168L 14.541 11.0312L 13.6621 11.0312L 14.1406 8.51172C 13.7174 8.91536 13.2259 9.11068 12.666 9.09766C 12.1712 9.09115 11.7757 8.90397 11.4795 8.53613C 11.1833 8.16829 11.0238 7.67188 11.001 7.04688C 10.9814 6.64323 11.0286 6.21842 11.1426 5.77246C 11.2565 5.32324 11.4258 4.93262 11.6504 4.60059C 11.8783 4.2653 12.1468 4.01465 12.4561 3.84863C 12.7653 3.68262 13.1038 3.60449 13.4717 3.61426ZM 11.9092 6.45117L 11.8848 6.86133C 11.875 7.33333 11.9596 7.70117 12.1387 7.96484C 12.321 8.22526 12.5814 8.35872 12.9199 8.36523C 13.418 8.37826 13.859 8.14062 14.2432 7.65234L 14.7021 5.05469C 14.4873 4.60221 14.1357 4.36947 13.6475 4.35645C 13.2015 4.34668 12.8255 4.51758 12.5195 4.86914C 12.2135 5.2207 12.0101 5.74805 11.9092 6.45117ZM 19.6875 8.47754C 19.2741 8.90397 18.7484 9.11068 18.1104 9.09766C 17.6058 9.08464 17.2314 8.90397 16.9873 8.55566C 16.7464 8.20736 16.6569 7.7321 16.7188 7.12988L 17.2852 3.7168L 18.1689 3.7168L 17.5977 7.14453C 17.5814 7.28776 17.5781 7.42773 17.5879 7.56445C 17.6042 7.79883 17.6742 7.98275 17.7979 8.11621C 17.9215 8.24967 18.0941 8.32129 18.3154 8.33105C 18.9469 8.35059 19.4352 8.09505 19.7803 7.56445L 20.4443 3.7168L 21.3281 3.7168L 20.4102 9L 19.5752 9L 19.6875 8.47754ZM 24.0186 9.09766C 23.361 9.08464 22.8467 8.84212 22.4756 8.37012C 22.1045 7.89811 21.9482 7.29427 22.0068 6.55859L 22.0312 6.34863C 22.0866 5.82454 22.2412 5.34603 22.4951 4.91309C 22.7523 4.48014 23.0648 4.15462 23.4326 3.93652C 23.8005 3.71517 24.1976 3.60938 24.624 3.61914C 25.1676 3.63216 25.5941 3.81283 25.9033 4.16113C 26.2126 4.50944 26.3818 4.98145 26.4111 5.57715C 26.4209 5.78874 26.4144 6.00033 26.3916 6.21191L 26.3379 6.61719L 22.8857 6.61719C 22.8271 7.0957 22.9053 7.5026 23.1201 7.83789C 23.3382 8.17318 23.6621 8.34733 24.0918 8.36035C 24.6126 8.37337 25.0944 8.139 25.5371 7.65723L 26.0449 8.08691C 25.8236 8.40592 25.5371 8.65658 25.1855 8.83887C 24.8372 9.0179 24.4482 9.10417 24.0186 9.09766ZM 24.5801 4.35645C 24.2155 4.34668 23.8965 4.47038 23.623 4.72754C 23.3529 4.9847 23.138 5.36719 22.9785 5.875L 25.5469 5.87988L 25.5664 5.80176C 25.6185 5.3916 25.5518 5.05143 25.3662 4.78125C 25.1839 4.50781 24.9219 4.36621 24.5801 4.35645ZM 30.2051 4.52246L 29.79 4.47852C 29.2236 4.47852 28.7777 4.73405 28.4521 5.24512L 27.8027 9L 26.9189 9L 27.8369 3.7168L 28.6914 3.71191L 28.5596 4.32715C 28.9339 3.83561 29.375 3.59635 29.8828 3.60938C 29.9902 3.60938 30.1302 3.63379 30.3027 3.68262L 30.2051 4.52246ZM 30.4053 6.34863C 30.4704 5.81152 30.6185 5.3265 30.8496 4.89355C 31.0807 4.46061 31.3656 4.13672 31.7041 3.92188C 32.0426 3.70703 32.4154 3.60449 32.8223 3.61426C 33.4115 3.62728 33.8639 3.84212 34.1797 4.25879L 34.6875 1.5L 35.5713 1.5L 34.2725 9L 33.4668 9L 33.5596 8.43359C 33.1429 8.88932 32.6286 9.11068 32.0166 9.09766C 31.5283 9.08464 31.1393 8.89421 30.8496 8.52637C 30.5599 8.15527 30.4036 7.65885 30.3809 7.03711C 30.3711 6.84505 30.3792 6.61556 30.4053 6.34863ZM 31.2549 6.85645C 31.2451 7.32194 31.3281 7.68327 31.5039 7.94043C 31.6797 8.19759 31.9368 8.32943 32.2754 8.33594C 32.7865 8.35872 33.2406 8.10156 33.6377 7.56445L 34.0576 5.12305C 33.8623 4.64128 33.5075 4.39388 32.9932 4.38086C 32.6449 4.37109 32.3372 4.47689 32.0703 4.69824C 31.8066 4.91634 31.6048 5.22396 31.4648 5.62109C 31.3281 6.01497 31.2581 6.42676 31.2549 6.85645ZM 38.9014 9C 38.8786 8.9056 38.8672 8.81283 38.8672 8.72168L 38.8818 8.44336C 38.3968 8.89258 37.8825 9.11068 37.3389 9.09766C 36.8734 9.09115 36.4941 8.94466 36.2012 8.6582C 35.9115 8.36849 35.7796 8.00716 35.8057 7.57422C 35.8382 7.01432 36.0824 6.57812 36.5381 6.26562C 36.9971 5.94987 37.5993 5.79199 38.3447 5.79199L 39.2676 5.79688L 39.3262 5.37695C 39.3587 5.0612 39.2969 4.81217 39.1406 4.62988C 38.9876 4.44434 38.7565 4.34831 38.4473 4.3418C 38.1445 4.33529 37.876 4.41016 37.6416 4.56641C 37.4105 4.7194 37.2689 4.92285 37.2168 5.17676L 36.3281 5.18164C 36.3574 4.8724 36.4779 4.59896 36.6895 4.36133C 36.901 4.12044 37.1729 3.9349 37.5049 3.80469C 37.8369 3.67122 38.1803 3.60775 38.5352 3.61426C 39.0853 3.62728 39.5133 3.79492 39.8193 4.11719C 40.1253 4.4362 40.2539 4.861 40.2051 5.3916L 39.7754 8.00879L 39.751 8.38477C 39.7445 8.5638 39.764 8.74121 39.8096 8.91699L 39.7998 9L 38.9014 9ZM 37.5146 8.31641C 37.7979 8.32292 38.0648 8.25618 38.3154 8.11621C 38.5693 7.97298 38.7874 7.77604 38.9697 7.52539L 39.1602 6.43652L 38.4912 6.43164C 37.9346 6.43164 37.5081 6.51953 37.2119 6.69531C 36.9157 6.87109 36.748 7.12012 36.709 7.44238C 36.6797 7.68978 36.7367 7.89648 36.8799 8.0625C 37.0264 8.22526 37.238 8.3099 37.5146 8.31641Z"/>
</defs>
</svg>
