<svg width="601" height="368" viewBox="0 0 601 368" version="1.1" xmlns="http://www.w3.org/2000/svg" xmlns:xlink="http://www.w3.org/1999/xlink">
<title>walkinggait-walkingengine-sequence</title>
<desc>Created using Figma</desc>
<g id="Canvas" transform="translate(-305 417)">
<clipPath id="clip-0" clip-rule="evenodd">
<path d="M 305.333 -416.333L 905.996 -416.333L 905.996 -49.1178L 305.333 -49.1178L 305.333 -416.333Z" fill="#FFFFFF"/>
</clipPath>
<g id="walkinggait-walkingengine-sequence" clip-path="url(#clip-0)">
<path d="M 305.333 -416.333L 905.996 -416.333L 905.996 -49.1178L 305.333 -49.1178L 305.333 -416.333Z" fill="#FFFFFF"/>
<g id="Vector">
<use xlink:href="#path0_stroke" transform="matrix(1.3333 0 0 1.3333 420.662 -175.776)"/>
</g>
<g id="Vector">
<use xlink:href="#path1_fill" transform="matrix(1.3333 0 0 1.3333 809.985 -184.674)"/>
</g>
<g id="Vector (Stroke)">
<use xlink:href="#path2_fill" transform="matrix(1.3333 0 0 1.3333 809.319 -185.889)"/>
</g>
<g id="Vector">
<use xlink:href="#path3_stroke" transform="matrix(1.3333 0 0 1.3333 420.662 -142.444)"/>
</g>
<g id="Vector">
<use xlink:href="#path4_stroke" transform="matrix(1.3333 0 0 1.3333 420.662 -150.443)"/>
</g>
<g id="Vector">
<use xlink:href="#path5_stroke" transform="matrix(1.3333 0 0 1.3333 420.662 -142.444)"/>
</g>
<g id="Vector (Stroke)">
<use xlink:href="#path6_fill" transform="matrix(1.3333 0 0 1.3333 305.333 -263.339)"/>
</g>
<g id="Vector (Stroke)">
<use xlink:href="#path7_fill" transform="matrix(1.3333 0 0 1.3333 305.666 -263.774)"/>
</g>
<g id="Vector">
<use xlink:href="#path8_stroke" transform="matrix(1.3333 0 0 1.3333 387.329 -374.668)"/>
</g>
<g id="Vector">
<use xlink:href="#path9_fill" transform="matrix(1.3333 0 0 1.3333 314 -415)" fill="#FFFFCC"/>
</g>
<g id="Vector (Stroke)">
<use xlink:href="#path10_fill" transform="matrix(1.3333 0 0 1.3333 312.667 -416.333)"/>
</g>
<g id="Group">
<g id="Vector">
<use xlink:href="#path11_fill" transform="matrix(1.3333 0 0 1.3333 342 -401)"/>
</g>
</g>
<g id="Vector">
<use xlink:href="#path12_fill" transform="matrix(1.3333 0 0 1.3333 407.329 -210.442)" fill="#FFFFFF"/>
</g>
<g id="Vector">
<use xlink:href="#path13_stroke" transform="matrix(1.3333 0 0 1.3333 407.329 -210.442)"/>
</g>
<g id="Vector">
<use xlink:href="#path14_fill" transform="matrix(1.3333 0 0 1.3333 393.996 -299.772)" fill="#FFFFFF"/>
</g>
<g id="Vector">
<use xlink:href="#path15_stroke" transform="matrix(1.3333 0 0 1.3333 393.996 -299.772)"/>
</g>
<g id="Vector">
<use xlink:href="#path16_fill" transform="matrix(1.3333 0 0 1.3333 380.663 -359.104)" fill="#FFFFFF"/>
</g>
<g id="Vector">
<use xlink:href="#path17_stroke" transform="matrix(1.3333 0 0 1.3333 380.663 -359.104)"/>
</g>
<g id="Group">
<g id="Vector">
<use xlink:href="#path18_fill" transform="matrix(1.3333 0 0 1.3333 493.326 -307.756)"/>
</g>
</g>
<g id="Vector">
<use xlink:href="#path19_stroke" transform="matrix(1.3333 0 0 1.3333 393.996 -316.438)"/>
</g>
<g id="Vector">
<use xlink:href="#path20_stroke" transform="matrix(1.3333 0 0 1.3333 472.66 -316.438)"/>
</g>
<g id="Vector">
<use xlink:href="#path21_stroke" transform="matrix(1.3333 0 0 1.3333 422.206 -289.772)"/>
</g>
<g id="Vector">
<use xlink:href="#path22_fill" transform="matrix(1.3333 0 0 1.3333 407.329 -298.671)"/>
</g>
<g id="Vector">
<use xlink:href="#path23_stroke" transform="matrix(1.3333 0 0 1.3333 407.329 -298.671)"/>
</g>
<g id="Vector">
<use xlink:href="#path24_stroke" transform="matrix(1.3333 0 0 1.3333 831.318 -374.669)"/>
</g>
<g id="Group">
<g id="Vector">
<use xlink:href="#path9_fill" transform="matrix(1.3333 0 0 1.3333 758 -415)" fill="#FFFFCC"/>
</g>
<g id="Vector (Stroke)">
<use xlink:href="#path10_fill" transform="matrix(1.3333 0 0 1.3333 756.667 -416.333)"/>
</g>
</g>
<g id="Group">
<g id="Vector">
<use xlink:href="#path25_fill" transform="matrix(1.3333 0 0 1.3333 793 -401)"/>
</g>
</g>
<g id="Group">
<g id="Vector">
<use xlink:href="#path26_fill" transform="matrix(1.3333 0 0 1.3333 426 -248)"/>
</g>
</g>
<g id="Group">
<g id="Vector">
<use xlink:href="#path27_stroke" transform="matrix(1.3333 0 0 1.3333 407.329 -227.108)"/>
</g>
<g id="Vector">
<use xlink:href="#path20_stroke" transform="matrix(1.3333 0 0 1.3333 487.327 -227.108)"/>
</g>
<g id="Vector">
<use xlink:href="#path28_stroke" transform="matrix(1.3333 0 0 1.3333 435.539 -200.442)"/>
</g>
<g id="Vector">
<use xlink:href="#path22_fill" transform="matrix(1.3333 0 0 1.3333 420.662 -209.34)"/>
</g>
<g id="Vector">
<use xlink:href="#path23_stroke" transform="matrix(1.3333 0 0 1.3333 420.662 -209.34)"/>
</g>
</g>
<g id="Group">
<g id="Vector">
<use xlink:href="#path29_fill" transform="matrix(1.3333 0 0 1.3333 824.651 -175.776)" fill="#FFFFFF"/>
</g>
<g id="Vector">
<use xlink:href="#path30_stroke" transform="matrix(1.3333 0 0 1.3333 824.651 -175.776)"/>
</g>
</g>
<g id="Group">
<g id="Vector">
<use xlink:href="#path31_fill" transform="matrix(1.3333 0 0 1.3333 531.392 -195.826)"/>
</g>
</g>
<g id="Group">
<g id="Vector">
<use xlink:href="#path32_fill" transform="matrix(1.3333 0 0 1.3333 319.895 -252.441)"/>
</g>
</g>
</g>
</g>
<defs>
<path id="path0_stroke" d="M 0 -0.500002L -0.5 -0.500002L -0.5 0.499998L 0 0.499998L 0 -0.500002ZM 291.842 0.499998L 292.342 0.499998L 292.342 -0.500002L 291.842 -0.500002L 291.842 0.499998ZM 0 0.499998L 291.842 0.499998L 291.842 -0.500002L 0 -0.500002L 0 0.499998Z"/>
<path id="path1_fill" d="M 11 7L 0 0L 0 13L 11 7Z"/>
<path id="path2_fill" fill-rule="evenodd" d="M 0 0L 0.768438 0.489006L 11.7684 7.48901L 12.4834 7.94398L 11.7394 8.34978L 0.739426 14.3498L 0 14.7531L 0 13.9108L 0 0.910837L 0 0ZM 1 1.82167L 1 13.0686L 10.5166 7.87769L 1 1.82167Z"/>
<path id="path3_stroke" d="M 0 0.499998L 5.05167 0.499998L 5.05167 -0.500002L 0 -0.500002L 0 0.499998ZM 10.1033 0.499998L 20.2067 0.499998L 20.2067 -0.500002L 10.1033 -0.500002L 10.1033 0.499998ZM 25.2583 0.499998L 35.3617 0.499998L 35.3617 -0.500002L 25.2583 -0.500002L 25.2583 0.499998ZM 40.4133 0.499998L 50.5167 0.499998L 50.5167 -0.500002L 40.4133 -0.500002L 40.4133 0.499998ZM 55.5683 0.499998L 65.6717 0.499998L 65.6717 -0.500002L 55.5683 -0.500002L 55.5683 0.499998ZM 70.7233 0.499998L 80.8267 0.499998L 80.8267 -0.500002L 70.7233 -0.500002L 70.7233 0.499998ZM 85.8783 0.499998L 95.9817 0.499998L 95.9817 -0.500002L 85.8783 -0.500002L 85.8783 0.499998ZM 101.033 0.499998L 111.137 0.499998L 111.137 -0.500002L 101.033 -0.500002L 101.033 0.499998ZM 116.188 0.499998L 126.292 0.499998L 126.292 -0.500002L 116.188 -0.500002L 116.188 0.499998ZM 131.343 0.499998L 141.447 0.499998L 141.447 -0.500002L 131.343 -0.500002L 131.343 0.499998ZM 146.498 0.499998L 156.602 0.499998L 156.602 -0.500002L 146.498 -0.500002L 146.498 0.499998ZM 161.653 0.499998L 171.757 0.499998L 171.757 -0.500002L 161.653 -0.500002L 161.653 0.499998ZM 176.808 0.499998L 186.912 0.499998L 186.912 -0.500002L 176.808 -0.500002L 176.808 0.499998ZM 191.963 0.499998L 202.067 0.499998L 202.067 -0.500002L 191.963 -0.500002L 191.963 0.499998ZM 207.118 0.499998L 217.222 0.499998L 217.222 -0.500002L 207.118 -0.500002L 207.118 0.499998ZM 222.273 0.499998L 232.377 0.499998L 232.377 -0.500002L 222.273 -0.500002L 222.273 0.499998ZM 237.428 0.499998L 247.532 0.499998L 247.532 -0.500002L 237.428 -0.500002L 237.428 0.499998ZM 252.583 0.499998L 262.687 0.499998L 262.687 -0.500002L 252.583 -0.500002L 252.583 0.499998ZM 267.738 0.499998L 277.842 0.499998L 277.842 -0.500002L 267.738 -0.500002L 267.738 0.499998ZM 282.893 0.499998L 292.997 0.499998L 292.997 -0.500002L 282.893 -0.500002L 282.893 0.499998ZM 298.048 0.499998L 303.1 0.499998L 303.1 -0.500002L 298.048 -0.500002L 298.048 0.499998Z"/>
<path id="path4_stroke" d="M -0.25 5.56698L -0.683013 5.81698L -0.183013 6.68301L 0.25 6.43301L -0.25 5.56698ZM 10.6423 0.43301L 11.0753 0.18301L 10.5753 -0.683015L 10.1423 -0.433015L 10.6423 0.43301ZM 0.25 6.43301L 10.6423 0.43301L 10.1423 -0.433015L -0.25 5.56698L 0.25 6.43301Z"/>
<path id="path5_stroke" d="M 0.25 -0.433015L -0.183013 -0.683015L -0.683013 0.18301L -0.25 0.43301L 0.25 -0.433015ZM 10.1423 6.43301L 10.5753 6.68301L 11.0753 5.81698L 10.6423 5.56698L 10.1423 6.43301ZM -0.25 0.43301L 10.1423 6.43301L 10.6423 5.56698L 0.25 -0.433015L -0.25 0.43301Z"/>
<path id="path6_fill" fill-rule="evenodd" d="M 0 0L 0.5 0L 44.5 0L 45 0L 45 0.5L 45 16.5L 45 16.7071L 44.8536 16.8536L 34.8536 26.8536L 34.7071 27L 34.5 27L 0.5 27L 0 27L 0 26.5L 0 0.5L 0 0ZM 1 1L 1 26L 34.2929 26L 44 16.2929L 44 1L 1 1Z"/>
<path id="path7_fill" fill-rule="evenodd" d="M 0 0L 0.5 0L 420.249 0L 420.749 0L 420.749 0.5L 420.749 121.25L 420.749 121.75L 420.249 121.75L 0.5 121.75L 0 121.75L 0 121.25L 0 0.5L 0 0ZM 1 1L 1 120.75L 419.749 120.75L 419.749 1L 1 1Z"/>
<path id="path8_stroke" d="M -0.5 0L -0.5 5.81354L 0.5 5.81354L 0.5 0L -0.5 0ZM -0.5 11.6271L -0.5 23.2542L 0.5 23.2542L 0.5 11.6271L -0.5 11.6271ZM -0.5 29.0677L -0.5 40.6948L 0.5 40.6948L 0.5 29.0677L -0.5 29.0677ZM -0.5 46.5083L -0.5 58.1354L 0.5 58.1354L 0.5 46.5083L -0.5 46.5083ZM -0.5 63.949L -0.5 75.576L 0.5 75.576L 0.5 63.949L -0.5 63.949ZM -0.5 81.3896L -0.5 93.0167L 0.5 93.0167L 0.5 81.3896L -0.5 81.3896ZM -0.5 98.8302L -0.5 110.457L 0.5 110.457L 0.5 98.8302L -0.5 98.8302ZM -0.5 116.271L -0.5 127.898L 0.5 127.898L 0.5 116.271L -0.5 116.271ZM -0.5 133.711L -0.5 145.339L 0.5 145.339L 0.5 133.711L -0.5 133.711ZM -0.5 151.152L -0.5 162.779L 0.5 162.779L 0.5 151.152L -0.5 151.152ZM -0.5 168.593L -0.5 180.22L 0.5 180.22L 0.5 168.593L -0.5 168.593ZM -0.5 186.033L -0.5 197.66L 0.5 197.66L 0.5 186.033L -0.5 186.033ZM -0.5 203.474L -0.5 215.101L 0.5 215.101L 0.5 203.474L -0.5 203.474ZM -0.5 220.915L -0.5 232.542L 0.5 232.542L 0.5 220.915L -0.5 220.915ZM -0.5 238.355L -0.5 244.169L 0.5 244.169L 0.5 238.355L -0.5 238.355Z"/>
<path id="path9_fill" d="M 110 0L 0 0L 0 30L 110 30L 110 0Z"/>
<path id="path10_fill" fill-rule="evenodd" d="M 0 0L 1 0L 111 0L 112 0L 112 1L 112 31L 112 32L 111 32L 1 32L 0 32L 0 31L 0 1L 0 0ZM 2 2L 2 30L 110 30L 110 2L 2 2Z"/>
<path id="path11_fill" d="M 3.0625 3.625C 2.89583 3.6042 2.71877 3.5938 2.5313 3.5938C 1.8125 3.5938 1.3281 3.89587 1.0781 4.5L 1.0781 9L 2.56538e-08 9L 2.56538e-08 2.6562L 1.0469 2.6562L 1.0625 3.3906C 1.4167 2.82813 1.9219 2.5469 2.5781 2.5469C 2.7865 2.5469 2.94797 2.57293 3.0625 2.625L 3.0625 3.625ZM 3.7637 5.7656C 3.7637 5.15107 3.8861 4.5938 4.1309 4.0938C 4.3757 3.5938 4.71683 3.21097 5.1543 2.9453C 5.59183 2.6797 6.08663 2.5469 6.6387 2.5469C 7.5033 2.5469 8.20383 2.84377 8.7403 3.4375C 9.2767 4.03123 9.5449 4.8281 9.5449 5.8281L 9.5449 5.9062C 9.5449 6.5208 9.42513 7.0729 9.1856 7.5625C 8.946 8.0521 8.60743 8.4349 8.1699 8.7109C 7.73243 8.98697 7.22723 9.125 6.6543 9.125C 5.80017 9.125 5.10487 8.82553 4.5684 8.2266C 4.03193 7.6276 3.7637 6.83333 3.7637 5.8438L 3.7637 5.7656ZM 4.8574 5.9062C 4.8574 6.60413 5.02147 7.16667 5.3496 7.5938C 5.67773 8.02087 6.11263 8.2344 6.6543 8.2344C 7.20637 8.2344 7.64387 8.01823 7.9668 7.5859C 8.28973 7.15363 8.4512 6.54687 8.4512 5.7656C 8.4512 5.07813 8.28713 4.51823 7.959 4.0859C 7.63087 3.65363 7.19077 3.4375 6.6387 3.4375C 6.10743 3.4375 5.67773 3.64843 5.3496 4.0703C 5.02147 4.49217 4.8574 5.10413 4.8574 5.9062ZM 16.2637 5.9062C 16.2637 6.875 16.0423 7.65367 15.5996 8.2422C 15.1569 8.83073 14.5606 9.125 13.8106 9.125C 13.0085 9.125 12.3887 8.83853 11.9512 8.2656L 11.8887 9L 10.9043 9L 10.9043 0L 11.9824 0L 11.9824 3.3594C 12.4199 2.81773 13.0241 2.5469 13.7949 2.5469C 14.5658 2.5469 15.1699 2.83597 15.6074 3.4141C 16.0449 3.99217 16.2637 4.79163 16.2637 5.8125L 16.2637 5.9062ZM 15.1856 5.7812C 15.1856 5.04167 15.0424 4.47137 14.7559 4.0703C 14.4694 3.6693 14.0606 3.4688 13.5293 3.4688C 12.8106 3.4688 12.2949 3.7969 11.9824 4.4531L 11.9824 7.2031C 12.3157 7.86977 12.8314 8.2031 13.5293 8.2031C 14.0502 8.2031 14.4564 8 14.7481 7.5938C 15.0398 7.18753 15.1856 6.58333 15.1856 5.7812ZM 17.3399 5.7656C 17.3399 5.15107 17.4623 4.5938 17.7071 4.0938C 17.9518 3.5938 18.293 3.21097 18.7305 2.9453C 19.168 2.6797 19.6628 2.5469 20.2149 2.5469C 21.0794 2.5469 21.7799 2.84377 22.3164 3.4375C 22.8529 4.03123 23.1211 4.8281 23.1211 5.8281L 23.1211 5.9062C 23.1211 6.5208 23.0013 7.0729 22.7617 7.5625C 22.5222 8.0521 22.1836 8.4349 21.7461 8.7109C 21.3086 8.98697 20.8034 9.125 20.2305 9.125C 19.3763 9.125 18.681 8.82553 18.1446 8.2266C 17.6081 7.6276 17.3399 6.83333 17.3399 5.8438L 17.3399 5.7656ZM 18.4336 5.9062C 18.4336 6.60413 18.5977 7.16667 18.9258 7.5938C 19.2539 8.02087 19.6888 8.2344 20.2305 8.2344C 20.7826 8.2344 21.2201 8.01823 21.543 7.5859C 21.8659 7.15363 22.0274 6.54687 22.0274 5.7656C 22.0274 5.07813 21.8633 4.51823 21.5352 4.0859C 21.2071 3.65363 20.767 3.4375 20.2149 3.4375C 19.6836 3.4375 19.2539 3.64843 18.9258 4.0703C 18.5977 4.49217 18.4336 5.10413 18.4336 5.9062ZM 25.9492 1.125L 25.9492 2.6562L 27.1211 2.6562L 27.1211 3.5L 25.9492 3.5L 25.9492 7.4219C 25.9492 7.6823 26.0013 7.875 26.1055 8C 26.2096 8.125 26.3867 8.1875 26.6367 8.1875C 26.7617 8.1875 26.9336 8.16667 27.1524 8.125L 27.1524 9C 26.8711 9.08333 26.5951 9.125 26.3242 9.125C 25.8451 9.125 25.4805 8.97657 25.2305 8.6797C 24.9805 8.38283 24.8555 7.96357 24.8555 7.4219L 24.8555 3.5L 23.6992 3.5L 23.6992 2.6562L 24.8555 2.6562L 24.8555 1.125L 25.9492 1.125ZM 31.3867 8.4375C 31.3867 8.24997 31.4414 8.09373 31.5508 7.9688C 31.6602 7.84373 31.8269 7.7812 32.0508 7.7812C 32.2747 7.7812 32.444 7.84373 32.5586 7.9688C 32.6732 8.09373 32.7305 8.24997 32.7305 8.4375C 32.7305 8.61457 32.6732 8.763 32.5586 8.8828C 32.444 9.0026 32.2747 9.0625 32.0508 9.0625C 31.8269 9.0625 31.6602 9.0026 31.5508 8.8828C 31.4414 8.763 31.3867 8.61457 31.3867 8.4375ZM 31.3867 2.6562C 31.3867 2.46873 31.4414 2.3125 31.5508 2.1875C 31.6602 2.0625 31.8269 2 32.0508 2C 32.2747 2 32.444 2.0625 32.5586 2.1875C 32.6732 2.3125 32.7305 2.46873 32.7305 2.6562C 32.7305 2.83333 32.6732 2.9818 32.5586 3.1016C 32.444 3.22133 32.2747 3.2812 32.0508 3.2812C 31.8269 3.2812 31.6602 3.22133 31.5508 3.1016C 31.4414 2.9818 31.3867 2.83333 31.3867 2.6562ZM 40.5449 5.5469L 38.5293 5.5469L 38.5293 9L 37.4043 9L 37.4043 0.4688L 40.2324 0.4688C 41.1907 0.4688 41.9277 0.687533 42.4434 1.125C 42.959 1.56247 43.2168 2.19787 43.2168 3.0312C 43.2168 3.56247 43.0736 4.02603 42.7871 4.4219C 42.5006 4.8177 42.1022 5.11457 41.5918 5.3125L 43.5918 8.9219L 43.5918 9L 42.3887 9L 40.5449 5.5469ZM 38.5293 4.625L 40.2637 4.625C 40.8262 4.625 41.2715 4.48177 41.5996 4.1953C 41.9277 3.90883 42.0918 3.5208 42.0918 3.0312C 42.0918 2.5104 41.9356 2.10937 41.6231 1.8281C 41.3106 1.54683 40.8574 1.401 40.2637 1.3906L 38.5293 1.3906L 38.5293 4.625ZM 44.3399 5.7656C 44.3399 5.15107 44.4623 4.5938 44.7071 4.0938C 44.9518 3.5938 45.293 3.21097 45.7305 2.9453C 46.168 2.6797 46.6628 2.5469 47.2149 2.5469C 48.0794 2.5469 48.7799 2.84377 49.3164 3.4375C 49.8529 4.03123 50.1211 4.8281 50.1211 5.8281L 50.1211 5.9062C 50.1211 6.5208 50.0013 7.0729 49.7617 7.5625C 49.5222 8.0521 49.1836 8.4349 48.7461 8.7109C 48.3086 8.98697 47.8034 9.125 47.2305 9.125C 46.3763 9.125 45.681 8.82553 45.1446 8.2266C 44.6081 7.6276 44.3399 6.83333 44.3399 5.8438L 44.3399 5.7656ZM 45.4336 5.9062C 45.4336 6.60413 45.5977 7.16667 45.9258 7.5938C 46.2539 8.02087 46.6888 8.2344 47.2305 8.2344C 47.7826 8.2344 48.2201 8.01823 48.543 7.5859C 48.8659 7.15363 49.0274 6.54687 49.0274 5.7656C 49.0274 5.07813 48.8633 4.51823 48.5352 4.0859C 48.2071 3.65363 47.767 3.4375 47.2149 3.4375C 46.6836 3.4375 46.2539 3.64843 45.9258 4.0703C 45.5977 4.49217 45.4336 5.10413 45.4336 5.9062ZM 56.8399 5.9062C 56.8399 6.875 56.6185 7.65367 56.1758 8.2422C 55.7331 8.83073 55.1367 9.125 54.3867 9.125C 53.5846 9.125 52.9649 8.83853 52.5274 8.2656L 52.4649 9L 51.4805 9L 51.4805 0L 52.5586 0L 52.5586 3.3594C 52.9961 2.81773 53.6003 2.5469 54.3711 2.5469C 55.142 2.5469 55.7461 2.83597 56.1836 3.4141C 56.6211 3.99217 56.8399 4.79163 56.8399 5.8125L 56.8399 5.9062ZM 55.7617 5.7812C 55.7617 5.04167 55.6185 4.47137 55.3321 4.0703C 55.0456 3.6693 54.6368 3.4688 54.1055 3.4688C 53.3868 3.4688 52.8711 3.7969 52.5586 4.4531L 52.5586 7.2031C 52.8919 7.86977 53.4076 8.2031 54.1055 8.2031C 54.6263 8.2031 55.0325 8 55.3242 7.5938C 55.6159 7.18753 55.7617 6.58333 55.7617 5.7812ZM 57.916 5.7656C 57.916 5.15107 58.0384 4.5938 58.2832 4.0938C 58.528 3.5938 58.8692 3.21097 59.3067 2.9453C 59.7442 2.6797 60.2389 2.5469 60.791 2.5469C 61.6556 2.5469 62.3561 2.84377 62.8926 3.4375C 63.4291 4.03123 63.6973 4.8281 63.6973 5.8281L 63.6973 5.9062C 63.6973 6.5208 63.5775 7.0729 63.3379 7.5625C 63.0983 8.0521 62.7598 8.4349 62.3223 8.7109C 61.8848 8.98697 61.3796 9.125 60.8067 9.125C 59.9525 9.125 59.2572 8.82553 58.7207 8.2266C 58.1842 7.6276 57.916 6.83333 57.916 5.8438L 57.916 5.7656ZM 59.0098 5.9062C 59.0098 6.60413 59.1739 7.16667 59.502 7.5938C 59.8301 8.02087 60.265 8.2344 60.8067 8.2344C 61.3588 8.2344 61.7963 8.01823 62.1192 7.5859C 62.4421 7.15363 62.6035 6.54687 62.6035 5.7656C 62.6035 5.07813 62.4395 4.51823 62.1114 4.0859C 61.7833 3.65363 61.3431 3.4375 60.791 3.4375C 60.2598 3.4375 59.8301 3.64843 59.502 4.0703C 59.1739 4.49217 59.0098 5.10413 59.0098 5.9062ZM 66.5254 1.125L 66.5254 2.6562L 67.6973 2.6562L 67.6973 3.5L 66.5254 3.5L 66.5254 7.4219C 66.5254 7.6823 66.5775 7.875 66.6817 8C 66.7858 8.125 66.9629 8.1875 67.2129 8.1875C 67.3379 8.1875 67.5098 8.16667 67.7285 8.125L 67.7285 9C 67.4473 9.08333 67.1713 9.125 66.9004 9.125C 66.4213 9.125 66.0567 8.97657 65.8067 8.6797C 65.5567 8.38283 65.4317 7.96357 65.4317 7.4219L 65.4317 3.5L 64.2754 3.5L 64.2754 2.6562L 65.4317 2.6562L 65.4317 1.125L 66.5254 1.125Z"/>
<path id="path12_fill" d="M 10 -2.39258e-06L 0 -2.39258e-06L 0 71L 10 71L 10 -2.39258e-06Z"/>
<path id="path13_stroke" d="M 0 -2.39258e-06L 0 -0.500002L -0.5 -0.500002L -0.5 -2.39258e-06L 0 -2.39258e-06ZM 10 -2.39258e-06L 10.5 -2.39258e-06L 10.5 -0.500002L 10 -0.500002L 10 -2.39258e-06ZM 10 71L 10 71.5L 10.5 71.5L 10.5 71L 10 71ZM 0 71L -0.5 71L -0.5 71.5L 0 71.5L 0 71ZM 0 0.499998L 10 0.499998L 10 -0.500002L 0 -0.500002L 0 0.499998ZM 9.5 -2.39258e-06L 9.5 71L 10.5 71L 10.5 -2.39258e-06L 9.5 -2.39258e-06ZM 10 70.5L 0 70.5L 0 71.5L 10 71.5L 10 70.5ZM 0.5 71L 0.5 -2.39258e-06L -0.5 -2.39258e-06L -0.5 71L 0.5 71Z"/>
<path id="path14_fill" d="M 10 0L 0 0L 0 162L 10 162L 10 0Z"/>
<path id="path15_stroke" d="M 0 0L 0 -0.5L -0.5 -0.5L -0.5 0L 0 0ZM 10 0L 10.5 0L 10.5 -0.5L 10 -0.5L 10 0ZM 10 162L 10 162.5L 10.5 162.5L 10.5 162L 10 162ZM 0 162L -0.5 162L -0.5 162.5L 0 162.5L 0 162ZM 0 0.5L 10 0.5L 10 -0.5L 0 -0.5L 0 0.5ZM 9.5 0L 9.5 162L 10.5 162L 10.5 0L 9.5 0ZM 10 161.5L 0 161.5L 0 162.5L 10 162.5L 10 161.5ZM 0.5 162L 0.5 0L -0.5 0L -0.5 162L 0.5 162Z"/>
<path id="path16_fill" d="M 10 0L 0 0L 0 221.749L 10 221.749L 10 0Z"/>
<path id="path17_stroke" d="M 0 0L 0 -0.5L -0.5 -0.5L -0.5 0L 0 0ZM 10 0L 10.5 0L 10.5 -0.5L 10 -0.5L 10 0ZM 10 220.999L 10 221.499L 10.5 221.499L 10.5 220.999L 10 220.999ZM 0 220.999L -0.5 220.999L -0.5 221.499L 0 221.499L 0 220.999ZM 0 0.5L 10 0.5L 10 -0.5L 0 -0.5L 0 0.5ZM 9.5 0L 9.5 220.999L 10.5 220.999L 10.5 0L 9.5 0ZM 10 220.499L 0 220.499L 0 221.499L 10 221.499L 10 220.499ZM 0.5 220.999L 0.5 0L -0.5 0L -0.5 220.999L 0.5 220.999Z"/>
<path id="path18_fill" d="M 3.2656 9.625L 2.1875 9.625L 2.1875 2.4062L 0 3.2031L 0 2.2188L 3.1094 1.0469L 3.2656 1.0469L 3.2656 9.625ZM 6.582 9.0625C 6.582 8.87497 6.6367 8.71873 6.7461 8.5938C 6.8555 8.46873 7.02217 8.4062 7.2461 8.4062C 7.47003 8.4062 7.6393 8.46873 7.7539 8.5938C 7.8685 8.71873 7.9258 8.87497 7.9258 9.0625C 7.9258 9.23957 7.8685 9.388 7.7539 9.5078C 7.6393 9.6276 7.47003 9.6875 7.2461 9.6875C 7.02217 9.6875 6.8555 9.6276 6.7461 9.5078C 6.6367 9.388 6.582 9.23957 6.582 9.0625ZM 6.582 3.2812C 6.582 3.09373 6.6367 2.9375 6.7461 2.8125C 6.8555 2.6875 7.02217 2.625 7.2461 2.625C 7.47003 2.625 7.6393 2.6875 7.7539 2.8125C 7.8685 2.9375 7.9258 3.09373 7.9258 3.2812C 7.9258 3.45833 7.8685 3.6068 7.7539 3.7266C 7.6393 3.84633 7.47003 3.9062 7.2461 3.9062C 7.02217 3.9062 6.8555 3.84633 6.7461 3.7266C 6.6367 3.6068 6.582 3.45833 6.582 3.2812ZM 12.1465 6.3906C 12.1465 5.77607 12.2689 5.2188 12.5137 4.7188C 12.7585 4.2188 13.0996 3.83597 13.5371 3.5703C 13.9746 3.3047 14.4694 3.1719 15.0215 3.1719C 15.8861 3.1719 16.5866 3.46877 17.123 4.0625C 17.6595 4.65623 17.9277 5.4531 17.9277 6.4531L 17.9277 6.5312C 17.9277 7.1458 17.8079 7.6979 17.5684 8.1875C 17.3288 8.6771 16.9902 9.0599 16.5527 9.3359C 16.1152 9.61197 15.61 9.75 15.0371 9.75C 14.183 9.75 13.4877 9.45053 12.9512 8.8516C 12.4147 8.2526 12.1465 7.45833 12.1465 6.4688L 12.1465 6.3906ZM 13.2402 6.5312C 13.2402 7.22913 13.4043 7.79167 13.7324 8.2188C 14.0605 8.64587 14.4954 8.8594 15.0371 8.8594C 15.5892 8.8594 16.0267 8.64323 16.3496 8.2109C 16.6725 7.77863 16.834 7.17187 16.834 6.3906C 16.834 5.70313 16.6699 5.14323 16.3418 4.7109C 16.0137 4.27863 15.5736 4.0625 15.0215 4.0625C 14.4902 4.0625 14.0605 4.27343 13.7324 4.6953C 13.4043 5.11717 13.2402 5.72913 13.2402 6.5312ZM 20.3027 3.2812L 20.334 3.9844C 20.7923 3.44273 21.4173 3.1719 22.209 3.1719C 23.0944 3.1719 23.6986 3.51043 24.0215 4.1875C 24.2298 3.88543 24.5033 3.64063 24.8418 3.4531C 25.1803 3.26563 25.5788 3.1719 26.0371 3.1719C 27.433 3.1719 28.1413 3.90627 28.1621 5.375L 28.1621 9.625L 27.084 9.625L 27.084 5.4375C 27.084 4.98957 26.9798 4.65363 26.7715 4.4297C 26.5632 4.20577 26.2142 4.0938 25.7246 4.0938C 25.3183 4.0938 24.9824 4.21357 24.7168 4.4531C 24.4512 4.6927 24.2976 5.01563 24.2559 5.4219L 24.2559 9.625L 23.1777 9.625L 23.1777 5.4688C 23.1777 4.55213 22.7246 4.0938 21.8184 4.0938C 21.1101 4.0938 20.6257 4.39587 20.3652 5L 20.3652 9.625L 19.2715 9.625L 19.2715 3.2812L 20.3027 3.2812ZM 30.8203 3.2812L 30.8516 4.0781C 31.3411 3.47397 31.9765 3.1719 32.7578 3.1719C 34.1015 3.1719 34.7786 3.9271 34.7891 5.4375L 34.7891 9.625L 33.6953 9.625L 33.6953 5.4219C 33.6953 4.97397 33.5937 4.64063 33.3906 4.4219C 33.1875 4.20317 32.8672 4.0938 32.4297 4.0938C 32.0755 4.0938 31.7656 4.18753 31.5 4.375C 31.2344 4.56247 31.0287 4.80727 30.8828 5.1094L 30.8828 9.625L 29.8047 9.625L 29.8047 3.2812L 30.8203 3.2812ZM 37.5977 9.625L 36.5195 9.625L 36.5195 3.2812L 37.5977 3.2812L 37.5977 9.625ZM 36.4258 1.6094C 36.4258 1.43233 36.4805 1.28127 36.5898 1.1562C 36.6992 1.03127 36.8581 0.9688 37.0664 0.9688C 37.2747 0.9688 37.4336 1.03127 37.543 1.1562C 37.6523 1.28127 37.707 1.42973 37.707 1.6016C 37.707 1.77347 37.6523 1.9193 37.543 2.0391C 37.4336 2.1589 37.2747 2.2188 37.0664 2.2188C 36.8581 2.2188 36.6992 2.1589 36.5898 2.0391C 36.4805 1.9193 36.4258 1.77607 36.4258 1.6094ZM 45.8066 8.5C 45.5149 8.91667 45.1087 9.22917 44.5879 9.4375C 44.067 9.64583 43.4629 9.75 42.7754 9.75C 42.0879 9.75 41.4733 9.58593 40.9316 9.2578C 40.3899 8.92967 39.9733 8.46353 39.6816 7.8594C 39.3899 7.2552 39.2389 6.55727 39.2285 5.7656L 39.2285 5.0312C 39.2285 3.7396 39.528 2.7396 40.127 2.0312C 40.7259 1.32293 41.5671 0.9688 42.6504 0.9688C 43.5462 0.9688 44.2649 1.19793 44.8066 1.6562C 45.3483 2.1146 45.6816 2.76047 45.8066 3.5938L 44.6816 3.5938C 44.4629 2.46873 43.791 1.9062 42.666 1.9062C 41.9056 1.9062 41.3327 2.16923 40.9473 2.6953C 40.5618 3.22137 40.3639 3.9896 40.3535 5L 40.3535 5.6875C 40.3535 6.64583 40.5723 7.40887 41.0098 7.9766C 41.4473 8.54427 42.041 8.8281 42.791 8.8281C 43.2077 8.8281 43.5749 8.78123 43.8926 8.6875C 44.2103 8.59377 44.4733 8.4323 44.6816 8.2031L 44.6816 6.2969L 42.7129 6.2969L 42.7129 5.375L 45.8066 5.375L 45.8066 8.5ZM 51.418 9.625C 51.3555 9.5 51.3034 9.27603 51.2617 8.9531C 50.7617 9.48437 50.1627 9.75 49.4648 9.75C 48.8398 9.75 48.3268 9.57293 47.9258 9.2188C 47.5247 8.8646 47.3242 8.41147 47.3242 7.8594C 47.3242 7.20313 47.5742 6.6927 48.0742 6.3281C 48.5742 5.9635 49.2825 5.7812 50.1992 5.7812L 51.2461 5.7812L 51.2461 5.2812C 51.2461 4.90627 51.1341 4.6068 50.9102 4.3828C 50.6862 4.15887 50.3502 4.0469 49.9023 4.0469C 49.5169 4.0469 49.194 4.14323 48.9336 4.3359C 48.6732 4.52863 48.543 4.76563 48.543 5.0469L 47.4492 5.0469C 47.4492 4.72397 47.5612 4.41667 47.7852 4.125C 48.0091 3.83333 48.3138 3.60157 48.6992 3.4297C 49.0846 3.25783 49.5065 3.1719 49.9648 3.1719C 50.7044 3.1719 51.2799 3.3542 51.6914 3.7188C 52.1029 4.08333 52.319 4.58333 52.3398 5.2188L 52.3398 8.1406C 52.3398 8.72393 52.4127 9.18747 52.5586 9.5312L 52.5586 9.625L 51.418 9.625ZM 49.6211 8.7969C 49.9648 8.7969 50.2877 8.70833 50.5898 8.5312C 50.8919 8.35413 51.1107 8.125 51.2461 7.8438L 51.2461 6.5469L 50.4023 6.5469C 49.069 6.5469 48.4023 6.93753 48.4023 7.7188C 48.4023 8.05213 48.5169 8.31513 48.7461 8.5078C 48.9752 8.70053 49.2669 8.7969 49.6211 8.7969ZM 55.2109 9.625L 54.1328 9.625L 54.1328 3.2812L 55.2109 3.2812L 55.2109 9.625ZM 54.0391 1.6094C 54.0391 1.43233 54.0938 1.28127 54.2031 1.1562C 54.3125 1.03127 54.4714 0.9688 54.6797 0.9688C 54.888 0.9688 55.0469 1.03127 55.1562 1.1562C 55.2656 1.28127 55.3203 1.42973 55.3203 1.6016C 55.3203 1.77347 55.2656 1.9193 55.1562 2.0391C 55.0469 2.1589 54.888 2.2188 54.6797 2.2188C 54.4714 2.2188 54.3125 2.1589 54.2031 2.0391C 54.0938 1.9193 54.0391 1.77607 54.0391 1.6094ZM 58.4199 1.75L 58.4199 3.2812L 59.5918 3.2812L 59.5918 4.125L 58.4199 4.125L 58.4199 8.0469C 58.4199 8.3073 58.472 8.5 58.5762 8.625C 58.6803 8.75 58.8574 8.8125 59.1074 8.8125C 59.2324 8.8125 59.4043 8.79167 59.623 8.75L 59.623 9.625C 59.3418 9.70833 59.0658 9.75 58.7949 9.75C 58.3158 9.75 57.9512 9.60157 57.7012 9.3047C 57.4512 9.00783 57.3262 8.58857 57.3262 8.0469L 57.3262 4.125L 56.1699 4.125L 56.1699 3.2812L 57.3262 3.2812L 57.3262 1.75L 58.4199 1.75ZM 60.8242 6.1562C 60.8242 5.28127 60.9414 4.43753 61.1758 3.625C 61.4101 2.81247 61.7617 2.07287 62.2305 1.4062C 62.6992 0.739534 63.1888 0.2708 63.6992 0L 63.918 0.7188C 63.3451 1.15627 62.8763 1.82293 62.5117 2.7188C 62.1471 3.6146 61.9492 4.6198 61.918 5.7344L 61.9023 6.2344C 61.9023 7.7448 62.1784 9.05207 62.7305 10.1562C 63.0638 10.8229 63.4597 11.3437 63.918 11.7188L 63.6992 12.375C 63.1784 12.0937 62.6784 11.6094 62.1992 10.9219C 61.2825 9.59897 60.8242 8.0104 60.8242 6.1562ZM 67.4727 6.2188C 67.4727 7.09373 67.3581 7.92967 67.1289 8.7266C 66.8998 9.52347 66.5482 10.2604 66.0742 10.9375C 65.6003 11.6146 65.1081 12.0937 64.5977 12.375L 64.3633 11.7188C 64.9674 11.2604 65.4518 10.5442 65.8164 9.5703C 66.181 8.59637 66.3685 7.52087 66.3789 6.3438L 66.3789 6.1562C 66.3789 5.33333 66.293 4.56773 66.1211 3.8594C 65.9492 3.15107 65.7096 2.51823 65.4023 1.9609C 65.095 1.40363 64.7487 0.968734 64.3633 0.6562L 64.5977 0C 65.1081 0.281267 65.5977 0.755233 66.0664 1.4219C 66.5351 2.08857 66.8867 2.82553 67.1211 3.6328C 67.3555 4.44013 67.4727 5.30213 67.4727 6.2188ZM 72.1309 9.0625C 72.1309 8.87497 72.1856 8.71873 72.2949 8.5938C 72.4043 8.46873 72.571 8.4062 72.7949 8.4062C 73.0189 8.4062 73.1882 8.46873 73.3027 8.5938C 73.4173 8.71873 73.4746 8.87497 73.4746 9.0625C 73.4746 9.23957 73.4173 9.388 73.3027 9.5078C 73.1882 9.6276 73.0189 9.6875 72.7949 9.6875C 72.571 9.6875 72.4043 9.6276 72.2949 9.5078C 72.1856 9.388 72.1309 9.23957 72.1309 9.0625ZM 72.1309 3.2812C 72.1309 3.09373 72.1856 2.9375 72.2949 2.8125C 72.4043 2.6875 72.571 2.625 72.7949 2.625C 73.0189 2.625 73.1882 2.6875 73.3027 2.8125C 73.4173 2.9375 73.4746 3.09373 73.4746 3.2812C 73.4746 3.45833 73.4173 3.6068 73.3027 3.7266C 73.1882 3.84633 73.0189 3.9062 72.7949 3.9062C 72.571 3.9062 72.4043 3.84633 72.2949 3.7266C 72.1856 3.6068 72.1309 3.45833 72.1309 3.2812ZM 80.0703 8.1562L 81.6484 3.2812L 82.7578 3.2812L 80.4766 9.625L 79.6484 9.625L 77.3516 3.2812L 78.4609 3.2812L 80.0703 8.1562ZM 83.5078 6.3906C 83.5078 5.77607 83.6302 5.2188 83.875 4.7188C 84.1198 4.2188 84.4609 3.83597 84.8984 3.5703C 85.3359 3.3047 85.8307 3.1719 86.3828 3.1719C 87.2474 3.1719 87.9479 3.46877 88.4844 4.0625C 89.0209 4.65623 89.2891 5.4531 89.2891 6.4531L 89.2891 6.5312C 89.2891 7.1458 89.1693 7.6979 88.9297 8.1875C 88.6901 8.6771 88.3516 9.0599 87.9141 9.3359C 87.4766 9.61197 86.9713 9.75 86.3984 9.75C 85.5443 9.75 84.849 9.45053 84.3125 8.8516C 83.776 8.2526 83.5078 7.45833 83.5078 6.4688L 83.5078 6.3906ZM 84.6016 6.5312C 84.6016 7.22913 84.7657 7.79167 85.0938 8.2188C 85.4219 8.64587 85.8567 8.8594 86.3984 8.8594C 86.9505 8.8594 87.388 8.64323 87.7109 8.2109C 88.0338 7.77863 88.1953 7.17187 88.1953 6.3906C 88.1953 5.70313 88.0312 5.14323 87.7031 4.7109C 87.375 4.27863 86.9349 4.0625 86.3828 4.0625C 85.8515 4.0625 85.4219 4.27343 85.0938 4.6953C 84.7657 5.11717 84.6016 5.72913 84.6016 6.5312ZM 91.8203 9.625L 90.7422 9.625L 90.7422 3.2812L 91.8203 3.2812L 91.8203 9.625ZM 90.6484 1.6094C 90.6484 1.43233 90.7031 1.28127 90.8125 1.1562C 90.9219 1.03127 91.0808 0.9688 91.2891 0.9688C 91.4974 0.9688 91.6563 1.03127 91.7656 1.1562C 91.875 1.28127 91.9297 1.42973 91.9297 1.6016C 91.9297 1.77347 91.875 1.9193 91.7656 2.0391C 91.6563 2.1589 91.4974 2.2188 91.2891 2.2188C 91.0808 2.2188 90.9219 2.1589 90.8125 2.0391C 90.7031 1.9193 90.6484 1.77607 90.6484 1.6094ZM 93.2949 6.4062C 93.2949 5.42707 93.5241 4.64323 93.9824 4.0547C 94.4407 3.46617 95.0449 3.1719 95.7949 3.1719C 96.5345 3.1719 97.123 3.4219 97.5605 3.9219L 97.5605 0.625L 98.6387 0.625L 98.6387 9.625L 97.6387 9.625L 97.5918 8.9375C 97.1543 9.47917 96.5501 9.75 95.7793 9.75C 95.0501 9.75 94.4537 9.44793 93.9902 8.8438C 93.5267 8.2396 93.2949 7.45313 93.2949 6.4844L 93.2949 6.4062ZM 94.373 6.5312C 94.373 7.25 94.5215 7.81253 94.8184 8.2188C 95.1153 8.625 95.5241 8.8281 96.0449 8.8281C 96.7324 8.8281 97.2376 8.5156 97.5605 7.8906L 97.5605 4.9844C 97.2376 4.39067 96.7376 4.0938 96.0605 4.0938C 95.5293 4.0938 95.1153 4.2969 94.8184 4.7031C 94.5215 5.10937 94.373 5.71873 94.373 6.5312Z"/>
<path id="path19_stroke" d="M 0 -0.500002L -0.5 -0.500002L -0.5 0.499998L 0 0.499998L 0 -0.500002ZM 59 0.499998L 59.5 0.499998L 59.5 -0.500002L 59 -0.500002L 59 0.499998ZM 0 0.499998L 59 0.499998L 59 -0.500002L 0 -0.500002L 0 0.499998Z"/>
<path id="path20_stroke" d="M 0.5 -2.39258e-06L 0.5 -0.500002L -0.5 -0.500002L -0.5 -2.39258e-06L 0.5 -2.39258e-06ZM -0.5 20L -0.5 20.5L 0.5 20.5L 0.5 20L -0.5 20ZM -0.5 -2.39258e-06L -0.5 20L 0.5 20L 0.5 -2.39258e-06L -0.5 -2.39258e-06Z"/>
<path id="path21_stroke" d="M 37.8417 0.499998L 38.3417 0.499998L 38.3417 -0.500002L 37.8417 -0.500002L 37.8417 0.499998ZM -5.32227e-06 -0.500002L -0.500005 -0.500002L -0.500005 0.499998L -5.32227e-06 0.499998L -5.32227e-06 -0.500002ZM 37.8417 -0.500002L -5.32227e-06 -0.500002L -5.32227e-06 0.499998L 37.8417 0.499998L 37.8417 -0.500002Z"/>
<path id="path22_fill" d="M 0 7L 11 13L 11 0L 0 7Z"/>
<path id="path23_stroke" d="M 0 7L -0.268438 6.57817L -0.983399 7.03314L -0.239426 7.43895L 0 7ZM 11 13L 10.7606 13.4389L 11.5 13.8423L 11.5 13L 11 13ZM 11 0L 11.5 0L 11.5 -0.910837L 10.7316 -0.421831L 11 0ZM -0.239426 7.43895L 10.7606 13.4389L 11.2394 12.5611L 0.239426 6.56105L -0.239426 7.43895ZM 11.5 13L 11.5 0L 10.5 0L 10.5 13L 11.5 13ZM 10.7316 -0.421831L -0.268438 6.57817L 0.268438 7.42183L 11.2684 0.421831L 10.7316 -0.421831Z"/>
<path id="path24_stroke" d="M -0.5 0L -0.5 6.27228L 0.5 6.27228L 0.5 0L -0.5 0ZM -0.5 12.5446L -0.5 25.0891L 0.5 25.0891L 0.5 12.5446L -0.5 12.5446ZM -0.5 31.3614L -0.5 43.906L 0.5 43.906L 0.5 31.3614L -0.5 31.3614ZM -0.5 50.1783L -0.5 62.7228L 0.5 62.7228L 0.5 50.1783L -0.5 50.1783ZM -0.5 68.9951L -0.5 81.5397L 0.5 81.5397L 0.5 68.9951L -0.5 68.9951ZM -0.5 87.812L -0.5 100.357L 0.5 100.357L 0.5 87.812L -0.5 87.812ZM -0.5 106.629L -0.5 119.173L 0.5 119.173L 0.5 106.629L -0.5 106.629ZM -0.5 125.446L -0.5 137.99L 0.5 137.99L 0.5 125.446L -0.5 125.446ZM -0.5 144.263L -0.5 156.807L 0.5 156.807L 0.5 144.263L -0.5 144.263ZM -0.5 163.079L -0.5 175.624L 0.5 175.624L 0.5 163.079L -0.5 163.079ZM -0.5 181.896L -0.5 188.168L 0.5 188.168L 0.5 181.896L -0.5 181.896Z"/>
<path id="path25_fill" d="M 4.0938 9C 4.03127 8.875 3.97917 8.65103 3.9375 8.3281C 3.4375 8.85937 2.83853 9.125 2.1406 9.125C 1.51567 9.125 1.00267 8.94793 0.6016 8.5938C 0.200533 8.2396 2.56538e-08 7.78647 2.56538e-08 7.2344C 2.56538e-08 6.57813 0.25 6.0677 0.75 5.7031C 1.25 5.3385 1.95833 5.1562 2.875 5.1562L 3.9219 5.1562L 3.9219 4.6562C 3.9219 4.28127 3.80993 3.9818 3.586 3.7578C 3.362 3.53387 3.02607 3.4219 2.5782 3.4219C 2.19273 3.4219 1.8698 3.51823 1.6094 3.7109C 1.349 3.90363 1.2188 4.14063 1.2188 4.4219L 0.125 4.4219C 0.125 4.09897 0.237 3.79167 0.461 3.5C 0.684933 3.20833 0.9896 2.97657 1.375 2.8047C 1.76047 2.63283 2.18233 2.5469 2.6406 2.5469C 3.3802 2.5469 3.95573 2.7292 4.3672 3.0938C 4.77867 3.45833 4.9948 3.95833 5.0156 4.5938L 5.0156 7.5156C 5.0156 8.09893 5.08853 8.56247 5.2344 8.9062L 5.2344 9L 4.0938 9ZM 2.2969 8.1719C 2.64063 8.1719 2.96353 8.08333 3.2656 7.9062C 3.56773 7.72913 3.7865 7.5 3.9219 7.2188L 3.9219 5.9219L 3.0782 5.9219C 1.74487 5.9219 1.0782 6.31253 1.0782 7.0938C 1.0782 7.42713 1.19277 7.69013 1.4219 7.8828C 1.65103 8.07553 1.9427 8.1719 2.2969 8.1719ZM 9.7774 3.625C 9.61073 3.6042 9.43363 3.5938 9.2461 3.5938C 8.52737 3.5938 8.043 3.89587 7.793 4.5L 7.793 9L 6.7149 9L 6.7149 2.6562L 7.7617 2.6562L 7.7774 3.3906C 8.13153 2.82813 8.63673 2.5469 9.293 2.5469C 9.50133 2.5469 9.6628 2.57293 9.7774 2.625L 9.7774 3.625ZM 14.6817 9C 14.6192 8.875 14.5671 8.65103 14.5254 8.3281C 14.0254 8.85937 13.4264 9.125 12.7285 9.125C 12.1035 9.125 11.5905 8.94793 11.1895 8.5938C 10.7884 8.2396 10.5879 7.78647 10.5879 7.2344C 10.5879 6.57813 10.8379 6.0677 11.3379 5.7031C 11.8379 5.3385 12.5462 5.1562 13.4629 5.1562L 14.5098 5.1562L 14.5098 4.6562C 14.5098 4.28127 14.3978 3.9818 14.1739 3.7578C 13.9499 3.53387 13.6139 3.4219 13.166 3.4219C 12.7806 3.4219 12.4577 3.51823 12.1973 3.7109C 11.9369 3.90363 11.8067 4.14063 11.8067 4.4219L 10.7129 4.4219C 10.7129 4.09897 10.8249 3.79167 11.0489 3.5C 11.2728 3.20833 11.5775 2.97657 11.9629 2.8047C 12.3483 2.63283 12.7702 2.5469 13.2285 2.5469C 13.9681 2.5469 14.5436 2.7292 14.9551 3.0938C 15.3666 3.45833 15.5827 3.95833 15.6035 4.5938L 15.6035 7.5156C 15.6035 8.09893 15.6764 8.56247 15.8223 8.9062L 15.8223 9L 14.6817 9ZM 12.8848 8.1719C 13.2285 8.1719 13.5514 8.08333 13.8535 7.9062C 14.1556 7.72913 14.3744 7.5 14.5098 7.2188L 14.5098 5.9219L 13.666 5.9219C 12.3327 5.9219 11.666 6.31253 11.666 7.0938C 11.666 7.42713 11.7806 7.69013 12.0098 7.8828C 12.2389 8.07553 12.5306 8.1719 12.8848 8.1719ZM 20.9903 7.3125C 20.9903 7.02083 20.8783 6.79427 20.6543 6.6328C 20.4304 6.47133 20.045 6.33333 19.4981 6.2188C 18.9512 6.1042 18.5163 5.96357 18.1934 5.7969C 17.8705 5.63023 17.6335 5.4349 17.4824 5.2109C 17.3314 4.98697 17.2559 4.71873 17.2559 4.4062C 17.2559 3.8854 17.4746 3.4453 17.9121 3.0859C 18.3496 2.72657 18.9121 2.5469 19.5996 2.5469C 20.3184 2.5469 20.8991 2.7318 21.3418 3.1016C 21.7845 3.47133 22.0059 3.94267 22.0059 4.5156L 20.9278 4.5156C 20.9278 4.22393 20.8002 3.97133 20.5449 3.7578C 20.2897 3.54427 19.9746 3.4375 19.5996 3.4375C 19.2038 3.4375 18.8939 3.52343 18.6699 3.6953C 18.446 3.86717 18.334 4.08853 18.334 4.3594C 18.334 4.6198 18.4382 4.8177 18.6465 4.9531C 18.8548 5.0885 19.2298 5.2161 19.7715 5.3359C 20.3132 5.4557 20.7507 5.59893 21.084 5.7656C 21.4173 5.93227 21.6647 6.1354 21.8262 6.375C 21.9877 6.6146 22.0684 6.90107 22.0684 7.2344C 22.0684 7.80733 21.8418 8.26567 21.3887 8.6094C 20.9356 8.95313 20.3496 9.125 19.6309 9.125C 19.1205 9.125 18.67 9.03387 18.2793 8.8516C 17.8887 8.66927 17.584 8.41667 17.3653 8.0938C 17.1465 7.77087 17.0371 7.4219 17.0371 7.0469L 18.1153 7.0469C 18.1361 7.4115 18.2819 7.70057 18.5528 7.9141C 18.8236 8.12763 19.183 8.2344 19.6309 8.2344C 20.0372 8.2344 20.3653 8.15107 20.6153 7.9844C 20.8653 7.81773 20.9903 7.59377 20.9903 7.3125ZM 24.5684 3.4219C 25.0475 2.83857 25.6725 2.5469 26.4434 2.5469C 27.7871 2.5469 28.4642 3.3021 28.4746 4.8125L 28.4746 9L 27.3809 9L 27.3809 4.7969C 27.3809 4.34897 27.2793 4.01563 27.0762 3.7969C 26.8731 3.57817 26.5528 3.4688 26.1153 3.4688C 25.7611 3.4688 25.4512 3.56253 25.1856 3.75C 24.9199 3.93747 24.7142 4.18227 24.5684 4.4844L 24.5684 9L 23.4903 9L 23.4903 0L 24.5684 0L 24.5684 3.4219ZM 31.4746 9L 30.3496 9L 30.3496 0.4688L 31.4746 0.4688L 31.4746 9ZM 35.1289 6.0625L 34.4414 6.7656L 34.4414 9L 33.3633 9L 33.3633 0L 34.4414 0L 34.4414 5.4375L 35.0196 4.75L 37.0039 2.6562L 38.3164 2.6562L 35.8477 5.3125L 38.6133 9L 37.3321 9L 35.1289 6.0625ZM 42.4317 8.4375C 42.4317 8.24997 42.4864 8.09373 42.5957 7.9688C 42.7051 7.84373 42.8718 7.7812 43.0957 7.7812C 43.3197 7.7812 43.489 7.84373 43.6035 7.9688C 43.7181 8.09373 43.7754 8.24997 43.7754 8.4375C 43.7754 8.61457 43.7181 8.763 43.6035 8.8828C 43.489 9.0026 43.3197 9.0625 43.0957 9.0625C 42.8718 9.0625 42.7051 9.0026 42.5957 8.8828C 42.4864 8.763 42.4317 8.61457 42.4317 8.4375ZM 42.4317 2.6562C 42.4317 2.46873 42.4864 2.3125 42.5957 2.1875C 42.7051 2.0625 42.8718 2 43.0957 2C 43.3197 2 43.489 2.0625 43.6035 2.1875C 43.7181 2.3125 43.7754 2.46873 43.7754 2.6562C 43.7754 2.83333 43.7181 2.9818 43.6035 3.1016C 43.489 3.22133 43.3197 3.2812 43.0957 3.2812C 42.8718 3.2812 42.7051 3.22133 42.5957 3.1016C 42.4864 2.9818 42.4317 2.83333 42.4317 2.6562ZM 49.668 9L 48.543 9L 48.543 0.4688L 49.668 0.4688L 49.668 9ZM 53.3223 6.0625L 52.6348 6.7656L 52.6348 9L 51.5567 9L 51.5567 0L 52.6348 0L 52.6348 5.4375L 53.2129 4.75L 55.1973 2.6562L 56.5098 2.6562L 54.041 5.3125L 56.8067 9L 55.5254 9L 53.3223 6.0625Z"/>
<path id="path26_fill" d="M 3.2656 9.625L 2.1875 9.625L 2.1875 2.4062L 0 3.2031L 0 2.2188L 3.1094 1.0469L 3.2656 1.0469L 3.2656 9.625ZM 6.582 9.0625C 6.582 8.87497 6.6367 8.71873 6.7461 8.5938C 6.8555 8.46873 7.02217 8.4062 7.2461 8.4062C 7.47003 8.4062 7.6393 8.46873 7.7539 8.5938C 7.8685 8.71873 7.9258 8.87497 7.9258 9.0625C 7.9258 9.23957 7.8685 9.388 7.7539 9.5078C 7.6393 9.6276 7.47003 9.6875 7.2461 9.6875C 7.02217 9.6875 6.8555 9.6276 6.7461 9.5078C 6.6367 9.388 6.582 9.23957 6.582 9.0625ZM 13.1621 9.625L 12.084 9.625L 12.084 2.4062L 9.8965 3.2031L 9.8965 2.2188L 13.0059 1.0469L 13.1621 1.0469L 13.1621 9.625ZM 16.4785 9.0625C 16.4785 8.87497 16.5332 8.71873 16.6426 8.5938C 16.7519 8.46873 16.9186 8.4062 17.1426 8.4062C 17.3665 8.4062 17.5358 8.46873 17.6504 8.5938C 17.765 8.71873 17.8223 8.87497 17.8223 9.0625C 17.8223 9.23957 17.765 9.388 17.6504 9.5078C 17.5358 9.6276 17.3665 9.6875 17.1426 9.6875C 16.9186 9.6875 16.7519 9.6276 16.6426 9.5078C 16.5332 9.388 16.4785 9.23957 16.4785 9.0625ZM 16.4785 3.2812C 16.4785 3.09373 16.5332 2.9375 16.6426 2.8125C 16.7519 2.6875 16.9186 2.625 17.1426 2.625C 17.3665 2.625 17.5358 2.6875 17.6504 2.8125C 17.765 2.9375 17.8223 3.09373 17.8223 3.2812C 17.8223 3.45833 17.765 3.6068 17.6504 3.7266C 17.5358 3.84633 17.3665 3.9062 17.1426 3.9062C 16.9186 3.9062 16.7519 3.84633 16.6426 3.7266C 16.5332 3.6068 16.4785 3.45833 16.4785 3.2812ZM 23.418 4.0469C 23.8971 3.46357 24.5221 3.1719 25.293 3.1719C 26.6367 3.1719 27.3138 3.9271 27.3242 5.4375L 27.3242 9.625L 26.2305 9.625L 26.2305 5.4219C 26.2305 4.97397 26.1289 4.64063 25.9258 4.4219C 25.7227 4.20317 25.4023 4.0938 24.9648 4.0938C 24.6107 4.0938 24.3008 4.18753 24.0352 4.375C 23.7695 4.56247 23.5638 4.80727 23.418 5.1094L 23.418 9.625L 22.3398 9.625L 22.3398 0.625L 23.418 0.625L 23.418 4.0469ZM 32.8555 9C 32.4388 9.5 31.819 9.75 30.9961 9.75C 30.319 9.75 29.8034 9.55207 29.4492 9.1562C 29.0951 8.7604 28.918 8.17707 28.918 7.4062L 28.918 3.2812L 29.9961 3.2812L 29.9961 7.375C 29.9961 8.34373 30.3867 8.8281 31.168 8.8281C 32.0013 8.8281 32.5534 8.5156 32.8242 7.8906L 32.8242 3.2812L 33.918 3.2812L 33.918 9.625L 32.8867 9.625L 32.8555 9ZM 36.5801 3.2812L 36.6113 3.9844C 37.0696 3.44273 37.6946 3.1719 38.4863 3.1719C 39.3718 3.1719 39.9759 3.51043 40.2988 4.1875C 40.5071 3.88543 40.7806 3.64063 41.1191 3.4531C 41.4577 3.26563 41.8562 3.1719 42.3145 3.1719C 43.7103 3.1719 44.4186 3.90627 44.4395 5.375L 44.4395 9.625L 43.3613 9.625L 43.3613 5.4375C 43.3613 4.98957 43.2571 4.65363 43.0488 4.4297C 42.8405 4.20577 42.4915 4.0938 42.002 4.0938C 41.5957 4.0938 41.2598 4.21357 40.9941 4.4531C 40.7285 4.6927 40.5749 5.01563 40.5332 5.4219L 40.5332 9.625L 39.4551 9.625L 39.4551 5.4688C 39.4551 4.55213 39.002 4.0938 38.0957 4.0938C 37.3874 4.0938 36.903 4.39587 36.6426 5L 36.6426 9.625L 35.5488 9.625L 35.5488 3.2812L 36.5801 3.2812ZM 49.9883 9.625C 49.9258 9.5 49.8737 9.27603 49.832 8.9531C 49.332 9.48437 48.7331 9.75 48.0352 9.75C 47.4102 9.75 46.8972 9.57293 46.4961 9.2188C 46.095 8.8646 45.8945 8.41147 45.8945 7.8594C 45.8945 7.20313 46.1445 6.6927 46.6445 6.3281C 47.1445 5.9635 47.8528 5.7812 48.7695 5.7812L 49.8164 5.7812L 49.8164 5.2812C 49.8164 4.90627 49.7044 4.6068 49.4805 4.3828C 49.2565 4.15887 48.9206 4.0469 48.4727 4.0469C 48.0872 4.0469 47.7643 4.14323 47.5039 4.3359C 47.2435 4.52863 47.1133 4.76563 47.1133 5.0469L 46.0195 5.0469C 46.0195 4.72397 46.1315 4.41667 46.3555 4.125C 46.5794 3.83333 46.8841 3.60157 47.2695 3.4297C 47.655 3.25783 48.0769 3.1719 48.5352 3.1719C 49.2747 3.1719 49.8502 3.3542 50.2617 3.7188C 50.6732 4.08333 50.8893 4.58333 50.9102 5.2188L 50.9102 8.1406C 50.9102 8.72393 50.9831 9.18747 51.1289 9.5312L 51.1289 9.625L 49.9883 9.625ZM 48.1914 8.7969C 48.5351 8.7969 48.8581 8.70833 49.1602 8.5312C 49.4623 8.35413 49.681 8.125 49.8164 7.8438L 49.8164 6.5469L 48.9727 6.5469C 47.6394 6.5469 46.9727 6.93753 46.9727 7.7188C 46.9727 8.05213 47.0873 8.31513 47.3164 8.5078C 47.5456 8.70053 47.8373 8.7969 48.1914 8.7969ZM 53.625 3.2812L 53.6562 4.0781C 54.1458 3.47397 54.7812 3.1719 55.5625 3.1719C 56.9062 3.1719 57.5833 3.9271 57.5938 5.4375L 57.5938 9.625L 56.5 9.625L 56.5 5.4219C 56.5 4.97397 56.3984 4.64063 56.1953 4.4219C 55.9922 4.20317 55.6719 4.0938 55.2344 4.0938C 54.8802 4.0938 54.5703 4.18753 54.3047 4.375C 54.039 4.56247 53.8333 4.80727 53.6875 5.1094L 53.6875 9.625L 52.6094 9.625L 52.6094 3.2812L 53.625 3.2812ZM 58.9336 6.3906C 58.9336 5.77607 59.056 5.2188 59.3008 4.7188C 59.5456 4.2188 59.8867 3.83597 60.3242 3.5703C 60.7617 3.3047 61.2565 3.1719 61.8086 3.1719C 62.6732 3.1719 63.3737 3.46877 63.9102 4.0625C 64.4466 4.65623 64.7148 5.4531 64.7148 6.4531L 64.7148 6.5312C 64.7148 7.1458 64.595 7.6979 64.3555 8.1875C 64.1159 8.6771 63.7773 9.0599 63.3398 9.3359C 62.9023 9.61197 62.3971 9.75 61.8242 9.75C 60.9701 9.75 60.2748 9.45053 59.7383 8.8516C 59.2018 8.2526 58.9336 7.45833 58.9336 6.4688L 58.9336 6.3906ZM 60.0273 6.5312C 60.0273 7.22913 60.1914 7.79167 60.5195 8.2188C 60.8476 8.64587 61.2825 8.8594 61.8242 8.8594C 62.3763 8.8594 62.8138 8.64323 63.1367 8.2109C 63.4596 7.77863 63.6211 7.17187 63.6211 6.3906C 63.6211 5.70313 63.457 5.14323 63.1289 4.7109C 62.8008 4.27863 62.3607 4.0625 61.8086 4.0625C 61.2773 4.0625 60.8476 4.27343 60.5195 4.6953C 60.1914 5.11717 60.0273 5.72913 60.0273 6.5312ZM 67.2461 9.625L 66.168 9.625L 66.168 3.2812L 67.2461 3.2812L 67.2461 9.625ZM 66.0742 1.6094C 66.0742 1.43233 66.1289 1.28127 66.2383 1.1562C 66.3476 1.03127 66.5065 0.9688 66.7148 0.9688C 66.9231 0.9688 67.082 1.03127 67.1914 1.1562C 67.3008 1.28127 67.3555 1.42973 67.3555 1.6016C 67.3555 1.77347 67.3008 1.9193 67.1914 2.0391C 67.082 2.1589 66.9231 2.2188 66.7148 2.2188C 66.5065 2.2188 66.3476 2.1589 66.2383 2.0391C 66.1289 1.9193 66.0742 1.77607 66.0742 1.6094ZM 68.7207 6.4062C 68.7207 5.42707 68.9499 4.64323 69.4082 4.0547C 69.8665 3.46617 70.4707 3.1719 71.2207 3.1719C 71.9603 3.1719 72.5488 3.4219 72.9863 3.9219L 72.9863 0.625L 74.0645 0.625L 74.0645 9.625L 73.0645 9.625L 73.0176 8.9375C 72.5801 9.47917 71.9759 9.75 71.2051 9.75C 70.4759 9.75 69.8795 9.44793 69.416 8.8438C 68.9525 8.2396 68.7207 7.45313 68.7207 6.4844L 68.7207 6.4062ZM 69.7988 6.5312C 69.7988 7.25 69.9472 7.81253 70.2441 8.2188C 70.541 8.625 70.9499 8.8281 71.4707 8.8281C 72.1582 8.8281 72.6634 8.5156 72.9863 7.8906L 72.9863 4.9844C 72.6634 4.39067 72.1634 4.0938 71.4863 4.0938C 70.9551 4.0938 70.541 4.2969 70.2441 4.7031C 69.9472 5.10937 69.7988 5.71873 69.7988 6.5312ZM 78.7402 9.0625C 78.7402 8.87497 78.7949 8.71873 78.9043 8.5938C 79.0137 8.46873 79.1804 8.4062 79.4043 8.4062C 79.6282 8.4062 79.7975 8.46873 79.9121 8.5938C 80.0267 8.71873 80.084 8.87497 80.084 9.0625C 80.084 9.23957 80.0267 9.388 79.9121 9.5078C 79.7975 9.6276 79.6282 9.6875 79.4043 9.6875C 79.1804 9.6875 79.0137 9.6276 78.9043 9.5078C 78.7949 9.388 78.7402 9.23957 78.7402 9.0625ZM 78.7402 3.2812C 78.7402 3.09373 78.7949 2.9375 78.9043 2.8125C 79.0137 2.6875 79.1804 2.625 79.4043 2.625C 79.6282 2.625 79.7975 2.6875 79.9121 2.8125C 80.0267 2.9375 80.084 3.09373 80.084 3.2812C 80.084 3.45833 80.0267 3.6068 79.9121 3.7266C 79.7975 3.84633 79.6282 3.9062 79.4043 3.9062C 79.1804 3.9062 79.0137 3.84633 78.9043 3.7266C 78.7949 3.6068 78.7402 3.45833 78.7402 3.2812ZM 86.584 4.8594L 81.6934 4.8594L 81.6934 3.9062L 86.584 3.9062L 86.584 4.8594ZM 86.584 7.2812L 81.6934 7.2812L 81.6934 6.3438L 86.584 6.3438L 86.584 7.2812ZM 95.0938 9C 94.6771 9.5 94.0573 9.75 93.2344 9.75C 92.5573 9.75 92.0417 9.55207 91.6875 9.1562C 91.3333 8.7604 91.1562 8.17707 91.1562 7.4062L 91.1562 3.2812L 92.2344 3.2812L 92.2344 7.375C 92.2344 8.34373 92.625 8.8281 93.4062 8.8281C 94.2395 8.8281 94.7916 8.5156 95.0625 7.8906L 95.0625 3.2812L 96.1562 3.2812L 96.1562 9.625L 95.125 9.625L 95.0938 9ZM 103.146 6.5312C 103.146 7.4896 102.928 8.26567 102.49 8.8594C 102.053 9.45313 101.454 9.75 100.693 9.75C 99.9225 9.75 99.3184 9.5052 98.8809 9.0156L 98.8809 12.0625L 97.8027 12.0625L 97.8027 3.2812L 98.7871 3.2812L 98.834 3.9844C 99.2819 3.44273 99.8965 3.1719 100.678 3.1719C 101.438 3.1719 102.04 3.45833 102.482 4.0312C 102.925 4.60413 103.146 5.40103 103.146 6.4219L 103.146 6.5312ZM 102.068 6.4062C 102.068 5.68747 101.915 5.12237 101.607 4.7109C 101.3 4.2995 100.881 4.0938 100.35 4.0938C 99.6933 4.0938 99.2038 4.38023 98.8809 4.9531L 98.8809 7.9844C 99.2038 8.56773 99.6985 8.8594 100.365 8.8594C 100.886 8.8594 101.3 8.65367 101.607 8.2422C 101.915 7.83073 102.068 7.21873 102.068 6.4062ZM 104.27 6.4062C 104.27 5.42707 104.499 4.64323 104.957 4.0547C 105.415 3.46617 106.02 3.1719 106.77 3.1719C 107.509 3.1719 108.098 3.4219 108.535 3.9219L 108.535 0.625L 109.613 0.625L 109.613 9.625L 108.613 9.625L 108.566 8.9375C 108.129 9.47917 107.525 9.75 106.754 9.75C 106.025 9.75 105.428 9.44793 104.965 8.8438C 104.501 8.2396 104.27 7.45313 104.27 6.4844L 104.27 6.4062ZM 105.348 6.5312C 105.348 7.25 105.496 7.81253 105.793 8.2188C 106.09 8.625 106.499 8.8281 107.02 8.8281C 107.707 8.8281 108.212 8.5156 108.535 7.8906L 108.535 4.9844C 108.212 4.39067 107.712 4.0938 107.035 4.0938C 106.504 4.0938 106.09 4.2969 105.793 4.7031C 105.496 5.10937 105.348 5.71873 105.348 6.5312ZM 115.209 9.625C 115.146 9.5 115.094 9.27603 115.053 8.9531C 114.553 9.48437 113.954 9.75 113.256 9.75C 112.631 9.75 112.118 9.57293 111.717 9.2188C 111.316 8.8646 111.115 8.41147 111.115 7.8594C 111.115 7.20313 111.365 6.6927 111.865 6.3281C 112.365 5.9635 113.074 5.7812 113.99 5.7812L 115.037 5.7812L 115.037 5.2812C 115.037 4.90627 114.925 4.6068 114.701 4.3828C 114.477 4.15887 114.141 4.0469 113.693 4.0469C 113.308 4.0469 112.985 4.14323 112.725 4.3359C 112.464 4.52863 112.334 4.76563 112.334 5.0469L 111.24 5.0469C 111.24 4.72397 111.352 4.41667 111.576 4.125C 111.8 3.83333 112.105 3.60157 112.49 3.4297C 112.876 3.25783 113.298 3.1719 113.756 3.1719C 114.495 3.1719 115.071 3.3542 115.482 3.7188C 115.894 4.08333 116.11 4.58333 116.131 5.2188L 116.131 8.1406C 116.131 8.72393 116.204 9.18747 116.35 9.5312L 116.35 9.625L 115.209 9.625ZM 113.412 8.7969C 113.756 8.7969 114.079 8.70833 114.381 8.5312C 114.683 8.35413 114.902 8.125 115.037 7.8438L 115.037 6.5469L 114.193 6.5469C 112.86 6.5469 112.193 6.93753 112.193 7.7188C 112.193 8.05213 112.308 8.31513 112.537 8.5078C 112.766 8.70053 113.058 8.7969 113.412 8.7969ZM 119.299 1.75L 119.299 3.2812L 120.471 3.2812L 120.471 4.125L 119.299 4.125L 119.299 8.0469C 119.299 8.3073 119.351 8.5 119.455 8.625C 119.559 8.75 119.736 8.8125 119.986 8.8125C 120.111 8.8125 120.283 8.79167 120.502 8.75L 120.502 9.625C 120.221 9.70833 119.945 9.75 119.674 9.75C 119.195 9.75 118.83 9.60157 118.58 9.3047C 118.33 9.00783 118.205 8.58857 118.205 8.0469L 118.205 4.125L 117.049 4.125L 117.049 3.2812L 118.205 3.2812L 118.205 1.75L 119.299 1.75ZM 124.375 9.75C 123.51 9.75 122.81 9.46613 122.273 8.8984C 121.737 8.33073 121.469 7.57293 121.469 6.625L 121.469 6.4375C 121.469 5.8021 121.589 5.237 121.828 4.7422C 122.068 4.2474 122.404 3.86197 122.836 3.5859C 123.268 3.3099 123.734 3.1719 124.234 3.1719C 125.057 3.1719 125.698 3.44273 126.156 3.9844C 126.615 4.52607 126.844 5.3021 126.844 6.3125L 126.844 6.7656L 122.547 6.7656C 122.568 7.3906 122.753 7.8958 123.102 8.2812C 123.451 8.66667 123.896 8.8594 124.438 8.8594C 124.812 8.8594 125.133 8.78127 125.398 8.625C 125.664 8.46873 125.901 8.2604 126.109 8L 126.766 8.5156C 126.234 9.33853 125.438 9.75 124.375 9.75ZM 124.234 4.0625C 123.797 4.0625 123.43 4.22137 123.133 4.5391C 122.836 4.85677 122.656 5.30207 122.594 5.875L 125.766 5.875L 125.766 5.7969C 125.734 5.24483 125.586 4.81773 125.32 4.5156C 125.055 4.21353 124.693 4.0625 124.234 4.0625ZM 134.17 2.0156L 131.42 2.0156L 131.42 9.625L 130.311 9.625L 130.311 2.0156L 127.561 2.0156L 127.561 1.0938L 134.17 1.0938L 134.17 2.0156ZM 138.33 4.25C 138.163 4.2292 137.986 4.2188 137.799 4.2188C 137.08 4.2188 136.596 4.52087 136.346 5.125L 136.346 9.625L 135.268 9.625L 135.268 3.2812L 136.314 3.2812L 136.33 4.0156C 136.684 3.45313 137.189 3.1719 137.846 3.1719C 138.054 3.1719 138.215 3.19793 138.33 3.25L 138.33 4.25ZM 143.234 9.625C 143.172 9.5 143.12 9.27603 143.078 8.9531C 142.578 9.48437 141.979 9.75 141.281 9.75C 140.656 9.75 140.143 9.57293 139.742 9.2188C 139.341 8.8646 139.141 8.41147 139.141 7.8594C 139.141 7.20313 139.391 6.6927 139.891 6.3281C 140.391 5.9635 141.099 5.7812 142.016 5.7812L 143.062 5.7812L 143.062 5.2812C 143.062 4.90627 142.951 4.6068 142.727 4.3828C 142.503 4.15887 142.167 4.0469 141.719 4.0469C 141.333 4.0469 141.01 4.14323 140.75 4.3359C 140.49 4.52863 140.359 4.76563 140.359 5.0469L 139.266 5.0469C 139.266 4.72397 139.378 4.41667 139.602 4.125C 139.826 3.83333 140.13 3.60157 140.516 3.4297C 140.901 3.25783 141.323 3.1719 141.781 3.1719C 142.521 3.1719 143.096 3.3542 143.508 3.7188C 143.919 4.08333 144.135 4.58333 144.156 5.2188L 144.156 8.1406C 144.156 8.72393 144.229 9.18747 144.375 9.5312L 144.375 9.625L 143.234 9.625ZM 141.438 8.7969C 141.781 8.7969 142.104 8.70833 142.406 8.5312C 142.708 8.35413 142.927 8.125 143.062 7.8438L 143.062 6.5469L 142.219 6.5469C 140.885 6.5469 140.219 6.93753 140.219 7.7188C 140.219 8.05213 140.333 8.31513 140.562 8.5078C 140.792 8.70053 141.083 8.7969 141.438 8.7969ZM 146.965 3.2812L 146.965 10.3594C 146.965 11.5781 146.413 12.1875 145.309 12.1875C 145.069 12.1875 144.85 12.151 144.652 12.0781L 144.652 11.2188C 144.777 11.25 144.939 11.2656 145.137 11.2656C 145.376 11.2656 145.561 11.2005 145.691 11.0703C 145.822 10.9401 145.887 10.7083 145.887 10.375L 145.887 3.2812L 146.965 3.2812ZM 145.777 1.6094C 145.777 1.43233 145.829 1.28127 145.934 1.1562C 146.038 1.03127 146.194 0.9688 146.402 0.9688C 146.611 0.9688 146.77 1.03127 146.879 1.1562C 146.988 1.28127 147.043 1.42973 147.043 1.6016C 147.043 1.77347 146.988 1.9193 146.879 2.0391C 146.77 2.1589 146.611 2.2188 146.402 2.2188C 146.194 2.2188 146.038 2.1589 145.934 2.0391C 145.829 1.9193 145.777 1.77607 145.777 1.6094ZM 151.346 9.75C 150.481 9.75 149.781 9.46613 149.244 8.8984C 148.708 8.33073 148.439 7.57293 148.439 6.625L 148.439 6.4375C 148.439 5.8021 148.559 5.237 148.799 4.7422C 149.038 4.2474 149.374 3.86197 149.807 3.5859C 150.239 3.3099 150.705 3.1719 151.205 3.1719C 152.028 3.1719 152.669 3.44273 153.127 3.9844C 153.585 4.52607 153.814 5.3021 153.814 6.3125L 153.814 6.7656L 149.518 6.7656C 149.538 7.3906 149.723 7.8958 150.072 8.2812C 150.421 8.66667 150.867 8.8594 151.408 8.8594C 151.783 8.8594 152.103 8.78127 152.369 8.625C 152.635 8.46873 152.872 8.2604 153.08 8L 153.736 8.5156C 153.205 9.33853 152.408 9.75 151.346 9.75ZM 151.205 4.0625C 150.768 4.0625 150.4 4.22137 150.104 4.5391C 149.807 4.85677 149.627 5.30207 149.564 5.875L 152.736 5.875L 152.736 5.7969C 152.705 5.24483 152.557 4.81773 152.291 4.5156C 152.025 4.21353 151.663 4.0625 151.205 4.0625ZM 157.609 8.8594C 157.995 8.8594 158.333 8.7422 158.625 8.5078C 158.917 8.2734 159.078 7.97913 159.109 7.625L 160.141 7.625C 160.12 7.9896 159.992 8.33597 159.758 8.6641C 159.523 8.99217 159.216 9.25517 158.836 9.4531C 158.456 9.65103 158.047 9.75 157.609 9.75C 156.745 9.75 156.06 9.46093 155.555 8.8828C 155.05 8.30467 154.797 7.5156 154.797 6.5156L 154.797 6.3281C 154.797 5.7135 154.909 5.16663 155.133 4.6875C 155.357 4.20837 155.68 3.83597 156.102 3.5703C 156.523 3.3047 157.026 3.1719 157.609 3.1719C 158.318 3.1719 158.909 3.38283 159.383 3.8047C 159.857 4.22657 160.109 4.78127 160.141 5.4688L 159.109 5.4688C 159.078 5.05213 158.922 4.71357 158.641 4.4531C 158.359 4.1927 158.016 4.0625 157.609 4.0625C 157.057 4.0625 156.63 4.2604 156.328 4.6562C 156.026 5.05207 155.875 5.625 155.875 6.375L 155.875 6.5781C 155.875 7.3073 156.026 7.8698 156.328 8.2656C 156.63 8.66147 157.057 8.8594 157.609 8.8594ZM 162.828 1.75L 162.828 3.2812L 164 3.2812L 164 4.125L 162.828 4.125L 162.828 8.0469C 162.828 8.3073 162.88 8.5 162.984 8.625C 163.089 8.75 163.266 8.8125 163.516 8.8125C 163.641 8.8125 163.812 8.79167 164.031 8.75L 164.031 9.625C 163.75 9.70833 163.474 9.75 163.203 9.75C 162.724 9.75 162.359 9.60157 162.109 9.3047C 161.859 9.00783 161.734 8.58857 161.734 8.0469L 161.734 4.125L 160.578 4.125L 160.578 3.2812L 161.734 3.2812L 161.734 1.75L 162.828 1.75ZM 164.982 6.3906C 164.982 5.77607 165.105 5.2188 165.35 4.7188C 165.594 4.2188 165.936 3.83597 166.373 3.5703C 166.811 3.3047 167.305 3.1719 167.857 3.1719C 168.722 3.1719 169.423 3.46877 169.959 4.0625C 170.495 4.65623 170.764 5.4531 170.764 6.4531L 170.764 6.5312C 170.764 7.1458 170.644 7.6979 170.404 8.1875C 170.165 8.6771 169.826 9.0599 169.389 9.3359C 168.951 9.61197 168.446 9.75 167.873 9.75C 167.019 9.75 166.324 9.45053 165.787 8.8516C 165.251 8.2526 164.982 7.45833 164.982 6.4688L 164.982 6.3906ZM 166.076 6.5312C 166.076 7.22913 166.24 7.79167 166.568 8.2188C 166.896 8.64587 167.331 8.8594 167.873 8.8594C 168.425 8.8594 168.863 8.64323 169.186 8.2109C 169.508 7.77863 169.67 7.17187 169.67 6.3906C 169.67 5.70313 169.506 5.14323 169.178 4.7109C 168.85 4.27863 168.409 4.0625 167.857 4.0625C 167.326 4.0625 166.896 4.27343 166.568 4.6953C 166.24 5.11717 166.076 5.72913 166.076 6.5312ZM 175.186 4.25C 175.019 4.2292 174.842 4.2188 174.654 4.2188C 173.936 4.2188 173.451 4.52087 173.201 5.125L 173.201 9.625L 172.123 9.625L 172.123 3.2812L 173.17 3.2812L 173.186 4.0156C 173.54 3.45313 174.045 3.1719 174.701 3.1719C 174.91 3.1719 175.071 3.19793 175.186 3.25L 175.186 4.25ZM 177.355 9.625L 176.277 9.625L 176.277 3.2812L 177.355 3.2812L 177.355 9.625ZM 176.184 1.6094C 176.184 1.43233 176.238 1.28127 176.348 1.1562C 176.457 1.03127 176.616 0.9688 176.824 0.9688C 177.033 0.9688 177.191 1.03127 177.301 1.1562C 177.41 1.28127 177.465 1.42973 177.465 1.6016C 177.465 1.77347 177.41 1.9193 177.301 2.0391C 177.191 2.1589 177.033 2.2188 176.824 2.2188C 176.616 2.2188 176.457 2.1589 176.348 2.0391C 176.238 1.9193 176.184 1.77607 176.184 1.6094ZM 181.721 9.75C 180.856 9.75 180.156 9.46613 179.619 8.8984C 179.083 8.33073 178.814 7.57293 178.814 6.625L 178.814 6.4375C 178.814 5.8021 178.934 5.237 179.174 4.7422C 179.413 4.2474 179.749 3.86197 180.182 3.5859C 180.614 3.3099 181.08 3.1719 181.58 3.1719C 182.403 3.1719 183.044 3.44273 183.502 3.9844C 183.96 4.52607 184.189 5.3021 184.189 6.3125L 184.189 6.7656L 179.893 6.7656C 179.913 7.3906 180.098 7.8958 180.447 8.2812C 180.796 8.66667 181.242 8.8594 181.783 8.8594C 182.158 8.8594 182.478 8.78127 182.744 8.625C 183.01 8.46873 183.247 8.2604 183.455 8L 184.111 8.5156C 183.58 9.33853 182.783 9.75 181.721 9.75ZM 181.58 4.0625C 181.143 4.0625 180.775 4.22137 180.479 4.5391C 180.182 4.85677 180.002 5.30207 179.939 5.875L 183.111 5.875L 183.111 5.7969C 183.08 5.24483 182.932 4.81773 182.666 4.5156C 182.4 4.21353 182.038 4.0625 181.58 4.0625ZM 189.141 7.9375C 189.141 7.64583 189.029 7.41927 188.805 7.2578C 188.581 7.09633 188.195 6.95833 187.648 6.8438C 187.102 6.7292 186.667 6.58857 186.344 6.4219C 186.021 6.25523 185.784 6.0599 185.633 5.8359C 185.482 5.61197 185.406 5.34373 185.406 5.0312C 185.406 4.5104 185.625 4.0703 186.062 3.7109C 186.5 3.35157 187.063 3.1719 187.75 3.1719C 188.469 3.1719 189.049 3.3568 189.492 3.7266C 189.935 4.09633 190.156 4.56767 190.156 5.1406L 189.078 5.1406C 189.078 4.84893 188.95 4.59633 188.695 4.3828C 188.44 4.16927 188.125 4.0625 187.75 4.0625C 187.354 4.0625 187.044 4.14843 186.82 4.3203C 186.596 4.49217 186.484 4.71353 186.484 4.9844C 186.484 5.2448 186.589 5.4427 186.797 5.5781C 187.005 5.7135 187.38 5.8411 187.922 5.9609C 188.464 6.0807 188.901 6.22393 189.234 6.3906C 189.568 6.55727 189.815 6.7604 189.977 7C 190.138 7.2396 190.219 7.52607 190.219 7.8594C 190.219 8.43233 189.992 8.89067 189.539 9.2344C 189.086 9.57813 188.5 9.75 187.781 9.75C 187.271 9.75 186.82 9.65887 186.43 9.4766C 186.039 9.29427 185.734 9.04167 185.516 8.7188C 185.297 8.39587 185.188 8.0469 185.188 7.6719L 186.266 7.6719C 186.286 8.0365 186.432 8.32557 186.703 8.5391C 186.974 8.75263 187.333 8.8594 187.781 8.8594C 188.187 8.8594 188.516 8.77607 188.766 8.6094C 189.016 8.44273 189.141 8.21877 189.141 7.9375ZM 191.594 6.1562C 191.594 5.28127 191.711 4.43753 191.945 3.625C 192.18 2.81247 192.531 2.07287 193 1.4062C 193.469 0.739534 193.958 0.2708 194.469 0L 194.688 0.7188C 194.115 1.15627 193.646 1.82293 193.281 2.7188C 192.917 3.6146 192.719 4.6198 192.688 5.7344L 192.672 6.2344C 192.672 7.7448 192.948 9.05207 193.5 10.1562C 193.833 10.8229 194.229 11.3437 194.688 11.7188L 194.469 12.375C 193.948 12.0937 193.448 11.6094 192.969 10.9219C 192.052 9.59897 191.594 8.0104 191.594 6.1562ZM 197.82 8.1562L 199.398 3.2812L 200.508 3.2812L 198.227 9.625L 197.398 9.625L 195.102 3.2812L 196.211 3.2812L 197.82 8.1562ZM 204.18 9.75C 203.315 9.75 202.615 9.46613 202.078 8.8984C 201.542 8.33073 201.273 7.57293 201.273 6.625L 201.273 6.4375C 201.273 5.8021 201.393 5.237 201.633 4.7422C 201.872 4.2474 202.208 3.86197 202.641 3.5859C 203.073 3.3099 203.539 3.1719 204.039 3.1719C 204.862 3.1719 205.503 3.44273 205.961 3.9844C 206.419 4.52607 206.648 5.3021 206.648 6.3125L 206.648 6.7656L 202.352 6.7656C 202.372 7.3906 202.557 7.8958 202.906 8.2812C 203.255 8.66667 203.701 8.8594 204.242 8.8594C 204.617 8.8594 204.937 8.78127 205.203 8.625C 205.469 8.46873 205.706 8.2604 205.914 8L 206.57 8.5156C 206.039 9.33853 205.242 9.75 204.18 9.75ZM 204.039 4.0625C 203.602 4.0625 203.234 4.22137 202.938 4.5391C 202.641 4.85677 202.461 5.30207 202.398 5.875L 205.57 5.875L 205.57 5.7969C 205.539 5.24483 205.391 4.81773 205.125 4.5156C 204.859 4.21353 204.497 4.0625 204.039 4.0625ZM 209.084 9.625L 208.006 9.625L 208.006 0.625L 209.084 0.625L 209.084 9.625ZM 210.527 6.3906C 210.527 5.77607 210.65 5.2188 210.895 4.7188C 211.139 4.2188 211.48 3.83597 211.918 3.5703C 212.355 3.3047 212.85 3.1719 213.402 3.1719C 214.267 3.1719 214.967 3.46877 215.504 4.0625C 216.04 4.65623 216.309 5.4531 216.309 6.4531L 216.309 6.5312C 216.309 7.1458 216.189 7.6979 215.949 8.1875C 215.71 8.6771 215.371 9.0599 214.934 9.3359C 214.496 9.61197 213.991 9.75 213.418 9.75C 212.564 9.75 211.868 9.45053 211.332 8.8516C 210.796 8.2526 210.527 7.45833 210.527 6.4688L 210.527 6.3906ZM 211.621 6.5312C 211.621 7.22913 211.785 7.79167 212.113 8.2188C 212.441 8.64587 212.876 8.8594 213.418 8.8594C 213.97 8.8594 214.408 8.64323 214.73 8.2109C 215.053 7.77863 215.215 7.17187 215.215 6.3906C 215.215 5.70313 215.051 5.14323 214.723 4.7109C 214.395 4.27863 213.954 4.0625 213.402 4.0625C 212.871 4.0625 212.441 4.27343 212.113 4.6953C 211.785 5.11717 211.621 5.72913 211.621 6.5312ZM 220.199 8.8594C 220.585 8.8594 220.923 8.7422 221.215 8.5078C 221.506 8.2734 221.668 7.97913 221.699 7.625L 222.73 7.625C 222.71 7.9896 222.582 8.33597 222.348 8.6641C 222.113 8.99217 221.806 9.25517 221.426 9.4531C 221.046 9.65103 220.637 9.75 220.199 9.75C 219.335 9.75 218.65 9.46093 218.145 8.8828C 217.639 8.30467 217.387 7.5156 217.387 6.5156L 217.387 6.3281C 217.387 5.7135 217.499 5.16663 217.723 4.6875C 217.947 4.20837 218.27 3.83597 218.691 3.5703C 219.113 3.3047 219.616 3.1719 220.199 3.1719C 220.908 3.1719 221.499 3.38283 221.973 3.8047C 222.447 4.22657 222.699 4.78127 222.73 5.4688L 221.699 5.4688C 221.668 5.05213 221.512 4.71357 221.23 4.4531C 220.949 4.1927 220.605 4.0625 220.199 4.0625C 219.647 4.0625 219.22 4.2604 218.918 4.6562C 218.616 5.05207 218.465 5.625 218.465 6.375L 218.465 6.5781C 218.465 7.3073 218.616 7.8698 218.918 8.2656C 219.22 8.66147 219.647 8.8594 220.199 8.8594ZM 225.121 9.625L 224.043 9.625L 224.043 3.2812L 225.121 3.2812L 225.121 9.625ZM 223.949 1.6094C 223.949 1.43233 224.004 1.28127 224.113 1.1562C 224.223 1.03127 224.381 0.9688 224.59 0.9688C 224.798 0.9688 224.957 1.03127 225.066 1.1562C 225.176 1.28127 225.23 1.42973 225.23 1.6016C 225.23 1.77347 225.176 1.9193 225.066 2.0391C 224.957 2.1589 224.798 2.2188 224.59 2.2188C 224.381 2.2188 224.223 2.1589 224.113 2.0391C 224.004 1.9193 223.949 1.77607 223.949 1.6094ZM 228.33 1.75L 228.33 3.2812L 229.502 3.2812L 229.502 4.125L 228.33 4.125L 228.33 8.0469C 228.33 8.3073 228.382 8.5 228.486 8.625C 228.59 8.75 228.768 8.8125 229.018 8.8125C 229.143 8.8125 229.314 8.79167 229.533 8.75L 229.533 9.625C 229.252 9.70833 228.976 9.75 228.705 9.75C 228.226 9.75 227.861 9.60157 227.611 9.3047C 227.361 9.00783 227.236 8.58857 227.236 8.0469L 227.236 4.125L 226.08 4.125L 226.08 3.2812L 227.236 3.2812L 227.236 1.75L 228.33 1.75ZM 231.953 9.625L 230.875 9.625L 230.875 3.2812L 231.953 3.2812L 231.953 9.625ZM 230.781 1.6094C 230.781 1.43233 230.836 1.28127 230.945 1.1562C 231.055 1.03127 231.214 0.9688 231.422 0.9688C 231.63 0.9688 231.789 1.03127 231.898 1.1562C 232.008 1.28127 232.062 1.42973 232.062 1.6016C 232.062 1.77347 232.008 1.9193 231.898 2.0391C 231.789 2.1589 231.63 2.2188 231.422 2.2188C 231.214 2.2188 231.055 2.1589 230.945 2.0391C 230.836 1.9193 230.781 1.77607 230.781 1.6094ZM 236.318 9.75C 235.454 9.75 234.753 9.46613 234.217 8.8984C 233.68 8.33073 233.412 7.57293 233.412 6.625L 233.412 6.4375C 233.412 5.8021 233.532 5.237 233.771 4.7422C 234.011 4.2474 234.347 3.86197 234.779 3.5859C 235.212 3.3099 235.678 3.1719 236.178 3.1719C 237.001 3.1719 237.641 3.44273 238.1 3.9844C 238.558 4.52607 238.787 5.3021 238.787 6.3125L 238.787 6.7656L 234.49 6.7656C 234.511 7.3906 234.696 7.8958 235.045 8.2812C 235.394 8.66667 235.839 8.8594 236.381 8.8594C 236.756 8.8594 237.076 8.78127 237.342 8.625C 237.607 8.46873 237.844 8.2604 238.053 8L 238.709 8.5156C 238.178 9.33853 237.381 9.75 236.318 9.75ZM 236.178 4.0625C 235.74 4.0625 235.373 4.22137 235.076 4.5391C 234.779 4.85677 234.6 5.30207 234.537 5.875L 237.709 5.875L 237.709 5.7969C 237.678 5.24483 237.529 4.81773 237.264 4.5156C 236.998 4.21353 236.636 4.0625 236.178 4.0625ZM 243.738 7.9375C 243.738 7.64583 243.626 7.41927 243.402 7.2578C 243.178 7.09633 242.793 6.95833 242.246 6.8438C 241.699 6.7292 241.264 6.58857 240.941 6.4219C 240.618 6.25523 240.381 6.0599 240.23 5.8359C 240.079 5.61197 240.004 5.34373 240.004 5.0312C 240.004 4.5104 240.223 4.0703 240.66 3.7109C 241.098 3.35157 241.66 3.1719 242.348 3.1719C 243.066 3.1719 243.647 3.3568 244.09 3.7266C 244.533 4.09633 244.754 4.56767 244.754 5.1406L 243.676 5.1406C 243.676 4.84893 243.548 4.59633 243.293 4.3828C 243.038 4.16927 242.723 4.0625 242.348 4.0625C 241.952 4.0625 241.642 4.14843 241.418 4.3203C 241.194 4.49217 241.082 4.71353 241.082 4.9844C 241.082 5.2448 241.186 5.4427 241.395 5.5781C 241.603 5.7135 241.978 5.8411 242.52 5.9609C 243.061 6.0807 243.499 6.22393 243.832 6.3906C 244.165 6.55727 244.413 6.7604 244.574 7C 244.736 7.2396 244.816 7.52607 244.816 7.8594C 244.816 8.43233 244.59 8.89067 244.137 9.2344C 243.684 9.57813 243.098 9.75 242.379 9.75C 241.869 9.75 241.418 9.65887 241.027 9.4766C 240.637 9.29427 240.332 9.04167 240.113 8.7188C 239.895 8.39587 239.785 8.0469 239.785 7.6719L 240.863 7.6719C 240.884 8.0365 241.03 8.32557 241.301 8.5391C 241.572 8.75263 241.931 8.8594 242.379 8.8594C 242.785 8.8594 243.113 8.77607 243.363 8.6094C 243.613 8.44273 243.738 8.21877 243.738 7.9375ZM 248.738 6.2188C 248.738 7.09373 248.624 7.92967 248.395 8.7266C 248.165 9.52347 247.814 10.2604 247.34 10.9375C 246.866 11.6146 246.374 12.0937 245.863 12.375L 245.629 11.7188C 246.233 11.2604 246.717 10.5442 247.082 9.5703C 247.447 8.59637 247.634 7.52087 247.645 6.3438L 247.645 6.1562C 247.645 5.33333 247.559 4.56773 247.387 3.8594C 247.215 3.15107 246.975 2.51823 246.668 1.9609C 246.361 1.40363 246.014 0.968734 245.629 0.6562L 245.863 0C 246.374 0.281267 246.863 0.755233 247.332 1.4219C 247.801 2.08857 248.152 2.82553 248.387 3.6328C 248.621 4.44013 248.738 5.30213 248.738 6.2188Z"/>
<path id="path27_stroke" d="M 0 -0.500002L -0.5 -0.500002L -0.5 0.499998L 0 0.499998L 0 -0.500002ZM 60 0.499998L 60.5 0.499998L 60.5 -0.500002L 60 -0.500002L 60 0.499998ZM 0 0.499998L 60 0.499998L 60 -0.500002L 0 -0.500002L 0 0.499998Z"/>
<path id="path28_stroke" d="M 38.8417 0.499998L 39.3417 0.499998L 39.3417 -0.500002L 38.8417 -0.500002L 38.8417 0.499998ZM -5.32227e-06 -0.500002L -0.500005 -0.500002L -0.500005 0.499998L -5.32227e-06 0.499998L -5.32227e-06 -0.500002ZM 38.8417 -0.500002L -5.32227e-06 -0.500002L -5.32227e-06 0.499998L 38.8417 0.499998L 38.8417 -0.500002Z"/>
<path id="path29_fill" d="M 10 -2.39258e-06L 0 -2.39258e-06L 0 25L 10 25L 10 -2.39258e-06Z"/>
<path id="path30_stroke" d="M 0 -2.39258e-06L 0 -0.500002L -0.5 -0.500002L -0.5 -2.39258e-06L 0 -2.39258e-06ZM 10 -2.39258e-06L 10.5 -2.39258e-06L 10.5 -0.500002L 10 -0.500002L 10 -2.39258e-06ZM 10 25L 10 25.5L 10.5 25.5L 10.5 25L 10 25ZM 0 25L -0.5 25L -0.5 25.5L 0 25.5L 0 25ZM 0 0.499998L 10 0.499998L 10 -0.500002L 0 -0.500002L 0 0.499998ZM 9.5 -2.39258e-06L 9.5 25L 10.5 25L 10.5 -2.39258e-06L 9.5 -2.39258e-06ZM 10 24.5L 0 24.5L 0 25.5L 10 25.5L 10 24.5ZM 0.5 25L 0.5 -2.39258e-06L -0.5 -2.39258e-06L -0.5 25L 0.5 25Z"/>
<path id="path31_fill" d="M 3.2656 9.625L 2.1875 9.625L 2.1875 2.4062L 0 3.2031L 0 2.2188L 3.1094 1.0469L 3.2656 1.0469L 3.2656 9.625ZM 6.582 9.0625C 6.582 8.87497 6.6367 8.71873 6.7461 8.5938C 6.8555 8.46873 7.02217 8.4062 7.2461 8.4062C 7.47003 8.4062 7.6393 8.46873 7.7539 8.5938C 7.8685 8.71873 7.9258 8.87497 7.9258 9.0625C 7.9258 9.23957 7.8685 9.388 7.7539 9.5078C 7.6393 9.6276 7.47003 9.6875 7.2461 9.6875C 7.02217 9.6875 6.8555 9.6276 6.7461 9.5078C 6.6367 9.388 6.582 9.23957 6.582 9.0625ZM 13.1621 9.625L 12.084 9.625L 12.084 2.4062L 9.8965 3.2031L 9.8965 2.2188L 13.0059 1.0469L 13.1621 1.0469L 13.1621 9.625ZM 16.4785 9.0625C 16.4785 8.87497 16.5332 8.71873 16.6426 8.5938C 16.7519 8.46873 16.9186 8.4062 17.1426 8.4062C 17.3665 8.4062 17.5358 8.46873 17.6504 8.5938C 17.765 8.71873 17.8223 8.87497 17.8223 9.0625C 17.8223 9.23957 17.765 9.388 17.6504 9.5078C 17.5358 9.6276 17.3665 9.6875 17.1426 9.6875C 16.9186 9.6875 16.7519 9.6276 16.6426 9.5078C 16.5332 9.388 16.4785 9.23957 16.4785 9.0625ZM 23.0586 9.625L 21.9805 9.625L 21.9805 2.4062L 19.793 3.2031L 19.793 2.2188L 22.9023 1.0469L 23.0586 1.0469L 23.0586 9.625ZM 26.375 9.0625C 26.375 8.87497 26.4297 8.71873 26.5391 8.5938C 26.6484 8.46873 26.8151 8.4062 27.0391 8.4062C 27.263 8.4062 27.4323 8.46873 27.5469 8.5938C 27.6615 8.71873 27.7188 8.87497 27.7188 9.0625C 27.7188 9.23957 27.6615 9.388 27.5469 9.5078C 27.4323 9.6276 27.263 9.6875 27.0391 9.6875C 26.8151 9.6875 26.6484 9.6276 26.5391 9.5078C 26.4297 9.388 26.375 9.23957 26.375 9.0625ZM 26.375 3.2812C 26.375 3.09373 26.4297 2.9375 26.5391 2.8125C 26.6484 2.6875 26.8151 2.625 27.0391 2.625C 27.263 2.625 27.4323 2.6875 27.5469 2.8125C 27.6615 2.9375 27.7188 3.09373 27.7188 3.2812C 27.7188 3.45833 27.6615 3.6068 27.5469 3.7266C 27.4323 3.84633 27.263 3.9062 27.0391 3.9062C 26.8151 3.9062 26.6484 3.84633 26.5391 3.7266C 26.4297 3.6068 26.375 3.45833 26.375 3.2812ZM 36.1426 9C 35.7259 9.5 35.1061 9.75 34.2832 9.75C 33.6061 9.75 33.0905 9.55207 32.7363 9.1562C 32.3822 8.7604 32.2051 8.17707 32.2051 7.4062L 32.2051 3.2812L 33.2832 3.2812L 33.2832 7.375C 33.2832 8.34373 33.6738 8.8281 34.4551 8.8281C 35.2884 8.8281 35.8405 8.5156 36.1113 7.8906L 36.1113 3.2812L 37.2051 3.2812L 37.2051 9.625L 36.1738 9.625L 36.1426 9ZM 44.1953 6.5312C 44.1953 7.4896 43.9766 8.26567 43.5391 8.8594C 43.1016 9.45313 42.5026 9.75 41.7422 9.75C 40.9713 9.75 40.3672 9.5052 39.9297 9.0156L 39.9297 12.0625L 38.8516 12.0625L 38.8516 3.2812L 39.8359 3.2812L 39.8828 3.9844C 40.3307 3.44273 40.9453 3.1719 41.7266 3.1719C 42.487 3.1719 43.0885 3.45833 43.5312 4.0312C 43.9739 4.60413 44.1953 5.40103 44.1953 6.4219L 44.1953 6.5312ZM 43.1172 6.4062C 43.1172 5.68747 42.9635 5.12237 42.6562 4.7109C 42.3489 4.2995 41.9297 4.0938 41.3984 4.0938C 40.7422 4.0938 40.2526 4.38023 39.9297 4.9531L 39.9297 7.9844C 40.2526 8.56773 40.7474 8.8594 41.4141 8.8594C 41.9349 8.8594 42.3489 8.65367 42.6562 8.2422C 42.9635 7.83073 43.1172 7.21873 43.1172 6.4062ZM 45.3184 6.4062C 45.3184 5.42707 45.5476 4.64323 46.0059 4.0547C 46.4642 3.46617 47.0684 3.1719 47.8184 3.1719C 48.5579 3.1719 49.1465 3.4219 49.584 3.9219L 49.584 0.625L 50.6621 0.625L 50.6621 9.625L 49.6621 9.625L 49.6152 8.9375C 49.1777 9.47917 48.5736 9.75 47.8027 9.75C 47.0736 9.75 46.4772 9.44793 46.0137 8.8438C 45.5502 8.2396 45.3184 7.45313 45.3184 6.4844L 45.3184 6.4062ZM 46.3965 6.5312C 46.3965 7.25 46.5449 7.81253 46.8418 8.2188C 47.1387 8.625 47.5475 8.8281 48.0684 8.8281C 48.7559 8.8281 49.2611 8.5156 49.584 7.8906L 49.584 4.9844C 49.2611 4.39067 48.7611 4.0938 48.084 4.0938C 47.5527 4.0938 47.1387 4.2969 46.8418 4.7031C 46.5449 5.10937 46.3965 5.71873 46.3965 6.5312ZM 56.2578 9.625C 56.1953 9.5 56.1433 9.27603 56.1016 8.9531C 55.6016 9.48437 55.0026 9.75 54.3047 9.75C 53.6797 9.75 53.1667 9.57293 52.7656 9.2188C 52.3646 8.8646 52.1641 8.41147 52.1641 7.8594C 52.1641 7.20313 52.4141 6.6927 52.9141 6.3281C 53.4141 5.9635 54.1224 5.7812 55.0391 5.7812L 56.0859 5.7812L 56.0859 5.2812C 56.0859 4.90627 55.9739 4.6068 55.75 4.3828C 55.5261 4.15887 55.1901 4.0469 54.7422 4.0469C 54.3568 4.0469 54.0339 4.14323 53.7734 4.3359C 53.513 4.52863 53.3828 4.76563 53.3828 5.0469L 52.2891 5.0469C 52.2891 4.72397 52.4011 4.41667 52.625 4.125C 52.8489 3.83333 53.1536 3.60157 53.5391 3.4297C 53.9245 3.25783 54.3464 3.1719 54.8047 3.1719C 55.5443 3.1719 56.1198 3.3542 56.5312 3.7188C 56.9427 4.08333 57.1588 4.58333 57.1797 5.2188L 57.1797 8.1406C 57.1797 8.72393 57.2526 9.18747 57.3984 9.5312L 57.3984 9.625L 56.2578 9.625ZM 54.4609 8.7969C 54.8047 8.7969 55.1276 8.70833 55.4297 8.5312C 55.7318 8.35413 55.9505 8.125 56.0859 7.8438L 56.0859 6.5469L 55.2422 6.5469C 53.9089 6.5469 53.2422 6.93753 53.2422 7.7188C 53.2422 8.05213 53.3568 8.31513 53.5859 8.5078C 53.8151 8.70053 54.1068 8.7969 54.4609 8.7969ZM 60.3477 1.75L 60.3477 3.2812L 61.5195 3.2812L 61.5195 4.125L 60.3477 4.125L 60.3477 8.0469C 60.3477 8.3073 60.3998 8.5 60.5039 8.625C 60.6081 8.75 60.7852 8.8125 61.0352 8.8125C 61.1602 8.8125 61.3321 8.79167 61.5508 8.75L 61.5508 9.625C 61.2695 9.70833 60.9935 9.75 60.7227 9.75C 60.2435 9.75 59.8789 9.60157 59.6289 9.3047C 59.3789 9.00783 59.2539 8.58857 59.2539 8.0469L 59.2539 4.125L 58.0977 4.125L 58.0977 3.2812L 59.2539 3.2812L 59.2539 1.75L 60.3477 1.75ZM 65.4238 9.75C 64.5593 9.75 63.8588 9.46613 63.3223 8.8984C 62.7858 8.33073 62.5176 7.57293 62.5176 6.625L 62.5176 6.4375C 62.5176 5.8021 62.6374 5.237 62.877 4.7422C 63.1165 4.2474 63.4525 3.86197 63.8848 3.5859C 64.3171 3.3099 64.7832 3.1719 65.2832 3.1719C 66.1061 3.1719 66.7468 3.44273 67.2051 3.9844C 67.6634 4.52607 67.8926 5.3021 67.8926 6.3125L 67.8926 6.7656L 63.5957 6.7656C 63.6166 7.3906 63.8015 7.8958 64.1504 8.2812C 64.4993 8.66667 64.9446 8.8594 65.4863 8.8594C 65.8613 8.8594 66.1816 8.78127 66.4473 8.625C 66.7129 8.46873 66.9499 8.2604 67.1582 8L 67.8145 8.5156C 67.2832 9.33853 66.4863 9.75 65.4238 9.75ZM 65.2832 4.0625C 64.8457 4.0625 64.4785 4.22137 64.1816 4.5391C 63.8847 4.85677 63.7051 5.30207 63.6426 5.875L 66.8145 5.875L 66.8145 5.7969C 66.7832 5.24483 66.6348 4.81773 66.3691 4.5156C 66.1035 4.21353 65.7415 4.0625 65.2832 4.0625ZM 69.1094 6.1562C 69.1094 5.28127 69.2266 4.43753 69.4609 3.625C 69.6953 2.81247 70.0469 2.07287 70.5156 1.4062C 70.9844 0.739534 71.474 0.2708 71.9844 0L 72.2031 0.7188C 71.6302 1.15627 71.1615 1.82293 70.7969 2.7188C 70.4323 3.6146 70.2344 4.6198 70.2031 5.7344L 70.1875 6.2344C 70.1875 7.7448 70.4635 9.05207 71.0156 10.1562C 71.3489 10.8229 71.7448 11.3437 72.2031 11.7188L 71.9844 12.375C 71.4635 12.0937 70.9635 11.6094 70.4844 10.9219C 69.5677 9.59897 69.1094 8.0104 69.1094 6.1562ZM 74.3359 4.0469C 74.8151 3.46357 75.4401 3.1719 76.2109 3.1719C 77.5547 3.1719 78.2318 3.9271 78.2422 5.4375L 78.2422 9.625L 77.1484 9.625L 77.1484 5.4219C 77.1484 4.97397 77.0469 4.64063 76.8438 4.4219C 76.6407 4.20317 76.3203 4.0938 75.8828 4.0938C 75.5287 4.0938 75.2188 4.18753 74.9531 4.375C 74.6875 4.56247 74.4818 4.80727 74.3359 5.1094L 74.3359 9.625L 73.2578 9.625L 73.2578 0.625L 74.3359 0.625L 74.3359 4.0469ZM 83.7734 9C 83.3567 9.5 82.737 9.75 81.9141 9.75C 81.237 9.75 80.7213 9.55207 80.3672 9.1562C 80.013 8.7604 79.8359 8.17707 79.8359 7.4062L 79.8359 3.2812L 80.9141 3.2812L 80.9141 7.375C 80.9141 8.34373 81.3047 8.8281 82.0859 8.8281C 82.9192 8.8281 83.4713 8.5156 83.7422 7.8906L 83.7422 3.2812L 84.8359 3.2812L 84.8359 9.625L 83.8047 9.625L 83.7734 9ZM 87.498 3.2812L 87.5293 3.9844C 87.9876 3.44273 88.6126 3.1719 89.4043 3.1719C 90.2897 3.1719 90.8939 3.51043 91.2168 4.1875C 91.4251 3.88543 91.6986 3.64063 92.0371 3.4531C 92.3756 3.26563 92.7741 3.1719 93.2324 3.1719C 94.6283 3.1719 95.3366 3.90627 95.3574 5.375L 95.3574 9.625L 94.2793 9.625L 94.2793 5.4375C 94.2793 4.98957 94.1751 4.65363 93.9668 4.4297C 93.7585 4.20577 93.4095 4.0938 92.9199 4.0938C 92.5136 4.0938 92.1777 4.21357 91.9121 4.4531C 91.6465 4.6927 91.4929 5.01563 91.4512 5.4219L 91.4512 9.625L 90.373 9.625L 90.373 5.4688C 90.373 4.55213 89.9199 4.0938 89.0137 4.0938C 88.3054 4.0938 87.821 4.39587 87.5605 5L 87.5605 9.625L 86.4668 9.625L 86.4668 3.2812L 87.498 3.2812ZM 100.906 9.625C 100.844 9.5 100.792 9.27603 100.75 8.9531C 100.25 9.48437 99.651 9.75 98.9531 9.75C 98.3281 9.75 97.8151 9.57293 97.4141 9.2188C 97.013 8.8646 96.8125 8.41147 96.8125 7.8594C 96.8125 7.20313 97.0625 6.6927 97.5625 6.3281C 98.0625 5.9635 98.7708 5.7812 99.6875 5.7812L 100.734 5.7812L 100.734 5.2812C 100.734 4.90627 100.622 4.6068 100.398 4.3828C 100.174 4.15887 99.8385 4.0469 99.3906 4.0469C 99.0052 4.0469 98.6823 4.14323 98.4219 4.3359C 98.1614 4.52863 98.0312 4.76563 98.0312 5.0469L 96.9375 5.0469C 96.9375 4.72397 97.0495 4.41667 97.2734 4.125C 97.4974 3.83333 97.8021 3.60157 98.1875 3.4297C 98.5729 3.25783 98.9948 3.1719 99.4531 3.1719C 100.193 3.1719 100.768 3.3542 101.18 3.7188C 101.591 4.08333 101.807 4.58333 101.828 5.2188L 101.828 8.1406C 101.828 8.72393 101.901 9.18747 102.047 9.5312L 102.047 9.625L 100.906 9.625ZM 99.1094 8.7969C 99.4531 8.7969 99.776 8.70833 100.078 8.5312C 100.38 8.35413 100.599 8.125 100.734 7.8438L 100.734 6.5469L 99.8906 6.5469C 98.5573 6.5469 97.8906 6.93753 97.8906 7.7188C 97.8906 8.05213 98.0052 8.31513 98.2344 8.5078C 98.4635 8.70053 98.7552 8.7969 99.1094 8.7969ZM 104.543 3.2812L 104.574 4.0781C 105.064 3.47397 105.699 3.1719 106.48 3.1719C 107.824 3.1719 108.501 3.9271 108.512 5.4375L 108.512 9.625L 107.418 9.625L 107.418 5.4219C 107.418 4.97397 107.316 4.64063 107.113 4.4219C 106.91 4.20317 106.59 4.0938 106.152 4.0938C 105.798 4.0938 105.488 4.18753 105.223 4.375C 104.957 4.56247 104.751 4.80727 104.605 5.1094L 104.605 9.625L 103.527 9.625L 103.527 3.2812L 104.543 3.2812ZM 109.852 6.3906C 109.852 5.77607 109.974 5.2188 110.219 4.7188C 110.464 4.2188 110.805 3.83597 111.242 3.5703C 111.68 3.3047 112.174 3.1719 112.727 3.1719C 113.591 3.1719 114.292 3.46877 114.828 4.0625C 115.365 4.65623 115.633 5.4531 115.633 6.4531L 115.633 6.5312C 115.633 7.1458 115.513 7.6979 115.273 8.1875C 115.034 8.6771 114.695 9.0599 114.258 9.3359C 113.82 9.61197 113.315 9.75 112.742 9.75C 111.888 9.75 111.193 9.45053 110.656 8.8516C 110.12 8.2526 109.852 7.45833 109.852 6.4688L 109.852 6.3906ZM 110.945 6.5312C 110.945 7.22913 111.109 7.79167 111.438 8.2188C 111.766 8.64587 112.201 8.8594 112.742 8.8594C 113.294 8.8594 113.732 8.64323 114.055 8.2109C 114.378 7.77863 114.539 7.17187 114.539 6.3906C 114.539 5.70313 114.375 5.14323 114.047 4.7109C 113.719 4.27863 113.279 4.0625 112.727 4.0625C 112.195 4.0625 111.766 4.27343 111.438 4.6953C 111.109 5.11717 110.945 5.72913 110.945 6.5312ZM 118.164 9.625L 117.086 9.625L 117.086 3.2812L 118.164 3.2812L 118.164 9.625ZM 116.992 1.6094C 116.992 1.43233 117.047 1.28127 117.156 1.1562C 117.266 1.03127 117.424 0.9688 117.633 0.9688C 117.841 0.9688 118 1.03127 118.109 1.1562C 118.219 1.28127 118.273 1.42973 118.273 1.6016C 118.273 1.77347 118.219 1.9193 118.109 2.0391C 118 2.1589 117.841 2.2188 117.633 2.2188C 117.424 2.2188 117.266 2.1589 117.156 2.0391C 117.047 1.9193 116.992 1.77607 116.992 1.6094ZM 119.639 6.4062C 119.639 5.42707 119.868 4.64323 120.326 4.0547C 120.785 3.46617 121.389 3.1719 122.139 3.1719C 122.878 3.1719 123.467 3.4219 123.904 3.9219L 123.904 0.625L 124.982 0.625L 124.982 9.625L 123.982 9.625L 123.936 8.9375C 123.498 9.47917 122.894 9.75 122.123 9.75C 121.394 9.75 120.798 9.44793 120.334 8.8438C 119.87 8.2396 119.639 7.45313 119.639 6.4844L 119.639 6.4062ZM 120.717 6.5312C 120.717 7.25 120.865 7.81253 121.162 8.2188C 121.459 8.625 121.868 8.8281 122.389 8.8281C 123.076 8.8281 123.581 8.5156 123.904 7.8906L 123.904 4.9844C 123.581 4.39067 123.081 4.0938 122.404 4.0938C 121.873 4.0938 121.459 4.2969 121.162 4.7031C 120.865 5.10937 120.717 5.71873 120.717 6.5312ZM 129.172 6.2188C 129.172 7.09373 129.057 7.92967 128.828 8.7266C 128.599 9.52347 128.247 10.2604 127.773 10.9375C 127.299 11.6146 126.807 12.0937 126.297 12.375L 126.062 11.7188C 126.667 11.2604 127.151 10.5442 127.516 9.5703C 127.88 8.59637 128.068 7.52087 128.078 6.3438L 128.078 6.1562C 128.078 5.33333 127.992 4.56773 127.82 3.8594C 127.648 3.15107 127.409 2.51823 127.102 1.9609C 126.794 1.40363 126.448 0.968734 126.062 0.6562L 126.297 0C 126.807 0.281267 127.297 0.755233 127.766 1.4219C 128.234 2.08857 128.586 2.82553 128.82 3.6328C 129.055 4.44013 129.172 5.30213 129.172 6.2188Z"/>
<path id="path32_fill" d="M 1.0781 9L -2.56538e-08 9L -2.56538e-08 0L 1.0781 0L 1.0781 9ZM 2.5215 5.7656C 2.5215 5.15107 2.64387 4.5938 2.8886 4.0938C 3.1334 3.5938 3.47457 3.21097 3.9121 2.9453C 4.34957 2.6797 4.84437 2.5469 5.3965 2.5469C 6.26103 2.5469 6.96153 2.84377 7.498 3.4375C 8.03447 4.03123 8.3027 4.8281 8.3027 5.8281L 8.3027 5.9062C 8.3027 6.5208 8.1829 7.0729 7.9433 7.5625C 7.70377 8.0521 7.36523 8.4349 6.9277 8.7109C 6.49023 8.98697 5.98503 9.125 5.4121 9.125C 4.5579 9.125 3.86257 8.82553 3.3261 8.2266C 2.7897 7.6276 2.5215 6.83333 2.5215 5.8438L 2.5215 5.7656ZM 3.6152 5.9062C 3.6152 6.60413 3.77927 7.16667 4.1074 7.5938C 4.43553 8.02087 4.87043 8.2344 5.4121 8.2344C 5.96417 8.2344 6.40167 8.01823 6.7246 7.5859C 7.04753 7.15363 7.209 6.54687 7.209 5.7656C 7.209 5.07813 7.04493 4.51823 6.7168 4.0859C 6.38867 3.65363 5.94857 3.4375 5.3965 3.4375C 4.86523 3.4375 4.43553 3.64843 4.1074 4.0703C 3.77927 4.49217 3.6152 5.10413 3.6152 5.9062ZM 9.3652 5.7656C 9.3652 5.15107 9.4876 4.5938 9.7324 4.0938C 9.9772 3.5938 10.3183 3.21097 10.7558 2.9453C 11.1933 2.6797 11.6881 2.5469 12.2402 2.5469C 13.1048 2.5469 13.8053 2.84377 14.3418 3.4375C 14.8783 4.03123 15.1465 4.8281 15.1465 5.8281L 15.1465 5.9062C 15.1465 6.5208 15.0267 7.0729 14.7871 7.5625C 14.5475 8.0521 14.209 8.4349 13.7715 8.7109C 13.334 8.98697 12.8287 9.125 12.2558 9.125C 11.4017 9.125 10.7064 8.82553 10.1699 8.2266C 9.63343 7.6276 9.3652 6.83333 9.3652 5.8438L 9.3652 5.7656ZM 10.459 5.9062C 10.459 6.60413 10.623 7.16667 10.9511 7.5938C 11.2792 8.02087 11.7141 8.2344 12.2558 8.2344C 12.8079 8.2344 13.2454 8.01823 13.5683 7.5859C 13.8912 7.15363 14.0527 6.54687 14.0527 5.7656C 14.0527 5.07813 13.8886 4.51823 13.5605 4.0859C 13.2324 3.65363 12.7923 3.4375 12.2402 3.4375C 11.7089 3.4375 11.2792 3.64843 10.9511 4.0703C 10.623 4.49217 10.459 5.10413 10.459 5.9062ZM 21.8496 5.9062C 21.8496 6.8646 21.6308 7.64067 21.1933 8.2344C 20.7558 8.82813 20.1569 9.125 19.3965 9.125C 18.6256 9.125 18.0215 8.8802 17.584 8.3906L 17.584 11.4375L 16.5058 11.4375L 16.5058 2.6562L 17.4902 2.6562L 17.5371 3.3594C 17.985 2.81773 18.5996 2.5469 19.3808 2.5469C 20.1413 2.5469 20.7428 2.83333 21.1855 3.4062C 21.6282 3.97913 21.8496 4.77603 21.8496 5.7969L 21.8496 5.9062ZM 20.7715 5.7812C 20.7715 5.06247 20.6178 4.49737 20.3105 4.0859C 20.0032 3.6745 19.584 3.4688 19.0527 3.4688C 18.3964 3.4688 17.9069 3.75523 17.584 4.3281L 17.584 7.3594C 17.9069 7.94273 18.4016 8.2344 19.0683 8.2344C 19.5892 8.2344 20.0032 8.02867 20.3105 7.6172C 20.6178 7.20573 20.7715 6.59373 20.7715 5.7812Z"/>
</defs>
</svg>
